<svg xmlns="http://www.w3.org/2000/svg" xmlns:xlink="http://www.w3.org/1999/xlink" width="173" height="173.084" viewBox="0 0 173 173.084"><defs><style>.a{fill-rule:evenodd;fill:url(#a);}.b{fill:url(#b);}.c{fill:#fff;}.d{fill:#f7c29e;opacity:0.2;mix-blend-mode:multiply;isolation:isolate;}.e{fill:#f0c4c2;}.f,.g{fill:#3e82d7;}.f{opacity:0.3;}.h{fill:#f2bc9e;}.i{fill:#e87109;font-size:67px;font-family:NunitoSans-Bold, Nunito Sans;font-weight:700;}</style><linearGradient id="a" x1="0.5" y1="-0.011" x2="0.5" y2="0.84" gradientUnits="objectBoundingBox"><stop offset="0" stop-color="#2575db"/><stop offset="1" stop-color="#582994"/></linearGradient><linearGradient id="b" x1="0.345" y1="0.109" x2="0.837" y2="1.177" gradientUnits="objectBoundingBox"><stop offset="0" stop-color="#2575db"/><stop offset="0.77" stop-color="#582994"/></linearGradient></defs><g transform="translate(-1067.93 -354)"><g transform="translate(1067.93 354)"><path class="a" d="M174,87.48a86.5,86.5,0,0,1-163.31,39.827c-.243-.473-.479-.946-.716-1.419a86.6,86.6,0,0,1,3.827-83.7,84.848,84.848,0,0,1,5.433-7.835A86.491,86.491,0,0,1,173.869,82.707Q174,85.1,174,87.48Z" transform="translate(-0.999 -0.951)"/><path class="b" d="M168.744,41.827,139.452,118.6,52.33,119.843,21.57,42.188A84.85,84.85,0,0,1,27,34.353a86.486,86.486,0,0,1,141.741,7.474Z" transform="translate(-8.77 -0.956)"/></g><g transform="translate(1114.479 379.207)"><path class="c" d="M1392.892,402.235h-51.077a6.887,6.887,0,0,0-6.887,6.887V513.509a6.889,6.889,0,0,0,6.887,6.887h51.077a6.887,6.887,0,0,0,6.887-6.887V409.122A6.889,6.889,0,0,0,1392.892,402.235Z" transform="translate(-1325.299 -402.235)"/><path class="d" d="M1308.566,1099.447s-9.238,22.615-8.342,26.891,6.5,9.994,20.258,8.088a211.265,211.265,0,0,0,23.262-4.454s.575-30.521,0-32.069-25.306-12.533-26.279-12.533S1308.566,1099.447,1308.566,1099.447Z" transform="translate(-1294.283 -1011.677)"/><path class="e" d="M0,0H58.174V99.387H0Z" transform="translate(12.968 9.387)"/><path class="c" d="M.623,0H24.27a.623.623,0,0,1,.623.623v0a.623.623,0,0,1-.623.623H.623A.623.623,0,0,1,0,.623v0A.623.623,0,0,1,.623,0Z" transform="translate(29.655 5.018)"/><path class="f" d="M1614.434,1431.341a2.857,2.857,0,1,1-2.857-2.857A2.857,2.857,0,0,1,1614.434,1431.341Z" transform="translate(-1569.556 -1317.778)"/><path class="g" d="M1626.214,1446.316h-1.7a.339.339,0,0,1-.338-.338v-1.7a.339.339,0,0,1,.338-.338h1.7a.339.339,0,0,1,.339.338v1.7A.339.339,0,0,1,1626.214,1446.316Zm-1.7-2.289a.247.247,0,0,0-.246.247v1.7a.247.247,0,0,0,.246.246h1.7a.247.247,0,0,0,.246-.246v-1.7a.247.247,0,0,0-.246-.247Z" transform="translate(-1583.341 -1331.563)"/><rect class="h" width="58.174" height="5.879" transform="translate(12.968 102.896)"/><rect class="e" width="58.174" height="5.274" transform="translate(12.968 9.387)"/><text class="i" transform="translate(20.451 80.793)"><tspan x="0" y="0">#</tspan></text></g></g></svg>