<svg xmlns="http://www.w3.org/2000/svg" xmlns:xlink="http://www.w3.org/1999/xlink" width="173" height="173.084" viewBox="0 0 173 173.084"><defs><style>.a{fill-rule:evenodd;fill:url(#a);}.b{fill:url(#b);}.c{fill:#292929;}.d{fill:#fff;}.e,.m{fill:#f7c29e;}.e{opacity:0.2;}.e,.g{mix-blend-mode:multiply;isolation:isolate;}.f{fill:#f0c4c2;}.g,.i,.j{fill:#3e82d7;}.g,.i{opacity:0.3;}.h{fill:#4385d8;}.k{fill:#f2bc9e;}.l{fill:#dde2e6;}.n{fill:#f19a5e;}.o{fill:#7fbf43;}.p{fill:#e87109;}.q{fill:#050505;}</style><linearGradient id="a" x1="0.5" y1="-0.011" x2="0.5" y2="0.84" gradientUnits="objectBoundingBox"><stop offset="0" stop-color="#2575db"/><stop offset="1" stop-color="#582994"/></linearGradient><linearGradient id="b" x1="0.345" y1="0.109" x2="0.837" y2="1.177" gradientUnits="objectBoundingBox"><stop offset="0" stop-color="#2575db"/><stop offset="0.77" stop-color="#582994"/></linearGradient></defs><g transform="translate(-1067.93 -354)"><g transform="translate(1067.93 354)"><path class="a" d="M174,87.48a86.5,86.5,0,0,1-163.31,39.827c-.243-.473-.479-.946-.716-1.419a86.6,86.6,0,0,1,3.827-83.7,84.848,84.848,0,0,1,5.433-7.835A86.491,86.491,0,0,1,173.869,82.707Q174,85.1,174,87.48Z" transform="translate(-0.999 -0.951)"/><path class="b" d="M168.744,41.827,139.452,118.6,52.33,119.843,21.57,42.188A84.85,84.85,0,0,1,27,34.353a86.486,86.486,0,0,1,141.741,7.474Z" transform="translate(-8.77 -0.956)"/></g><g transform="translate(1117.132 382.916)"><path class="c" d="M1952.081,898.493c.538-.187,1.069-.383,1.576-.583l-.153-.389c-.5.2-1.027.392-1.56.577Z" transform="translate(-1881.803 -847.524)"/><path class="d" d="M1389.169,402.235h-47.8a6.445,6.445,0,0,0-6.445,6.445v97.682a6.446,6.446,0,0,0,6.445,6.445h47.8a6.445,6.445,0,0,0,6.445-6.445V408.68A6.447,6.447,0,0,0,1389.169,402.235Z" transform="translate(-1327.072 -402.235)"/><path class="e" d="M1308.026,1098.542s-8.645,21.162-7.807,25.164,6.085,9.352,18.957,7.569a197.71,197.71,0,0,0,21.768-4.168s.538-28.561,0-30.009-23.681-11.729-24.591-11.729S1308.026,1098.542,1308.026,1098.542Z" transform="translate(-1295.816 -1016.41)"/><path class="f" d="M0,0H54.438V93H0Z" transform="translate(10.98 8.784)"/><path class="g" d="M1326.679,1026.63H1279.4a2.957,2.957,0,0,0-2.957,2.957v19.51a2.957,2.957,0,0,0,2.957,2.957h37.222c1.506,2.1,4.238,5.866,4.479,5.866.226,0-.209-3.555-.515-5.866h6.093a2.957,2.957,0,0,0,2.957-2.957v-19.51A2.957,2.957,0,0,0,1326.679,1026.63Z" transform="translate(-1274.493 -963.6)"/><path class="g" d="M1467.14,588.738h-50.33a2.957,2.957,0,0,0-2.957,2.957v20.969a2.957,2.957,0,0,0,2.957,2.957h5.226c-.3,2.309-.7,5.62-.482,5.62a58.8,58.8,0,0,0,4.3-5.62h41.284a2.957,2.957,0,0,0,2.957-2.957V591.695A2.957,2.957,0,0,0,1467.14,588.738Z" transform="translate(-1398.03 -569.911)"/><path class="d" d="M.583,0H22.712a.583.583,0,0,1,.583.583v0a.583.583,0,0,1-.583.583H.583A.583.583,0,0,1,0,.583v0A.583.583,0,0,1,.583,0Z" transform="translate(26.596 4.696)"/><path class="h" d="M1307.343,976.5h-47.278a2.957,2.957,0,0,0-2.957,2.957v19.511a2.957,2.957,0,0,0,2.957,2.957h37.222c1.507,2.1,4.238,5.866,4.479,5.866.226,0-.209-3.555-.515-5.866h6.093a2.957,2.957,0,0,0,2.957-2.957V979.452A2.957,2.957,0,0,0,1307.343,976.5Z" transform="translate(-1257.108 -918.526)"/><path class="i" d="M1614.067,1431.158a2.674,2.674,0,1,1-2.674-2.674A2.674,2.674,0,0,1,1614.067,1431.158Z" transform="translate(-1573.226 -1324.888)"/><path class="j" d="M1626.083,1446.163h-1.595a.317.317,0,0,1-.317-.316v-1.594a.317.317,0,0,1,.317-.317h1.595a.317.317,0,0,1,.317.317v1.594A.317.317,0,0,1,1626.083,1446.163Zm-1.595-2.141a.231.231,0,0,0-.23.231v1.594a.231.231,0,0,0,.23.23h1.595a.231.231,0,0,0,.23-.23v-1.594a.231.231,0,0,0-.23-.231Z" transform="translate(-1587.118 -1338.781)"/><rect class="k" width="54.438" height="5.501" transform="translate(10.98 96.287)"/><rect class="l" width="54.438" height="4.936" transform="translate(10.98 8.784)"/><path class="d" d="M1299.019,1036.4a7.413,7.413,0,1,1-7.413-7.413A7.413,7.413,0,0,1,1299.019,1036.4Z" transform="translate(-1281.459 -965.723)"/><path d="M1318.039,1057.736s-.735-3.016,1.016-4.146,3.621-1.388,4.9-.737a4.1,4.1,0,0,1,1.932,4.688l-4.7-1.181Z" transform="translate(-1311.75 -986.86)"/><rect class="m" width="2.177" height="2.173" transform="translate(9.144 74.416)"/><path class="n" d="M1349.862,1140.73v-1.3h-2.177v1.108A3.191,3.191,0,0,0,1349.862,1140.73Z" transform="translate(-1338.542 -1065.011)"/><path class="m" d="M1317.3,1066.647a.807.807,0,0,0-.729.029,3.876,3.876,0,0,0-7.751,0,.807.807,0,0,0-.729-.029,1.126,1.126,0,0,0,.973,1.969.721.721,0,0,0,.163-.112,3.494,3.494,0,0,0,6.938,0,.71.71,0,0,0,.163.112,1.126,1.126,0,0,0,.973-1.969Z" transform="translate(-1302.544 -996.12)"/><path class="d" d="M1350.113,1125.986a1.359,1.359,0,0,1-2.428.074Z" transform="translate(-1338.542 -1052.926)"/><path d="M1318.022,1061.083a10.629,10.629,0,0,0,4.1-2.3,8.555,8.555,0,0,1-.616,2.013c.083.056,2.845-1.287,3.22-2.526s-2.824-1.684-2.824-1.684-1.1.467-1.152.494-1.084.148-1.2.41c-.153.341-.879.371-.879.371l-.458.954-.321,1Z" transform="translate(-1311.75 -990.527)"/><path d="M1296.117,1035.156a3.119,3.119,0,0,0,2.109.139c1.662-.511,2.321-.313,2.542-.187a.541.541,0,0,0,.436.057c.164-.055.316-.2.269-.578a3.021,3.021,0,0,0-1.288-2.479A7.43,7.43,0,0,0,1296.117,1035.156Z" transform="translate(-1292.178 -968.524)"/><path class="o" d="M1331.29,1053.792h0a.14.14,0,0,1,.034-.2,3.905,3.905,0,0,1,1.85-.637.141.141,0,0,1,.148.141h0a.141.141,0,0,1-.134.14,3.677,3.677,0,0,0-1.709.592A.141.141,0,0,1,1331.29,1053.792Z" transform="translate(-1323.776 -987.264)"/><path class="p" d="M1490.975,533.521h-50.33a2.957,2.957,0,0,0-2.957,2.957v20.969a2.957,2.957,0,0,0,2.957,2.957h5.226c-.3,2.308-.7,5.62-.482,5.62a58.8,58.8,0,0,0,4.3-5.62h41.284a2.957,2.957,0,0,0,2.957-2.957V536.478A2.957,2.957,0,0,0,1490.975,533.521Z" transform="translate(-1419.458 -520.268)"/><ellipse class="d" cx="7.413" cy="7.413" rx="7.413" ry="7.413" transform="translate(17.977 29.926) rotate(-62.53)"/><rect class="m" width="2.177" height="2.173" transform="translate(26.969 30.504)"/><path class="n" d="M1526.453,705.718v-1.3h-2.177v1.109A3.19,3.19,0,0,0,1526.453,705.718Z" transform="translate(-1497.307 -673.911)"/><path class="m" d="M1493.887,631.636a.808.808,0,0,0-.729.029,3.876,3.876,0,0,0-7.751,0,.808.808,0,0,0-.729-.029,1.125,1.125,0,0,0,.973,1.969.71.71,0,0,0,.163-.112,3.494,3.494,0,0,0,6.938,0,.712.712,0,0,0,.163.112,1.125,1.125,0,0,0,.973-1.969Z" transform="translate(-1461.309 -605.022)"/><path class="q" d="M1491.441,609.946a5.241,5.241,0,0,1,3.575-.775c2.483.149,2.956,1.445,3.1,3.3l-.146,2.2a9.611,9.611,0,0,1-1.484-2.5s-1.39,1.56-2,1.375.229-1.308.229-1.308-2.832,2.437-4.5,2.433c0,0-.883-2.852.357-3.9,0,0-.934.045-.983-.139s.445-.458,1.342-.355c0,0-.639-1.25-.282-1.38S1491.441,609.946,1491.441,609.946Z" transform="translate(-1466.119 -588.024)"/><path class="d" d="M1526.7,690.976a1.359,1.359,0,0,1-2.428.074Z" transform="translate(-1497.307 -661.829)"/><path class="d" d="M.644,0H28.859A.644.644,0,0,1,29.5.644v0a.644.644,0,0,1-.644.644H.644A.644.644,0,0,1,0,.644v0A.644.644,0,0,1,.644,0Z" transform="translate(37.937 19.295)"/><path class="d" d="M.644,0H6.323a.644.644,0,0,1,.644.644v0a.644.644,0,0,1-.644.644H.644A.644.644,0,0,1,0,.644v0A.644.644,0,0,1,.644,0Z" transform="translate(37.937 22.694)"/><rect class="d" width="19.906" height="1.288" rx="0.644" transform="translate(47.534 22.694)"/><rect class="d" width="15.241" height="1.288" rx="0.644" transform="translate(37.937 26.093)"/><path class="d" d="M.644,0H11.388a.644.644,0,0,1,.644.644v0a.644.644,0,0,1-.644.644H.644A.644.644,0,0,1,0,.644v0A.644.644,0,0,1,.644,0Z" transform="translate(55.407 26.093)"/><path class="d" d="M.644,0H28.859A.644.644,0,0,1,29.5.644v0a.644.644,0,0,1-.644.644H.644A.644.644,0,0,1,0,.644v0A.644.644,0,0,1,.644,0Z" transform="translate(37.937 29.492)"/><path class="d" d="M.644,0H9.287a.644.644,0,0,1,.644.644v0a.644.644,0,0,1-.644.644H.644A.644.644,0,0,1,0,.644v0A.644.644,0,0,1,.644,0Z" transform="translate(19.005 64.295)"/><path class="d" d="M.644,0h5.42a.644.644,0,0,1,.644.644v0a.644.644,0,0,1-.644.644H.644A.644.644,0,0,1,0,.644v0A.644.644,0,0,1,.644,0Z" transform="translate(19.005 67.694)"/><path class="d" d="M.644,0H7.611a.644.644,0,0,1,.644.644v0a.644.644,0,0,1-.644.644H.644A.644.644,0,0,1,0,.644v0A.644.644,0,0,1,.644,0Z" transform="translate(26.87 67.694)"/><path class="d" d="M.644,0h9.84a.644.644,0,0,1,.644.644v0a.644.644,0,0,1-.644.644H.644A.644.644,0,0,1,0,.644v0A.644.644,0,0,1,.644,0Z" transform="translate(36.281 67.694)"/><path class="d" d="M.644,0H16.183a.644.644,0,0,1,.644.644v0a.644.644,0,0,1-.644.644H.644A.644.644,0,0,1,0,.644v0A.644.644,0,0,1,.644,0Z" transform="translate(30.581 64.295)"/><path class="d" d="M.644,0H27.759A.644.644,0,0,1,28.4.644v0a.644.644,0,0,1-.644.644H.644A.644.644,0,0,1,0,.644v0A.644.644,0,0,1,.644,0Z" transform="translate(19.005 74.357)"/><path class="d" d="M.644,0H14.029a.644.644,0,0,1,.644.644v0a.644.644,0,0,1-.644.644H.644A.644.644,0,0,1,0,.644v0A.644.644,0,0,1,.644,0Z" transform="translate(19.005 71.093)"/><rect class="d" width="11.584" height="1.288" rx="0.644" transform="translate(35.825 71.093)"/></g></g></svg>