<svg xmlns="http://www.w3.org/2000/svg" width="25" height="24" viewBox="0 0 25 24"><defs><style>.a{fill:#02172e;opacity:0.5;}</style></defs><path class="a" d="M23.535,5.672V4.266H14.571A2.165,2.165,0,0,0,13.232,2.98V0H11.768V2.98a2.165,2.165,0,0,0-1.339,1.285H1.465V5.672H3.3L0,13.266v.141a3.6,3.6,0,0,0,3.662,3.516H5.127a3.6,3.6,0,0,0,3.662-3.516v-.141l-3.3-7.594h4.936a2.165,2.165,0,0,0,1.339,1.285V17.04a3.6,3.6,0,0,0-2.867,2.8A3.563,3.563,0,0,0,5.908,23.3V24H19.092v-.7A3.563,3.563,0,0,0,16.1,19.841a3.6,3.6,0,0,0-2.867-2.8V6.957a2.165,2.165,0,0,0,1.339-1.285h4.936l-3.3,7.594v.141a3.6,3.6,0,0,0,3.662,3.516h1.465A3.6,3.6,0,0,0,25,13.406v-.141L21.7,5.672ZM4.395,6.8,6.958,12.7H1.831Zm.732,8.719H3.662a2.2,2.2,0,0,1-2.071-1.407H7.2A2.2,2.2,0,0,1,5.127,15.516ZM20.605,6.8,23.169,12.7H18.042Zm.732,8.719H19.873A2.2,2.2,0,0,1,17.8,14.109h5.607A2.2,2.2,0,0,1,21.338,15.516ZM17.5,22.594H7.5A2.2,2.2,0,0,1,9.57,21.188H15.43A2.2,2.2,0,0,1,17.5,22.594Zm-2.93-2.813H10.429a2.229,2.229,0,0,1,4.143,0ZM12.5,5.672a.7.7,0,1,1,.732-.7.719.719,0,0,1-.732.7Z" transform="translate(0)"/></svg>