<svg xmlns="http://www.w3.org/2000/svg" width="25" height="25" viewBox="0 0 25 25"><defs><style>.a{fill:#1c252c;}</style></defs><g transform="translate(-10 -10)"><path class="a" d="M324.9,146h8.852v4.381H324.9Z" transform="translate(-306.826 -132.562)"/><path class="a" d="M191.4,611.5h3.832v3.835H191.4Z" transform="translate(-176.765 -586.13)"/><path class="a" d="M413.1,611.5h4.393v3.835H413.1Z" transform="translate(-392.797 -586.13)"/><path class="a" d="M236.7,425.3h13.539v1.039H236.7Z" transform="translate(-220.969 -404.701)"/><path class="a" d="M236.7,457.3h1.039v3.193H236.7Z" transform="translate(-220.915 -435.874)"/><path class="a" d="M479.4,341.4h1.039v5.564H479.4V341.4Z" transform="translate(-457.421 -322.924)"/><path class="a" d="M722.2,426.5h1.039v3.971H722.2Z" transform="translate(-694.024 -405.857)"/><path class="a" d="M657,611.5h3.83v3.835H657V611.5Z" transform="translate(-630.467 -586.13)"/><path class="a" d="M22.5,35A12.5,12.5,0,1,1,35,22.5,12.514,12.514,0,0,1,22.5,35Zm0-23.809A11.31,11.31,0,1,0,33.811,22.5,11.319,11.319,0,0,0,22.5,11.191Z"/></g></svg>