<svg xmlns="http://www.w3.org/2000/svg" xmlns:xlink="http://www.w3.org/1999/xlink" width="35" height="26" viewBox="0 0 35 26"><defs><style>.a,.c{fill:#02172e;}.a{stroke:#707070;}.b{opacity:0.5;}.d{clip-path:url(#a);}</style><clipPath id="a"><path class="a" d="M15,26H0V0H33.824V5.922H20V16.178H35V26Z" transform="translate(-0.439 0.429)"/></clipPath></defs><g class="b" transform="translate(0 0)"><g transform="translate(19.918 7.703)"><g transform="translate(0 0)"><path class="c" d="M9.609,15.988H1.147A1.148,1.148,0,0,0,0,17.135v6.117A1.148,1.148,0,0,0,1.147,24.4H9.609a1.148,1.148,0,0,0,1.147-1.147V17.135A1.148,1.148,0,0,0,9.609,15.988Zm-7.7,2.294h5.4a.382.382,0,1,1,0,.765h-5.4a.382.382,0,0,1,0-.765ZM5.786,22.1H1.912a.382.382,0,0,1,0-.765H5.786a.382.382,0,0,1,0,.765Zm3.058-1.529H1.912a.382.382,0,0,1,0-.765H8.844a.382.382,0,1,1,0,.765Z" transform="translate(0 -15.988)"/></g><g transform="translate(5.697 1.529)"><g transform="translate(0 0)"><path class="c" d="M190.853,75.989h-.377v5.735a1.918,1.918,0,0,1-1.917,1.912h-4.113l-.816.76h7.222A1.144,1.144,0,0,0,192,83.253V77.136A1.148,1.148,0,0,0,190.853,75.989Z" transform="translate(-183.631 -75.989)"/></g></g></g><g class="d" transform="translate(0.439 -0.429)"><g transform="translate(9.003 0.726)"><path class="c" d="M19.411,0H8.923A1.593,1.593,0,0,0,7.334,1.589V21.935a1.594,1.594,0,0,0,1.589,1.59H19.411A1.593,1.593,0,0,0,21,21.935V1.589A1.593,1.593,0,0,0,19.411,0ZM12.489,1.145h3.355a.193.193,0,0,1,0,.385H12.489a.193.193,0,0,1,0-.385ZM14.167,22.73a.795.795,0,1,1,.794-.8A.794.794,0,0,1,14.167,22.73Zm5.727-2.146H8.44V2.52H19.894Z" transform="translate(-7.334)"/></g></g></g></svg>