<svg xmlns="http://www.w3.org/2000/svg" width="23.913" height="23.869" viewBox="0 0 23.913 23.869"><defs><style>.a{opacity:0.5;}.b{fill:#02172e;}</style></defs><g class="a" transform="translate(-9.966 -10.9)"><path class="b" d="M511.9,505.1a5.9,5.9,0,1,0,5.9,5.9A5.913,5.913,0,0,0,511.9,505.1Zm0,10.817A4.913,4.913,0,1,1,516.819,511,4.92,4.92,0,0,1,511.9,515.917Z" transform="translate(-483.93 -482.141)"/><path class="b" d="M164.464,23.627a6.364,6.364,0,1,0-6.364-6.364A6.371,6.371,0,0,0,164.464,23.627Zm0-11.734a5.373,5.373,0,1,1-5.373,5.373A5.38,5.38,0,0,1,164.464,11.893Z" transform="translate(-144.519 0)"/><path class="b" d="M13.166,542.941c-1.405-.078-2.147-.932-2.206-2.54a3.64,3.64,0,0,1,.268-1.137,9.71,9.71,0,0,1,8.777-5.473,10.319,10.319,0,0,1,2.1.217,7.033,7.033,0,0,1,.693-.852A11.406,11.406,0,0,0,20,532.8a10.7,10.7,0,0,0-9.668,6.029,4.5,4.5,0,0,0-.368,1.608c.076,2.113,1.22,3.387,3.167,3.494H24a7.192,7.192,0,0,1-1.166-.991Z" transform="translate(0 -509.165)"/><path class="b" d="M589.978,612.6a2.424,2.424,0,0,0-1.21-1.684,2.35,2.35,0,0,0-1.093-.29,2.259,2.259,0,0,0-1.723.891,2.158,2.158,0,0,0-1.691-.913,2.385,2.385,0,0,0-1.569.673,2.708,2.708,0,0,0-.429,3.216c.644,1.371,3.182,3.157,3.467,3.357l.273.188.278-.181a26.11,26.11,0,0,0,2.494-2.1,6.188,6.188,0,0,0,.908-1.145A3.176,3.176,0,0,0,589.978,612.6Zm-1.181,1.571a5.668,5.668,0,0,1-.705.871c-.625.593-1.559,1.391-2.081,1.791a11.033,11.033,0,0,1-2.874-2.8,1.744,1.744,0,0,1,.259-2.059,1.434,1.434,0,0,1,.864-.378c.449,0,.873.356,1.261,1.057l.473.849.41-.883c0-.01.473-1,1.271-1a1.356,1.356,0,0,1,.634.178,1.43,1.43,0,0,1,.688.939A2.231,2.231,0,0,1,588.8,614.167Z" transform="translate(-557.997 -585.067)"/></g></svg>