<svg xmlns="http://www.w3.org/2000/svg" width="26" height="25" viewBox="0 0 26 25"><defs><style>.a,.b{fill:none;stroke:#02172e;}.b{stroke-width:1.2px;}</style></defs><g transform="translate(-472.5 -306.5)"><path class="a" d="M4,0H21a4,4,0,0,1,4,4V7a0,0,0,0,1,0,0H0A0,0,0,0,1,0,7V4A4,4,0,0,1,4,0Z" transform="translate(473 307)"/><g transform="translate(479.034 309)"><line class="b" y2="3" transform="translate(-0.035)"/><line class="b" y2="3" transform="translate(7.965)"/><line class="b" y2="2" transform="translate(2.965 1)"/><line class="b" y2="2" transform="translate(9.965 1)"/><line class="b" y2="1" transform="translate(4.965 2)"/><line class="b" y2="1" transform="translate(12.965 2)"/></g><path class="a" d="M0,0H25a0,0,0,0,1,0,0V12a4,4,0,0,1-4,4H4a4,4,0,0,1-4-4V0A0,0,0,0,1,0,0Z" transform="translate(473 315)"/><circle class="a" cx="6" cy="6" r="6" transform="translate(480 317)"/><path class="a" d="M5253.924,28.3v5l5-2.24Z" transform="translate(-4769.424 292.203)"/></g></svg>