<svg xmlns="http://www.w3.org/2000/svg" width="23.643" height="23.642" viewBox="0 0 23.643 23.642"><defs><style>.a{opacity:0.5;}.b{fill:#02172e;}</style></defs><g class="a" transform="translate(-31 -598)"><g transform="translate(51.49 602.729)"><path class="b" d="M445.31,102.4a1.576,1.576,0,1,0,1.576,1.576A1.578,1.578,0,0,0,445.31,102.4Zm0,2.364a.788.788,0,1,1,.788-.788A.789.789,0,0,1,445.31,104.764Z" transform="translate(-443.734 -102.4)"/></g><g transform="translate(31 615.732)"><path class="b" d="M1.576,384a1.576,1.576,0,1,0,1.576,1.576A1.578,1.578,0,0,0,1.576,384Zm0,2.364a.788.788,0,1,1,.788-.788A.789.789,0,0,1,1.576,386.364Z" transform="translate(0 -384)"/></g><g transform="translate(48.338 601.546)"><path class="b" d="M379.427,78.472l-3.4-1.641a.394.394,0,1,0-.342.71l3.4,1.641a.394.394,0,0,0,.342-.71Z" transform="translate(-375.463 -76.792)"/></g><g transform="translate(47.155 618.49)"><path class="b" d="M351.443,443.733a1.576,1.576,0,1,0,1.576,1.576A1.578,1.578,0,0,0,351.443,443.733Zm0,2.364a.788.788,0,1,1,.788-.788A.789.789,0,0,1,351.443,446.1Z" transform="translate(-349.867 -443.733)"/></g><g transform="translate(44.003 617.307)"><path class="b" d="M285.56,419.8l-3.4-1.641a.394.394,0,1,0-.342.71l3.4,1.641a.394.394,0,0,0,.342-.71Z" transform="translate(-281.596 -418.124)"/></g><g transform="translate(41.245 608.639)"><path class="b" d="M223.443,230.4a1.576,1.576,0,1,0,1.576,1.576A1.578,1.578,0,0,0,223.443,230.4Zm0,2.364a.788.788,0,1,1,.788-.788A.789.789,0,0,1,223.443,232.764Z" transform="translate(-221.867 -230.4)"/></g><g transform="translate(38.881 607.063)"><path class="b" d="M173.912,198.39l-2.611-2.035a.394.394,0,0,0-.485.622l2.611,2.035a.394.394,0,1,0,.485-.622Z" transform="translate(-170.664 -196.272)"/></g><g transform="translate(45.579 608.245)"><path class="b" d="M320.067,221.867A4.334,4.334,0,1,0,324.4,226.2,4.34,4.34,0,0,0,320.067,221.867Zm0,7.881a3.546,3.546,0,1,1,3.546-3.546A3.55,3.55,0,0,1,320.067,229.748Z" transform="translate(-315.733 -221.867)"/></g><g transform="translate(48.338 609.821)"><path class="b" d="M377.043,256a1.576,1.576,0,1,0,1.576,1.576A1.578,1.578,0,0,0,377.043,256Zm0,2.364a.788.788,0,1,1,.788-.788A.789.789,0,0,1,377.043,258.364Z" transform="translate(-375.467 -256)"/></g><g transform="translate(47.55 613.762)"><path class="b" d="M361.907,341.333h-2.286a1.206,1.206,0,0,0-1.221,1.188v1.039a.394.394,0,0,0,.2.341,4.313,4.313,0,0,0,4.335,0,.394.394,0,0,0,.2-.341v-1.039A1.206,1.206,0,0,0,361.907,341.333Zm.433,1.992a3.573,3.573,0,0,1-3.152,0v-.8a.418.418,0,0,1,.433-.4h2.286a.418.418,0,0,1,.433.4v.8Z" transform="translate(-358.4 -341.333)"/></g><g transform="translate(36.122 612.974)"><path class="b" d="M115.267,324.267A4.334,4.334,0,1,0,119.6,328.6,4.34,4.34,0,0,0,115.267,324.267Zm0,7.881a3.546,3.546,0,1,1,3.546-3.546A3.55,3.55,0,0,1,115.267,332.148Z" transform="translate(-110.933 -324.267)"/></g><g transform="translate(38.881 614.55)"><path class="b" d="M172.243,358.4a1.576,1.576,0,1,0,1.576,1.576A1.578,1.578,0,0,0,172.243,358.4Zm0,2.364a.788.788,0,1,1,.788-.788A.789.789,0,0,1,172.243,360.764Z" transform="translate(-170.667 -358.4)"/></g><g transform="translate(38.093 618.49)"><path class="b" d="M157.107,443.733h-2.286a1.206,1.206,0,0,0-1.221,1.188v1.039a.394.394,0,0,0,.2.341,4.313,4.313,0,0,0,4.335,0,.394.394,0,0,0,.2-.341v-1.039A1.206,1.206,0,0,0,157.107,443.733Zm.433,1.992a3.573,3.573,0,0,1-3.152,0v-.8a.418.418,0,0,1,.433-.4h2.286a.418.418,0,0,1,.433.4v.8Z" transform="translate(-153.6 -443.733)"/></g><g transform="translate(31 603.122)"><path class="b" d="M4.334,110.933a4.334,4.334,0,1,0,4.334,4.334A4.34,4.34,0,0,0,4.334,110.933Zm0,7.881a3.546,3.546,0,1,1,3.546-3.546A3.55,3.55,0,0,1,4.334,118.814Z" transform="translate(0 -110.933)"/></g><g transform="translate(33.759 604.699)"><path class="b" d="M61.31,145.067a1.576,1.576,0,1,0,1.576,1.576A1.578,1.578,0,0,0,61.31,145.067Zm0,2.364a.788.788,0,1,1,.788-.788A.789.789,0,0,1,61.31,147.431Z" transform="translate(-59.734 -145.067)"/></g><g transform="translate(32.97 608.639)"><path class="b" d="M46.174,230.4H43.888a1.206,1.206,0,0,0-1.221,1.188v1.039a.394.394,0,0,0,.2.341,4.312,4.312,0,0,0,4.335,0,.394.394,0,0,0,.2-.341v-1.039A1.206,1.206,0,0,0,46.174,230.4Zm.433,1.992a3.573,3.573,0,0,1-3.152,0v-.8a.418.418,0,0,1,.433-.4h2.286a.418.418,0,0,1,.433.4v.8Z" transform="translate(-42.667 -230.4)"/></g><g transform="translate(40.457 598)"><path class="b" d="M209.134,0a4.334,4.334,0,1,0,4.334,4.334A4.34,4.34,0,0,0,209.134,0Zm0,7.881a3.546,3.546,0,1,1,3.546-3.546A3.55,3.55,0,0,1,209.134,7.881Z" transform="translate(-204.8)"/></g><g transform="translate(42.427 603.517)"><path class="b" d="M250.974,119.467h-2.286a1.206,1.206,0,0,0-1.221,1.188v1.039a.394.394,0,0,0,.2.341,4.312,4.312,0,0,0,4.335,0,.394.394,0,0,0,.2-.341v-1.039A1.206,1.206,0,0,0,250.974,119.467Zm.433,1.992a3.573,3.573,0,0,1-3.152,0v-.8a.418.418,0,0,1,.433-.4h2.286a.418.418,0,0,1,.433.4v.8Z" transform="translate(-247.467 -119.467)"/></g><g transform="translate(37.727 601.94)"><path class="b" d="M149.1,85.471a.4.4,0,0,0-.556-.043l-2.731,2.337a.394.394,0,1,0,.512.6l2.731-2.337A.394.394,0,0,0,149.1,85.471Z" transform="translate(-145.671 -85.333)"/></g><g transform="translate(46.762 605.093)"><path class="b" d="M344.407,156.92l-2.364-3.152a.394.394,0,0,0-.63.472l2.364,3.152a.394.394,0,0,0,.63-.472Z" transform="translate(-341.333 -153.61)"/></g><g transform="translate(43.69 613.725)"><path class="b" d="M277.743,340.7a.394.394,0,0,0-.552-.079l-2.2,1.651a.394.394,0,0,0,.473.63l2.2-1.651A.394.394,0,0,0,277.743,340.7Z" transform="translate(-274.833 -340.54)"/></g><g transform="translate(33.364 616.914)"><path class="b" d="M54.352,409.6H51.594a.394.394,0,0,0,0,.788h2.758a.394.394,0,0,0,0-.788Z" transform="translate(-51.2 -409.6)"/></g><g transform="translate(34.94 600.364)"><path class="b" d="M85.728,51.2a.394.394,0,0,0-.394.394v2.758a.394.394,0,0,0,.788,0V51.594A.394.394,0,0,0,85.728,51.2Z" transform="translate(-85.334 -51.2)"/></g></g></svg>