<svg xmlns="http://www.w3.org/2000/svg" width="25.001" height="19.644" viewBox="0 0 25.001 19.644"><defs><style>.a{fill:#2e67ce;}</style></defs><path class="a" d="M24.011,62.46a12.28,12.28,0,0,0-6.655-6.655,12.394,12.394,0,0,0-9.71,0A12.282,12.282,0,0,0,.991,62.46a12.472,12.472,0,0,0,.977,11.594.849.849,0,0,0,.753.4h19.56a.849.849,0,0,0,.753-.4,12.473,12.473,0,0,0,.977-11.594ZM11.238,57.124a1.785,1.785,0,1,1-.523,1.263A1.721,1.721,0,0,1,11.238,57.124Zm-6.4,11.454a1.722,1.722,0,0,1-1.263.524,1.722,1.722,0,0,1-1.263-.524,1.785,1.785,0,0,1,0-2.525,1.721,1.721,0,0,1,1.263-.523,1.72,1.72,0,0,1,1.263.523,1.785,1.785,0,0,1,0,2.525Zm2.679-6.25a1.785,1.785,0,0,1-2.525,0A1.786,1.786,0,0,1,6.25,59.28a1.786,1.786,0,0,1,1.263,3.048Zm7.9.119-1.409,5.329a2.653,2.653,0,0,1,1,1.27,2.684,2.684,0,0,1-1.158,3.265,2.608,2.608,0,0,1-2.037.279,2.562,2.562,0,0,1-1.632-1.242,2.671,2.671,0,0,1,.6-3.411,2.651,2.651,0,0,1,1.493-.607L13.686,62a.881.881,0,0,1,.418-.551.832.832,0,0,1,.67-.091.914.914,0,0,1,.642,1.088Zm2.072-.119a1.785,1.785,0,1,1,1.263.523A1.72,1.72,0,0,1,17.488,62.328Zm5.2,6.25a1.785,1.785,0,1,1,.523-1.263A1.721,1.721,0,0,1,22.692,68.578Z" transform="translate(0 -54.815)"/></svg>