<svg xmlns="http://www.w3.org/2000/svg" width="25" height="21.477" viewBox="0 0 25 21.477"><defs><style>.a{opacity:0.5;}</style></defs><g class="a"><circle cx="2.609" cy="2.609" r="2.609" transform="translate(9.89 9.2)"/><path d="M37.334,64.556H35.12a3.344,3.344,0,0,0-3.34,3.34V70.6l.007.042.186.058a15.2,15.2,0,0,0,4.542.733,9.335,9.335,0,0,0,3.965-.744l.174-.089h.018V67.9A3.342,3.342,0,0,0,37.334,64.556Z" transform="translate(-23.728 -49.961)"/><circle cx="4.209" cy="4.209" r="4.209" transform="translate(2.965 0)"/><path d="M57.949,15.37A4.209,4.209,0,1,0,53.74,11.16,4.209,4.209,0,0,0,57.949,15.37Z" transform="translate(-40.124 -6.952)"/><path d="M10.454,46.785a3.131,3.131,0,0,1,.489-5.1A5.349,5.349,0,0,0,8.96,41.3H5.388A5.4,5.4,0,0,0,0,46.693v4.368l.011.068.3.093A24.572,24.572,0,0,0,7.522,52.4V50.536A3.874,3.874,0,0,1,10.454,46.785Z" transform="translate(0 -32.6)"/><path d="M61.034,41.3H57.463a5.348,5.348,0,0,0-1.982.383,3.131,3.131,0,0,1,.49,5.1A3.867,3.867,0,0,1,58.9,50.535V52.4a24.576,24.576,0,0,0,7.21-1.18l.3-.093.011-.068V46.692A5.4,5.4,0,0,0,61.034,41.3Z" transform="translate(-41.424 -32.599)"/></g></svg>