<svg xmlns="http://www.w3.org/2000/svg" width="26.007" height="22.5" viewBox="0 0 26.007 22.5"><defs><style>.a{stroke:#000;opacity:0.5;}.b{fill:#020e1c;opacity:0.7;}</style></defs><g transform="translate(0.503 0.5)"><path class="a" d="M29.488,25.434c-.469-1.779-3.145-2.645-4.069-2.925-1.016-.308-2.461-.38-3.392-.559a3.72,3.72,0,0,1-1.569-.621,10.136,10.136,0,0,1-.1-2.757,8,8,0,0,0,.742-1.214,13.775,13.775,0,0,0,.547-2.12s.534,0,.723-.805c.2-.878.521-1.219.482-1.874s-.449-.626-.449-.626a8.549,8.549,0,0,0,.443-2.869C22.9,6.765,20.8,4.5,17.007,4.5c-3.848,0-5.9,2.265-5.84,4.564a8.912,8.912,0,0,0,.436,2.869s-.41-.017-.449.626.28,1,.482,1.874c.182.805.723.805.723.805a13.775,13.775,0,0,0,.547,2.12,8,8,0,0,0,.742,1.214,10.136,10.136,0,0,1-.1,2.757,3.72,3.72,0,0,1-1.569.621c-.931.179-2.376.252-3.392.559-.925.28-3.6,1.147-4.069,2.925a.471.471,0,0,0,.514.543H28.98A.469.469,0,0,0,29.488,25.434Z" transform="translate(-4.501 -4.5)"/><path class="b" d="M23.491,11.826l-5.25-1.786a.737.737,0,0,0-.482,0l-5.25,1.786a.748.748,0,0,0-.509.71v4.018c0,4.9,5.474,7.288,5.707,7.387A.763.763,0,0,0,18,24a.746.746,0,0,0,.293-.06c.233-.1,5.707-2.482,5.707-7.386V12.536a.748.748,0,0,0-.509-.71ZM21.35,15.2l-3,4a.746.746,0,0,1-.547.3.469.469,0,0,1-.053,0,.749.749,0,0,1-.53-.22l-2-2a.75.75,0,0,1,1.061-1.061l1.389,1.389L20.15,14.3a.75.75,0,1,1,1.2.9Z" transform="translate(1 -2)"/></g></svg>