<svg xmlns="http://www.w3.org/2000/svg" width="26.007" height="22.477" viewBox="0 0 26.007 22.477"><defs><style>.a{stroke:#000;opacity:0.5;}</style></defs><path class="a" d="M29.488,25.434c-.469-1.779-3.145-2.645-4.069-2.925-1.016-.308-2.461-.38-3.392-.559a3.72,3.72,0,0,1-1.569-.621,10.136,10.136,0,0,1-.1-2.757,8,8,0,0,0,.742-1.214,13.775,13.775,0,0,0,.547-2.12s.534,0,.723-.805c.2-.878.521-1.219.482-1.874s-.449-.626-.449-.626a8.549,8.549,0,0,0,.443-2.869C22.9,6.765,20.8,4.5,17.007,4.5c-3.848,0-5.9,2.265-5.84,4.564a8.912,8.912,0,0,0,.436,2.869s-.41-.017-.449.626.28,1,.482,1.874c.182.805.723.805.723.805a13.775,13.775,0,0,0,.547,2.12,8,8,0,0,0,.742,1.214,10.136,10.136,0,0,1-.1,2.757,3.72,3.72,0,0,1-1.569.621c-.931.179-2.376.252-3.392.559-.925.28-3.6,1.147-4.069,2.925a.471.471,0,0,0,.514.543H28.98A.469.469,0,0,0,29.488,25.434Z" transform="translate(-3.997 -4)"/></svg>