<svg xmlns="http://www.w3.org/2000/svg" xmlns:xlink="http://www.w3.org/1999/xlink" width="814" height="1090" viewBox="0 0 814 1090"><defs><style>.a{stroke:#707070;fill:url(#a);}.ad,.ae,.ag,.ah,.aj,.am,.an,.ao,.as,.au,.b,.g,.l,.m,.w,.y{fill:none;}.am,.ao,.ap,.b{stroke:#dee3fc;}.ad,.ae,.af,.ag,.ah,.aj,.an,.ao,.ap,.as,.b,.l,.w,.y{stroke-miterlimit:10;}.am,.b{stroke-width:0.79px;}.c{fill:#dee3fc;}.d{fill:#a4afff;}.af,.e{fill:#fff;}.f{fill:#3945ba;}.g{stroke:#698bd1;stroke-dasharray:2.837;}.ah,.aj,.an,.ao,.as,.g,.m{stroke-linecap:round;}.g,.m{stroke-linejoin:round;}.h{fill:#4b5a9b;}.i{fill:#7f95f4;}.j{fill:#b2c1f9;}.k{fill:#3052ce;}.af,.ag,.ah,.l,.m{stroke:#495ad6;}.ae,.af,.aj,.l{stroke-width:0.896px;}.ag,.ah,.m{stroke-width:1.672px;}.n{fill:#f0f4ff;}.o{fill:#3b47bc;}.p{fill:#495ad6;}.q{fill:#281616;}.r{fill:#002c54;}.s{fill:#052635;}.t{fill:#e5918f;}.u{fill:#c7e5f2;}.v{fill:#cc6362;}.ae,.aj,.an,.as,.w{stroke:#fff;}.w{stroke-width:0.501px;}.x{opacity:0.5;}.y{stroke:#cc6362;stroke-width:0.724px;}.z{fill:#375f84;}.aa{fill:#467cdb;}.ab{fill:#e49191;}.ac{fill:#5996ef;}.ad{stroke:#000;stroke-width:1.065px;}.ai{fill:#193091;}.ak{fill:#6589d1;}.al{fill:#3b5fb7;}.an{stroke-width:2px;}.ap,.aq{fill:#7e89fd;}.ar{fill:#b4c1ef;}.as{stroke-width:1.114px;}.at{stroke:none;}</style><linearGradient id="a" x1="0.513" y1="-0.143" x2="0.5" y2="1.077" gradientUnits="objectBoundingBox"><stop offset="0" stop-color="#2e67ce"/><stop offset="1" stop-color="#690c7f"/></linearGradient></defs><g transform="translate(-1106 10)"><g transform="translate(-32 -10)"><g class="a" transform="translate(1138)"><rect class="at" width="814" height="1090"/><rect class="au" x="0.5" y="0.5" width="813" height="1089"/></g></g><g transform="translate(1165.109 237.689)"><g transform="translate(130.291 84.561)"><g transform="translate(45.101 31.863)"><path class="b" d="M263.053,163.173V153.1a1.727,1.727,0,0,0-1.666-1.784h-2.422a1.553,1.553,0,0,1-1.5-1.256,37.078,37.078,0,0,0-4.192-10.892,1.752,1.752,0,0,1,.2-2.062l1.7-1.823a1.876,1.876,0,0,0,0-2.524l-6.653-7.123a1.589,1.589,0,0,0-2.356,0l-1.7,1.821a1.475,1.475,0,0,1-1.926.216,32.135,32.135,0,0,0-10.175-4.493,1.617,1.617,0,0,1-1.172-1.6v-2.585a1.729,1.729,0,0,0-1.667-1.785h-9.409a1.729,1.729,0,0,0-1.667,1.785v2.584a1.619,1.619,0,0,1-1.173,1.6,32.115,32.115,0,0,0-10.176,4.492,1.475,1.475,0,0,1-1.926-.217l-1.7-1.819a1.589,1.589,0,0,0-2.356,0l-6.653,7.123a1.876,1.876,0,0,0,0,2.524l1.7,1.821a1.749,1.749,0,0,1,.2,2.061,37.149,37.149,0,0,0-4.192,10.895,1.552,1.552,0,0,1-1.495,1.256h-2.419A1.728,1.728,0,0,0,186.6,153.1v10.075a1.729,1.729,0,0,0,1.667,1.784h2.42a1.553,1.553,0,0,1,1.494,1.255,37.126,37.126,0,0,0,4.193,10.892,1.751,1.751,0,0,1-.2,2.062l-1.7,1.824a1.874,1.874,0,0,0,0,2.523l6.653,7.124a1.589,1.589,0,0,0,2.356,0l1.7-1.826a1.476,1.476,0,0,1,1.926-.216,32.136,32.136,0,0,0,10.17,4.484,1.619,1.619,0,0,1,1.173,1.6v2.6a1.729,1.729,0,0,0,1.667,1.785h9.409a1.729,1.729,0,0,0,1.667-1.785v-2.6a1.619,1.619,0,0,1,1.173-1.6,32.126,32.126,0,0,0,10.17-4.484,1.475,1.475,0,0,1,1.925.216l1.707,1.827a1.589,1.589,0,0,0,2.356,0l6.653-7.124a1.874,1.874,0,0,0,0-2.523l-1.7-1.825a1.752,1.752,0,0,1-.2-2.062,37.073,37.073,0,0,0,4.193-10.89,1.552,1.552,0,0,1,1.494-1.256h2.423A1.728,1.728,0,0,0,263.053,163.173Zm-38.226,23.368c-14.652,0-26.513-12.725-26.513-28.415,0-15.665,11.861-28.39,26.513-28.39s26.514,12.725,26.514,28.39C251.341,173.817,239.479,186.542,224.826,186.542Z" transform="translate(-186.604 -117.207)"/><path class="c" d="M312.37,198.123v-6.866a1.178,1.178,0,0,0-1.136-1.216h-1.651a1.058,1.058,0,0,1-1.019-.856,25.284,25.284,0,0,0-2.856-7.422,1.192,1.192,0,0,1,.138-1.406l1.16-1.242a1.279,1.279,0,0,0,0-1.72l-4.534-4.855a1.083,1.083,0,0,0-1.606,0l-1.159,1.241a1.007,1.007,0,0,1-1.313.147,21.879,21.879,0,0,0-6.934-3.062,1.1,1.1,0,0,1-.8-1.091v-1.761a1.177,1.177,0,0,0-1.136-1.216h-6.412a1.177,1.177,0,0,0-1.136,1.216v1.761a1.1,1.1,0,0,1-.8,1.091,21.9,21.9,0,0,0-6.935,3.061,1.007,1.007,0,0,1-1.313-.147l-1.158-1.239a1.083,1.083,0,0,0-1.606,0l-4.533,4.855a1.279,1.279,0,0,0,0,1.72l1.159,1.241a1.194,1.194,0,0,1,.138,1.4,25.277,25.277,0,0,0-2.857,7.425,1.058,1.058,0,0,1-1.019.855h-1.649a1.178,1.178,0,0,0-1.136,1.216v6.866a1.178,1.178,0,0,0,1.136,1.217h1.65a1.057,1.057,0,0,1,1.018.855,25.321,25.321,0,0,0,2.858,7.423,1.192,1.192,0,0,1-.138,1.406l-1.16,1.242a1.279,1.279,0,0,0,0,1.72l4.533,4.855a1.084,1.084,0,0,0,1.606,0l1.162-1.244a1,1,0,0,1,1.312-.147,21.914,21.914,0,0,0,6.932,3.056,1.1,1.1,0,0,1,.8,1.091v1.771a1.178,1.178,0,0,0,1.136,1.216h6.412a1.178,1.178,0,0,0,1.136-1.216V219.6a1.1,1.1,0,0,1,.8-1.09,21.921,21.921,0,0,0,6.931-3.057,1.006,1.006,0,0,1,1.312.147l1.163,1.245a1.083,1.083,0,0,0,1.606,0l4.534-4.855a1.279,1.279,0,0,0,0-1.72l-1.162-1.243a1.2,1.2,0,0,1-.138-1.406,25.288,25.288,0,0,0,2.857-7.422,1.058,1.058,0,0,1,1.019-.855h1.651A1.178,1.178,0,0,0,312.37,198.123Zm-26.051,14.835c-9.421,0-17.049-8.183-17.049-18.272,0-10.073,7.628-18.257,17.049-18.257s17.05,8.184,17.05,18.257C303.369,204.775,295.741,212.958,286.319,212.958Z" transform="translate(-192.645 -118.053)"/></g><g transform="translate(9.224)"><ellipse class="d" cx="3.108" cy="3.328" rx="3.108" ry="3.328" transform="translate(31.746 287.07)"/><ellipse class="d" cx="3.108" cy="3.328" rx="3.108" ry="3.328" transform="translate(448.177 196.127)"/><ellipse class="d" cx="3.108" cy="3.328" rx="3.108" ry="3.328" transform="translate(441.96 77.28)"/><ellipse class="d" cx="1.95" cy="2.088" rx="1.95" ry="2.088" transform="translate(331.358 38.126)"/><path class="d" d="M198.4,97.374a1.954,1.954,0,1,1-1.95-2.088A2.022,2.022,0,0,1,198.4,97.374Z" transform="translate(-151.374 -84.97)"/><path class="d" d="M245.408,228.17a1.954,1.954,0,1,1-1.95-2.088A2.022,2.022,0,0,1,245.408,228.17Z" transform="translate(-155.23 -87.202)"/><path class="d" d="M167.487,383.579a1.954,1.954,0,1,1-1.95-2.087A2.022,2.022,0,0,1,167.487,383.579Z" transform="translate(-148.839 -89.853)"/><ellipse class="d" cx="3.108" cy="3.328" rx="3.108" ry="3.328" transform="translate(402.579 289.036)"/><ellipse class="d" cx="3.108" cy="3.328" rx="3.108" ry="3.328" transform="translate(468.674 289.036)"/><ellipse class="d" cx="3.108" cy="3.328" rx="3.108" ry="3.328" transform="translate(97.506)"/><path class="d" d="M490.007,242.159a4.169,4.169,0,1,1-4.159-4.454A4.314,4.314,0,0,1,490.007,242.159Z" transform="translate(-174.926 -87.4)"/><path class="d" d="M155.84,186.133a4.169,4.169,0,1,1-4.159-4.453A4.314,4.314,0,0,1,155.84,186.133Z" transform="translate(-147.522 -86.444)"/></g><g transform="translate(0 26.307)"><rect class="e" width="6.449" height="6.906" rx="0.664"/><rect class="e" width="6.449" height="6.906" rx="0.664" transform="translate(8.627)"/><rect class="e" width="6.45" height="6.906" rx="0.664" transform="translate(17.254)"/></g><g transform="translate(439.332 268.831)"><rect class="c" width="6.449" height="6.906" rx="0.664"/><rect class="c" width="6.449" height="6.906" rx="0.664" transform="translate(8.627)"/><rect class="c" width="6.45" height="6.906" rx="0.664" transform="translate(17.254)"/></g><g transform="translate(40.496 265.046)"><rect class="c" width="6.449" height="6.906" rx="0.664"/><rect class="c" width="6.449" height="6.906" rx="0.664" transform="translate(8.627)"/><rect class="c" width="6.45" height="6.906" rx="0.664" transform="translate(17.254)"/></g></g><g transform="translate(266.637 77.875)"><rect class="f" width="163.403" height="337.994" rx="21.349"/><rect class="e" width="157.284" height="330.231" rx="18.7" transform="translate(3.06 2.959)"/><path class="c" d="M440.346,98.9V392.026c0,6.875-5.205,12.448-11.625,12.448H308.458c-6.42,0-11.625-5.573-11.625-12.448V98.9c0-6.876,5.2-12.449,11.625-12.449h20.054a2.927,2.927,0,0,1,2.629,1.739l2.13,4.552a5.718,5.718,0,0,0,5.152,3.416h60.332a5.718,5.718,0,0,0,5.152-3.416l2.13-4.552a2.927,2.927,0,0,1,2.629-1.739h20.054C435.141,86.449,440.346,92.022,440.346,98.9Z" transform="translate(-286.888 -78.134)"/><path class="c" d="M398.057,90.831H349.464a2.122,2.122,0,0,1-2.045-2.191h0a2.122,2.122,0,0,1,2.045-2.191h48.593A2.122,2.122,0,0,1,400.1,88.64h0A2.122,2.122,0,0,1,398.057,90.831Z" transform="translate(-291.037 -78.134)"/><rect class="g" width="123.516" height="57.355" rx="8.379" transform="translate(18.543 258.811)"/><rect class="g" width="64.737" height="40.269" rx="6.044" transform="translate(69.698 135.154)"/><g transform="translate(18.543 179.889)"><rect class="h" width="124.007" height="64.189" rx="7.201" transform="translate(4.496 5.193)"/><path class="i" d="M429.716,268.067v50.061a6.838,6.838,0,0,1-6.6,7.057H312.8a6.838,6.838,0,0,1-6.6-7.057V268.067A6.847,6.847,0,0,1,312.8,261H423.116A6.847,6.847,0,0,1,429.716,268.067Z" transform="translate(-306.2 -261)"/><rect class="e" width="41.424" height="44.355" rx="4.861" transform="translate(5.707 14.615)"/><g transform="translate(51.154 17.209)"><path class="j" d="M391.955,281.526H363.333a1.461,1.461,0,0,1-1.409-1.509h0a1.461,1.461,0,0,1,1.409-1.509h28.622a1.462,1.462,0,0,1,1.41,1.509h0A1.462,1.462,0,0,1,391.955,281.526Z" transform="translate(-361.924 -278.508)"/><path class="j" d="M378.912,287.656H363.333a1.462,1.462,0,0,1-1.409-1.509h0a1.462,1.462,0,0,1,1.409-1.51h15.579a1.462,1.462,0,0,1,1.409,1.51h0A1.462,1.462,0,0,1,378.912,287.656Z" transform="translate(-361.924 -278.613)"/><path class="j" d="M428.706,287.656H386.55a1.462,1.462,0,0,1-1.409-1.509h0a1.462,1.462,0,0,1,1.409-1.51h42.156a1.463,1.463,0,0,1,1.409,1.51h0A1.462,1.462,0,0,1,428.706,287.656Z" transform="translate(-363.828 -278.613)"/><path class="j" d="M387.438,293.785h-24.1a1.462,1.462,0,0,1-1.409-1.509h0a1.461,1.461,0,0,1,1.409-1.509h24.1a1.462,1.462,0,0,1,1.409,1.509h0A1.463,1.463,0,0,1,387.438,293.785Z" transform="translate(-361.924 -278.717)"/><path class="j" d="M410.525,293.785H395.372a1.462,1.462,0,0,1-1.409-1.509h0a1.461,1.461,0,0,1,1.409-1.509h15.153a1.462,1.462,0,0,1,1.409,1.509h0A1.462,1.462,0,0,1,410.525,293.785Z" transform="translate(-364.551 -278.717)"/><path class="j" d="M431.225,293.785H417.27a1.462,1.462,0,0,1-1.409-1.509h0a1.462,1.462,0,0,1,1.409-1.509h13.955a1.462,1.462,0,0,1,1.409,1.509h0A1.462,1.462,0,0,1,431.225,293.785Z" transform="translate(-366.347 -278.717)"/><path class="j" d="M426.8,299.914H363.333a1.461,1.461,0,0,1-1.409-1.509h0a1.461,1.461,0,0,1,1.409-1.509H426.8a1.462,1.462,0,0,1,1.409,1.509h0A1.462,1.462,0,0,1,426.8,299.914Z" transform="translate(-361.924 -278.822)"/><path class="j" d="M398.265,306.043H363.333a1.461,1.461,0,0,1-1.409-1.509h0a1.461,1.461,0,0,1,1.409-1.509h34.931a1.462,1.462,0,0,1,1.409,1.509h0A1.462,1.462,0,0,1,398.265,306.043Z" transform="translate(-361.924 -278.926)"/><path class="j" d="M430.426,306.043H407.519a1.462,1.462,0,0,1-1.409-1.509h0a1.462,1.462,0,0,1,1.409-1.509h22.907a1.462,1.462,0,0,1,1.409,1.509h0A1.462,1.462,0,0,1,430.426,306.043Z" transform="translate(-365.548 -278.926)"/><path class="j" d="M383.857,312.172H363.333a1.461,1.461,0,0,1-1.409-1.509h0a1.462,1.462,0,0,1,1.409-1.509h20.524a1.462,1.462,0,0,1,1.409,1.509h0A1.461,1.461,0,0,1,383.857,312.172Z" transform="translate(-361.924 -279.031)"/><path class="j" d="M412.265,312.172H391.741a1.461,1.461,0,0,1-1.409-1.509h0a1.462,1.462,0,0,1,1.409-1.509h20.524a1.462,1.462,0,0,1,1.409,1.509h0A1.461,1.461,0,0,1,412.265,312.172Z" transform="translate(-364.254 -279.031)"/><path class="j" d="M431.408,312.172H419.5a1.461,1.461,0,0,1-1.409-1.509h0a1.462,1.462,0,0,1,1.409-1.509h11.909a1.462,1.462,0,0,1,1.409,1.509h0A1.462,1.462,0,0,1,431.408,312.172Z" transform="translate(-366.53 -279.031)"/><path class="j" d="M391.955,318.3H363.333a1.462,1.462,0,0,1-1.409-1.51h0a1.462,1.462,0,0,1,1.409-1.509h28.622a1.463,1.463,0,0,1,1.41,1.509h0A1.463,1.463,0,0,1,391.955,318.3Z" transform="translate(-361.924 -279.135)"/><path class="j" d="M429.915,281.526H401.292a1.461,1.461,0,0,1-1.409-1.509h0a1.461,1.461,0,0,1,1.409-1.509h28.623a1.462,1.462,0,0,1,1.409,1.509h0A1.462,1.462,0,0,1,429.915,281.526Z" transform="translate(-365.037 -278.508)"/></g><path class="k" d="M429.716,268.067v2.1H306.2v-2.1A6.847,6.847,0,0,1,312.8,261H423.116A6.847,6.847,0,0,1,429.716,268.067Z" transform="translate(-306.2 -261)"/><g transform="translate(97.174 3.113)"><path class="c" d="M415.116,265.8a1.534,1.534,0,1,1-1.53-1.638A1.587,1.587,0,0,1,415.116,265.8Z" transform="translate(-412.055 -264.167)"/><path class="c" d="M423.644,265.8a1.534,1.534,0,1,1-1.53-1.638A1.587,1.587,0,0,1,423.644,265.8Z" transform="translate(-412.754 -264.167)"/><path class="c" d="M432.172,265.8a1.534,1.534,0,1,1-1.53-1.638A1.587,1.587,0,0,1,432.172,265.8Z" transform="translate(-413.454 -264.167)"/></g></g><g transform="translate(25.774 135.19)"><rect class="l" width="37.574" height="40.232" rx="7.151"/><g transform="translate(7.513 14.297)"><path class="m" d="M327.674,230.071l-5.414,5.8,5.456,5.842" transform="translate(-322.26 -230.071)"/><path class="m" d="M340.923,230.071l5.413,5.8-5.456,5.842" transform="translate(-323.787 -230.071)"/><line class="m" x1="5.07" y2="11.639" transform="translate(8.74)"/></g></g><g transform="translate(18.543 28.948)"><rect class="j" width="123.516" height="97.93" rx="8.18"/><ellipse class="n" cx="17.901" cy="19.167" rx="17.901" ry="19.167" transform="translate(80.6 6.694)"/><path class="e" d="M378.8,205.754H313.709a7.792,7.792,0,0,1-7.509-8.04V184.827l28.485-52.833a3.746,3.746,0,0,1,6.7,0L362.9,171.882l15.973,29.626A4.311,4.311,0,0,1,378.8,205.754Z" transform="translate(-306.2 -107.824)"/><path class="n" d="M410.309,206.133H348.06l18.268-33.872,9.841-18.253a3.37,3.37,0,0,1,6.031,0Z" transform="translate(-309.633 -108.203)"/></g></g><g transform="translate(409.394 209.353)"><g transform="translate(51.943 147.492)"><rect class="o" width="47.989" height="77.223"/><rect class="p" width="18.375" height="77.223" transform="translate(66.364 77.223) rotate(180)"/><g transform="translate(50.62 2.966)"><rect class="j" width="13.491" height="2.465"/><rect class="j" width="13.491" height="2.465" transform="translate(0 5.294)"/><rect class="j" width="13.491" height="2.465" transform="translate(0 10.589)"/><rect class="j" width="13.491" height="2.465" transform="translate(0 15.883)"/><rect class="j" width="13.491" height="2.465" transform="translate(0 21.178)"/><rect class="j" width="13.491" height="2.465" transform="translate(0 26.472)"/><rect class="j" width="13.491" height="2.465" transform="translate(0 31.766)"/><rect class="j" width="13.491" height="2.465" transform="translate(0 37.061)"/><rect class="j" width="13.491" height="2.465" transform="translate(0 42.355)"/><rect class="j" width="13.491" height="2.465" transform="translate(0 47.649)"/><rect class="j" width="13.491" height="2.465" transform="translate(0 52.944)"/><rect class="j" width="13.491" height="2.465" transform="translate(0 58.238)"/><rect class="j" width="13.491" height="2.465" transform="translate(0 63.533)"/><rect class="j" width="13.491" height="2.465" transform="translate(0 68.827)"/></g></g><g transform="translate(0 0)"><path class="q" d="M489.6,440.182h24.389a15.148,15.148,0,0,0-1.591-10.411s-1.963,1.686-7.843.546a26.257,26.257,0,0,1-4.148,3.1C498.7,434.3,488.94,436.355,489.6,440.182Z" transform="translate(-445.45 -215.468)"/><path class="r" d="M491.4,365.357c1.575,10.064,8.844,44.114,11.969,64.229a26.831,26.831,0,0,0,9.907-.54c-.285-7.014-.848-23.792-.782-31.15.108-12.435.654-28.834-4.459-37.832l-17.19,1.449c.1.971.2,1.762.284,2.328C491.214,364.382,491.309,364.882,491.4,365.357Z" transform="translate(-445.556 -214.278)"/><path class="q" d="M441.541,440.182h24.39a15.148,15.148,0,0,0-1.591-10.411s-1.964,1.686-7.843.546a26.281,26.281,0,0,1-4.149,3.1C450.644,434.3,440.884,436.355,441.541,440.182Z" transform="translate(-441.509 -215.468)"/><path class="s" d="M457.066,428.893a26.194,26.194,0,0,0,9.634.923c1.3-8.086,3.345-25.876,5.189-34.214,2.86-12.962,5.66-30.788,3.715-37.147l-16.909-4.547C458.638,354.48,457.262,409.035,457.066,428.893Z" transform="translate(-442.785 -214.173)"/><path class="s" d="M524.507,334.918h0c-.34-3.578-.731-6.192-.731-6.192l-18.892,4.951-16.048,3.915c-5.949,1.419-13.136,3.128-19.473,4.661-7.11,1.73-11.83,7.513-10.272,15.136l1.782,9.247c9.945-.145,56.7-4.944,60.7-7.107C526.09,357.086,527.45,348.448,524.507,334.918Z" transform="translate(-442.927 -213.744)"/><path class="r" d="M555.229,334.9h0a29.43,29.43,0,0,0-1.969-7.417l-17.654,6.177-16.048,3.915c-5.95,1.419-13.137,3.128-19.473,4.661-7.11,1.73-11.83,7.513-10.273,15.136l1.783,9.247c9.944-.145,51.509-1.7,60.7-7.107C556.728,356.9,558.172,348.426,555.229,334.9Z" transform="translate(-445.446 -213.723)"/><g transform="translate(29.131 90.381)"><path class="t" d="M501.016,305.5s8.391-4.059,10.7.012c1.264,2.228.39,6.367-2.472,8.105s-19.034,9.062-34.3,13.146a41.455,41.455,0,0,0-1.7-4.663,78.84,78.84,0,0,0,13.655-8.16,85.405,85.405,0,0,1,14.118-8.44Z" transform="translate(-473.243 -303.698)"/></g><path class="t" d="M505.14,276.985l-7.192,30.757s.743,7.775,8.077,3.959,12.195-28.32,12.195-28.32Z" transform="translate(-446.138 -212.861)"/><path class="e" d="M517.653,293.88c-.89-.23-1.739-.483-2.558-.745q-1.259-.4-2.394-.822a39.46,39.46,0,0,1-10.527-5.521c2.148-10,4.737-16.715,7.038-21.141a3.188,3.188,0,0,0,.174-.328l.184-.328a18.725,18.725,0,0,1,5-5.575l.6-.449.849,16.058.143,1.653Z" transform="translate(-446.484 -212.554)"/><path class="u" d="M518.594,294.153c-.89-.23-1.739-.483-2.558-.745q-1.259-.4-2.394-.822c1.435-10.817,2.732-17.614,2.732-17.614l.736,1.983Z" transform="translate(-447.425 -212.827)"/><path class="e" d="M561.062,266.007c-.174,4.754-.952,12.389-1.627,20.056-.215,2.432-.42,4.874-.594,7.23-.122,1.468-2.188,9.3-2.271,10.7-.368,6.7-3.437,11.721-.531,21.929a17.086,17.086,0,0,1,.869,4.71c0,.7-.849,1.435-1.186,1.633-1.218.756-3.611,1.281-6.517,1.665h-.01a157.973,157.973,0,0,1-18.087.887c-6.251,0-15.632-1.063-16.819-2.749-1.084-1.544-.082-3.79.43-6.89,2.3-13.988,1.483-21.283,1.34-31.382,0-.252-.01-.5-.01-.767-.235-15.577-1.2-28.907-.521-33.716l.6-.449c.992-.723,1.965-1.369,2.905-1.939.082-.043.185-.109.286-.175.286-.175.583-.339.859-.5a3.226,3.226,0,0,1,.328-.175,68.556,68.556,0,0,1,6.977-2.947c.225-.077.43-.153.6-.208,1.667-.109,3.477-.131,5.432-.076,1.7.054,4.3.295,7.12.69h.01a69.234,69.234,0,0,1,9.453,1.894.529.529,0,0,1,.051.023,19.406,19.406,0,0,1,7.438,5.575A26.919,26.919,0,0,1,561.062,266.007Z" transform="translate(-447.438 -212.449)"/><path class="u" d="M559.081,326.331a17.086,17.086,0,0,1,.869,4.71c0,.7-.849,1.435-1.186,1.633-1.218.756-3.611,1.281-6.517,1.665a4.847,4.847,0,0,0,3.263-4.02c0-1.285-1.555-9.957-1.125-15.555s1.279-14.481-.338-21.6-3.151-16.486-3.151-16.486l9.115,5.894s1.177,1.763,2.466,3.9c-.215,2.432-.42,4.874-.594,7.23C561.761,295.167,556.175,316.122,559.081,326.331Z" transform="translate(-450.48 -212.856)"/><g transform="translate(64.219)"><path class="r" d="M516.13,224.354s.789,10.208,3.949,10.894,2.385-3.652,2.385-3.652l-.442-4.847Z" transform="translate(-511.848 -211.963)"/><path class="t" d="M531.636,261.546c-6.189-.789-3.878-7.23-3.028-8.709.225-.077,1.289-.427,1.371-.482a.033.033,0,0,1,.021-.011,1.827,1.827,0,0,0,.48-.767,16.8,16.8,0,0,0,.308-5.3v-.624c.1-.4.2-.789.286-1.15l3.253-2.738,6.884-5.8s-1.831,9.695-.358,15.807a2.321,2.321,0,0,0,.911,1.469c0,.011.01,0,.01,0a1.6,1.6,0,0,0,.686.262C544.148,254.36,541.795,262.839,531.636,261.546Z" transform="translate(-512.778 -212.162)"/><path class="v" d="M537.359,242.236a11.062,11.062,0,0,1-6.616,9.444c.61-1.688.329-5.075.309-5.292l2.748-2.31Z" transform="translate(-513.046 -212.269)"/><path class="t" d="M517.776,225.656s1.431,21.179,6.772,22.979c0,0,6.8.686,11.69-6.351,1.408-2.028,3.186-2.483,3.767-4.931.944-3.977,2.275-11.312.576-15.732C538.164,215.326,518.005,210.327,517.776,225.656Z" transform="translate(-511.983 -211.813)"/><path class="r" d="M540.146,218.061a6.123,6.123,0,0,0-3.724-5.284c-3.621-1.815-11.144-1.032-18.9.821-1.819.434-4.1-.761-5.371.183-1.535,1.14-.006,6.35-.006,6.35,2.993,9.7,14,6.547,17.312,5.35.787,2.5.686,5.971,2.648,7.762,1.117,1.021,3.061,1.05,5.035.7.243.494,1.157.931,1.342,1.61.622,2.269.533,5.814.514,8.552l.934-.488C540.049,242.873,549.706,218.379,540.146,218.061Z" transform="translate(-511.465 -211.748)"/><g transform="translate(6.587 16.894)"><path class="w" d="M523.325,233.041c.279,1.758-.531,3.372-1.809,3.605s-2.541-1-2.821-2.762.531-3.373,1.809-3.606S523.045,231.281,523.325,233.041Z" transform="translate(-518.64 -228.958)"/><path class="w" d="M530.355,231.727c.28,1.758-.53,3.373-1.808,3.606s-2.542-1-2.821-2.763.531-3.373,1.808-3.606S530.076,229.968,530.355,231.727Z" transform="translate(-519.217 -228.935)"/><path class="w" d="M523.744,233.082s.283-.492,1.769-.354" transform="translate(-519.059 -229)"/><line class="w" y1="0.944" x2="5.517" transform="translate(11.194 2.269)"/></g><g transform="translate(22.126 17.743)"><path class="t" d="M537.145,238.717c3.8,1.558,4.986-8.454,1.378-8.9-2.736-.336-2.848,3.751-2.848,3.751S534.976,237.828,537.145,238.717Z" transform="translate(-535.568 -229.799)"/></g><g class="x" transform="translate(23.67 19.272)"><path class="y" d="M538.536,231.355s-2.245,1.272-.8,5.175" transform="translate(-537.25 -231.355)"/><path class="y" d="M539.132,233.289a1.981,1.981,0,0,0-1.845,1.467" transform="translate(-537.253 -231.388)"/></g></g><path class="t" d="M575.341,309.091v.01c-1.67,2.074-8.006,3.586-11.054.717-.958-.914-2.04-3.322-3.1-6.31-2.7-7.64-5.262-19.071-5.262-19.071l14.179-7.758s1.824,8.758,3.4,17.081c0,0,.014.085.043.232.511,2.666.988,5.288,1.361,7.538a1.116,1.116,0,0,1,.028.179A34.1,34.1,0,0,1,575.341,309.091Z" transform="translate(-450.892 -212.856)"/><path class="e" d="M550.089,273.471c1.37,6.1,5.673,17.65,5.673,17.65a21.079,21.079,0,0,0,10.406-1.348,19.192,19.192,0,0,0,6.629-4.61s-2.855-8.589-5.416-14.761c-2.3-5.54-3.68-7.608-4.675-8.706a22.711,22.711,0,0,0-5.63-4.483Z" transform="translate(-450.414 -212.524)"/><path class="e" d="M568.292,277.423l-8.321-3.844-6.556-18.088s1.2.391,2.784,1.075h.007c.03.016.1.04.213.089a.84.84,0,0,1,.121.057c1.415.709,6.9,4.17,10.695,16.744l.091.318c.4,1.45.7,2.615.859,3.217.016.057.031.114.046.179C568.254,277.252,568.27,277.342,568.292,277.423Z" transform="translate(-450.687 -212.495)"/><g transform="translate(71.236 80.678)"><path class="t" d="M573.18,309.384v.01c-.122,1.112-.409,1.911-.922,2.194-.082.056-1.246.8-1.327.854a69.24,69.24,0,0,1-8.789,4.867,304.863,304.863,0,0,1-30.692,11.808,40.243,40.243,0,0,0-1.877-4.587,79.478,79.478,0,0,0,13.324-8.758c6.614-5.405,16.127-11.971,16.127-11.971l2.4-3.026s8.539-8.416,9.911-6.723c0,0,.014.085.043.232.2.878.881,4.107,1.361,7.538a1.116,1.116,0,0,1,.028.179A34.106,34.106,0,0,1,573.18,309.384Z" transform="translate(-519.967 -293.826)"/><path class="t" d="M529.7,324.517a5.007,5.007,0,0,1-3.371.694c-.941-.211-1.321-.624-2.017-.755a14.8,14.8,0,0,1-3.467-.858c-.917-.482-1.275-.536-1.243.451s1.842,1.839,2.334,2.112a4.839,4.839,0,0,1,1.173,1.258c.067.11-3.017,1.838-3.846,1.487a2.742,2.742,0,0,0-.107,1.239c.141.443.775.6.824.823s-.146.678-.008,1.033.7.355.932.93-.023.585.143,1.184.883.709,1.019,1.017.064.671.365.885,3.074-.74,4.087-1.2,3.718-4.636,6.711-6.057Z" transform="translate(-519.109 -294.328)"/></g><path class="z" d="M544.155,343.438h-21.57v-2.26h21.57a1.094,1.094,0,0,1,1.056,1.129h0A1.1,1.1,0,0,1,544.155,343.438Z" transform="translate(-448.158 -213.956)"/><path class="z" d="M527.428,342.685H473.42a1.458,1.458,0,0,1-1.387-1.129l-11.054-42.608a1.463,1.463,0,0,1,1.332-1.876h52.227a2.745,2.745,0,0,1,2.61,2.125l11.014,42.454A.806.806,0,0,1,527.428,342.685Z" transform="translate(-443.102 -213.204)"/><path class="aa" d="M525.3,342.685H471.291a1.46,1.46,0,0,1-1.388-1.129l-11.054-42.608a1.463,1.463,0,0,1,1.332-1.876h52.226a2.745,2.745,0,0,1,2.611,2.125l11.014,42.454A.806.806,0,0,1,525.3,342.685Z" transform="translate(-442.927 -213.204)"/></g></g><g transform="translate(173.272 264.584)"><path class="ab" d="M298.064,315.156l6.256-6.868a19.142,19.142,0,0,1,.557-3.709c.341-.646,1.221-3.038,1.659-3.3a2.124,2.124,0,0,1,1.315,0,5.7,5.7,0,0,1,1.259-.314,3.525,3.525,0,0,1,1.119.381s.935-.068,1.325-.068a.791.791,0,0,1,.515.117,28.816,28.816,0,0,1,2.239-2.484c.731-.625,1.848-1.778,2.179-1.773.312,0,.45.592.222,1.218a6.867,6.867,0,0,1-1.216,1.636l-2.85,4.625a5.953,5.953,0,0,0,.746-.382c.26-.174,2-1.913,2.1-1.983s.884-.625,1.339-.069-2.984,4.967-3.537,5.559a29.687,29.687,0,0,1-3.713,2.3s-3.338,6.429-3.663,6.846S298.064,315.156,298.064,315.156Z" transform="translate(-193.624 -268.436)"/><path class="ab" d="M302.4,283.02s-3.495,21.676-6.784,22.179c0,0-13.132.567-16.057-16.491-2.537-14.792,7.639-17.947,12.4-16.815S303.424,273.761,302.4,283.02Z" transform="translate(-192.074 -268.002)"/><path class="ab" d="M290.674,302.05s-1.84,2.655-2.484,9.086a18.333,18.333,0,0,1-10.511-1.942,84.7,84.7,0,0,0,3.051-18.922" transform="translate(-191.952 -268.319)"/><path class="r" d="M286.849,268.2c-7.176,1.7-6.6,6.484-6.6,6.484-3.359.891-4.081,2.376-4.054,9.016s2.272,14.613,3.509,15.262,8.253.68,8.838.452,3.04-6.319,2.468-7.391.028-5.286,1.662-5.445,1.314,2.552,1.314,2.552l1.343-.315,1.037-2.723c9.483.6,11.933-10.967,11.933-10.967C306.02,273.535,294.026,266.5,286.849,268.2Z" transform="translate(-191.83 -267.938)"/><path class="t" d="M200.666,417.487l7.256,1.123-2.4,9.073-7.858-2.122a5.71,5.71,0,0,1,1.629-8.073A2.475,2.475,0,0,1,200.666,417.487Z" transform="translate(-185.305 -270.487)"/><path d="M255.432,393.172,244.737,358.5s-3.241-1.237-4.9,0c0,0-11.141,6.415-9.953,24.705a318.652,318.652,0,0,0,4.717,34.741l-28.532-1.13a10.976,10.976,0,0,0-1.243,10.312s35.853,10.325,40.9,11.278c4.1.777,8.6,1.374,10.766-.616C260.315,434.284,255.432,393.172,255.432,393.172Z" transform="translate(-185.915 -269.473)"/><path class="t" d="M237.467,417.487l7.256,1.123-2.4,9.073-7.858-2.122a5.71,5.71,0,0,1,1.629-8.073A2.475,2.475,0,0,1,237.467,417.487Z" transform="translate(-188.323 -270.487)"/><path class="aa" d="M233.823,422.2c-.162,1.786,1.3,3.394,1.03,3.839s-5.144,9.207-5.144,9.207,3.682,1.717,3.088,4.2h-9.325a8.51,8.51,0,0,1-2.376-5.724,30.454,30.454,0,0,1,2.3-7.313c1.662-3.434,5.444-11.188,5.444-11.188a4.948,4.948,0,0,1,3.108.064,18.308,18.308,0,0,1,4.511,2.161S234.224,417.79,233.823,422.2Z" transform="translate(-187.312 -270.447)"/><path class="r" d="M310.067,430.515c-2.3-9.2-23.964-48.468-31.293-59.071-15.051-7-31.094-12.936-31.094-12.936-6.634,1.7-9.9,16.011-6.14,25.554,2.581,6.547,18.958,23.024,28.987,32.725l-27.83-.035s-3.279,5.247-.308,10.23c0,0,46.286,11.269,50.346,11.905s13.17,0,13.17,0S312.005,438.259,310.067,430.515Z" transform="translate(-188.858 -269.483)"/><path class="aa" d="M197.022,422.2c-.162,1.786,1.3,3.394,1.03,3.839s-5.145,9.207-5.145,9.207,3.683,1.717,3.089,4.2h-9.325a8.505,8.505,0,0,1-2.376-5.724,30.455,30.455,0,0,1,2.3-7.313c1.662-3.434,5.444-11.188,5.444-11.188a4.947,4.947,0,0,1,3.108.064,18.328,18.328,0,0,1,4.511,2.161S197.423,417.79,197.022,422.2Z" transform="translate(-184.294 -270.447)"/><path class="ab" d="M351.212,308.679l-14.927,28.115-10.691-11.41-8.849,14.1,2.569,1.321-.924.824s20.631,10.758,23.1,8.385,13.991-38.142,13.991-38.142Z" transform="translate(-195.156 -268.633)"/><path class="aa" d="M321.188,327.08s-2.818,12.729-8.455,18.764l-14.422-5.878s-6.692,12.051-13.237,21.291c-2.515,3.568-3.351,8.591-6.307,9.25-.184-.069-.358-.128-.542-.177-8.014-2.575-19.838.157-29.6-3.725-10.777-4.3-8.684-6.714-8.684-6.714a154.713,154.713,0,0,0,10.245-25.969c1.652-5.908,2.8-11.382,3.562-15.658,1.368-7.569,7.032-13.486,14.174-14.518.083-.01.156-.029.239-.039,8.17-1.111,29.559,1.592,33.718,3.5S321.188,327.08,321.188,327.08Z" transform="translate(-188.844 -268.544)"/><path class="ac" d="M301.794,340.565s-6.692,12.051-13.237,21.291c-2.515,3.568-3.351,8.591-6.307,9.25,1.294-.492,3.442-7.785,4.2-9.426s1.992-3.273,4.636-9,6.211-14.153,6.211-14.153Z" transform="translate(-192.327 -269.142)"/><path class="ad" d="M273.26,417.8a43.8,43.8,0,0,1,14.387,2.214" transform="translate(-191.59 -270.494)"/><path class="ab" d="M365.37,298.064A14.024,14.024,0,0,0,362.86,300l.851-1.745a16.793,16.793,0,0,0,1.53-1.8c.406-.639.192-1.278-.128-1.312a12.537,12.537,0,0,0-2.351,1.8l.172-.351a16.8,16.8,0,0,0,1.53-1.8c.4-.639.192-1.278-.128-1.312a20.294,20.294,0,0,0-2.909,2.293l-1.261,1.808.95-1.977a8.6,8.6,0,0,0,.835-1.37c.333-.715.093-.934-.093-1.172s-1.929,1.152-2.374,1.707a29.048,29.048,0,0,0-1.965,3.128l-1.457,3.227c-.094-.935-.24-2.535-.342-3.554-.149-1.469-1.391-1.817-1.434-1.1a39.951,39.951,0,0,0-.578,6.135c.156,1.907.454,3.157.565,4.23a8.842,8.842,0,0,1-.927,3.215s4.154,2.762,4.842,1.935a34.5,34.5,0,0,0,2.855-3.9,21.574,21.574,0,0,0,1.626-3.932l1.3-2.969a16.792,16.792,0,0,0,1.53-1.8C365.9,298.736,365.689,298.1,365.37,298.064Z" transform="translate(-198.157 -268.366)"/></g><g transform="translate(524.566 204.758)"><path class="ae" d="M621.335,207.074H572.623a5.863,5.863,0,0,0-5.653,6.053v12.321a5.929,5.929,0,0,0,4.94,6.006.853.853,0,0,1,.713.866v6.746a.371.371,0,0,0,.679.233l4.962-7.429a.806.806,0,0,1,.668-.369h42.4a5.863,5.863,0,0,0,5.653-6.053V213.127A5.863,5.863,0,0,0,621.335,207.074Z" transform="translate(-566.97 -207.074)"/><g transform="translate(9.404 10.202)"><path class="ae" d="M580.936,219.446a1.866,1.866,0,1,1-1.862-1.993A1.93,1.93,0,0,1,580.936,219.446Z" transform="translate(-577.214 -217.453)"/><path class="ae" d="M591.145,219.446a1.866,1.866,0,1,1-1.861-1.993A1.93,1.93,0,0,1,591.145,219.446Z" transform="translate(-578.051 -217.453)"/><path class="ae" d="M601.354,219.446a1.865,1.865,0,1,1-1.861-1.993A1.929,1.929,0,0,1,601.354,219.446Z" transform="translate(-578.888 -217.453)"/><path class="ae" d="M611.564,219.446a1.866,1.866,0,1,1-1.862-1.993A1.93,1.93,0,0,1,611.564,219.446Z" transform="translate(-579.726 -217.453)"/><path class="ae" d="M621.773,219.446a1.866,1.866,0,1,1-1.861-1.993A1.929,1.929,0,0,1,621.773,219.446Z" transform="translate(-580.563 -217.453)"/></g></g><g transform="translate(188.363 258.778)"><path class="ae" d="M206.386,262.031H255.1a5.862,5.862,0,0,1,5.652,6.052v12.322a5.926,5.926,0,0,1-4.939,6,.855.855,0,0,0-.713.867v6.745a.371.371,0,0,1-.679.233l-4.962-7.429a.806.806,0,0,0-.668-.368h-42.4a5.863,5.863,0,0,1-5.653-6.053V268.083A5.863,5.863,0,0,1,206.386,262.031Z" transform="translate(-200.733 -262.031)"/><g transform="translate(9.404 10.202)"><path class="ae" d="M251.814,274.4a1.866,1.866,0,1,0,1.862-1.993A1.931,1.931,0,0,0,251.814,274.4Z" transform="translate(-214.326 -272.41)"/><path class="ae" d="M241.6,274.4a1.866,1.866,0,1,0,1.861-1.993A1.931,1.931,0,0,0,241.6,274.4Z" transform="translate(-213.489 -272.41)"/><path class="ae" d="M231.4,274.4a1.866,1.866,0,1,0,1.862-1.993A1.931,1.931,0,0,0,231.4,274.4Z" transform="translate(-212.651 -272.41)"/><path class="ae" d="M221.186,274.4a1.866,1.866,0,1,0,1.861-1.993A1.931,1.931,0,0,0,221.186,274.4Z" transform="translate(-211.814 -272.41)"/><path class="ae" d="M210.977,274.4a1.866,1.866,0,1,0,1.861-1.993A1.93,1.93,0,0,0,210.977,274.4Z" transform="translate(-210.977 -272.41)"/></g></g><g transform="translate(390.552 157.345)"><path class="af" d="M518.635,177.825H429.85c-4.9,0-8.866-4.25-8.866-9.493h0c0-5.243,3.969-9.493,8.866-9.493h88.785c4.9,0,8.866,4.25,8.866,9.493h0C527.5,173.574,523.531,177.825,518.635,177.825Z" transform="translate(-420.984 -158.838)"/><g transform="translate(86.92 3.79)"><path class="ag" d="M525.1,167.743a4.726,4.726,0,1,1-4.715-5.049A4.89,4.89,0,0,1,525.1,167.743Z" transform="translate(-515.669 -162.694)"/><line class="ah" x2="2.603" y2="2.788" transform="translate(8.048 8.619)"/></g></g><g transform="translate(128.152 71.31)"><g transform="translate(189.496 324.146)"><rect class="ai" width="36.487" height="39.069" rx="7.708" transform="translate(6.65)"/><rect class="p" width="36.487" height="39.069" rx="7.708"/><path class="e" d="M356.617,413.451l10.474,6.475a1.077,1.077,0,0,1,0,1.8L356.617,428.2a.971.971,0,0,1-1.454-.9V414.35A.971.971,0,0,1,356.617,413.451Z" transform="translate(-342.683 -401.29)"/></g><g transform="translate(409.461 312.142)"><rect class="ai" width="47.698" height="51.072" rx="10.076" transform="translate(8.693)"/><rect class="p" width="47.698" height="51.072" rx="10.076"/><path class="e" d="M612.381,401.512a5.744,5.744,0,1,1-5.731-6.137A5.944,5.944,0,0,1,612.381,401.512Z" transform="translate(-582.801 -388.981)"/><path class="e" d="M618.042,422.532v9.059a1.436,1.436,0,0,1-1.383,1.482H595.532a1.436,1.436,0,0,1-1.384-1.482v-9.059c0-7.064,5.349-12.791,11.947-12.791h0C612.693,409.741,618.042,415.468,618.042,422.532Z" transform="translate(-582.246 -389.226)"/></g><g transform="translate(306.479 112.94)"><path class="n" d="M489.164,189.228H470.41A1.462,1.462,0,0,1,469,187.719h0a1.462,1.462,0,0,1,1.409-1.509h18.754a1.462,1.462,0,0,1,1.409,1.509h0A1.461,1.461,0,0,1,489.164,189.228Z" transform="translate(-469.001 -186.21)"/><path class="n" d="M510.064,189.228H496.492a1.462,1.462,0,0,1-1.409-1.509h0a1.462,1.462,0,0,1,1.409-1.509h13.572a1.462,1.462,0,0,1,1.409,1.509h0A1.461,1.461,0,0,1,510.064,189.228Z" transform="translate(-471.14 -186.21)"/><path class="n" d="M478.378,195.978H470.41A1.462,1.462,0,0,1,469,194.469h0a1.462,1.462,0,0,1,1.409-1.509h7.968a1.462,1.462,0,0,1,1.409,1.509h0A1.462,1.462,0,0,1,478.378,195.978Z" transform="translate(-469.001 -186.325)"/><path class="n" d="M509.059,195.978H484.242a1.462,1.462,0,0,1-1.409-1.509h0a1.462,1.462,0,0,1,1.409-1.509h24.817a1.462,1.462,0,0,1,1.409,1.509h0A1.461,1.461,0,0,1,509.059,195.978Z" transform="translate(-470.135 -186.325)"/><path class="n" d="M495.131,202.728H470.41A1.462,1.462,0,0,1,469,201.219h0a1.462,1.462,0,0,1,1.409-1.509h24.721a1.462,1.462,0,0,1,1.409,1.509h0A1.461,1.461,0,0,1,495.131,202.728Z" transform="translate(-469.001 -186.44)"/><path class="n" d="M510.564,202.728H502.6a1.462,1.462,0,0,1-1.41-1.509h0a1.463,1.463,0,0,1,1.41-1.509h7.967a1.462,1.462,0,0,1,1.409,1.509h0A1.461,1.461,0,0,1,510.564,202.728Z" transform="translate(-471.641 -186.44)"/></g><g transform="translate(20.193 227.174)"><rect class="ai" width="72.486" height="42.902" rx="3.823"/><line class="aj" x2="66.325" transform="translate(3.081 5.796)"/><ellipse class="e" cx="0.803" cy="0.86" rx="0.803" ry="0.86" transform="translate(66.852 1.987)"/><ellipse class="e" cx="0.803" cy="0.86" rx="0.803" ry="0.86" transform="translate(62.663 1.987)"/><ellipse class="e" cx="0.803" cy="0.86" rx="0.803" ry="0.86" transform="translate(58.475 1.987)"/><g transform="translate(3.081 9.195)"><path class="ak" d="M172.861,314.157H161.606a1.15,1.15,0,0,1-1.109-1.187h0a1.151,1.151,0,0,1,1.109-1.188h11.255a1.151,1.151,0,0,1,1.109,1.188h0A1.15,1.15,0,0,1,172.861,314.157Z" transform="translate(-160.497 -311.781)"/><path class="ak" d="M172.861,319.74H161.606a1.15,1.15,0,0,1-1.109-1.187h0a1.15,1.15,0,0,1,1.109-1.187h11.255a1.15,1.15,0,0,1,1.109,1.187h0A1.15,1.15,0,0,1,172.861,319.74Z" transform="translate(-160.497 -311.876)"/><path class="ak" d="M172.861,325.324H161.606a1.151,1.151,0,0,1-1.109-1.188h0a1.15,1.15,0,0,1,1.109-1.187h11.255a1.15,1.15,0,0,1,1.109,1.187h0A1.151,1.151,0,0,1,172.861,325.324Z" transform="translate(-160.497 -311.971)"/><path class="ak" d="M172.861,330.907H161.606a1.15,1.15,0,0,1-1.109-1.187h0a1.151,1.151,0,0,1,1.109-1.188h11.255a1.151,1.151,0,0,1,1.109,1.188h0A1.15,1.15,0,0,1,172.861,330.907Z" transform="translate(-160.497 -312.067)"/><path class="ak" d="M172.861,336.49H161.606A1.15,1.15,0,0,1,160.5,335.3h0a1.15,1.15,0,0,1,1.109-1.187h11.255a1.15,1.15,0,0,1,1.109,1.187h0A1.15,1.15,0,0,1,172.861,336.49Z" transform="translate(-160.497 -312.162)"/><path class="ak" d="M172.861,342.074H161.606a1.151,1.151,0,0,1-1.109-1.188h0a1.15,1.15,0,0,1,1.109-1.187h11.255a1.15,1.15,0,0,1,1.109,1.187h0A1.151,1.151,0,0,1,172.861,342.074Z" transform="translate(-160.497 -312.257)"/><g transform="translate(15.606)"><path class="al" d="M227.106,314.157h-48.5a1.15,1.15,0,0,1-1.109-1.187h0a1.151,1.151,0,0,1,1.109-1.188h48.5a1.151,1.151,0,0,1,1.11,1.188h0A1.151,1.151,0,0,1,227.106,314.157Z" transform="translate(-177.497 -311.781)"/><path class="al" d="M227.106,319.74h-48.5a1.15,1.15,0,0,1-1.109-1.187h0a1.15,1.15,0,0,1,1.109-1.187h48.5a1.151,1.151,0,0,1,1.11,1.187h0A1.151,1.151,0,0,1,227.106,319.74Z" transform="translate(-177.497 -311.876)"/><path class="al" d="M227.106,325.324h-48.5a1.151,1.151,0,0,1-1.109-1.188h0a1.15,1.15,0,0,1,1.109-1.187h48.5a1.151,1.151,0,0,1,1.11,1.187h0A1.151,1.151,0,0,1,227.106,325.324Z" transform="translate(-177.497 -311.971)"/><path class="al" d="M227.106,330.907h-48.5a1.15,1.15,0,0,1-1.109-1.187h0a1.151,1.151,0,0,1,1.109-1.188h48.5a1.151,1.151,0,0,1,1.11,1.188h0A1.151,1.151,0,0,1,227.106,330.907Z" transform="translate(-177.497 -312.067)"/><path class="al" d="M227.106,336.49h-48.5A1.15,1.15,0,0,1,177.5,335.3h0a1.15,1.15,0,0,1,1.109-1.187h48.5a1.151,1.151,0,0,1,1.11,1.187h0A1.151,1.151,0,0,1,227.106,336.49Z" transform="translate(-177.497 -312.162)"/><path class="al" d="M227.106,342.074h-48.5a1.151,1.151,0,0,1-1.109-1.188h0a1.15,1.15,0,0,1,1.109-1.187h48.5a1.151,1.151,0,0,1,1.11,1.187h0A1.151,1.151,0,0,1,227.106,342.074Z" transform="translate(-177.497 -312.257)"/></g></g></g><g transform="translate(364.018 0)"><path class="am" d="M31.836-.478C49.419-.743,63.458,12.454,63.194,29S48.462,59.166,30.88,59.43-.743,46.5-.478,29.954,14.254-.214,31.836-.478Z" transform="matrix(0.233, -0.972, 0.972, 0.233, 0, 62.143)"/><path class="f" d="M26.243-.679c14.493-.375,25.939,11.623,25.564,26.8S39.378,53.9,24.884,54.275-1.054,42.652-.679,27.477,11.749-.3,26.243-.679Z" transform="translate(1.75 24.353) rotate(-23.868)"/><path class="e" d="M573.015,110.451a2.367,2.367,0,1,1-2.361-2.529A2.449,2.449,0,0,1,573.015,110.451Z" transform="translate(-534.683 -71.935)"/><path class="e" d="M569.805,109.708h0a.714.714,0,0,1-1-.308l-7.629-14.735a.821.821,0,0,1,.287-1.075h0a.714.714,0,0,1,1,.308l7.629,14.735A.821.821,0,0,1,569.805,109.708Z" transform="translate(-534.092 -71.689)"/><path class="e" d="M571.255,110.9h0a.705.705,0,0,1,1.045,0l6.6,7.068a.83.83,0,0,1,0,1.118h0a.7.7,0,0,1-1.045,0l-6.6-7.067A.832.832,0,0,1,571.255,110.9Z" transform="translate(-534.909 -71.982)"/><g transform="translate(12.223 13.087)"><line class="an" y1="3.195" transform="translate(23.907)"/><line class="an" x2="2.983" transform="translate(44.513 25.598)"/><line class="an" y2="3.195" transform="translate(23.589 47.662)"/><line class="an" x1="2.983" transform="translate(0 25.258)"/></g><g class="x" transform="translate(15.325 16.409)"><line class="ao" x1="1.492" y1="2.767" transform="translate(8.909)"/><line class="ao" y1="1.597" x2="2.584" transform="translate(38.708 9.54)"/><line class="ao" x2="1.492" y2="2.767" transform="translate(30.891 41.447)"/><line class="ao" x1="2.584" y2="1.597" transform="translate(0 33.076)"/></g><g class="x" transform="translate(15.484 16.579)"><line class="ao" x1="2.584" y1="1.597" transform="translate(0 9.075)"/><line class="ao" y1="2.767" x2="1.492" transform="translate(31.007)"/><line class="ao" x2="2.584" y2="1.597" transform="translate(38.39 33.201)"/><line class="ao" x1="1.492" y2="2.767" transform="translate(8.475 41.107)"/></g></g><g transform="translate(0 140.742)"><rect class="ai" width="50.337" height="53.898" rx="9.569" transform="translate(3.901 4.669)"/><rect class="ap" width="50.337" height="53.898" rx="7.667"/><g transform="translate(13.991 8.499)"><path class="c" d="M170.278,235.42h-.263v-3.087c0-5.068-3.849-9.192-8.582-9.192s-8.582,4.123-8.582,9.192v3.087h-.058A2.5,2.5,0,0,0,150.385,238v11.635a2.5,2.5,0,0,0,2.408,2.579h17.485a2.5,2.5,0,0,0,2.409-2.579V238A2.5,2.5,0,0,0,170.278,235.42Zm-15.253-3.087a6.424,6.424,0,1,1,12.817,0v3.087H155.025Z" transform="translate(-150.385 -223.141)"/><path class="aq" d="M165.111,241.665a2.863,2.863,0,0,0-3.376-2.937,2.912,2.912,0,0,0-2.161,2.291,3.082,3.082,0,0,0,1.325,3.231.552.552,0,0,1,.254.6l-.487,1.927a1.716,1.716,0,1,0,3.247,0l-.482-1.906a.553.553,0,0,1,.261-.606A3.026,3.026,0,0,0,165.111,241.665Z" transform="translate(-151.133 -223.406)"/><path class="c" d="M171.654,256.83H151.418a1.07,1.07,0,0,1-1.033-1.106h0a1.071,1.071,0,0,1,1.033-1.106h20.236a1.072,1.072,0,0,1,1.033,1.106h0A1.071,1.071,0,0,1,171.654,256.83Z" transform="translate(-150.385 -223.678)"/><path class="c" d="M171.654,260.643H151.418a1.071,1.071,0,0,1-1.033-1.106h0a1.07,1.07,0,0,1,1.033-1.106h20.236a1.071,1.071,0,0,1,1.033,1.106h0A1.072,1.072,0,0,1,171.654,260.643Z" transform="translate(-150.385 -223.743)"/></g></g><g transform="translate(415.189 228.184)"><path class="ai" d="M5.634,0H24a5.634,5.634,0,0,1,5.634,5.634V26.1A5.633,5.633,0,0,1,24,31.731H5.634A5.634,5.634,0,0,1,0,26.1V5.634A5.634,5.634,0,0,1,5.634,0Z" transform="translate(2.297 2.749)"/><rect class="ap" width="29.634" height="31.731" rx="4.513"/><g transform="translate(5.967 6.388)"><g transform="translate(1.944)"><path class="e" d="M596.96,328.906a.821.821,0,0,1-.251-.037.992.992,0,0,1-.633-1.212l4.482-16.986a.908.908,0,0,1,1.132-.679.993.993,0,0,1,.634,1.213l-4.482,16.986A.929.929,0,0,1,596.96,328.906Z" transform="translate(-596.041 -309.953)"/></g><g transform="translate(9.438)"><path class="e" d="M605.123,328.906a.811.811,0,0,1-.25-.037.991.991,0,0,1-.634-1.212l4.483-16.986a.908.908,0,0,1,1.132-.679.993.993,0,0,1,.634,1.213l-4.483,16.986A.928.928,0,0,1,605.123,328.906Z" transform="translate(-604.204 -309.953)"/></g><g transform="translate(0 4.645)"><path class="e" d="M610.7,316.645H594.841a.985.985,0,0,1,0-1.966H610.7a.985.985,0,0,1,0,1.966Z" transform="translate(-593.923 -314.679)"/></g><g transform="translate(0 12.405)"><path class="e" d="M610.7,324.539H594.841a.985.985,0,0,1,0-1.966H610.7a.985.985,0,0,1,0,1.966Z" transform="translate(-593.923 -322.573)"/></g></g></g><g transform="translate(71.475 159.177)"><path class="n" d="M225.736,235.944H214.263A1.306,1.306,0,0,1,213,234.6h0a1.305,1.305,0,0,1,1.259-1.347h11.473a1.3,1.3,0,0,1,1.258,1.347h0A1.3,1.3,0,0,1,225.736,235.944Z" transform="translate(-213.004 -233.25)"/><path class="n" d="M237.293,242.027H214.263A1.3,1.3,0,0,1,213,240.681h0a1.306,1.306,0,0,1,1.259-1.348h23.031a1.3,1.3,0,0,1,1.258,1.348h0A1.3,1.3,0,0,1,237.293,242.027Z" transform="translate(-213.004 -233.354)"/><path class="n" d="M216.983,248.111h-2.72A1.306,1.306,0,0,1,213,246.764h0a1.3,1.3,0,0,1,1.259-1.347h2.72a1.3,1.3,0,0,1,1.258,1.347h0A1.3,1.3,0,0,1,216.983,248.111Z" transform="translate(-213.004 -233.458)"/><path class="n" d="M237.918,248.111H221.882a1.3,1.3,0,0,1-1.258-1.348h0a1.3,1.3,0,0,1,1.258-1.347h16.036a1.3,1.3,0,0,1,1.258,1.347h0A1.3,1.3,0,0,1,237.918,248.111Z" transform="translate(-213.629 -233.458)"/><path class="n" d="M238.729,235.944h-6.955a1.305,1.305,0,0,1-1.258-1.348h0a1.305,1.305,0,0,1,1.258-1.347h6.955a1.3,1.3,0,0,1,1.258,1.347h0A1.3,1.3,0,0,1,238.729,235.944Z" transform="translate(-214.44 -233.25)"/></g><path class="e" d="M166.4,422.8a7.572,7.572,0,0,0-4.091,1.2,8.817,8.817,0,0,0-8.524-8.153c-4.739,0-8.58,4.114-8.58,9.188a9.823,9.823,0,0,0,.052,1.006,6.192,6.192,0,0,0-1.214-.122,7.032,7.032,0,0,0,0,14.03H166.4a8.6,8.6,0,0,0,0-17.152Z" transform="translate(-135.336 -77.188)"/></g><g transform="translate(74.546 328.412)"><path class="c" d="M105.082,384.543a9.665,9.665,0,0,1,.115-3.858,40.815,40.815,0,0,0-.4-20.777c-4.288-14.336-21.667-27.034-21.667-27.034s4.718,21.157,8.6,30.165c2.839,6.6,7.807,14.1,10.562,18.053A9.142,9.142,0,0,1,103.8,384.8a165.033,165.033,0,0,1,2.4,29.735l1.3.055A166.591,166.591,0,0,0,105.082,384.543Z" transform="translate(-77.272 -332.874)"/><path class="ar" d="M121.058,371.285a177.958,177.958,0,0,0,5.057-25.454S110.533,359.6,109.256,370.25a38.17,38.17,0,0,0,1.062,14.838,10.834,10.834,0,0,1,.367,4.034A151.172,151.172,0,0,0,110.364,417l1.172-.144a148.9,148.9,0,0,1,.185-26.169,10.813,10.813,0,0,1,2.146-5.529A44.615,44.615,0,0,0,121.058,371.285Z" transform="translate(-79.391 -333.095)"/><path class="c" d="M137.112,345.278s-16.792,6.672-21.183,21.352a41.83,41.83,0,0,0-.365,21.47,7.884,7.884,0,0,1,0,3.659,175.918,175.918,0,0,0-3.994,34.613H112.9a174.727,174.727,0,0,1,3.86-33.867,13.119,13.119,0,0,1,1.991-4.553c2.863-4.13,7.737-11.561,10.56-18.117C133.286,360.612,137.112,345.278,137.112,345.278Z" transform="translate(-79.604 -333.086)"/><path class="ar" d="M104.628,407.4a52.718,52.718,0,0,0-3.878-16.319,5.93,5.93,0,0,1-.391-2.953,28.854,28.854,0,0,0-.392-8.775c-1.363-7.2-10.292-22.763-23.219-23.675a103.408,103.408,0,0,1,6.756,14.1c2.9,8.127,7.049,16.629,13.922,19.892a5.382,5.382,0,0,1,2.659,2.957,51.057,51.057,0,0,1,3.364,14.862Z" transform="translate(-76.749 -333.263)"/><g transform="translate(13.572 66.38)"><path class="c" d="M97.1,439.681h21.332l5.535-36.216a2.584,2.584,0,0,0-2.428-3.059H93.993a2.583,2.583,0,0,0-2.427,3.059Z" transform="translate(-91.533 -400.406)"/></g></g><line class="as" x2="596.897" transform="translate(49.89 434.068)"/></g></g></svg>