<svg xmlns="http://www.w3.org/2000/svg" xmlns:xlink="http://www.w3.org/1999/xlink" width="395.814" height="546.159" viewBox="0 0 395.814 546.159"><defs><style>.a{opacity:0.19;}.b,.s{opacity:0.6;}.b{fill:url(#a);}.c{fill:url(#b);}.d{fill:url(#c);}.e,.s{fill:#724a2d;}.f{fill:#916747;}.g{fill:#dbd9d9;}.h{fill:#afafaf;}.i{fill:#bcbcbc;}.j{fill:url(#d);}.k{fill:#a0a0a0;}.l{fill:#ffc431;}.m{fill:#bc9773;}.n{fill:#724d3f;}.o{fill:#56362c;}.p{fill:#966d59;}.q{fill:#5e3c25;}.r{fill:#684229;}</style><linearGradient id="a" x1="0.493" y1="0.421" x2="0.544" y2="1.582" gradientUnits="objectBoundingBox"><stop offset="0.03" stop-color="#c69e7f"/><stop offset="0.141" stop-color="#b99f8c"/><stop offset="0.314" stop-color="#aca199"/><stop offset="0.54" stop-color="#a5a2a0"/><stop offset="1" stop-color="#a3a3a3"/></linearGradient><linearGradient id="b" x1="0.546" y1="1.126" x2="0.471" y2="-0.01" gradientUnits="objectBoundingBox"><stop offset="0" stop-color="#875f3c"/><stop offset="0.252" stop-color="#8b6340"/><stop offset="0.52" stop-color="#97704c"/><stop offset="0.794" stop-color="#ab8561"/><stop offset="0.97" stop-color="#bc9773"/></linearGradient><linearGradient id="c" x1="0.61" y1="0.869" x2="0.172" y2="-0.003" gradientUnits="objectBoundingBox"><stop offset="0" stop-color="#875f3c"/><stop offset="0.467" stop-color="#88603d"/><stop offset="0.651" stop-color="#8f6744"/><stop offset="0.784" stop-color="#9a7450"/><stop offset="0.893" stop-color="#ab8561"/><stop offset="0.97" stop-color="#bc9773"/></linearGradient><linearGradient id="d" x1="0.606" y1="0.862" x2="0.423" y2="0.091" gradientUnits="objectBoundingBox"><stop offset="0" stop-color="#875f3c"/><stop offset="0.29" stop-color="#8a623f"/><stop offset="0.53" stop-color="#936c49"/><stop offset="0.751" stop-color="#a47d5a"/><stop offset="0.961" stop-color="#ba9571"/><stop offset="0.97" stop-color="#bc9773"/></linearGradient></defs><g transform="translate(0)"><g class="a" transform="translate(23.685 372.05)"><path class="b" d="M113.693,368.5s28.281,28.783,171.108,74.181c277.872,88.319,205-44.271,146.8-113.41-47.585-7.563-143.993-41.167-179.991-28.529C212.138,314.6,113.693,368.5,113.693,368.5Z" transform="translate(-113.693 -297.93)"/></g><g transform="translate(0 0)"><path class="c" d="M173.4,150.884l66.943-61.075s2.348,17.859,5.12,43.11c2.7,24.6,3.279,38.893,3.279,38.893s-18.391-4.545-38.206-10.118C187.672,155.264,173.4,150.884,173.4,150.884Z" transform="translate(-56.258 -43.516)"/><path class="d" d="M216.172,89.809l64.158,59.877-55.759,22.125Z" transform="translate(-32.083 -43.516)"/><path class="e" d="M235.894,74.85h-8.3V60.233H215.139V74.851h-8.647V87.09h8.648v25.352l7.1,2.167,5.355-2.4V87.09h8.3Z" transform="translate(-37.555 -60.233)"/><path class="f" d="M124.169,316.256l-21.587-.437,77.953-118.611,13.393,11.363Z" transform="translate(-96.288 17.189)"/><path class="g" d="M113.693,423.205V314.4l71.058-113.249,82.9,148.778,6.662.124V472.057Z" transform="translate(-90.007 19.417)"/><path class="h" d="M184.751,201.149,113.693,314.4c4.873-2.584,71.124-80,71.124-80l82.835,115.526Z" transform="translate(-90.007 19.417)"/><path class="i" d="M216.312,449.07,373.6,360.988V241.818l-157.29,85.246Z" transform="translate(-32.004 42.404)"/><path class="j" d="M152.34,206.407l162.366-50.732,105.473,133.11L257.712,376.751Z" transform="translate(-68.163 -6.286)"/><path class="e" d="M104.854,320.975l-6.293-4.489,84.246-128.4L288.179,358.431l-5.311,11.476L182.806,204.337Z" transform="translate(-98.561 12.034)"/><path class="i" d="M219.78,237.618l48.36-25.137v-75.41l-48.36,19.862Z" transform="translate(-30.044 -16.802)"/><path class="k" d="M268.139,138.341v-1.27l-48.36,19.862v7.809Z" transform="translate(-30.044 -16.802)"/><g transform="translate(82.095 297.433)"><path class="l" d="M151.01,298.328V269.862c0-28.127,31.087-24.674,31.087,1.974v35.031Z" transform="translate(-151.009 -250.258)"/><path class="e" d="M164.277,250.29c-7.073.429-13.267,6.666-13.267,19.554V298.31l5.544,1.523,2.517.692-.045-34.635C159.462,251.317,164.277,250.29,164.277,250.29Z" transform="translate(-151.009 -250.24)"/><path class="f" d="M151.01,282.072l8.055-3.053,23.033,6.169v6.188Z" transform="translate(-151.01 -234.002)"/></g><g transform="translate(73.856 383.254)"><path class="m" d="M145.828,375.589s.466-46.7.244-54.1c-1.28-25.983,42.308-19.526,43.64,8.288.377,7.886-.149,58.815-.149,58.815Z" transform="translate(-145.699 -305.088)"/><path class="e" d="M154.327,377.994V321.957c-.061-9.369,5.089-14.845,11.71-16.621-10.568-1.42-20.539,3.528-19.918,16.15l-.372,54.1,13.636,4.01Z" transform="translate(-145.746 -305.081)"/><g transform="translate(24.019 1)"><path class="n" d="M162.941,375.557,161.091,375V305.727l1.851.574Z" transform="translate(-161.091 -305.727)"/></g><path class="o" d="M161.123,330.141a1.666,1.666,0,1,1-1.744-1.584A1.665,1.665,0,0,1,161.123,330.141Z" transform="translate(-138.936 -291.824)"/><path class="o" d="M167.728,331.24a1.666,1.666,0,1,1-1.744-1.582A1.664,1.664,0,0,1,167.728,331.24Z" transform="translate(-135.203 -291.202)"/><path class="n" d="M167.329,331.261a1.665,1.665,0,1,1-1.742-1.586A1.664,1.664,0,0,1,167.329,331.261Z" transform="translate(-135.428 -291.191)"/><path class="n" d="M160.649,330.162a1.666,1.666,0,1,1-1.744-1.582A1.665,1.665,0,0,1,160.649,330.162Z" transform="translate(-139.204 -291.811)"/><path class="f" d="M145.746,351.822l8.582-4.672,35.283,9.2v8.467Z" transform="translate(-145.746 -281.314)"/></g><g transform="translate(229.12 375.699)"><path class="l" d="M269.342,342.406V311.394c0-19.825-24.623-10.675-24.4,7.936l.153,36.091Z" transform="translate(-244.942 -300.261)"/><path class="e" d="M252.443,301.1c3.289,1.468,5.727,5.129,5.718,10.813l-.08,31.857L265.1,342.4V311.39C265.1,301.274,258.691,298.715,252.443,301.1Z" transform="translate(-240.702 -300.257)"/><path class="f" d="M269.3,328.214l-7.009-2.844-17.266,9.211.029,6.647Z" transform="translate(-244.897 -286.069)"/></g><g transform="translate(291.262 351.147)"><path class="l" d="M306.152,321.727V294.389c0-17.476-21.707-9.41-21.508,7l.135,31.813Z" transform="translate(-284.643 -284.575)"/><path class="e" d="M291.255,285.31c2.9,1.294,5.048,4.524,5.615,9.532l-.069,28.082,5.614-1.2V294.385C302.415,285.468,296.763,283.213,291.255,285.31Z" transform="translate(-280.906 -284.572)"/><path class="f" d="M306.112,309.217l-5.6-2.508-15.8,8.12.025,5.859Z" transform="translate(-284.603 -272.065)"/></g><path class="g" d="M179.088,136.951v66.98l24.016-7.5,39.675,41.26V157Z" transform="translate(-53.044 -16.87)"/><path class="e" d="M182.3,141.542l-8.9-12.713,75.342,20.927s-.989,5.713-1.272,6.752c-.578,2.108-1.479,5.084-1.479,5.084Z" transform="translate(-56.258 -21.46)"/><g transform="translate(147.866 142.107)"><path class="l" d="M193.03,177.925V162.6c0-16.609,18.357-14.569,18.357,1.166v20.685Z" transform="translate(-193.03 -151.023)"/><path class="e" d="M200.864,151.041c-4.178.254-7.834,3.937-7.834,11.547v15.327l3.274.9,1.484.409-.025-18.971C198.022,151.648,200.864,151.041,200.864,151.041Z" transform="translate(-193.03 -151.012)"/><path class="p" d="M193.03,168.861l4.756-1.8,13.6,4.481v3.845Z" transform="translate(-193.03 -141.958)"/></g><path class="q" d="M216.311,340.159l5.311-11.476,162.466-87.965-5.429,11.344Z" transform="translate(-32.004 41.782)"/><path class="r" d="M268.139,142.163l-48.36,19.861,2.752-11.836,55.759-22.125Z" transform="translate(-30.044 -21.893)"/><path class="h" d="M242.78,157h0l-63.692-20.05v1.212L242.78,164.81Z" transform="translate(-53.044 -16.87)"/><path class="s" d="M194.508,174.949h0l-.211.066,39.3,49.121.588-7.927Z" transform="translate(-44.448 4.608)"/><path class="s" d="M219.4,218.313l.588-7.927,48.36-25.137h0Z" transform="translate(-30.256 10.43)"/></g></g></svg>