<svg xmlns="http://www.w3.org/2000/svg" width="70" height="70" viewBox="0 0 70 70"><defs><style>.a{fill:#fff;stroke:#707070;opacity:0.3;}.b{fill:#1877f2;}.c{stroke:none;}.d{fill:none;}</style></defs><g class="a"><rect class="c" width="70" height="70" rx="10"/><rect class="d" x="0.5" y="0.5" width="69" height="69" rx="9.5"/></g><path class="b" d="M50.563,25.715A25,25,0,1,0,21.656,50.563V32.985H15.305V25.715h6.351V20.173c0-6.3,3.73-9.785,9.443-9.785a38.249,38.249,0,0,1,5.6.491v6.187H33.542c-3.1,0-4.074,1.939-4.074,3.928v4.721H36.4l-1.109,7.271H29.469V50.563A25.115,25.115,0,0,0,50.563,25.715Z" transform="translate(9.438 9.438)"/></svg>