<svg xmlns="http://www.w3.org/2000/svg" xmlns:xlink="http://www.w3.org/1999/xlink" width="814" height="1090" viewBox="0 0 814 1090"><defs><style>.a{fill:none;}.b{stroke:#707070;fill:url(#a);}.c{fill:#96cbd6;}.d{fill:#a7bcdb;}.ai,.e{fill:#d0f0ff;}.f{fill:#fff;}.g{fill:#002aaf;}.h{fill:#9dccf0;}.i{fill:#e9fbff;}.j{fill:#aac6ed;}.k{fill:#7e99b4;}.l{fill:#000d41;}.m{fill:#ddf6ff;opacity:0.2;}.n,.q{fill:#001a86;}.o{fill:#0068ff;}.p{fill:#002fb7;}.q{opacity:0.27;mix-blend-mode:multiply;isolation:isolate;}.r{fill:#39eaff;}.s{fill:#001387;}.t{fill:#000f5e;}.u{fill:#06f;}.v{fill:#008fff;}.w{fill:#009dff;}.x{fill:#0019ae;}.y{fill:#007dff;}.z{fill:#00e6ff;}.aa{fill:#00bfff;}.ab{fill:#0028ca;}.ac{clip-path:url(#b);}.ad{fill:#0056f4;}.ae{fill:#009bff;}.af{fill:#2e67ce;}.ag{fill:#003b98;}.ah{fill:#000f3b;}.ai{stroke:#d0f0ff;stroke-miterlimit:10;font-size:58px;font-family:Quicksand-Regular, Quicksand;letter-spacing:0.08em;}.aj{stroke:none;}</style><linearGradient id="a" x1="0.513" y1="-0.143" x2="0.5" y2="1.077" gradientUnits="objectBoundingBox"><stop offset="0" stop-color="#2e67ce"/><stop offset="1" stop-color="#690c7f"/></linearGradient><clipPath id="b"><ellipse class="a" cx="30.32" cy="69.753" rx="30.32" ry="69.753" transform="translate(0 19.651) rotate(-18.909)"/></clipPath></defs><g transform="translate(-1106 10)"><g transform="translate(-32 -10)"><g class="b" transform="translate(1138)"><rect class="aj" width="814" height="1090"/><rect class="a" x="0.5" y="0.5" width="813" height="1089"/></g></g><g transform="translate(1295.543 258.617)"><g transform="translate(98.128 52.937)"><path class="c" d="M-663.646,615.69h0a3.194,3.194,0,0,1-3.184,3.185h-24.108a3.2,3.2,0,0,1-3.185-3.185h0a3.194,3.194,0,0,1,3.185-3.184h24.108A3.192,3.192,0,0,1-663.646,615.69Z" transform="translate(899.677 -550.039)"/><path class="c" d="M-663.646,624.857h0a3.193,3.193,0,0,1-3.184,3.184h-24.108a3.194,3.194,0,0,1-3.185-3.184h0a3.194,3.194,0,0,1,3.185-3.184h24.108A3.193,3.193,0,0,1-663.646,624.857Z" transform="translate(899.677 -546.024)"/><path class="d" d="M-694.36,574.506h0a5.455,5.455,0,0,1-5.439,5.439h-15.678a5.455,5.455,0,0,1-5.439-5.439h0a5.455,5.455,0,0,1,5.439-5.44H-699.8A5.455,5.455,0,0,1-694.36,574.506Z" transform="translate(887.941 -569.066)"/><rect class="e" width="232.601" height="398.273" rx="12.561" transform="translate(0 3.435)"/><path class="f" d="M-622.529,571.455H-819a18.063,18.063,0,0,0-18.064,18.063v1.2A18.064,18.064,0,0,1-819,572.657h196.474a18.063,18.063,0,0,1,18.063,18.064v-1.2A18.063,18.063,0,0,0-622.529,571.455Z" transform="translate(837.067 -568.02)"/><rect class="g" width="206.055" height="340.173" transform="translate(13.274 27.546)"/></g><g transform="translate(185.474 428.265)"><path class="h" d="M6.1,0H51.323a6.1,6.1,0,0,1,6.1,6.1v5.5a6.1,6.1,0,0,1-6.1,6.1H6.1A6.1,6.1,0,0,1,0,11.6V6.1A6.1,6.1,0,0,1,6.1,0Z"/><rect class="i" width="55.985" height="16.265" rx="5.6" transform="translate(0.719 0.72)"/></g><g transform="translate(178.954 63.816)"><g transform="translate(15.794)"><path class="f" d="M-723.976,588.531h-40.2a5.718,5.718,0,0,1-5.7-5.7h0a5.718,5.718,0,0,1,5.7-5.7h40.2a5.719,5.719,0,0,1,5.7,5.7h0A5.719,5.719,0,0,1-723.976,588.531Z" transform="translate(769.877 -576.413)"/><path class="j" d="M-723.976,588.036h-40.2a5.719,5.719,0,0,1-5.7-5.7h0a5.718,5.718,0,0,1,5.7-5.7h40.2a5.719,5.719,0,0,1,5.7,5.7h0A5.72,5.72,0,0,1-723.976,588.036Z" transform="translate(769.877 -576.631)"/><g transform="translate(3.441 2.747)"><g transform="translate(23.192)"><path class="f" d="M-749.059,579.72a1.165,1.165,0,0,1-1.149,1.179,1.163,1.163,0,0,1-1.148-1.179,1.163,1.163,0,0,1,1.148-1.179A1.165,1.165,0,0,1-749.059,579.72Z" transform="translate(751.356 -578.541)"/><path class="k" d="M-749.059,579.689a1.148,1.148,0,0,1-1.149,1.148,1.147,1.147,0,0,1-1.148-1.148,1.147,1.147,0,0,1,1.148-1.148A1.148,1.148,0,0,1-749.059,579.689Z" transform="translate(751.356 -578.541)"/><path class="f" d="M-749.059,582.375a1.166,1.166,0,0,1-1.149,1.181,1.165,1.165,0,0,1-1.148-1.181,1.163,1.163,0,0,1,1.148-1.179A1.164,1.164,0,0,1-749.059,582.375Z" transform="translate(751.356 -577.378)"/><path class="k" d="M-749.059,582.344a1.15,1.15,0,0,1-1.149,1.149,1.148,1.148,0,0,1-1.148-1.149,1.147,1.147,0,0,1,1.148-1.147A1.148,1.148,0,0,1-749.059,582.344Z" transform="translate(751.356 -577.378)"/><g transform="translate(3.847)"><path class="f" d="M-746.385,579.72a1.165,1.165,0,0,1-1.149,1.179,1.163,1.163,0,0,1-1.148-1.179,1.163,1.163,0,0,1,1.148-1.179A1.165,1.165,0,0,1-746.385,579.72Z" transform="translate(748.681 -578.541)"/><path class="k" d="M-746.385,579.689a1.148,1.148,0,0,1-1.149,1.148,1.147,1.147,0,0,1-1.148-1.148,1.147,1.147,0,0,1,1.148-1.148A1.148,1.148,0,0,1-746.385,579.689Z" transform="translate(748.681 -578.541)"/><path class="f" d="M-746.385,582.375a1.166,1.166,0,0,1-1.149,1.181,1.165,1.165,0,0,1-1.148-1.181,1.163,1.163,0,0,1,1.148-1.179A1.164,1.164,0,0,1-746.385,582.375Z" transform="translate(748.681 -577.378)"/><path class="k" d="M-746.385,582.344a1.15,1.15,0,0,1-1.149,1.149,1.148,1.148,0,0,1-1.148-1.149,1.147,1.147,0,0,1,1.148-1.147A1.148,1.148,0,0,1-746.385,582.344Z" transform="translate(748.681 -577.378)"/></g><g transform="translate(7.693)"><path class="f" d="M-743.709,579.72a1.165,1.165,0,0,1-1.149,1.179,1.163,1.163,0,0,1-1.147-1.179,1.163,1.163,0,0,1,1.147-1.179A1.165,1.165,0,0,1-743.709,579.72Z" transform="translate(746.006 -578.541)"/><path class="k" d="M-743.709,579.689a1.148,1.148,0,0,1-1.149,1.148,1.147,1.147,0,0,1-1.147-1.148,1.147,1.147,0,0,1,1.147-1.148A1.148,1.148,0,0,1-743.709,579.689Z" transform="translate(746.006 -578.541)"/><ellipse class="f" cx="1.148" cy="1.18" rx="1.148" ry="1.18" transform="translate(0 3.818)"/><path class="k" d="M-743.709,582.344a1.15,1.15,0,0,1-1.149,1.149,1.148,1.148,0,0,1-1.147-1.149,1.147,1.147,0,0,1,1.147-1.147A1.148,1.148,0,0,1-743.709,582.344Z" transform="translate(746.006 -577.378)"/></g><g transform="translate(11.54)"><path class="f" d="M-741.034,579.72a1.164,1.164,0,0,1-1.149,1.179,1.163,1.163,0,0,1-1.148-1.179,1.163,1.163,0,0,1,1.148-1.179A1.164,1.164,0,0,1-741.034,579.72Z" transform="translate(743.331 -578.541)"/><path class="k" d="M-741.034,579.689a1.148,1.148,0,0,1-1.149,1.148,1.147,1.147,0,0,1-1.148-1.148,1.147,1.147,0,0,1,1.148-1.148A1.148,1.148,0,0,1-741.034,579.689Z" transform="translate(743.331 -578.541)"/><path class="f" d="M-741.034,582.375a1.166,1.166,0,0,1-1.149,1.181,1.165,1.165,0,0,1-1.148-1.181,1.163,1.163,0,0,1,1.148-1.179A1.164,1.164,0,0,1-741.034,582.375Z" transform="translate(743.331 -577.378)"/><path class="k" d="M-741.034,582.344a1.149,1.149,0,0,1-1.149,1.149,1.148,1.148,0,0,1-1.148-1.149,1.147,1.147,0,0,1,1.148-1.147A1.148,1.148,0,0,1-741.034,582.344Z" transform="translate(743.331 -577.378)"/></g><g transform="translate(15.386)"><path class="f" d="M-738.359,579.72a1.165,1.165,0,0,1-1.149,1.179,1.163,1.163,0,0,1-1.148-1.179,1.163,1.163,0,0,1,1.148-1.179A1.164,1.164,0,0,1-738.359,579.72Z" transform="translate(740.656 -578.541)"/><path class="k" d="M-738.359,579.689a1.148,1.148,0,0,1-1.149,1.148,1.147,1.147,0,0,1-1.148-1.148,1.147,1.147,0,0,1,1.148-1.148A1.148,1.148,0,0,1-738.359,579.689Z" transform="translate(740.656 -578.541)"/><ellipse class="f" cx="1.148" cy="1.18" rx="1.148" ry="1.18" transform="translate(0 3.818)"/><path class="k" d="M-738.359,582.344a1.149,1.149,0,0,1-1.149,1.149,1.148,1.148,0,0,1-1.148-1.149,1.147,1.147,0,0,1,1.148-1.147A1.148,1.148,0,0,1-738.359,582.344Z" transform="translate(740.656 -577.378)"/></g><g transform="translate(19.233)"><path class="f" d="M-735.685,579.72a1.165,1.165,0,0,1-1.149,1.179,1.163,1.163,0,0,1-1.148-1.179,1.163,1.163,0,0,1,1.148-1.179A1.164,1.164,0,0,1-735.685,579.72Z" transform="translate(737.981 -578.541)"/><path class="k" d="M-735.685,579.689a1.148,1.148,0,0,1-1.149,1.148,1.147,1.147,0,0,1-1.148-1.148,1.147,1.147,0,0,1,1.148-1.148A1.148,1.148,0,0,1-735.685,579.689Z" transform="translate(737.981 -578.541)"/><path class="f" d="M-735.685,582.375a1.166,1.166,0,0,1-1.149,1.181,1.165,1.165,0,0,1-1.148-1.181,1.163,1.163,0,0,1,1.148-1.179A1.164,1.164,0,0,1-735.685,582.375Z" transform="translate(737.981 -577.378)"/><path class="k" d="M-735.685,582.344a1.15,1.15,0,0,1-1.149,1.149,1.148,1.148,0,0,1-1.148-1.149,1.147,1.147,0,0,1,1.148-1.147A1.148,1.148,0,0,1-735.685,582.344Z" transform="translate(737.981 -577.378)"/></g></g><path class="f" d="M-765.187,579.72a1.164,1.164,0,0,1-1.149,1.179,1.163,1.163,0,0,1-1.148-1.179,1.163,1.163,0,0,1,1.148-1.179A1.164,1.164,0,0,1-765.187,579.72Z" transform="translate(767.484 -578.541)"/><path class="k" d="M-765.187,579.689a1.148,1.148,0,0,1-1.149,1.148,1.147,1.147,0,0,1-1.148-1.148,1.147,1.147,0,0,1,1.148-1.148A1.148,1.148,0,0,1-765.187,579.689Z" transform="translate(767.484 -578.541)"/><path class="f" d="M-765.187,582.375a1.166,1.166,0,0,1-1.149,1.181,1.165,1.165,0,0,1-1.148-1.181,1.163,1.163,0,0,1,1.148-1.179A1.164,1.164,0,0,1-765.187,582.375Z" transform="translate(767.484 -577.378)"/><path class="k" d="M-765.187,582.344a1.149,1.149,0,0,1-1.149,1.149,1.148,1.148,0,0,1-1.148-1.149,1.147,1.147,0,0,1,1.148-1.147A1.148,1.148,0,0,1-765.187,582.344Z" transform="translate(767.484 -577.378)"/><g transform="translate(3.847)"><path class="f" d="M-762.512,579.72a1.165,1.165,0,0,1-1.149,1.179,1.163,1.163,0,0,1-1.148-1.179,1.163,1.163,0,0,1,1.148-1.179A1.165,1.165,0,0,1-762.512,579.72Z" transform="translate(764.809 -578.541)"/><path class="k" d="M-762.512,579.689a1.148,1.148,0,0,1-1.149,1.148,1.147,1.147,0,0,1-1.148-1.148,1.147,1.147,0,0,1,1.148-1.148A1.148,1.148,0,0,1-762.512,579.689Z" transform="translate(764.809 -578.541)"/><path class="f" d="M-762.512,582.375a1.166,1.166,0,0,1-1.149,1.181,1.165,1.165,0,0,1-1.148-1.181,1.163,1.163,0,0,1,1.148-1.179A1.164,1.164,0,0,1-762.512,582.375Z" transform="translate(764.809 -577.378)"/><path class="k" d="M-762.512,582.344a1.15,1.15,0,0,1-1.149,1.149,1.148,1.148,0,0,1-1.148-1.149,1.147,1.147,0,0,1,1.148-1.147A1.148,1.148,0,0,1-762.512,582.344Z" transform="translate(764.809 -577.378)"/></g><g transform="translate(7.693)"><path class="f" d="M-759.838,579.72a1.165,1.165,0,0,1-1.149,1.179,1.163,1.163,0,0,1-1.147-1.179,1.163,1.163,0,0,1,1.147-1.179A1.165,1.165,0,0,1-759.838,579.72Z" transform="translate(762.134 -578.541)"/><path class="k" d="M-759.838,579.689a1.148,1.148,0,0,1-1.149,1.148,1.147,1.147,0,0,1-1.147-1.148,1.147,1.147,0,0,1,1.147-1.148A1.148,1.148,0,0,1-759.838,579.689Z" transform="translate(762.134 -578.541)"/><ellipse class="f" cx="1.148" cy="1.18" rx="1.148" ry="1.18" transform="translate(0 3.818)"/><path class="k" d="M-759.838,582.344a1.15,1.15,0,0,1-1.149,1.149,1.148,1.148,0,0,1-1.147-1.149,1.147,1.147,0,0,1,1.147-1.147A1.148,1.148,0,0,1-759.838,582.344Z" transform="translate(762.134 -577.378)"/></g><g transform="translate(11.54)"><path class="f" d="M-757.163,579.72a1.164,1.164,0,0,1-1.149,1.179,1.163,1.163,0,0,1-1.147-1.179,1.163,1.163,0,0,1,1.147-1.179A1.164,1.164,0,0,1-757.163,579.72Z" transform="translate(759.459 -578.541)"/><path class="k" d="M-757.163,579.689a1.148,1.148,0,0,1-1.149,1.148,1.147,1.147,0,0,1-1.147-1.148,1.147,1.147,0,0,1,1.147-1.148A1.148,1.148,0,0,1-757.163,579.689Z" transform="translate(759.459 -578.541)"/><path class="f" d="M-757.163,582.375a1.166,1.166,0,0,1-1.149,1.181,1.164,1.164,0,0,1-1.147-1.181,1.163,1.163,0,0,1,1.147-1.179A1.164,1.164,0,0,1-757.163,582.375Z" transform="translate(759.459 -577.378)"/><path class="k" d="M-757.163,582.344a1.149,1.149,0,0,1-1.149,1.149,1.148,1.148,0,0,1-1.147-1.149,1.147,1.147,0,0,1,1.147-1.147A1.148,1.148,0,0,1-757.163,582.344Z" transform="translate(759.459 -577.378)"/></g><g transform="translate(15.386)"><path class="f" d="M-754.488,579.72a1.164,1.164,0,0,1-1.149,1.179,1.163,1.163,0,0,1-1.147-1.179,1.163,1.163,0,0,1,1.147-1.179A1.164,1.164,0,0,1-754.488,579.72Z" transform="translate(756.784 -578.541)"/><path class="k" d="M-754.488,579.689a1.148,1.148,0,0,1-1.149,1.148,1.147,1.147,0,0,1-1.147-1.148,1.147,1.147,0,0,1,1.147-1.148A1.148,1.148,0,0,1-754.488,579.689Z" transform="translate(756.784 -578.541)"/><ellipse class="f" cx="1.148" cy="1.18" rx="1.148" ry="1.18" transform="translate(0 3.818)"/><path class="k" d="M-754.488,582.344a1.149,1.149,0,0,1-1.149,1.149,1.148,1.148,0,0,1-1.147-1.149,1.147,1.147,0,0,1,1.147-1.147A1.148,1.148,0,0,1-754.488,582.344Z" transform="translate(756.784 -577.378)"/></g><g transform="translate(19.233)"><path class="f" d="M-751.812,579.72a1.164,1.164,0,0,1-1.149,1.179,1.163,1.163,0,0,1-1.148-1.179,1.163,1.163,0,0,1,1.148-1.179A1.164,1.164,0,0,1-751.812,579.72Z" transform="translate(754.109 -578.541)"/><path class="k" d="M-751.812,579.689a1.148,1.148,0,0,1-1.149,1.148,1.147,1.147,0,0,1-1.148-1.148,1.147,1.147,0,0,1,1.148-1.148A1.148,1.148,0,0,1-751.812,579.689Z" transform="translate(754.109 -578.541)"/><path class="f" d="M-751.812,582.375a1.166,1.166,0,0,1-1.149,1.181,1.165,1.165,0,0,1-1.148-1.181,1.163,1.163,0,0,1,1.148-1.179A1.164,1.164,0,0,1-751.812,582.375Z" transform="translate(754.109 -577.378)"/><path class="k" d="M-751.812,582.344a1.149,1.149,0,0,1-1.149,1.149,1.148,1.148,0,0,1-1.148-1.149,1.147,1.147,0,0,1,1.148-1.147A1.148,1.148,0,0,1-751.812,582.344Z" transform="translate(754.109 -577.378)"/></g></g></g><g transform="translate(0 0.326)"><path class="f" d="M-769.728,582.575a5.643,5.643,0,0,1-5.565,5.718,5.643,5.643,0,0,1-5.567-5.718,5.643,5.643,0,0,1,5.567-5.717A5.643,5.643,0,0,1-769.728,582.575Z" transform="translate(780.86 -576.858)"/><path class="k" d="M-769.728,582.423a5.566,5.566,0,0,1-5.565,5.566,5.566,5.566,0,0,1-5.567-5.566,5.566,5.566,0,0,1,5.567-5.565A5.566,5.566,0,0,1-769.728,582.423Z" transform="translate(780.86 -576.858)"/><path class="l" d="M-772.546,581.765a3.406,3.406,0,0,1-3.405,3.406,3.407,3.407,0,0,1-3.407-3.406,3.406,3.406,0,0,1,3.407-3.405A3.4,3.4,0,0,1-772.546,581.765Z" transform="translate(781.518 -576.2)"/><circle class="m" cx="1.46" cy="1.46" r="1.46" transform="translate(3.435 3.294)"/><path class="m" d="M-775.516,580.8a.817.817,0,0,1-.818.817.816.816,0,0,1-.817-.817.817.817,0,0,1,.817-.818A.819.819,0,0,1-775.516,580.8Z" transform="translate(782.484 -575.488)"/><circle class="m" cx="0.539" cy="0.539" r="0.539" transform="translate(5.93 7.095)"/></g></g><g transform="translate(180.682 335.828)"><path class="n" d="M-723.093,775.374l-49.553,42.908,28.139,28.139h92.46Z" transform="translate(782.729 -761.594)"/><path class="o" d="M-779.658,798.75a32.957,32.957,0,0,1,32.968-32.959A32.955,32.955,0,0,1-713.73,798.75a32.963,32.963,0,0,1-32.961,32.965A32.965,32.965,0,0,1-779.658,798.75Z" transform="translate(779.658 -765.791)"/><path class="p" d="M-759.31,815.817l11.582,11.58A32.951,32.951,0,0,0-721.14,799.37l-22.9-25.057-11.947,8.11s6.818,6.881,6.241,7.233-5.969,1.992-5.969,1.992-.89.648-1.674,1.359l-1.5-.915h-.936l-3.63,3.09,4.57,4.573c-.2,2.167-.423,4.19-.423,4.19Z" transform="translate(786.754 -762.058)"/><path class="f" d="M-744.877,795.057h-5.838v20.792h-8.625V795.057h-4.117v-7.34h4.117v-4.751c0-3.411,1.61-8.719,8.7-8.719l6.415.023v7.137h-4.648a1.749,1.749,0,0,0-1.843,1.977v4.333h6.585Zm0,0" transform="translate(786.754 -762.087)"/></g><path class="q" d="M-616.218,788.512V637.128c-.627-.414-1.255-.8-1.887-1.156a21.291,21.291,0,0,0-9.235-2.873,16.829,16.829,0,0,0-3.676.2c-.076.012-.15.032-.223.049s-.154.013-.23.024a17.263,17.263,0,0,0-2.7.7,16.815,16.815,0,0,0-2.752.2c-8.443,1.39-15.122,9.141-19.422,20.927a231.756,231.756,0,0,1-43.806,30.142q-2.7,1.462-5.408,2.849l-.263.137q-2.742,1.406-5.476,2.742h0c-3.812,1.864-7.606,3.629-11.35,5.289q-2.673,1.182-5.306,2.294l-.275.118q-2.679,1.13-5.313,2.194c-11.1,4.482-21.492,8.054-30.427,10.825h0q-1.413.44-2.778.851l-.151.046q-1.271.382-2.492.742c-.092.027-.187.056-.279.082q-1.171.345-2.3.667l-.3.085c-.831.237-1.645.469-2.437.689-1.175.328-2.3.634-3.384.925-.876.236-1.726.46-2.539.673h0c-8.253,2.15-13.2,3.113-13.2,3.113l.006.032c-2.876.473-4.917,3.939-5.736,8.881l-3.115.512a9.069,9.069,0,0,0-7.452,10.391l.129.787a9.068,9.068,0,0,0,10.391,7.453l2.058-.339c2.449,6.685,6.363,11.03,10,10.43l.014,0c.17-.023,4.494-.6,11.833-1.158l6.681,40.573a12.979,12.979,0,0,0,14.872,10.667l1.126-.185a12.98,12.98,0,0,0,10.667-14.872l-3.1-18.82a4.223,4.223,0,0,0,3.392-4.822l-2.243-13.622c6.189.035,12.846.221,19.821.623h0q5.723.328,11.705.861c4.108.372,8.3.828,12.536,1.375h0q6.074.783,12.273,1.831a232,232,0,0,1,51.266,14.511C-630.267,782.783-623.2,787.727-616.218,788.512Z" transform="translate(946.947 -488.094)"/><g transform="translate(123.32 115.586)"><rect class="r" width="38.602" height="18.881" rx="6.288" transform="translate(0 137.483) rotate(-18.909)"/><rect class="s" width="27.024" height="76.196" rx="8.999" transform="matrix(0.946, -0.324, 0.324, 0.946, 32.558, 136.31)"/><path class="t" d="M-773.21,714.743l-5.02.365-13.6,10.45s14.494.617,29.269,2.055c-3.445-8.839-5.861-11.938-5.861-11.938S-768.19,714.378-773.21,714.743Z" transform="translate(831.689 -567.936)"/><rect class="r" width="8.802" height="22.829" rx="2.931" transform="translate(60.626 149.275) rotate(-18.911)"/><path class="u" d="M-630.258,669.9s-19.514-22.677-37.4-46.387c-39.81,70.669-139.687,108.151-139.687,108.151l.012.03c-4.625,1.585-5.569,11.048-2.113,21.14s10.007,16.988,14.63,15.4l.014-.006c.82-.254,102.166-31.5,176.641-.207-.4-29.7,1.106-59.579,1.106-59.579L-634.1,692.748Z" transform="translate(823.06 -607.869)"/><g transform="translate(11.528 15.639)"><path class="v" d="M-807.119,732.327l-.012-.03s99.878-37.481,139.687-108.152c16.672,22.1,34.746,43.287,37.132,46.071l.053-.321s-19.514-22.677-37.4-46.387c-39.81,70.669-139.687,108.151-139.687,108.151l.012.03c-4.625,1.585-5.569,11.048-2.113,21.14.036.108.079.21.116.316C-812.661,743.176-811.693,733.895-807.119,732.327Z" transform="translate(811.532 -623.508)"/><path class="v" d="M-687.989,672.217l16.8,15.471c.013-.267.02-.417.02-.417l-16.756-15.433Z" transform="translate(865.644 -602.339)"/></g><path class="w" d="M-785.95,689.873c-3.618,1.826-6.994,3.463-10.056,4.9-.584,6.015.355,13.339,3,21.052,2.637,7.7,6.373,14.046,10.512,18.44,3.29-.741,6.951-1.516,10.917-2.289-3.492-1.408-9.356-7.482-13.28-18.941C-788.809,701.508-787.867,693.084-785.95,689.873Z" transform="translate(829.787 -578.801)"/><path class="r" d="M-797.1,694.3c-.825.378-1.628.74-2.394,1.086-2.147,4.626-1.937,12.584.979,21.1,2.9,8.48,7.594,14.882,12.112,17.24.808-.2,1.652-.4,2.527-.6-4.541-1-10.126-7.955-13.261-17.109C-800.294,706.8-800.126,697.837-797.1,694.3Z" transform="translate(827.703 -576.86)"/><path class="x" d="M-759.349,674.515q-5.054,3.339-9.99,6.357c-1.03,7.839.145,17.778,3.755,28.313,3.6,10.516,8.756,19.076,14.364,24.637,3.819-.419,7.741-.792,11.756-1.1-5.554-1.98-13.648-10.867-18.844-26.032C-763.522,691.471-762.55,679.45-759.349,674.515Z" transform="translate(841.384 -585.528)"/><path class="x" d="M-745.163,664.367q-5,3.9-10.042,7.5c-1.252,9.5.2,21.632,4.612,34.518,4.408,12.866,10.692,23.33,17.491,30.064,4.108-.158,8.276-.243,12.492-.233-7.393-3.263-16.837-14.9-22.794-32.295C-749.379,686.481-749.035,671.451-745.163,664.367Z" transform="translate(847.542 -589.973)"/><ellipse class="y" cx="35.785" cy="78.106" rx="35.785" ry="78.106" transform="translate(122.394 25.134) rotate(-18.909)"/><ellipse class="z" cx="36.244" cy="78.106" rx="36.244" ry="78.106" transform="matrix(0.946, -0.324, 0.324, 0.946, 127.194, 23.49)"/><ellipse class="aa" cx="35.785" cy="78.106" rx="35.785" ry="78.106" transform="translate(128.061 23.193) rotate(-18.909)"/><path class="r" d="M-706.857,620.976c-.107.036-.2.088-.309.125,18.678-5.982,44.943,21.807,58.843,62.385s10.191,78.637-8.233,85.363c.107-.033.216-.055.321-.091,18.7-6.4,22.522-44.679,8.543-85.488S-688.16,614.571-706.857,620.976Z" transform="translate(868.772 -609.379)"/><ellipse class="ab" cx="30.32" cy="69.753" rx="30.32" ry="69.753" transform="translate(137.673 28.73) rotate(-18.909)"/><g transform="translate(137.673 9.079)"><g class="ac" transform="translate(0 0)"><circle class="u" cx="34.189" cy="34.189" r="34.189" transform="translate(-29.407 86.894) rotate(-45)"/><path class="ad" d="M-700.1,690.138a27.313,27.313,0,0,1,11.921-32.348,34.048,34.048,0,0,0-23.12-.345,34.191,34.191,0,0,0-21.265,43.425,34.189,34.189,0,0,0,43.425,21.264,34.027,34.027,0,0,0,17.567-13.7A27.291,27.291,0,0,1-700.1,690.138Z" transform="translate(719.162 -602.896)"/><path class="ae" d="M-718.186,657.445c-.171.059-.335.128-.5.188a34.182,34.182,0,0,1,42.908,21.426A34.183,34.183,0,0,1-696.542,722.3c.171-.056.344-.1.515-.163a34.188,34.188,0,0,0,21.264-43.423A34.19,34.19,0,0,0-718.186,657.445Z" transform="translate(726.051 -602.896)"/></g></g></g><g transform="translate(339.575 89.723)"><path class="af" d="M-632.726,594.647a36.436,36.436,0,0,0-36.436,36.436,36.323,36.323,0,0,0,12.634,27.548l-5.448,15.8,17.124-9.022a36.283,36.283,0,0,0,12.127,2.111,36.438,36.438,0,0,0,36.438-36.437A36.437,36.437,0,0,0-632.726,594.647Z" transform="translate(669.162 -594.647)"/><path class="af" d="M-607.85,628.781l-15.667-15.668-10.522,4.652-7.166,2.318-2.62,23,13.682,13.684A36.477,36.477,0,0,0-607.85,628.781Z" transform="translate(680.26 -586.559)"/><path class="ag" d="M-658.928,639.568l-5.237,15.188.339-.18,5.109-14.816C-658.788,639.7-658.856,639.631-658.928,639.568Z" transform="translate(671.351 -574.971)"/><path class="ag" d="M-632.726,595.452A36.433,36.433,0,0,1-596.3,631.486c0-.134.01-.267.01-.4a36.437,36.437,0,0,0-36.438-36.436,36.436,36.436,0,0,0-36.436,36.436c0,.129.01.256.01.384A36.432,36.432,0,0,1-632.726,595.452Z" transform="translate(669.162 -594.647)"/><path class="e" d="M-614.367,621.291a12.5,12.5,0,0,0-12.5-12.5,12.47,12.47,0,0,0-10.082,5.134,12.465,12.465,0,0,0-10.08-5.134,12.5,12.5,0,0,0-12.5,12.5,12.464,12.464,0,0,0,5.02,10v.009l17.558,13.678,17.558-13.678v-.009A12.465,12.465,0,0,0-614.367,621.291Z" transform="translate(673.383 -588.451)"/><path class="f" d="M-647.027,609.145a12.466,12.466,0,0,1,10.08,5.134,12.468,12.468,0,0,1,10.082-5.134,12.492,12.492,0,0,1,12.488,12.306c0-.055.01-.107.01-.161a12.5,12.5,0,0,0-12.5-12.5,12.468,12.468,0,0,0-10.082,5.134,12.465,12.465,0,0,0-10.08-5.134,12.5,12.5,0,0,0-12.5,12.5c0,.055.009.106.01.161A12.492,12.492,0,0,1-647.027,609.145Z" transform="translate(673.383 -588.451)"/></g><g transform="translate(222.111 17.05)"><path class="t" d="M-729.154,544.11A21.693,21.693,0,0,1-707.461,565.8a21.628,21.628,0,0,1-7.522,16.4l3.244,9.407-10.2-5.371a21.607,21.607,0,0,1-7.22,1.257A21.7,21.7,0,0,1-750.848,565.8,21.694,21.694,0,0,1-729.154,544.11Z" transform="translate(750.848 -544.11)"/><path class="ah" d="M-750.656,564.432l9.327-9.328,6.265,2.77,4.266,1.38,1.559,13.694-8.146,8.146A21.717,21.717,0,0,1-750.656,564.432Z" transform="translate(750.932 -539.295)"/><path class="ag" d="M-725.782,570.855l3.119,9.042-.2-.107-3.041-8.821C-725.864,570.933-725.824,570.892-725.782,570.855Z" transform="translate(761.772 -532.396)"/><path class="ag" d="M-729.154,544.589a21.689,21.689,0,0,0-21.686,21.455c0-.08-.007-.16-.007-.24a21.694,21.694,0,0,1,21.694-21.694A21.693,21.693,0,0,1-707.461,565.8c0,.076-.006.151-.007.229A21.691,21.691,0,0,0-729.154,544.589Z" transform="translate(750.848 -544.11)"/><path class="e" d="M-745.11,559.974a7.441,7.441,0,0,1,7.44-7.442,7.421,7.421,0,0,1,6,3.057,7.421,7.421,0,0,1,6-3.057,7.441,7.441,0,0,1,7.44,7.442,7.425,7.425,0,0,1-2.988,5.952v0l-10.454,8.145-10.453-8.145v0A7.422,7.422,0,0,1-745.11,559.974Z" transform="translate(753.361 -540.421)"/><path class="f" d="M-725.665,552.742a7.424,7.424,0,0,0-6,3.056,7.423,7.423,0,0,0-6-3.056,7.437,7.437,0,0,0-7.435,7.327c0-.032-.006-.063-.006-.095a7.441,7.441,0,0,1,7.44-7.442,7.421,7.421,0,0,1,6,3.057,7.421,7.421,0,0,1,6-3.057,7.441,7.441,0,0,1,7.44,7.442c0,.032,0,.063-.006.095A7.437,7.437,0,0,0-725.665,552.742Z" transform="translate(753.361 -540.421)"/></g><g transform="translate(48.032 237.794)"><path class="t" d="M-851.366,697.617a20.539,20.539,0,0,1,20.539,20.539,20.47,20.47,0,0,1-7.122,15.527l3.072,8.906-9.652-5.085a20.472,20.472,0,0,1-6.836,1.189A20.537,20.537,0,0,1-871.9,718.156,20.538,20.538,0,0,1-851.366,697.617Z" transform="translate(871.904 -697.617)"/><path class="ah" d="M-871.723,716.858l8.831-8.832,5.932,2.621,4.038,1.307,1.477,12.965-7.712,7.712A20.556,20.556,0,0,1-871.723,716.858Z" transform="translate(871.983 -693.058)"/><path class="ag" d="M-848.173,722.938l2.952,8.56-.191-.1-2.88-8.351C-848.25,723.011-848.213,722.974-848.173,722.938Z" transform="translate(882.246 -686.526)"/><path class="ag" d="M-851.366,698.071A20.535,20.535,0,0,0-871.9,718.383c0-.076-.006-.151-.006-.227a20.538,20.538,0,0,1,20.538-20.539,20.539,20.539,0,0,1,20.539,20.539c0,.072-.006.144-.006.216A20.536,20.536,0,0,0-851.366,698.071Z" transform="translate(871.904 -697.617)"/><path class="e" d="M-866.472,712.636a7.044,7.044,0,0,1,7.043-7.045,7.026,7.026,0,0,1,5.683,2.893,7.027,7.027,0,0,1,5.683-2.893,7.045,7.045,0,0,1,7.045,7.045,7.031,7.031,0,0,1-2.83,5.635v0l-9.9,7.711-9.9-7.711v0A7.026,7.026,0,0,1-866.472,712.636Z" transform="translate(874.283 -694.124)"/><path class="f" d="M-848.063,705.789a7.027,7.027,0,0,0-5.683,2.893,7.026,7.026,0,0,0-5.683-2.893,7.042,7.042,0,0,0-7.039,6.937c0-.03,0-.06,0-.091a7.044,7.044,0,0,1,7.043-7.045,7.026,7.026,0,0,1,5.683,2.893,7.027,7.027,0,0,1,5.683-2.893,7.045,7.045,0,0,1,7.045,7.045c0,.03-.006.06-.006.091A7.042,7.042,0,0,0-848.063,705.789Z" transform="translate(874.283 -694.124)"/></g><g transform="translate(282.484 28.747)"><path class="t" d="M-672.428,552.244a36.436,36.436,0,0,0-36.436,36.436,36.32,36.32,0,0,0,12.634,27.548l-5.449,15.8,17.124-9.021a36.32,36.32,0,0,0,12.127,2.111A36.438,36.438,0,0,0-635.99,588.68,36.437,36.437,0,0,0-672.428,552.244Z" transform="translate(708.864 -552.244)"/><path class="ah" d="M-643.232,591.393l-29.6-29.125-3.06,1.5-3.076,11.219-2.886,8.115-6.638,1.59-5.428,15.4,20.251,20.251A36.463,36.463,0,0,0-643.232,591.393Z" transform="translate(715.408 -547.853)"/><path class="ag" d="M-698.63,597.165l-5.237,15.187.339-.178,5.109-14.816C-698.49,597.3-698.558,597.228-698.63,597.165Z" transform="translate(711.053 -532.569)"/><path class="ag" d="M-672.428,553.049A36.43,36.43,0,0,1-636,589.083c0-.135.011-.267.011-.4a36.437,36.437,0,0,0-36.437-36.436,36.436,36.436,0,0,0-36.436,36.436c0,.129.009.255.01.384A36.432,36.432,0,0,1-672.428,553.049Z" transform="translate(708.864 -552.244)"/><g transform="translate(12.634 13.339)"><rect class="e" width="10.008" height="24.25" transform="translate(34.589 15.703)"/><rect class="f" width="10.008" height="0.391" transform="translate(34.589 15.703)"/><path class="e" d="M-673.2,561.52a4.9,4.9,0,0,0-4.9,4.9v7.715H-695.18a4.9,4.9,0,0,0-4.9,4.9,4.9,4.9,0,0,0,4.9,4.9h1.619v11.064a7.487,7.487,0,0,0,7.488,7.488h14.182a3.588,3.588,0,0,0,3.589-3.589V566.418A4.9,4.9,0,0,0-673.2,561.52Z" transform="translate(700.078 -561.52)"/><path class="f" d="M-695.18,570.543H-678.1v-.252H-695.18a4.9,4.9,0,0,0-4.9,4.9c0,.043.011.082.011.125A4.893,4.893,0,0,1-695.18,570.543Z" transform="translate(700.078 -557.678)"/><path class="f" d="M-679.895,561.52a4.9,4.9,0,0,0-4.9,4.9v.252a4.9,4.9,0,0,1,4.9-4.9,4.9,4.9,0,0,1,4.9,4.9v-.252A4.9,4.9,0,0,0-679.895,561.52Z" transform="translate(706.772 -561.52)"/><path class="t" d="M-671.909,585.069a2.086,2.086,0,0,1,2.085,2.087,2.085,2.085,0,0,1-2.085,2.085A2.085,2.085,0,0,1-674,587.156,2.086,2.086,0,0,1-671.909,585.069Z" transform="translate(711.502 -551.206)"/></g></g><g transform="translate(370.189)"><path class="af" d="M-614.27,532.253a33.6,33.6,0,0,0-33.6,33.6,33.5,33.5,0,0,0,11.651,25.407l-5.024,14.571,15.794-8.32a33.467,33.467,0,0,0,11.183,1.947,33.6,33.6,0,0,0,33.6-33.6A33.6,33.6,0,0,0-614.27,532.253Z" transform="translate(647.873 -532.253)"/><path class="af" d="M-639.409,565.657l27.84,27.84a33.629,33.629,0,0,0,26.82-27.952l-15.313-14.737-6.776-.771-7.935-2.689-2.883-2.883-5.659.732-5.313,1.608-7.16,7.147,3.7,6.928.615,2.321-3.228-.69,2.151,3.739-2.151.486Z" transform="translate(651.58 -526.904)"/><path class="ag" d="M-638.435,573.683l-4.83,14.006.314-.164,4.711-13.665C-638.307,573.8-638.369,573.741-638.435,573.683Z" transform="translate(649.891 -514.107)"/><path class="ag" d="M-614.27,533a33.6,33.6,0,0,1,33.6,33.232c0-.124.009-.246.009-.371a33.6,33.6,0,0,0-33.6-33.6,33.6,33.6,0,0,0-33.6,33.6c0,.119.009.236.009.354A33.6,33.6,0,0,1-614.27,533Z" transform="translate(647.873 -532.253)"/><g transform="translate(10.775 13.839)"><path class="e" d="M-629.063,564.167A18.023,18.023,0,0,1-616.9,547.136a13,13,0,0,0-10.443-5.259,13.033,13.033,0,0,0-13.033,13.034,13,13,0,0,0,5.24,10.428c-.6,1.054-1.907,2.17-4.7,1.451a7.057,7.057,0,0,0,9.718.85,13.328,13.328,0,0,0,1.445.229A18.141,18.141,0,0,1-629.063,564.167Z" transform="translate(640.38 -541.877)"/><path class="e" d="M-615,546.092A16.313,16.313,0,0,1-598.692,562.4a16.271,16.271,0,0,1-6.559,13.054c.756,1.319,2.387,2.715,5.887,1.815,0,0-5.059,6.04-12.164,1.064a16.31,16.31,0,0,1-3.477.38A16.312,16.312,0,0,1-631.317,562.4,16.313,16.313,0,0,1-615,546.092Z" transform="translate(644.35 -540.031)"/></g><g transform="translate(10.775 13.839)"><path class="e" d="M-629.063,564.167A18.023,18.023,0,0,1-616.9,547.136a13,13,0,0,0-10.443-5.259,13.033,13.033,0,0,0-13.033,13.034,13,13,0,0,0,5.24,10.428c-.6,1.054-1.907,2.17-4.7,1.451a7.057,7.057,0,0,0,9.718.85,13.328,13.328,0,0,0,1.445.229A18.141,18.141,0,0,1-629.063,564.167Z" transform="translate(640.38 -541.877)"/><path class="e" d="M-615,546.092A16.313,16.313,0,0,1-598.692,562.4a16.271,16.271,0,0,1-6.559,13.054c.756,1.319,2.387,2.715,5.887,1.815,0,0-5.059,6.04-12.164,1.064a16.31,16.31,0,0,1-3.477.38A16.312,16.312,0,0,1-631.317,562.4,16.313,16.313,0,0,1-615,546.092Z" transform="translate(644.35 -540.031)"/></g><g transform="translate(10.775 13.839)"><path class="f" d="M-631.317,562.4c0,.065.009.128.01.193A16.307,16.307,0,0,1-615,546.476a16.308,16.308,0,0,1,16.3,16.1c0-.059.01-.115.01-.175A16.313,16.313,0,0,0-615,546.092,16.313,16.313,0,0,0-631.317,562.4Z" transform="translate(644.35 -540.031)"/><path class="f" d="M-627.347,542.261a12.976,12.976,0,0,1,10.2,4.97c.082-.03.161-.066.243-.095a13,13,0,0,0-10.443-5.259,13.033,13.033,0,0,0-13.033,13.034c0,.059.009.115.01.174A13.026,13.026,0,0,1-627.347,542.261Z" transform="translate(640.38 -541.877)"/><path class="f" d="M-613.028,566.685c-.056.043-.106.095-.162.138.72,1.257,2.256,2.56,5.428,1.9.295-.279.459-.472.459-.472C-610.584,569.1-612.212,567.922-613.028,566.685Z" transform="translate(652.289 -531.011)"/><path class="f" d="M-632.51,557.711a17.923,17.923,0,0,0,.322,3.309c.02,0,.04.007.06.009a18.221,18.221,0,0,1-.374-3.535C-632.5,557.567-632.51,557.638-632.51,557.711Z" transform="translate(643.827 -535.037)"/><path class="f" d="M-635.3,558.5c-.058-.043-.108-.093-.164-.137-.661.969-1.961,1.865-4.54,1.2a5.887,5.887,0,0,0,.472.473C-637.073,560.516-635.871,559.491-635.3,558.5Z" transform="translate(640.543 -534.655)"/></g></g><g transform="translate(0 77.911)"><path class="af" d="M-861.138,586.433A44.168,44.168,0,0,1-816.971,630.6a44.03,44.03,0,0,1-15.315,33.392l6.6,19.153-20.758-10.936a43.981,43.981,0,0,1-14.7,2.558A44.168,44.168,0,0,1-905.306,630.6,44.169,44.169,0,0,1-861.138,586.433Z" transform="translate(905.306 -586.433)"/><path class="af" d="M-873.585,663.943a44.194,44.194,0,0,1-31.51-37.285l12.184-12.184,15.73-5.509,26.512-1.846,13.634,6.205,3.69,6.388-17.324,21.314Z" transform="translate(905.399 -577.372)"/><path class="ag" d="M-854.271,640.885l6.349,18.411-.411-.217-6.194-17.959C-854.439,641.043-854.357,640.961-854.271,640.885Z" transform="translate(927.547 -562.583)"/><path class="ag" d="M-861.138,587.409a44.161,44.161,0,0,0-44.155,43.679c0-.164-.013-.325-.013-.487a44.169,44.169,0,0,1,44.168-44.168A44.168,44.168,0,0,1-816.971,630.6c0,.155-.012.309-.013.464A44.16,44.16,0,0,0-861.138,587.409Z" transform="translate(905.306 -586.433)"/><path class="e" d="M-879.274,637.306l3.516,5.109c11.163-8.924,20.959-.473,21.375-.106l3.78-4.883C-855.289,633.186-867.3,627.743-879.274,637.306ZM-896.608,616l3.514,5.108c29.483-23.57,55.773-.355,56.033-.118l3.792-4.872C-833.563,615.85-863.443,589.488-896.608,616Zm8.851,9.576,3.516,5.108c20.083-16.038,37.6-.771,38.334-.112l3.786-4.878C-842.334,625.506-863.876,606.5-887.757,625.581Z" transform="translate(909.116 -578.656)"/><g transform="translate(12.508 25.534)"><path class="f" d="M-896.468,616.208l-.14-.2c33.165-26.517,63.045-.155,63.34.118l-.144.184C-835.64,614.394-864.506,590.791-896.468,616.208Z" transform="translate(896.608 -604.19)"/><path class="f" d="M-855.883,628.956l-.145.187c-4.758-4.2-16.573-9.418-28.383-.1l-.142-.207C-872.584,619.274-860.568,624.717-855.883,628.956Z" transform="translate(901.888 -595.72)"/><path class="f" d="M-844.817,621.77l-.144.185c-1.841-1.565-22.5-18.224-45.352-.1l-.141-.2C-866.572,602.569-845.029,621.578-844.817,621.77Z" transform="translate(899.304 -600.261)"/></g></g><g transform="translate(361.308 218.926)"><path class="af" d="M-623.164,684.5a30.885,30.885,0,0,0-30.885,30.885,30.8,30.8,0,0,0,10.709,23.352l-4.617,13.392,14.515-7.647a30.739,30.739,0,0,0,10.279,1.789,30.885,30.885,0,0,0,30.885-30.885A30.885,30.885,0,0,0-623.164,684.5Z" transform="translate(654.049 -684.496)"/><path class="af" d="M-599.15,718.061l-23.941-23.941-4.5,6.229-1.658,9.276-2.25,10.906-8.644,8.614,12.838,12.84A30.891,30.891,0,0,0-599.15,718.061Z" transform="translate(660.138 -680.281)"/><path class="ag" d="M-645.374,722.574l-4.439,12.873.288-.151,4.33-12.56C-645.256,722.683-645.314,722.627-645.374,722.574Z" transform="translate(655.904 -667.818)"/><path class="ag" d="M-623.164,685.179a30.881,30.881,0,0,1,30.877,30.543c0-.114.009-.226.009-.341A30.885,30.885,0,0,0-623.164,684.5a30.885,30.885,0,0,0-30.885,30.885c0,.109.009.217.009.325A30.881,30.881,0,0,1-623.164,685.179Z" transform="translate(654.049 -684.496)"/><path class="e" d="M-630.154,707.927a7.936,7.936,0,0,0,7.936-7.935,7.936,7.936,0,0,0-7.936-7.936,7.936,7.936,0,0,0-7.936,7.936A7.936,7.936,0,0,0-630.154,707.927Z" transform="translate(661.039 -681.185)"/><path class="e" d="M6.3,0h9.2a6.3,6.3,0,0,1,6.3,6.3v16.73a0,0,0,0,1,0,0H0a0,0,0,0,1,0,0V6.3A6.3,6.3,0,0,1,6.3,0Z" transform="translate(19.991 25.84)"/></g><g transform="translate(216.221 107.547)"><path class="t" d="M-734.788,607.042A20.157,20.157,0,0,1-714.631,627.2a20.09,20.09,0,0,1-6.989,15.239l3.014,8.74-9.474-4.99a20.089,20.089,0,0,1-6.708,1.168A20.157,20.157,0,0,1-754.944,627.2,20.157,20.157,0,0,1-734.788,607.042Z" transform="translate(754.944 -607.042)"/><path class="ah" d="M-754.589,628.947l15.625-15.624,2.939,4.065,1.081,6.054,1.47,7.118,5.641,5.621-8.379,8.378A20.159,20.159,0,0,1-754.589,628.947Z" transform="translate(755.099 -604.291)"/><path class="ag" d="M-731.654,631.892l2.9,8.4-.188-.1-2.826-8.2C-731.731,631.964-731.694,631.927-731.654,631.892Z" transform="translate(765.094 -596.158)"/><path class="ag" d="M-734.788,607.488a20.154,20.154,0,0,0-20.151,19.934c0-.075-.006-.148-.006-.223a20.157,20.157,0,0,1,20.156-20.156A20.157,20.157,0,0,1-714.631,627.2c0,.072-.006.141-.006.213A20.153,20.153,0,0,0-734.788,607.488Z" transform="translate(754.944 -607.042)"/><path class="e" d="M-739.349,622.334a5.18,5.18,0,0,1-5.18-5.18,5.18,5.18,0,0,1,5.18-5.18,5.18,5.18,0,0,1,5.18,5.18A5.18,5.18,0,0,1-739.349,622.334Z" transform="translate(759.506 -604.881)"/><path class="e" d="M0,0H14.221a0,0,0,0,1,0,0V10.082a4.944,4.944,0,0,1-4.944,4.944H4.944A4.944,4.944,0,0,1,0,10.082V0A0,0,0,0,1,0,0Z" transform="translate(27.267 31.89) rotate(180)"/></g><g transform="translate(126.74 112.648)"><g transform="translate(0 1.285)"><path class="af" d="M-780.733,611.483A36.436,36.436,0,0,1-744.3,647.919a36.325,36.325,0,0,1-12.634,27.548l5.449,15.8-17.124-9.021a36.321,36.321,0,0,1-12.127,2.109,36.437,36.437,0,0,1-36.437-36.436A36.437,36.437,0,0,1-780.733,611.483Z" transform="translate(817.17 -611.483)"/><path class="af" d="M-749.916,647.559l-23.189-21.39-10.243-1.416h-8.5l-4.794,2.614-4.685,3.051-3.967,5.775v3.027l1.352,17.785,21.371,21.37a36.813,36.813,0,0,0,8.765-1.941l17.124,9.021-5.449-15.8A36.389,36.389,0,0,0-749.916,647.559Z" transform="translate(822.371 -605.671)"/><path class="af" d="M-775.068,656.4l5.237,15.187-.339-.178-5.109-14.816C-775.207,656.533-775.14,656.467-775.068,656.4Z" transform="translate(835.518 -591.808)"/><path class="af" d="M-780.733,612.287a36.434,36.434,0,0,0-36.427,36.035c0-.135-.01-.268-.01-.4a36.437,36.437,0,0,1,36.438-36.436A36.436,36.436,0,0,1-744.3,647.919c0,.13-.01.255-.012.384A36.43,36.43,0,0,0-780.733,612.287Z" transform="translate(817.17 -611.483)"/></g><text class="ai" transform="translate(11.375 58)"><tspan x="0" y="0">@</tspan></text><text class="ai" transform="translate(11.375 58)"><tspan x="0" y="0">@</tspan></text></g><g transform="translate(76.24 172.99)"><path class="af" d="M-828.567,652.552a23.721,23.721,0,0,1,23.721,23.721,23.647,23.647,0,0,1-8.225,17.935l3.547,10.286-11.149-5.873a23.65,23.65,0,0,1-7.894,1.373,23.721,23.721,0,0,1-23.721-23.721A23.722,23.722,0,0,1-828.567,652.552Z" transform="translate(852.288 -652.552)"/><path class="af" d="M-810.824,678.17l-16.685-16.685-1.034,3.539-1.1,1.881-4.17,1.054-4.635-.357-1.429.959.792,6.471-1.217,9.013,11.49,11.49a24.624,24.624,0,0,0,2.893-.827l11.149,5.873L-818.32,690.3A23.745,23.745,0,0,0-810.824,678.17Z" transform="translate(857.537 -648.639)"/><path class="ag" d="M-824.878,681.8l3.409,9.888-.221-.116-3.326-9.646C-824.969,681.882-824.924,681.839-824.878,681.8Z" transform="translate(864.233 -639.743)"/><path class="ag" d="M-828.567,653.077a23.717,23.717,0,0,0-23.714,23.458c0-.088-.007-.174-.007-.262a23.722,23.722,0,0,1,23.721-23.721,23.721,23.721,0,0,1,23.721,23.721c0,.083-.006.167-.007.25A23.716,23.716,0,0,0-828.567,653.077Z" transform="translate(852.288 -652.552)"/><g transform="translate(12.095 12.61)"><g transform="translate(4.461)"><path class="e" d="M-838.881,684.574h0a1.9,1.9,0,0,1-1.894-1.894V663.213a1.9,1.9,0,0,1,1.894-1.892h0a1.9,1.9,0,0,1,1.892,1.892V682.68A1.9,1.9,0,0,1-838.881,684.574Z" transform="translate(840.775 -661.321)"/><path class="e" d="M-831.548,684.574h0a1.9,1.9,0,0,1-1.894-1.894V663.213a1.9,1.9,0,0,1,1.894-1.892h0a1.9,1.9,0,0,1,1.892,1.892V682.68A1.9,1.9,0,0,1-831.548,684.574Z" transform="translate(843.987 -661.321)"/></g><g transform="translate(0 4.461)"><path class="e" d="M-820.625,673.648h0a1.9,1.9,0,0,1-1.892,1.894h-19.466a1.9,1.9,0,0,1-1.894-1.894h0a1.9,1.9,0,0,1,1.894-1.893h19.466A1.9,1.9,0,0,1-820.625,673.648Z" transform="translate(843.877 -661.211)"/><path class="e" d="M-820.625,666.315h0a1.9,1.9,0,0,1-1.892,1.894h-19.466a1.9,1.9,0,0,1-1.894-1.894h0a1.9,1.9,0,0,1,1.894-1.892h19.466A1.9,1.9,0,0,1-820.625,666.315Z" transform="translate(843.877 -664.423)"/></g></g></g><g transform="translate(215.871 271.756)"><path class="t" d="M-731.467,721.235a23.721,23.721,0,0,0-23.72,23.721,23.65,23.65,0,0,0,8.224,17.935l-3.546,10.286,11.147-5.874a23.63,23.63,0,0,0,7.894,1.375,23.721,23.721,0,0,0,23.721-23.721A23.721,23.721,0,0,0-731.467,721.235Z" transform="translate(755.187 -721.235)"/><path class="ah" d="M-754.681,746.853-738,730.168l1.035,3.539,1.1,1.881,4.169,1.054,4.636-.357,1.43.958-.792,6.472,1.217,9.012-11.49,11.49a24.448,24.448,0,0,1-2.895-.827l-11.147,5.874,3.546-10.286A23.744,23.744,0,0,1-754.681,746.853Z" transform="translate(755.409 -717.322)"/><path class="ag" d="M-748.525,750.48l-3.41,9.888.22-.116,3.326-9.646C-748.434,750.565-748.479,750.52-748.525,750.48Z" transform="translate(756.612 -708.426)"/><path class="ag" d="M-731.467,721.758a23.718,23.718,0,0,1,23.716,23.46c0-.088.006-.174.006-.262a23.721,23.721,0,0,0-23.721-23.721,23.721,23.721,0,0,0-23.72,23.721c0,.083.006.165.006.249A23.718,23.718,0,0,1-731.467,721.758Z" transform="translate(755.187 -721.235)"/><g transform="translate(12.094 12.608)"><g transform="translate(4.461)"><path class="e" d="M-734.448,753.255h0a1.9,1.9,0,0,0,1.894-1.892V731.9A1.9,1.9,0,0,0-734.448,730h0a1.9,1.9,0,0,0-1.894,1.894v19.466A1.9,1.9,0,0,0-734.448,753.255Z" transform="translate(746.887 -730.003)"/><path class="e" d="M-741.781,753.255h0a1.9,1.9,0,0,0,1.892-1.892V731.9A1.9,1.9,0,0,0-741.781,730h0a1.9,1.9,0,0,0-1.894,1.894v19.466A1.9,1.9,0,0,0-741.781,753.255Z" transform="translate(743.675 -730.003)"/></g><g transform="translate(0 4.461)"><path class="e" d="M-746.777,742.331h0a1.9,1.9,0,0,0,1.894,1.894h19.466a1.9,1.9,0,0,0,1.892-1.894h0a1.9,1.9,0,0,0-1.892-1.892h-19.466A1.9,1.9,0,0,0-746.777,742.331Z" transform="translate(746.777 -729.893)"/><path class="e" d="M-746.777,735h0a1.9,1.9,0,0,0,1.894,1.892h19.466A1.9,1.9,0,0,0-723.525,735h0a1.9,1.9,0,0,0-1.892-1.894h-19.466A1.9,1.9,0,0,0-746.777,735Z" transform="translate(746.777 -733.105)"/></g></g></g><g transform="translate(325.765 184.701)"><path class="t" d="M-662.039,660.7a16.726,16.726,0,0,0-16.727,16.727,16.677,16.677,0,0,0,5.8,12.647l-2.5,7.253,7.86-4.141a16.684,16.684,0,0,0,5.568.969,16.727,16.727,0,0,0,16.727-16.728A16.727,16.727,0,0,0-662.039,660.7Z" transform="translate(678.766 -660.696)"/><path class="ah" d="M-678.409,678.761-666.643,667l.729,2.5.778,1.326,2.941.743,3.268-.252,1.008.676-.559,4.563.858,6.356-8.1,8.1a17.1,17.1,0,0,1-2.04-.582l-7.86,4.141,2.5-7.253A16.745,16.745,0,0,1-678.409,678.761Z" transform="translate(678.922 -657.937)"/><path class="ag" d="M-674.068,681.318l-2.4,6.973.155-.082,2.345-6.8C-674,681.378-674.036,681.347-674.068,681.318Z" transform="translate(679.771 -651.664)"/><path class="ag" d="M-662.039,661.066a16.725,16.725,0,0,1,16.723,16.543c0-.062,0-.124,0-.186A16.727,16.727,0,0,0-662.039,660.7a16.726,16.726,0,0,0-16.727,16.727c0,.059,0,.118,0,.177A16.725,16.725,0,0,1-662.039,661.066Z" transform="translate(678.766 -660.696)"/><g transform="translate(8.529 8.891)"><g transform="translate(3.145)"><path class="e" d="M-664.143,683.276h0a1.34,1.34,0,0,0,1.336-1.336V668.215a1.34,1.34,0,0,0-1.336-1.336h0a1.339,1.339,0,0,0-1.334,1.336v13.726A1.339,1.339,0,0,0-664.143,683.276Z" transform="translate(672.913 -666.879)"/><path class="e" d="M-669.313,683.276h0a1.34,1.34,0,0,0,1.336-1.336V668.215a1.34,1.34,0,0,0-1.336-1.336h0a1.339,1.339,0,0,0-1.334,1.336v13.726A1.339,1.339,0,0,0-669.313,683.276Z" transform="translate(670.648 -666.879)"/></g><g transform="translate(0 3.146)"><path class="e" d="M-672.835,675.573h0a1.337,1.337,0,0,0,1.334,1.334h13.727a1.338,1.338,0,0,0,1.334-1.334h0a1.338,1.338,0,0,0-1.334-1.335H-671.5A1.337,1.337,0,0,0-672.835,675.573Z" transform="translate(672.835 -666.802)"/><path class="e" d="M-672.835,670.4h0a1.337,1.337,0,0,0,1.334,1.334h13.727a1.338,1.338,0,0,0,1.334-1.334h0a1.338,1.338,0,0,0-1.334-1.334H-671.5A1.337,1.337,0,0,0-672.835,670.4Z" transform="translate(672.835 -669.067)"/></g></g></g></g></g></svg>