<svg xmlns="http://www.w3.org/2000/svg" width="38.166" height="26.722" viewBox="0 0 38.166 26.722"><defs><style>.a{fill:red;}.b{fill:#fff;}</style></defs><g transform="translate(0 0)"><path class="a" d="M37.38,4.181A4.782,4.782,0,0,0,34.016.817C31.029,0,19.083,0,19.083,0S7.136,0,4.15.786a4.879,4.879,0,0,0-3.364,3.4C0,7.168,0,13.361,0,13.361s0,6.225.786,9.18A4.783,4.783,0,0,0,4.15,25.905c3.018.817,14.933.817,14.933.817s11.946,0,14.933-.786a4.782,4.782,0,0,0,3.364-3.364c.786-2.987.786-9.18.786-9.18s.031-6.225-.786-9.211Zm0,0"/><path class="b" d="M204.969,113.928l9.934-5.722-9.934-5.722Zm0,0" transform="translate(-189.69 -94.845)"/></g></svg>