<svg xmlns="http://www.w3.org/2000/svg" width="25" height="25" viewBox="0 0 25 25"><defs><style>.a{fill:#e87109;}</style></defs><path class="a" d="M11.621,44.6V42.448a.432.432,0,0,1,.238-.386l.953-.476-.953-.476a.432.432,0,0,1-.238-.386V39.431A.432.432,0,0,0,11.19,39H3.431A.432.432,0,0,0,3,39.431V44.6a.432.432,0,0,0,.431.431H11.19A.432.432,0,0,0,11.621,44.6Zm-.862-.431h-6.9V43.31h6.9ZM4.724,42.448v-.862H9.9v.862Zm6.034-1.724h-6.9v-.862h6.9Z" transform="translate(-3 -23.483)"/><path class="a" d="M10.759,14.08l-3.61,2.888a.431.431,0,0,1-.539,0L3,14.08v4.707h7.759Z" transform="translate(-3 -9.304)"/><path class="a" d="M11.014,13H4.851l3.081,2.465Z" transform="translate(-4.053 -8.69)"/><path class="a" d="M27.833,3H19.213A2.159,2.159,0,0,0,17.1,4.724H29.945A2.159,2.159,0,0,0,27.833,3Z" transform="translate(-11.023 -3)"/><path class="a" d="M20.448,51.431a1.3,1.3,0,0,1-1.293,1.293H17v.431a2.158,2.158,0,0,0,2.155,2.155h8.621a2.158,2.158,0,0,0,2.155-2.155V51H20.448Zm3.017.431a1.293,1.293,0,1,1-1.293,1.293A1.295,1.295,0,0,1,23.466,51.862Z" transform="translate(-10.966 -30.31)"/><ellipse class="a" cx="0.406" cy="0.812" rx="0.406" ry="0.812" transform="translate(11.798 22.372)"/><ellipse class="a" cx="0.812" cy="1.218" rx="0.812" ry="1.218" transform="translate(20.733 10.188)"/><path class="a" d="M50.6,20h-4.31A1.3,1.3,0,0,0,45,21.293V25.6A1.3,1.3,0,0,0,46.293,26.9H50.6A1.3,1.3,0,0,0,51.9,25.6v-4.31A1.3,1.3,0,0,0,50.6,20Zm-2.155,6.034A2.155,2.155,0,1,1,50.6,23.879,2.158,2.158,0,0,1,48.448,26.034Zm2.586-4.31h-.862v-.862h.862Z" transform="translate(-26.897 -12.672)"/><path class="a" d="M28.207,19.345v-4.31a2.159,2.159,0,0,1,1.724-2.112V9H17v.862h2.155a.431.431,0,0,1,.431.431v6.034a.431.431,0,0,1-.431.431H17v4.31h2.155a1.3,1.3,0,0,1,1.293,1.293v1.027l1.486.743a.431.431,0,0,1,0,.771l-1.486.743v.6h9.483V21.456A2.159,2.159,0,0,1,28.207,19.345Z" transform="translate(-10.966 -6.414)"/></svg>