<svg xmlns="http://www.w3.org/2000/svg" width="31" height="31" viewBox="0 0 31 31"><defs><style>.a{fill:#1a91da;}</style></defs><path class="a" d="M0,27.5a12.707,12.707,0,0,0,1.512.092,11.111,11.111,0,0,0,7.914-3.346,5.435,5.435,0,0,1-3.7-1.552,7.784,7.784,0,0,1-2.244-3.876,4.907,4.907,0,0,0,1.185.125,5.146,5.146,0,0,0,1.689-.279,6.045,6.045,0,0,1-3.667-2.681A8.707,8.707,0,0,1,1.235,11V10.91a5.139,5.139,0,0,0,2.9.961A7.314,7.314,0,0,1,2.054,9.1a9.046,9.046,0,0,1-.769-3.734,8.962,8.962,0,0,1,.882-3.938A19,19,0,0,0,7.952,7.208a15.376,15.376,0,0,0,7.322,2.4,10.733,10.733,0,0,1-.177-1.8,8.469,8.469,0,0,1,1.865-5.518,5.579,5.579,0,0,1,9.149.187A11.494,11.494,0,0,0,30.143.559,7.407,7.407,0,0,1,27.371,4.9,11.165,11.165,0,0,0,31,3.659a14.168,14.168,0,0,1-3.151,4.06V8.744a27.258,27.258,0,0,1-.743,6.277,25.007,25.007,0,0,1-2.268,6.016,23.163,23.163,0,0,1-3.642,5.1,15.7,15.7,0,0,1-5.078,3.55A15.591,15.591,0,0,1,0,27.5Z"/></svg>