<svg xmlns="http://www.w3.org/2000/svg" width="31" height="31" viewBox="0 0 31 31"><defs><style>.a{fill:#50ab00;}</style></defs><path class="a" d="M18.031,2.25a15.16,15.16,0,0,0-15.218,15.1A14.945,14.945,0,0,0,5,25.148L2.25,33.25l8.426-2.677A15.244,15.244,0,0,0,33.25,17.351,15.16,15.16,0,0,0,18.031,2.25ZM25.6,23.086a3.931,3.931,0,0,1-2.692,1.735c-.714.038-.734.553-4.625-1.137s-6.231-5.8-6.416-6.066a7.463,7.463,0,0,1-1.436-4.045,4.312,4.312,0,0,1,1.481-3.164,1.49,1.49,0,0,1,1.054-.444c.306,0,.5-.009.732,0s.567-.047.861.736,1,2.709,1.09,2.905a.705.705,0,0,1,.007.676,2.643,2.643,0,0,1-.412.629c-.2.218-.427.487-.608.654-.2.184-.413.386-.2.78a11.645,11.645,0,0,0,2.061,2.75,10.618,10.618,0,0,0,3.051,2.029c.382.208.609.185.846-.064s1.013-1.09,1.287-1.465.53-.3.882-.161,2.225,1.146,2.607,1.353.636.313.727.477A3.2,3.2,0,0,1,25.6,23.086Z" transform="translate(-2.25 -2.25)"/></svg>