<svg xmlns="http://www.w3.org/2000/svg" xmlns:xlink="http://www.w3.org/1999/xlink" width="57" height="57" viewBox="0 0 57 57"><defs><style>.a{stroke:#707070;fill:url(#a);}.b{fill:#fff;}.c{stroke:none;}.d{fill:none;}</style><linearGradient id="a" x1="0.513" y1="-0.143" x2="0.5" y2="1.077" gradientUnits="objectBoundingBox"><stop offset="0" stop-color="#2e67ce"/><stop offset="1" stop-color="#690c7f"/></linearGradient></defs><g transform="translate(-1346 -451)"><g class="a" transform="translate(1346 451)"><circle class="c" cx="28.5" cy="28.5" r="28.5"/><circle class="d" cx="28.5" cy="28.5" r="28"/></g><path class="b" d="M12,15H7.5V10.5h-3V15H0v3H4.5v4.5h3V18H12Zm15,1.5a4.5,4.5,0,1,0-1.365-8.79A7.4,7.4,0,0,1,26.985,12a7.547,7.547,0,0,1-1.35,4.29A4.485,4.485,0,0,0,27,16.5Zm-7.5,0A4.5,4.5,0,1,0,15,12,4.481,4.481,0,0,0,19.5,16.5Zm9.93,3.24A5.55,5.55,0,0,1,31.5,24v3H36V24C36,21.69,32.445,20.265,29.43,19.74ZM19.5,19.5c-3,0-9,1.5-9,4.5v3h18V24C28.5,21,22.5,19.5,19.5,19.5Z" transform="translate(1357 461.5)"/></g></svg>