<svg xmlns="http://www.w3.org/2000/svg" xmlns:xlink="http://www.w3.org/1999/xlink" width="148" height="148" viewBox="0 0 148 148"><defs><style>.a{fill:none;}.b{stroke:#707070;fill:url(#a);}.c{clip-path:url(#b);}.d{opacity:0.24;}.e{clip-path:url(#d);}.f{fill:#5f98d1;}.g{fill:#73a8db;}.h{fill:#a2c8ea;}.i{fill:#c9e1f6;}.j{fill:#8ab8e4;}.k{opacity:0.25;mix-blend-mode:overlay;isolation:isolate;}.l{clip-path:url(#f);}.m{fill:#ffe229;}.n{stroke:none;}</style><linearGradient id="a" x1="0.513" y1="-0.143" x2="0.5" y2="1.077" gradientUnits="objectBoundingBox"><stop offset="0" stop-color="#2e67ce"/><stop offset="1" stop-color="#690c7f"/></linearGradient><clipPath id="b"><rect class="a" width="73.96" height="101.83"/></clipPath><clipPath id="d"><rect class="a" width="70.346" height="98.372"/></clipPath><clipPath id="f"><rect class="a" width="6.871" height="15.014"/></clipPath></defs><g transform="translate(-1493 -301)"><g class="b" transform="translate(1493 301)"><circle class="n" cx="74" cy="74" r="74"/><circle class="a" cx="74" cy="74" r="73.5"/></g><g transform="translate(1535.5 324)"><g class="c"><g class="c"><g class="d" transform="translate(3.615 3.458)"><g class="e"><path d="M74.658,10.974H26.516V10.6a3.46,3.46,0,1,0-6.92,0v.344h1.3V10.6a2.157,2.157,0,1,1,4.315,0v.375H12.43v4.465l-1.8.108,1.008,16.816L7.463,101.771l62.116,3.74.533-8.864,7.7-.462L74.658,43.638Z" transform="translate(-7.463 -7.139)"/></g></g></g><rect class="f" width="83.916" height="61.786" transform="matrix(0.06, -0.998, 0.998, 0.06, 0, 93.96)"/><rect class="g" width="61.786" height="83.916" transform="translate(3.148 8.347) rotate(-3.432)"/><path class="h" d="M53.841,92.077H10.181V7.861H71.967V73.95Z" transform="translate(-5.249 -4.053)"/><path class="i" d="M100.313,144.3h18.126l-18.126,18.127Z" transform="translate(-51.721 -74.398)"/><rect class="j" width="24.169" height="5.055" transform="translate(14.619 22.371)"/><rect class="j" width="43.756" height="5.055" transform="translate(14.619 33.806)"/><g class="c"><g class="k" transform="translate(12.731 3.808)"><g class="l"><path d="M31.858,8.171V19.439a2.142,2.142,0,1,1-4.284,0V14.224a.647.647,0,1,0-1.293,0v5.215a3.435,3.435,0,0,0,6.871,0V7.86H31.812c0,.02.046.29.046.311" transform="translate(-26.281 -7.86)"/></g></g><path class="m" d="M28.306,18.139A3.435,3.435,0,0,1,24.871,14.7V9.488a.647.647,0,1,1,1.293,0V14.7a2.142,2.142,0,1,0,4.284,0V3.435a2.142,2.142,0,1,0-4.284,0v.342H24.871V3.435a3.435,3.435,0,1,1,6.871,0V14.7a3.435,3.435,0,0,1-3.435,3.435" transform="translate(-12.823 0)"/></g></g></g></g></svg>