<svg xmlns="http://www.w3.org/2000/svg" xmlns:xlink="http://www.w3.org/1999/xlink" width="112" height="112" viewBox="0 0 112 112"><defs><style>.a,.b{fill:#136acd;}.a{opacity:0.16;}.c,.d{stroke:none;}.d{fill:#f5f5f5;}.e{filter:url(#a);}</style><filter id="a" x="0" y="0" width="112" height="112" filterUnits="userSpaceOnUse"><feOffset dy="10" input="SourceAlpha"/><feGaussianBlur stdDeviation="10" result="b"/><feFlood flood-opacity="0.631"/><feComposite operator="in" in2="b"/><feComposite in="SourceGraphic"/></filter></defs><g transform="translate(-578 -1324)"><g transform="translate(608 1344)"><g class="e" transform="matrix(1, 0, 0, 1, -30, -20)"><g class="a" transform="translate(30 20)"><path class="c" d="M 26 51.5 C 22.55730056762695 51.5 19.21784973144531 50.82585144042969 16.07439994812012 49.49628829956055 C 13.03794002532959 48.21197128295898 10.31081962585449 46.37326049804688 7.968780040740967 44.03121948242188 C 5.626739978790283 41.68917846679688 3.788029909133911 38.96205902099609 2.503710031509399 35.92559814453125 C 1.174149990081787 32.78215026855469 0.5 29.44269943237305 0.5 26 C 0.5 22.55730056762695 1.174149990081787 19.21784973144531 2.503710031509399 16.07439994812012 C 3.788029909133911 13.03794002532959 5.626739978790283 10.31081962585449 7.968780040740967 7.968780040740967 C 10.31081962585449 5.626739978790283 13.03794002532959 3.788029909133911 16.07439994812012 2.503710031509399 C 19.21784973144531 1.174149990081787 22.55730056762695 0.5 26 0.5 C 29.44269943237305 0.5 32.78215026855469 1.174149990081787 35.92559814453125 2.503710031509399 C 38.96205902099609 3.788029909133911 41.68917846679688 5.626739978790283 44.03121948242188 7.968780040740967 C 46.37326049804688 10.31081962585449 48.21197128295898 13.03794002532959 49.49628829956055 16.07439994812012 C 50.82585144042969 19.21784973144531 51.5 22.55730056762695 51.5 26 C 51.5 29.44269943237305 50.82585144042969 32.78215026855469 49.49628829956055 35.92559814453125 C 48.21197128295898 38.96205902099609 46.37326049804688 41.68917846679688 44.03121948242188 44.03121948242188 C 41.68917846679688 46.37326049804688 38.96205902099609 48.21197128295898 35.92559814453125 49.49628829956055 C 32.78215026855469 50.82585144042969 29.44269943237305 51.5 26 51.5 Z"/><path class="d" d="M 26 1 C 22.62458038330078 1 19.35065841674805 1.660858154296875 16.26918029785156 2.964210510253906 C 13.29232025146484 4.223320007324219 10.61861038208008 6.026050567626953 8.322330474853516 8.322330474853516 C 6.026050567626953 10.61861038208008 4.223320007324219 13.29232025146484 2.964210510253906 16.26918029785156 C 1.660858154296875 19.35065841674805 1 22.62458038330078 1 26 C 1 29.37541961669922 1.660858154296875 32.64933776855469 2.964210510253906 35.73081970214844 C 4.223320007324219 38.70767974853516 6.026050567626953 41.38138961791992 8.322330474853516 43.67766952514648 C 10.61861038208008 45.97394943237305 13.29232025146484 47.77667999267578 16.26918029785156 49.03578948974609 C 19.35065841674805 50.33914184570312 22.62458038330078 51 26 51 C 29.37541961669922 51 32.64933776855469 50.33914184570312 35.73081970214844 49.03578948974609 C 38.70767974853516 47.77667999267578 41.38138961791992 45.97394943237305 43.67766952514648 43.67766952514648 C 45.97394943237305 41.38138961791992 47.77667999267578 38.70767974853516 49.03578948974609 35.73081970214844 C 50.33914184570312 32.64933776855469 51 29.37541961669922 51 26 C 51 22.62458038330078 50.33914184570312 19.35065841674805 49.03578948974609 16.26918029785156 C 47.77667999267578 13.29232025146484 45.97394943237305 10.61861038208008 43.67766952514648 8.322330474853516 C 41.38138961791992 6.026050567626953 38.70767974853516 4.223320007324219 35.73081970214844 2.964210510253906 C 32.64933776855469 1.660858154296875 29.37541961669922 1 26 1 M 26 0 C 40.35939788818359 0 52 11.64059829711914 52 26 C 52 40.35939788818359 40.35939788818359 52 26 52 C 11.64059829711914 52 0 40.35939788818359 0 26 C 0 11.64059829711914 11.64059829711914 0 26 0 Z"/></g></g></g><path class="b" d="M5.529,13.307A3.686,3.686,0,1,0,1.843,9.621,3.689,3.689,0,0,0,5.529,13.307Zm25.8,0a3.686,3.686,0,1,0-3.686-3.686A3.689,3.689,0,0,0,31.329,13.307Zm1.843,1.843H29.486a3.675,3.675,0,0,0-2.6,1.071,8.424,8.424,0,0,1,4.325,6.3h3.8a1.841,1.841,0,0,0,1.843-1.843V18.836A3.689,3.689,0,0,0,33.171,15.15Zm-14.743,0a6.45,6.45,0,1,0-6.45-6.45A6.447,6.447,0,0,0,18.429,15.15Zm4.423,1.843h-.478a8.905,8.905,0,0,1-7.89,0h-.478a6.636,6.636,0,0,0-6.634,6.634v1.659a2.765,2.765,0,0,0,2.764,2.764H26.721a2.765,2.765,0,0,0,2.764-2.764V23.627A6.636,6.636,0,0,0,22.851,16.993ZM9.969,16.221a3.675,3.675,0,0,0-2.6-1.071H3.686A3.689,3.689,0,0,0,0,18.836v1.843a1.841,1.841,0,0,0,1.843,1.843h3.8A8.445,8.445,0,0,1,9.969,16.221Z" transform="translate(616 1354.75)"/></g></svg>