<svg xmlns="http://www.w3.org/2000/svg" xmlns:xlink="http://www.w3.org/1999/xlink" width="318.839" height="319" viewBox="0 0 318.839 319"><defs><style>.a{fill-rule:evenodd;fill:url(#a);}.b{fill:url(#b);}.c{fill:#fcb32c;}.d{fill:url(#c);}.e{fill:url(#d);}.f{fill:#1f65a6;}</style><linearGradient id="a" x1="0.5" y1="-0.011" x2="0.5" y2="0.84" gradientUnits="objectBoundingBox"><stop offset="0" stop-color="#2575db"/><stop offset="1" stop-color="#582994"/></linearGradient><linearGradient id="b" x1="0.345" y1="0.109" x2="0.837" y2="1.177" gradientUnits="objectBoundingBox"><stop offset="0" stop-color="#2575db"/><stop offset="0.77" stop-color="#582994"/></linearGradient><linearGradient id="c" y1="0.5" x2="1" y2="0.5" gradientUnits="objectBoundingBox"><stop offset="0.03" stop-color="#8ddef7"/><stop offset="1" stop-color="#cae3f0"/></linearGradient><linearGradient id="d" y1="0.5" x2="1" y2="0.5" gradientUnits="objectBoundingBox"><stop offset="0.2" stop-color="#419ae0"/><stop offset="1" stop-color="#2674db"/></linearGradient></defs><g transform="translate(-51 -20.951)"><path class="a" d="M319.839,160.427a159.419,159.419,0,0,1-300.982,73.4c-.447-.872-.883-1.743-1.319-2.615a159.617,159.617,0,0,1,7.053-154.27A156.378,156.378,0,0,1,34.6,62.5,159.4,159.4,0,0,1,319.6,151.63Q319.839,156.034,319.839,160.427Z" transform="translate(50 20)"/><path class="b" d="M292.812,76.277,238.828,217.77,78.261,220.064,21.57,76.942A156.38,156.38,0,0,1,31.582,62.5a159.392,159.392,0,0,1,261.23,13.774Z" transform="translate(53.022 20.002)"/><path class="c" d="M199.4,92.19c.734-4.266.206-8.9.115-13.224-.092-4.7-.2-23.764-.654-28.455a1.548,1.548,0,0,0-3.085,0c-.424,4.45-.424,23.271-.459,27.732s-.608,9.049-.08,13.384C195.5,93.715,198.961,94.782,199.4,92.19Zm26.551,13.981c3.842-1.824,7.283-5.574,10.563-8.223,3.578-2.959,14.038-12.811,17.4-16.057a1.548,1.548,0,0,0-1.915-2.42c-3.888,2.535-14.428,12.306-18.1,15.151-3.441,2.615-7.65,5.092-10.494,8.292C221.979,104.553,224.055,107.042,225.948,106.17ZM157.11,98.3c3.441,2.535,6.985,5.964,10.85,7.833,1.938.94,3.75-1.789,2.4-3.326-2.8-3.188-7.317-5.517-10.781-7.914-3.831-2.638-7.673-5.276-11.675-7.615a1.548,1.548,0,0,0-1.835,2.477C149.6,92.809,153.372,95.527,157.11,98.3Z" transform="translate(13.89 4.135)"/><path class="d" d="M227.079,220.154H75.78a14.91,14.91,0,0,1-14.91-14.91v-23.11L74.633,111.6c1.915-8.6,5.735-14.91,14.91-14.91H213.328c8.258,0,12.272,3.865,13.763,12.857l15.3,73.4-.39,22.3a14.91,14.91,0,0,1-14.921,14.91Z" transform="translate(58.795 34.064)"/><path class="e" d="M229.048,190.616s-41,.654-46.931.654c0,8.6-2.294,11.744-10.173,11.744H131.194c-4.886,0-10.62-3.143-10.62-12.4H73.092A10.322,10.322,0,0,1,62.77,180.294l14.279-71.67C78.2,102.89,81.637,98.3,87.371,98.3l127.4-.172c5.735,0,9.347,4.588,10.322,10.322l14.267,71.842a10.322,10.322,0,0,1-10.311,10.322Z" transform="translate(59.074 34.276)"/><path class="f" d="M122.3,200.495l8.567-46.633c.333-1.824.631-3.67,1.009-5.482.791-3.877,2.672-6.663,6.778-7.111a85.682,85.682,0,0,1,9.083-.08H224c6.881,0,13.889.092,20.816-.287,4.817-.252,9.668-.39,14.5-.3,5.23.1,7.868,3.441,8.843,8.418,3.188,16.057,5.826,32.274,8.739,48.4l.275,1.5c.126.734,1.227.424,1.147-.3l-8.59-47.585c-.539-2.993-1.021-5.964-2.97-8.453-3.3-4.232-9.519-3.154-14.233-3.1-7.879.1-15.735.551-23.615.551h-84.5c-2.581,0-5.39-.275-7.9.47-3.819,1.147-5.2,4.588-5.872,8.258-3.12,16.584-6.1,33.191-9.175,49.787l-.3,1.583c-.126.723.975,1.032,1.147.31Z" transform="translate(10.305 17.39)"/></g></svg>