<svg xmlns="http://www.w3.org/2000/svg" xmlns:xlink="http://www.w3.org/1999/xlink" viewBox="0 0 317.98 318.07"><defs><style>.cls-1{fill:url(#linear-gradient);}.cls-2{fill:#fff;}</style><linearGradient id="linear-gradient" x1="80.95" y1="35.79" x2="252.07" y2="306" gradientUnits="userSpaceOnUse"><stop offset="0" stop-color="#536eb3"/><stop offset="0" stop-color="#536eb3"/><stop offset="0.44" stop-color="#54478d"/><stop offset="0.79" stop-color="#542f76"/><stop offset="1" stop-color="#54266d"/></linearGradient></defs><g id="Layer_2" data-name="Layer 2"><g id="Capa_1" data-name="Capa 1"><path class="cls-1" d="M0,159C0,71,71.72-.63,159.19,0,247.64.64,318,71.09,318,159s-71.73,159.69-159.17,159C70.36,317.4,0,246.91,0,159Z"/><path class="cls-2" d="M158.53,257.57q-27.1,0-54.21,0c-8.46,0-12.68-4.09-12.58-12.58.12-9.7-.88-19.45,1-29.08,4-20.28,22-36.51,42.74-37.76a376.93,376.93,0,0,1,46.33,0c22.85,1.44,42.13,21,43.39,43.82.45,8.07.35,16.19.22,24.29-.12,7.14-4.44,11.27-11.59,11.3C195.42,257.61,177,257.57,158.53,257.57Z"/><path class="cls-2" d="M197,129.58a38.54,38.54,0,0,1-38.29,38.65c-21.06.14-38.45-17.21-38.52-38.43a38.41,38.41,0,0,1,76.81-.22Z"/></g></g></svg>