<svg xmlns="http://www.w3.org/2000/svg" xmlns:xlink="http://www.w3.org/1999/xlink" width="148" height="148" viewBox="0 0 148 148"><defs><style>.a{stroke:#707070;fill:url(#a);}.b{fill:#fff;}.c{stroke:none;}.d{fill:none;}</style><linearGradient id="a" x1="0.513" y1="-0.143" x2="0.5" y2="1.077" gradientUnits="objectBoundingBox"><stop offset="0" stop-color="#2e67ce"/><stop offset="1" stop-color="#690c7f"/></linearGradient></defs><g transform="translate(-1493 -301)"><g class="a" transform="translate(1493 301)"><circle class="c" cx="74" cy="74" r="74"/><circle class="d" cx="74" cy="74" r="73.5"/></g><path class="b" d="M34.359,28.974H21.474V16.09h-8.59V28.974H0v8.59H12.885V50.449h8.59V37.564H34.359Zm42.949,4.295A12.885,12.885,0,1,0,73.4,8.1a21.192,21.192,0,0,1,3.865,12.283A21.609,21.609,0,0,1,73.4,32.668,12.841,12.841,0,0,0,77.308,33.269Zm-21.474,0A12.885,12.885,0,1,0,42.949,20.385,12.831,12.831,0,0,0,55.833,33.269Zm28.432,9.277c3.565,3.135,5.927,7.129,5.927,12.2v8.59h12.885v-8.59C103.077,48.129,92.9,44.049,84.265,42.546Zm-28.432-.687c-8.59,0-25.769,4.295-25.769,12.885v8.59H81.6v-8.59C81.6,46.154,64.423,41.859,55.833,41.859Z" transform="translate(1515 339.5)"/></g></svg>