<svg xmlns="http://www.w3.org/2000/svg" xmlns:xlink="http://www.w3.org/1999/xlink" width="148" height="148" viewBox="0 0 148 148"><defs><style>.a{stroke:#707070;fill:url(#a);}.b{fill:#bfffff;}.c{stroke:none;}.d{fill:none;}</style><linearGradient id="a" x1="0.513" y1="-0.143" x2="0.5" y2="1.077" gradientUnits="objectBoundingBox"><stop offset="0" stop-color="#2e67ce"/><stop offset="1" stop-color="#690c7f"/></linearGradient></defs><g transform="translate(-1493 -301)"><g class="a" transform="translate(1493 301)"><circle class="c" cx="74" cy="74" r="74"/><circle class="d" cx="74" cy="74" r="73.5"/></g><path class="b" d="M73.367,33.133a21.3,21.3,0,1,0,21.3,21.3A21.287,21.287,0,0,0,73.367,33.133Zm9.467,22.232A1.446,1.446,0,0,1,81.4,56.8H72.435A1.446,1.446,0,0,1,71,55.365V44.035A1.446,1.446,0,0,1,72.435,42.6H74.3a1.446,1.446,0,0,1,1.435,1.435v8.032H81.4A1.446,1.446,0,0,1,82.834,53.5Zm-35.5-.932A25.942,25.942,0,0,1,50.026,42.97a19.709,19.709,0,0,0-3.639-.37h-2.47a25.749,25.749,0,0,1-21.566,0H19.88A19.885,19.885,0,0,0,0,62.48v6.153a7.1,7.1,0,0,0,7.1,7.1H58.442A26.033,26.033,0,0,1,47.333,54.434Zm-14.2-16.567A18.933,18.933,0,1,0,14.2,18.933,18.932,18.932,0,0,0,33.133,37.867Z" transform="translate(1520 337)"/></g></svg>