<svg xmlns="http://www.w3.org/2000/svg" width="28" height="34" viewBox="0 0 28 34"><defs><style>.a{fill:#136acd;}</style></defs><path class="a" d="M2.122,188.732H17.277A2.132,2.132,0,0,0,19.4,186.61V171.455a2.132,2.132,0,0,0-2.122-2.122H2.122A2.132,2.132,0,0,0,0,171.455V186.61a2.132,2.132,0,0,0,2.122,2.122Zm3.94-6.971v-6.668a.9.9,0,0,1,.436-.776.866.866,0,0,1,.873-.036l6.668,3.334a.9.9,0,0,1,0,1.625l-6.668,3.334a.891.891,0,0,1-.873-.036.9.9,0,0,1-.436-.776Z" transform="translate(0 -154.732)"/><circle class="a" cx="3.637" cy="3.637" r="3.637" transform="translate(20.726 11.878)"/><path class="a" d="M387.365,402.167h-5.456a.909.909,0,1,0,0,1.819h5.456a.909.909,0,1,0,0-1.819Z" transform="translate(-360.274 -375.201)"/><path class="a" d="M387.365,465.667h-5.456a.909.909,0,0,0,0,1.819h5.456a.909.909,0,0,0,0-1.819Z" transform="translate(-360.274 -434.092)"/><path class="a" d="M387.365,338.667h-5.456a.909.909,0,0,0,0,1.819h5.456a.909.909,0,0,0,0-1.819Z" transform="translate(-360.274 -315.782)"/><path class="a" d="M25.958,0H2.042A2.085,2.085,0,0,0,0,2.122V5.153A2.085,2.085,0,0,0,2.042,7.274H25.958A2.085,2.085,0,0,0,28,5.153V2.122A2.085,2.085,0,0,0,25.958,0Z" transform="translate(0)"/></svg>