<svg xmlns="http://www.w3.org/2000/svg" xmlns:xlink="http://www.w3.org/1999/xlink" width="112" height="112" viewBox="0 0 112 112"><defs><style>.a{opacity:0.3;}.b,.c{fill:#136acd;}.b{opacity:0.16;}.d,.e{stroke:none;}.e{fill:#f5f5f5;}.f{filter:url(#a);}</style><filter id="a" x="0" y="0" width="112" height="112" filterUnits="userSpaceOnUse"><feOffset dy="10" input="SourceAlpha"/><feGaussianBlur stdDeviation="10" result="b"/><feFlood flood-opacity="0.631"/><feComposite operator="in" in2="b"/><feComposite in="SourceGraphic"/></filter></defs><g class="a" transform="translate(-506 -195)"><g class="f" transform="matrix(1, 0, 0, 1, 506, 195)"><g class="b" transform="translate(30 20)"><path class="d" d="M 26 51.5 C 22.55730056762695 51.5 19.21784973144531 50.82585144042969 16.07439994812012 49.49628829956055 C 13.03794002532959 48.21197128295898 10.31081962585449 46.37326049804688 7.968780040740967 44.03121948242188 C 5.626739978790283 41.68917846679688 3.788029909133911 38.96205902099609 2.503710031509399 35.92559814453125 C 1.174149990081787 32.78215026855469 0.5 29.44269943237305 0.5 26 C 0.5 22.55730056762695 1.174149990081787 19.21784973144531 2.503710031509399 16.07439994812012 C 3.788029909133911 13.03794002532959 5.626739978790283 10.31081962585449 7.968780040740967 7.968780040740967 C 10.31081962585449 5.626739978790283 13.03794002532959 3.788029909133911 16.07439994812012 2.503710031509399 C 19.21784973144531 1.174149990081787 22.55730056762695 0.5 26 0.5 C 29.44269943237305 0.5 32.78215026855469 1.174149990081787 35.92559814453125 2.503710031509399 C 38.96205902099609 3.788029909133911 41.68917846679688 5.626739978790283 44.03121948242188 7.968780040740967 C 46.37326049804688 10.31081962585449 48.21197128295898 13.03794002532959 49.49628829956055 16.07439994812012 C 50.82585144042969 19.21784973144531 51.5 22.55730056762695 51.5 26 C 51.5 29.44269943237305 50.82585144042969 32.78215026855469 49.49628829956055 35.92559814453125 C 48.21197128295898 38.96205902099609 46.37326049804688 41.68917846679688 44.03121948242188 44.03121948242188 C 41.68917846679688 46.37326049804688 38.96205902099609 48.21197128295898 35.92559814453125 49.49628829956055 C 32.78215026855469 50.82585144042969 29.44269943237305 51.5 26 51.5 Z"/><path class="e" d="M 26 1 C 22.62458038330078 1 19.35065841674805 1.660858154296875 16.26918029785156 2.964210510253906 C 13.29232025146484 4.223320007324219 10.61861038208008 6.026050567626953 8.322330474853516 8.322330474853516 C 6.026050567626953 10.61861038208008 4.223320007324219 13.29232025146484 2.964210510253906 16.26918029785156 C 1.660858154296875 19.35065841674805 1 22.62458038330078 1 26 C 1 29.37541961669922 1.660858154296875 32.64933776855469 2.964210510253906 35.73081970214844 C 4.223320007324219 38.70767974853516 6.026050567626953 41.38138961791992 8.322330474853516 43.67766952514648 C 10.61861038208008 45.97394943237305 13.29232025146484 47.77667999267578 16.26918029785156 49.03578948974609 C 19.35065841674805 50.33914184570312 22.62458038330078 51 26 51 C 29.37541961669922 51 32.64933776855469 50.33914184570312 35.73081970214844 49.03578948974609 C 38.70767974853516 47.77667999267578 41.38138961791992 45.97394943237305 43.67766952514648 43.67766952514648 C 45.97394943237305 41.38138961791992 47.77667999267578 38.70767974853516 49.03578948974609 35.73081970214844 C 50.33914184570312 32.64933776855469 51 29.37541961669922 51 26 C 51 22.62458038330078 50.33914184570312 19.35065841674805 49.03578948974609 16.26918029785156 C 47.77667999267578 13.29232025146484 45.97394943237305 10.61861038208008 43.67766952514648 8.322330474853516 C 41.38138961791992 6.026050567626953 38.70767974853516 4.223320007324219 35.73081970214844 2.964210510253906 C 32.64933776855469 1.660858154296875 29.37541961669922 1 26 1 M 26 0 C 40.35939788818359 0 52 11.64059829711914 52 26 C 52 40.35939788818359 40.35939788818359 52 26 52 C 11.64059829711914 52 0 40.35939788818359 0 26 C 0 11.64059829711914 11.64059829711914 0 26 0 Z"/></g></g><g transform="translate(549 226)"><path class="c" d="M25.376,0H2.534A1.134,1.134,0,0,0,1.4,1.133V28.286a1.132,1.132,0,0,0,1.133,1.133H25.374a1.132,1.132,0,0,0,1.133-1.133V1.133A1.131,1.131,0,0,0,25.376,0ZM24.243,27.154H3.666V2.267H24.242V27.154Z" transform="translate(-1.401 0)"/><path class="c" d="M9.092,4.668H4.946V8.812H9.09V4.668Zm-.5,1.376-1.84,1.84a.124.124,0,0,1-.177,0L5.448,6.758a.131.131,0,0,1,0-.18l.269-.265a.124.124,0,0,1,.179,0l.765.768L8.142,5.6a.128.128,0,0,1,.18,0l.266.268A.123.123,0,0,1,8.587,6.044Z" transform="translate(0.509 2.515)"/><rect class="c" width="9.481" height="2.279" transform="translate(10.465 8.116)"/><path class="c" d="M9.092,8.18H4.946v4.142H9.09V8.18Zm-.5,1.374-1.84,1.84a.124.124,0,0,1-.177,0L5.448,10.268a.129.129,0,0,1,0-.179l.269-.266a.126.126,0,0,1,.179,0l.765.768L8.142,9.109a.128.128,0,0,1,.18,0l.266.266A.125.125,0,0,1,8.587,9.554Z" transform="translate(0.509 4.407)"/><rect class="c" width="9.481" height="2.279" transform="translate(10.465 13.518)"/><rect class="c" width="4.144" height="4.144" transform="translate(5.457 18.11)"/><rect class="c" width="9.481" height="2.277" transform="translate(10.465 19.044)"/></g></g></svg>