<svg xmlns="http://www.w3.org/2000/svg" xmlns:xlink="http://www.w3.org/1999/xlink" width="112" height="112" viewBox="0 0 112 112"><defs><style>.a,.b{fill:#136acd;}.a{opacity:0.16;}.b{stroke:#136acd;stroke-width:1.4px;}.c,.d{stroke:none;}.d{fill:#f5f5f5;}.e{filter:url(#a);}</style><filter id="a" x="0" y="0" width="112" height="112" filterUnits="userSpaceOnUse"><feOffset dy="10" input="SourceAlpha"/><feGaussianBlur stdDeviation="10" result="b"/><feFlood flood-opacity="0.631"/><feComposite operator="in" in2="b"/><feComposite in="SourceGraphic"/></filter></defs><g transform="translate(-578 -639)"><g transform="translate(72 444)"><g class="e" transform="matrix(1, 0, 0, 1, 506, 195)"><g class="a" transform="translate(30 20)"><path class="c" d="M 26 51.5 C 22.55730056762695 51.5 19.21784973144531 50.82585144042969 16.07439994812012 49.49628829956055 C 13.03794002532959 48.21197128295898 10.31081962585449 46.37326049804688 7.968780040740967 44.03121948242188 C 5.626739978790283 41.68917846679688 3.788029909133911 38.96205902099609 2.503710031509399 35.92559814453125 C 1.174149990081787 32.78215026855469 0.5 29.44269943237305 0.5 26 C 0.5 22.55730056762695 1.174149990081787 19.21784973144531 2.503710031509399 16.07439994812012 C 3.788029909133911 13.03794002532959 5.626739978790283 10.31081962585449 7.968780040740967 7.968780040740967 C 10.31081962585449 5.626739978790283 13.03794002532959 3.788029909133911 16.07439994812012 2.503710031509399 C 19.21784973144531 1.174149990081787 22.55730056762695 0.5 26 0.5 C 29.44269943237305 0.5 32.78215026855469 1.174149990081787 35.92559814453125 2.503710031509399 C 38.96205902099609 3.788029909133911 41.68917846679688 5.626739978790283 44.03121948242188 7.968780040740967 C 46.37326049804688 10.31081962585449 48.21197128295898 13.03794002532959 49.49628829956055 16.07439994812012 C 50.82585144042969 19.21784973144531 51.5 22.55730056762695 51.5 26 C 51.5 29.44269943237305 50.82585144042969 32.78215026855469 49.49628829956055 35.92559814453125 C 48.21197128295898 38.96205902099609 46.37326049804688 41.68917846679688 44.03121948242188 44.03121948242188 C 41.68917846679688 46.37326049804688 38.96205902099609 48.21197128295898 35.92559814453125 49.49628829956055 C 32.78215026855469 50.82585144042969 29.44269943237305 51.5 26 51.5 Z"/><path class="d" d="M 26 1 C 22.62458038330078 1 19.35065841674805 1.660858154296875 16.26918029785156 2.964210510253906 C 13.29232025146484 4.223320007324219 10.61861038208008 6.026050567626953 8.322330474853516 8.322330474853516 C 6.026050567626953 10.61861038208008 4.223320007324219 13.29232025146484 2.964210510253906 16.26918029785156 C 1.660858154296875 19.35065841674805 1 22.62458038330078 1 26 C 1 29.37541961669922 1.660858154296875 32.64933776855469 2.964210510253906 35.73081970214844 C 4.223320007324219 38.70767974853516 6.026050567626953 41.38138961791992 8.322330474853516 43.67766952514648 C 10.61861038208008 45.97394943237305 13.29232025146484 47.77667999267578 16.26918029785156 49.03578948974609 C 19.35065841674805 50.33914184570312 22.62458038330078 51 26 51 C 29.37541961669922 51 32.64933776855469 50.33914184570312 35.73081970214844 49.03578948974609 C 38.70767974853516 47.77667999267578 41.38138961791992 45.97394943237305 43.67766952514648 43.67766952514648 C 45.97394943237305 41.38138961791992 47.77667999267578 38.70767974853516 49.03578948974609 35.73081970214844 C 50.33914184570312 32.64933776855469 51 29.37541961669922 51 26 C 51 22.62458038330078 50.33914184570312 19.35065841674805 49.03578948974609 16.26918029785156 C 47.77667999267578 13.29232025146484 45.97394943237305 10.61861038208008 43.67766952514648 8.322330474853516 C 41.38138961791992 6.026050567626953 38.70767974853516 4.223320007324219 35.73081970214844 2.964210510253906 C 32.64933776855469 1.660858154296875 29.37541961669922 1 26 1 M 26 0 C 40.35939788818359 0 52 11.64059829711914 52 26 C 52 40.35939788818359 40.35939788818359 52 26 52 C 11.64059829711914 52 0 40.35939788818359 0 26 C 0 11.64059829711914 11.64059829711914 0 26 0 Z"/></g></g></g><g transform="translate(618.997 670.004)"><path class="b" d="M15.553,14.15a16.4,16.4,0,0,1,3.362,4.635c.681,1.522.751,2.814.051,3.514a1.856,1.856,0,0,1-1.343.493L5.347,28.261h0C2.237,29.8.705,30.032.181,29.206c-.5-.78.092-2.434,1.159-4.784h0L6.922,11.848A1.756,1.756,0,0,1,7.4,10.737c.7-.7,1.992-.63,3.514.051a16.322,16.322,0,0,1,4.637,3.362Zm12.428,7.327a.941.941,0,1,1-1.331,0,.942.942,0,0,1,1.331,0Zm.894-4.386a.48.48,0,1,1,.176.944c-1.278.242-2.352-.541-3.463-1.348-1.461-1.063-2.995-2.178-4.934-.186a.48.48,0,1,1-.688-.669c2.519-2.589,4.4-1.224,6.185.077.942.683,1.852,1.345,2.724,1.181Zm.22-14.329a.478.478,0,1,1,0,.956c-2.207,0-2.787,1.782-3.4,3.661-.712,2.186-1.466,4.49-4.456,5-.278.048-.563.094-.877.138s-.6.075-.9.094a.48.48,0,0,1-.06-.959c.28-.019.555-.048.828-.087s.548-.082.843-.133c2.418-.413,3.079-2.434,3.7-4.35.727-2.219,1.41-4.316,4.316-4.323ZM12.136.388a.48.48,0,0,1,.944.176,4.018,4.018,0,0,0,1.01,2.62c1.229,1.891,2.521,3.874-.732,6.448a.48.48,0,1,1-.594-.754c2.567-2.031,1.522-3.642.522-5.176-.7-1.07-1.379-2.111-1.15-3.316ZM23.048,1.813,22.13,3.625l1.355,1.369-1.92-.261L20.64,6.448l-.3-1.908L18.42,4.2l1.72-.891-.28-1.992,1.391,1.427,1.8-.932ZM18.705,7.692a.941.941,0,1,1-1.331,0,.942.942,0,0,1,1.331,0ZM17.331,1.251a.941.941,0,1,1-1.331,0,.942.942,0,0,1,1.331,0ZM11.255,5.909a.941.941,0,1,1-1.331,0,.942.942,0,0,1,1.331,0Zm16.188,5.369a.941.941,0,1,1-1.331,0,.942.942,0,0,1,1.331,0ZM24.487,18.5l-1.142.746.328,1.251-1.029-.8-1.113.686.464-1.212-1-.84,1.3.058.507-1.253.328,1.3,1.357.065ZM7.818,14.983a18.927,18.927,0,0,0,6.088,8.677l2.422-1.082a7.866,7.866,0,0,1-.879-.333,16.4,16.4,0,0,1-4.635-3.362h0a17.556,17.556,0,0,1-3-3.9Zm2.6,10.233a22.993,22.993,0,0,1-5.407-7.284L3.4,21.552a22.32,22.32,0,0,0,3.934,5.036l3.079-1.372Zm-6.308,2.84a8.7,8.7,0,0,1-2.357-2.792C.932,27.1.493,28.36.785,28.819c.256.4,1.251.2,3.321-.763ZM7.634,11.911a.214.214,0,0,1,0,.056,3.461,3.461,0,0,0,.2,1.266,7.432,7.432,0,0,0,.283.727,15.7,15.7,0,0,0,3.215,4.417h0a15.664,15.664,0,0,0,4.417,3.215,6.92,6.92,0,0,0,.821.312,3.661,3.661,0,0,0,.971.171.592.592,0,0,1,.065,0,1.175,1.175,0,0,0,.85-.292c.466-.466.357-1.468-.2-2.71a15.7,15.7,0,0,0-3.215-4.417,15.664,15.664,0,0,0-4.417-3.215c-1.241-.555-2.244-.664-2.71-.2a1.076,1.076,0,0,0-.28.664Z" transform="translate(0 0)"/></g></g></svg>