<svg width="11" height="9" viewBox="0 0 11 9" fill="none" xmlns="http://www.w3.org/2000/svg">
<path d="M10.4556 2.90628L4.93797 8.42347C4.87412 8.48733 4.79833 8.53798 4.71491 8.57254C4.63148 8.6071 4.54207 8.62489 4.45178 8.62489C4.36148 8.62489 4.27207 8.6071 4.18864 8.57254C4.10522 8.53798 4.02943 8.48733 3.96558 8.42347L0.888162 5.32972C0.75946 5.20082 0.687172 5.02611 0.687172 4.84396C0.687172 4.66181 0.75946 4.4871 0.888162 4.3582L1.91941 3.32695C2.0479 3.19843 2.22205 3.12601 2.40378 3.12552C2.58552 3.12504 2.76005 3.19653 2.88922 3.32437L4.46359 4.83988L4.46832 4.8446L8.45281 0.918548C8.58166 0.790239 8.75609 0.718201 8.93793 0.718201C9.11977 0.718201 9.2942 0.790239 9.42305 0.918548L10.4543 1.93089C10.5187 1.9947 10.5698 2.07062 10.6048 2.15427C10.6397 2.23793 10.6577 2.32766 10.6579 2.41832C10.658 2.50897 10.6402 2.59876 10.6055 2.6825C10.5707 2.76625 10.5198 2.8423 10.4556 2.90628Z" fill="#078E2D"/>
</svg>
