<svg xmlns="http://www.w3.org/2000/svg" xmlns:xlink="http://www.w3.org/1999/xlink" width="93.704" height="93.752" viewBox="0 0 93.704 93.752"><defs><style>.a{fill-rule:evenodd;fill:url(#a);}.b{fill:url(#b);}.c{fill:#fff;}</style><linearGradient id="a" x1="0.5" y1="-0.011" x2="0.5" y2="0.84" gradientUnits="objectBoundingBox"><stop offset="0" stop-color="#2575db"/><stop offset="1" stop-color="#582994"/></linearGradient><linearGradient id="b" x1="0.345" y1="0.109" x2="0.837" y2="1.177" gradientUnits="objectBoundingBox"><stop offset="0" stop-color="#2575db"/><stop offset="0.77" stop-color="#582994"/></linearGradient></defs><g transform="translate(-16.433 -14.5)"><g transform="translate(16.433 14.5)"><path class="a" d="M94.7,47.82A46.852,46.852,0,0,1,6.248,69.392c-.131-.256-.26-.512-.388-.769A46.91,46.91,0,0,1,7.933,23.284a45.959,45.959,0,0,1,2.943-4.244A46.847,46.847,0,0,1,94.633,45.234Q94.7,46.529,94.7,47.82Z" transform="translate(-1 -0.951)"/><path class="b" d="M101.286,23.1,85.42,64.68l-47.189.674L21.57,23.292a45.958,45.958,0,0,1,2.943-4.244A46.844,46.844,0,0,1,101.286,23.1Z" transform="translate(-14.637 -0.959)"/></g><path class="c" d="M14.648,8.789a8.789,8.789,0,1,1,8.789,8.789A8.789,8.789,0,0,1,14.648,8.789Zm31.082.168a3.906,3.906,0,0,0-5.524,0L29.632,19.531H17.243L6.668,8.957a3.906,3.906,0,1,0-5.524,5.524L12.7,26.032V58.594A3.906,3.906,0,0,0,16.6,62.5h1.953a3.906,3.906,0,0,0,3.906-3.906V44.922h1.953V58.594A3.906,3.906,0,0,0,28.32,62.5h1.953a3.906,3.906,0,0,0,3.906-3.906V26.032L45.731,14.481a3.906,3.906,0,0,0,0-5.524Z" transform="translate(39.987 27.521)"/></g></svg>