<svg xmlns="http://www.w3.org/2000/svg" xmlns:xlink="http://www.w3.org/1999/xlink" width="57" height="57" viewBox="0 0 57 57"><defs><style>.a{stroke:#707070;fill:url(#a);}.b{fill:#fff;}.c{stroke:none;}.d{fill:none;}</style><linearGradient id="a" x1="0.513" y1="-0.143" x2="0.5" y2="1.077" gradientUnits="objectBoundingBox"><stop offset="0" stop-color="#2e67ce"/><stop offset="1" stop-color="#690c7f"/></linearGradient></defs><g transform="translate(-1346 -549)"><g class="a" transform="translate(1346 549)"><circle class="c" cx="28.5" cy="28.5" r="28.5"/><circle class="d" cx="28.5" cy="28.5" r="28"/></g><path class="b" d="M24.447,11.041a7.1,7.1,0,1,0,7.1,7.1A7.093,7.093,0,0,0,24.447,11.041ZM27.6,18.449a.482.482,0,0,1-.478.478H24.137a.482.482,0,0,1-.478-.478V14.673a.482.482,0,0,1,.478-.478h.621a.482.482,0,0,1,.478.478V17.35h1.888a.482.482,0,0,1,.478.478Zm-11.829-.311a8.644,8.644,0,0,1,.9-3.82,6.568,6.568,0,0,0-1.213-.123h-.823a8.58,8.58,0,0,1-7.186,0H6.624A6.626,6.626,0,0,0,0,20.82v2.05a2.366,2.366,0,0,0,2.366,2.366H19.474A8.675,8.675,0,0,1,15.772,18.138Zm-4.732-5.52A6.309,6.309,0,1,0,4.732,6.309,6.309,6.309,0,0,0,11.041,12.618Z" transform="translate(1359 565)"/></g></svg>