<svg width="57" height="36" viewBox="0 0 87 66" xmlns="http://www.w3.org/2000/svg" xmlns:xlink="http://www.w3.org/1999/xlink">
  <title>
    Page 1
  </title>
  <defs>
    <path id="a" d="M0 0.79L86.947 0.79 86.947 66 0 66z"/>
    <path id="c" d="M0 0.79L10.868 0.79 10.868 66 0 66z"/>
    <path id="e" d="M0.078 0.79L10.947 0.79 10.947 66 0.078 66z"/>
    <path id="g" d="M0 0.79L86.946 0.79 86.946 40.641 0 40.641z"/>
    <path id="i" d="M0.434 0.79L76.513 0.79 76.513 27.196 0.434 27.196z"/>
    <path id="k" d="M0.87 3.018L27.433 29.327 27.438 29.334 33.473 24.641 0.87 0.904z"/>
    <path id="m" d="M6.473 24.641L0.433 29.327 21.074 50 39.078 50 39.078 0.902z"/>
  </defs>
  <g fill="none" fill-rule="evenodd">
    <g transform="translate(0 -.79)">
      <mask id="b" fill="white">
        <use xlink:href="#a"/>
      </mask>
      <path d="M81.5126,65.9999 L5.4336,65.9999 C2.4326,65.9999 -0.0004,63.5669 -0.0004,60.5659 L-0.0004,6.2249 C-0.0004,3.2229 2.4326,0.7899 5.4336,0.7899 L81.5126,0.7899 C84.5136,0.7899 86.9466,3.2229 86.9466,6.2249 L86.9466,60.5659 C86.9466,63.5669 84.5136,65.9999 81.5126,65.9999" fill="#EAEAEA" mask="url(#b)"/>
    </g>
    <g transform="translate(0 -.79)">
      <mask id="d" fill="white">
        <use xlink:href="#c"/>
      </mask>
      <path d="M10.8685,65.9999 L5.4335,65.9999 C2.4325,65.9999 -0.0005,63.5669 -0.0005,60.5659 L-0.0005,6.2249 C-0.0005,3.2229 2.4325,0.7899 5.4335,0.7899 C8.4355,0.7899 10.8685,3.2229 10.8685,6.2249 L10.8685,65.9999 Z" fill="#D54C3F" mask="url(#d)"/>
    </g>
    <g transform="translate(76 -.79)">
      <mask id="f" fill="white">
        <use xlink:href="#e"/>
      </mask>
      <path d="M0.078,65.9999 L5.513,65.9999 C8.514,65.9999 10.947,63.5669 10.947,60.5659 L10.947,6.2249 C10.947,3.2229 8.514,0.7899 5.513,0.7899 C2.511,0.7899 0.078,3.2229 0.078,6.2249 L0.078,65.9999 Z" fill="#B63524" mask="url(#f)"/>
    </g>
    <g transform="translate(0 -.79)">
      <mask id="h" fill="white">
        <use xlink:href="#g"/>
      </mask>
      <path d="M84.6244,10.6805 C86.0284,9.6975 86.9464,8.0685 86.9464,6.2245 C86.9464,3.2225 84.5144,0.7895 81.5124,0.7895 C80.3544,0.7895 79.2804,1.1525 78.4004,1.7685 L43.4774,27.1945 L43.4734,27.1965 L43.4694,27.1945 L8.5464,1.7685 C7.6664,1.1525 6.5914,0.7895 5.4344,0.7895 C2.4324,0.7895 -0.0006,3.2225 -0.0006,6.2245 C-0.0006,8.0685 0.9184,9.6975 2.3224,10.6805 L2.1774,10.5735 L43.4734,40.6405" fill="#DE5145" mask="url(#h)"/>
    </g>
    <g transform="translate(5 -.79)">
      <mask id="j" fill="white">
        <use xlink:href="#i"/>
      </mask>
      <path d="M76.5126,0.7899 C75.3546,0.7899 74.2806,1.1519 73.4006,1.7689 L38.4766,27.1939 L38.4726,27.1959 L38.4696,27.1939 L3.5466,1.7689 C2.6656,1.1519 1.5916,0.7899 0.4336,0.7899 L76.5126,0.7899 Z" fill="#EFEFEF" mask="url(#j)"/>
    </g>
    <path d="M10.87,19.244 L1.712,10.173 L1.708,10.181 C1.9,10.361 2.105,10.528 2.322,10.681 L2.177,10.573 L10.872,16.904 L10.87,19.309" fill="#C64132" transform="translate(0 -.79)"/>
    <path fill="#E3E3E3" d="M37.438 45.334L10.869 66 10.87 19.019 37.433 45.327" transform="translate(0 -.79)"/>
    <g transform="translate(10 15.21)">
      <mask id="l" fill="white">
        <use xlink:href="#k"/>
      </mask>
      <path mask="url(#l)" d="M0.87 3.018L27.433 29.327 27.438 29.334 33.473 24.641 0.87 0.904z"/>
    </g>
    <g transform="translate(37 15.21)">
      <mask id="n" fill="white">
        <use xlink:href="#m"/>
      </mask>
      <path mask="url(#n)" d="M6.473 24.641L0.433 29.327 21.074 50 39.078 50 39.078 0.902z"/>
    </g>
  </g>
</svg>
