<svg xmlns="http://www.w3.org/2000/svg" xmlns:xlink="http://www.w3.org/1999/xlink" width="88" height="88" viewBox="0 0 88 88"><defs><style>.a{fill:#fff;stroke:#707070;opacity:0.3;}.b{fill:#fbbb00;}.c{fill:#518ef8;}.d{fill:#28b446;}.e{fill:#f14336;}.f{stroke:none;}.g{fill:none;}.h{filter:url(#a);}</style><filter id="a" x="0" y="0" width="88" height="88" filterUnits="userSpaceOnUse"><feOffset dy="3" input="SourceAlpha"/><feGaussianBlur stdDeviation="3" result="b"/><feFlood flood-opacity="0.161"/><feComposite operator="in" in2="b"/><feComposite in="SourceGraphic"/></filter></defs><g transform="translate(9 6)"><g class="h" transform="matrix(1, 0, 0, 1, -9, -6)"><g class="a" transform="translate(9 6)"><rect class="f" width="70" height="70" rx="10"/><rect class="g" x="0.5" y="0.5" width="69" height="69" rx="9.5"/></g></g><g transform="translate(8.88 11.25)"><path class="b" d="M10.949,16.514l-1.72,6.42-6.286.133A24.746,24.746,0,0,1,2.762,0h0l5.6,1.026,2.451,5.562a14.743,14.743,0,0,0,.139,9.926Z" transform="matrix(0.995, -0.105, 0.105, 0.995, 0, 13.875)"/><path class="c" d="M285.356,208.176a24.694,24.694,0,0,1-8.806,23.879h0l-7.048-.36-1-6.227a14.723,14.723,0,0,0,6.335-7.518H261.628v-9.773h23.728Z" transform="translate(-237.717 -188.533)"/><path class="d" d="M67.732,323.518h0a24.711,24.711,0,0,1-37.224-7.557l8.005-6.553a14.692,14.692,0,0,0,21.171,7.522Z" transform="translate(-26.389 -280.888)"/><path class="e" d="M66.333,5.687l-8,6.552a14.69,14.69,0,0,0-21.657,7.692l-8.047-6.588h0A24.708,24.708,0,0,1,66.333,5.687Z" transform="translate(-25.88)"/></g></g></svg>