<svg width="16" height="16" viewBox="0 0 16 16" fill="none" xmlns="http://www.w3.org/2000/svg">
<path d="M12.1892 9.18406L9.93921 8.05906C9.85065 8.01493 9.752 7.99494 9.65324 8.00111C9.55448 8.00728 9.4591 8.0394 9.37671 8.09422L8.34382 8.78328C7.86967 8.52262 7.47948 8.13243 7.21882 7.65828L7.90788 6.62539C7.9627 6.54301 7.99482 6.44762 8.00099 6.34886C8.00717 6.2501 7.98718 6.15146 7.94304 6.06289L6.81804 3.81289C6.77141 3.71872 6.69934 3.6395 6.60998 3.5842C6.52063 3.52889 6.41757 3.49973 6.31249 3.5C5.56657 3.5 4.8512 3.79632 4.32376 4.32376C3.79631 4.85121 3.49999 5.56658 3.49999 6.3125C3.50185 7.95296 4.15435 9.52569 5.31433 10.6857C6.4743 11.8456 8.04704 12.4981 9.68749 12.5C10.0568 12.5 10.4226 12.4273 10.7638 12.2859C11.105 12.1446 11.4151 11.9374 11.6762 11.6762C11.9374 11.4151 12.1446 11.105 12.2859 10.7638C12.4272 10.4226 12.5 10.0568 12.5 9.6875C12.5001 9.583 12.471 9.48054 12.4161 9.39162C12.3612 9.3027 12.2827 9.23083 12.1892 9.18406ZM9.68749 11.375C8.34529 11.3735 7.05849 10.8397 6.10941 9.89058C5.16033 8.9415 4.62648 7.6547 4.62499 6.3125C4.62489 5.92235 4.75997 5.54421 5.00726 5.24244C5.25454 4.94067 5.59876 4.73391 5.98132 4.65734L6.78851 6.27453L6.10156 7.29688C6.05022 7.37388 6.01868 7.46236 6.00973 7.55447C6.00077 7.64658 6.01469 7.73947 6.05023 7.82492C6.45269 8.78144 7.21363 9.54239 8.17015 9.94484C8.25586 9.98197 8.34946 9.99716 8.4425 9.98906C8.53555 9.98096 8.62512 9.94981 8.70312 9.89844L9.73038 9.21359L11.3476 10.0208C11.2704 10.4038 11.0627 10.7482 10.76 10.9951C10.4573 11.2421 10.0782 11.3763 9.68749 11.375ZM7.99999 0.6875C6.73751 0.687225 5.49646 1.01381 4.39764 1.63547C3.29882 2.25714 2.37967 3.15269 1.72965 4.23498C1.07962 5.31726 0.720879 6.5494 0.688329 7.81146C0.655779 9.07353 0.950533 10.3225 1.5439 11.4369L0.745853 13.831C0.679749 14.0292 0.670155 14.242 0.718149 14.4453C0.766142 14.6487 0.869825 14.8347 1.01758 14.9824C1.16533 15.1302 1.35131 15.2339 1.55468 15.2818C1.75804 15.3298 1.97076 15.3202 2.16898 15.2541L4.56312 14.4561C5.54382 14.9777 6.63046 15.269 7.74056 15.308C8.85066 15.347 9.95505 15.1325 10.9699 14.6809C11.9847 14.2293 12.8834 13.5525 13.5976 12.7017C14.3118 11.851 14.8228 10.8487 15.0918 9.77098C15.3608 8.69326 15.3808 7.56842 15.1502 6.48184C14.9196 5.39525 14.4444 4.37549 13.7609 3.49994C13.0773 2.6244 12.2032 1.91608 11.2051 1.42877C10.2069 0.941461 9.11078 0.687956 7.99999 0.6875ZM7.99999 14.1875C6.91224 14.1882 5.84358 13.9018 4.90203 13.3571C4.83309 13.3171 4.75644 13.2923 4.67717 13.2841C4.59789 13.276 4.51779 13.2848 4.44218 13.31L1.81249 14.1875L2.68929 11.5578C2.71457 11.4823 2.7235 11.4022 2.7155 11.3229C2.7075 11.2436 2.68275 11.167 2.64288 11.098C1.96083 9.91877 1.68699 8.54744 1.86384 7.19672C2.04069 5.846 2.65835 4.5914 3.62099 3.62754C4.58364 2.66368 5.83746 2.04444 7.18795 1.86588C8.53844 1.68733 9.91012 1.95944 11.0902 2.64C12.2702 3.32056 13.1927 4.37153 13.7145 5.62987C14.2364 6.88822 14.3283 8.28359 13.9762 9.59953C13.624 10.9155 12.8474 12.0784 11.7669 12.908C10.6863 13.7375 9.36224 14.1873 7.99999 14.1875Z" fill="black" fill-opacity="0.5"/>
</svg>
