<svg xmlns="http://www.w3.org/2000/svg" xmlns:xlink="http://www.w3.org/1999/xlink" width="53.974" height="54.001" viewBox="0 0 53.974 54.001"><defs><style>.a{fill-rule:evenodd;fill:url(#a);}.b{fill:url(#b);}.c{fill:#fff;}</style><linearGradient id="a" x1="0.5" y1="-0.011" x2="0.5" y2="0.84" gradientUnits="objectBoundingBox"><stop offset="0" stop-color="#2575db"/><stop offset="1" stop-color="#582994"/></linearGradient><linearGradient id="b" x1="0.345" y1="0.109" x2="0.837" y2="1.177" gradientUnits="objectBoundingBox"><stop offset="0" stop-color="#2575db"/><stop offset="0.77" stop-color="#582994"/></linearGradient></defs><g transform="translate(-790 -880)"><g transform="translate(-58.932 239)"><path class="a" d="M54.973,27.947A26.987,26.987,0,0,1,4.022,40.373c-.076-.148-.149-.3-.223-.443A27.02,27.02,0,0,1,4.993,13.815a26.472,26.472,0,0,1,1.695-2.444A26.984,26.984,0,0,1,54.932,26.458Q54.973,27.2,54.973,27.947Z" transform="translate(847.932 640.049)"/><path class="b" d="M67.486,13.712,58.348,37.664l-27.181.388-9.6-24.228a26.472,26.472,0,0,1,1.695-2.444,26.982,26.982,0,0,1,44.221,2.332Z" transform="translate(831.355 640.039)"/></g><path class="c" d="M10.383,3.491H4.133v6.25h6.25Zm1.562-1.562V11.3H2.571V1.928ZM5.7,5.053H8.821V8.178s-2.344.781-3.125,0S5.7,5.053,5.7,5.053ZM26.008,3.491h-6.25v6.25h6.25Zm1.563-1.562V11.3H18.2V1.928h9.375Zm-6.25,3.125h3.125V8.178H21.321ZM10.383,19.116H4.133v6.25h6.25Zm1.563-1.562v9.375H2.571V17.553ZM5.7,20.678H8.821V23.8H5.7Zm7.812-18.75h1.563V3.491H13.508Zm1.563,1.562h1.562V5.053H15.071ZM13.508,5.053h1.563V6.616H13.508Zm1.563,1.562h1.562V8.178H15.071ZM13.508,8.178h1.563V9.741H13.508Zm1.563,1.563h1.562V11.3H15.071ZM13.508,11.3h1.563v1.562H13.508Zm0,3.125h1.563v1.563H13.508Zm1.563,1.563h1.562v1.563H15.071Zm-1.562,1.563h1.563v1.563H13.508Zm1.563,1.563h1.562v1.562H15.071Zm-1.562,1.562h1.563v1.563H13.508Zm1.563,1.563h1.562V23.8H15.071ZM13.508,23.8h1.563v1.563H13.508Zm1.563,1.563h1.562v1.563H15.071ZM26.008,14.428h1.562v1.562H26.008Zm-21.875,0H5.7v1.562H4.133ZM5.7,12.866H7.258v1.563H5.7Zm-3.125,0H4.133v1.563H2.571Zm6.25,0h1.563v1.563H8.821Zm1.563,1.563h1.562v1.562H10.383Zm1.562-1.562c.391-.391,1.562,0,1.562,0v1.563H11.946S11.555,13.256,11.946,12.866Zm4.687,1.563H18.2v1.562H16.633ZM18.2,12.866h1.563v1.563H18.2Zm1.563,1.563h1.563v1.562H19.758Zm1.563-1.562h1.562v1.563H21.321Zm1.562,1.563h1.563v1.562H22.883Zm1.563-1.562h1.563v1.563H24.446Zm1.563,4.687h1.562v1.563H26.008Zm-9.375,0H18.2v1.563H16.633ZM18.2,15.991h1.563v1.563H18.2Zm1.563,1.563h1.562v1.563H19.758Zm3.125,0h1.563v1.563H22.883Zm1.563-1.563h1.563v1.563H24.446Zm1.563,4.688h1.563v1.563H26.008Zm-9.375,0H18.2v1.563H16.633ZM18.2,19.116h1.563v1.563H18.2Zm3.125,0h1.563v1.563H21.321Zm1.563,1.563h1.563v1.563H22.883Zm1.563-1.562h1.563v1.563H24.446ZM26.008,23.8h1.562v1.563H26.008ZM18.2,22.241h1.563V23.8H18.2ZM19.758,23.8h1.563v1.563H19.758Zm1.563-1.562h1.563V23.8H21.321ZM22.883,23.8h1.563v1.563H22.883ZM18.2,25.366h1.563v1.563H18.2Zm3.125,0h1.563v1.563H21.321Zm3.125,0h1.563v1.563H24.446Z" transform="translate(802.429 892.072)"/></g></svg>