<svg xmlns="http://www.w3.org/2000/svg" xmlns:xlink="http://www.w3.org/1999/xlink" width="3095.008" height="2892.698" viewBox="0 0 3095.008 2892.698"><defs><style>.a{opacity:0.1;mix-blend-mode:hard-light;}.a,.b{isolation:isolate;}.b{mix-blend-mode:multiply;}.c{fill:url(#a);}.d{fill:url(#b);}.e{fill:url(#c);}</style><radialGradient id="a" cx="0.5" cy="0.5" r="0.536" gradientTransform="translate(0.062 -0.002) scale(0.874 1.005)" gradientUnits="objectBoundingBox"><stop offset="0" stop-color="#5902c2"/><stop offset="0.107" stop-color="#4328c9"/><stop offset="0.232" stop-color="#2f4dd1"/><stop offset="0.363" stop-color="#1d6cd7"/><stop offset="0.5" stop-color="#1083db"/><stop offset="0.645" stop-color="#0794df"/><stop offset="0.803" stop-color="#019ee1"/><stop offset="1" stop-color="#00a2e2"/></radialGradient><radialGradient id="b" cx="0.5" cy="0.5" r="0.541" gradientTransform="translate(0.071 -0.004) scale(0.857 1.008)" xlink:href="#a"/><radialGradient id="c" cx="0.5" cy="0.5" r="0.532" gradientTransform="translate(0.053 0.005) scale(0.897 0.991)" xlink:href="#a"/></defs><g class="a" transform="matrix(-0.966, -0.259, 0.259, -0.966, 3027.537, 3320.871)"><g class="b" transform="translate(644.561 323.836)"><path class="c" d="M2729.562,900.724s-73.28-71.325-423.412-451.712-740.978,0-834.619,103.022S1202.825,849.211,938.193,1134.5s-354.075,545.309-272.648,747.387,376.031,297.166,663.492,223.4c314.79-80.786,606.719-92.381,850.9,206.04,308.212,376.677,859.627,267.894,1002.124-259.1S2941.276,1134.5,2729.562,900.724Z" transform="translate(-636.5 -283.533)"/></g><g class="b" transform="translate(631 662.856)"><path class="d" d="M2874.062,1055.074c-96.984-323.452-392.212-474.94-652.976-382.313-165.984,58.96-377.431,81.5-697.221-124.917C1180.6,326.286,629.033,350.853,631.005,981.375c2.51,803,367.2,1097.193,583.676,1234.187,462.98,293,1111.626,142.366,1378.3-153.284C2854.8,1772.015,2973.995,1388.342,2874.062,1055.074Z" transform="translate(-631 -421.033)"/></g><g class="b" transform="translate(698.805 256.033)"><path class="e" d="M2942.2,399.095c-103.977-150.11-375.135-220.73-636.393-16.327-293.971,230-708.657,343.877-1079.416,403.608-381.694,61.494-562.676,343.416-567.75,518.2-5.567,191.636,157.446,430.671,639.859,722.807s818.448,372.986,1106.491,335.592S2881.4,2155.263,2975.3,1871.623c65.654-198.32,28.907-436.078,13.546-754.056C2969.663,720.481,3092.561,616.186,2942.2,399.095Z" transform="translate(-658.5 -256.033)"/></g></g></svg>