<svg xmlns="http://www.w3.org/2000/svg" xmlns:xlink="http://www.w3.org/1999/xlink" width="53.974" height="54.001" viewBox="0 0 53.974 54.001"><defs><style>.a{fill-rule:evenodd;fill:url(#a);}.b{fill:url(#b);}.c{fill:#fff;}</style><linearGradient id="a" x1="0.5" y1="-0.011" x2="0.5" y2="0.84" gradientUnits="objectBoundingBox"><stop offset="0" stop-color="#2575db"/><stop offset="1" stop-color="#582994"/></linearGradient><linearGradient id="b" x1="0.345" y1="0.109" x2="0.837" y2="1.177" gradientUnits="objectBoundingBox"><stop offset="0" stop-color="#2575db"/><stop offset="0.77" stop-color="#582994"/></linearGradient></defs><g transform="translate(-16.433 -14.5)"><g transform="translate(-832.499 -626.5)"><path class="a" d="M54.973,27.947A26.987,26.987,0,0,1,4.022,40.373c-.076-.148-.149-.3-.223-.443A27.02,27.02,0,0,1,4.993,13.815a26.472,26.472,0,0,1,1.695-2.444A26.984,26.984,0,0,1,54.932,26.458Q54.973,27.2,54.973,27.947Z" transform="translate(847.932 640.049)"/><path class="b" d="M67.486,13.712,58.348,37.664l-27.181.388-9.6-24.228a26.472,26.472,0,0,1,1.695-2.444,26.982,26.982,0,0,1,44.221,2.332Z" transform="translate(831.355 640.039)"/></g><path class="c" d="M15.2,2.25C6.8,2.25,0,7.778,0,14.6a10.962,10.962,0,0,0,3.384,7.76A15.1,15.1,0,0,1,.131,28.048a.472.472,0,0,0-.089.517.465.465,0,0,0,.433.285A13.579,13.579,0,0,0,8.823,25.8,18.108,18.108,0,0,0,15.2,26.95c8.4,0,15.2-5.528,15.2-12.35S23.6,2.25,15.2,2.25ZM7.612,18.4H6.887a.476.476,0,0,1-.475-.475v-.95a.476.476,0,0,1,.475-.475h.73c.356,0,.617-.208.617-.392a.314.314,0,0,0-.125-.226l-1.3-1.116a2.195,2.195,0,0,1-.79-1.668,2.414,2.414,0,0,1,2.517-2.292h.724a.476.476,0,0,1,.475.475v.95a.476.476,0,0,1-.475.475h-.73c-.356,0-.617.208-.617.392a.314.314,0,0,0,.125.226l1.3,1.116a2.195,2.195,0,0,1,.79,1.668A2.41,2.41,0,0,1,7.612,18.4ZM19,17.925a.476.476,0,0,1-.475.475h-.95a.476.476,0,0,1-.475-.475V13.876l-1.472,3.313a.474.474,0,0,1-.849,0L13.3,13.876v4.049a.476.476,0,0,1-.475.475h-.95a.476.476,0,0,1-.475-.475V11.75a.953.953,0,0,1,.95-.95h.95a.945.945,0,0,1,.849.522l1.051,2.1,1.051-2.1A.952.952,0,0,1,17.1,10.8h.95a.953.953,0,0,1,.95.95Zm2.868.475h-.73a.476.476,0,0,1-.475-.475v-.95a.476.476,0,0,1,.475-.475h.73c.356,0,.618-.208.618-.392a.314.314,0,0,0-.125-.226l-1.3-1.116a2.195,2.195,0,0,1-.79-1.668,2.414,2.414,0,0,1,2.517-2.292h.724a.476.476,0,0,1,.475.475v.95a.476.476,0,0,1-.475.475h-.73c-.356,0-.617.208-.617.392a.314.314,0,0,0,.125.226l1.3,1.116a2.195,2.195,0,0,1,.79,1.668A2.4,2.4,0,0,1,21.868,18.4Z" transform="translate(28.1 25.95)"/></g></svg>