<svg xmlns="http://www.w3.org/2000/svg" xmlns:xlink="http://www.w3.org/1999/xlink" width="53.974" height="54.001" viewBox="0 0 53.974 54.001"><defs><style>.a{fill-rule:evenodd;fill:url(#a);}.b{fill:url(#b);}.c{fill:#fff;}</style><linearGradient id="a" x1="0.5" y1="-0.011" x2="0.5" y2="0.84" gradientUnits="objectBoundingBox"><stop offset="0" stop-color="#2575db"/><stop offset="1" stop-color="#582994"/></linearGradient><linearGradient id="b" x1="0.345" y1="0.109" x2="0.837" y2="1.177" gradientUnits="objectBoundingBox"><stop offset="0" stop-color="#2575db"/><stop offset="0.77" stop-color="#582994"/></linearGradient></defs><g transform="translate(-16.433 -14.5)"><g transform="translate(-832.499 -626.5)"><path class="a" d="M54.973,27.947A26.987,26.987,0,0,1,4.022,40.373c-.076-.148-.149-.3-.223-.443A27.02,27.02,0,0,1,4.993,13.815a26.472,26.472,0,0,1,1.695-2.444A26.984,26.984,0,0,1,54.932,26.458Q54.973,27.2,54.973,27.947Z" transform="translate(847.932 640.049)"/><path class="b" d="M67.486,13.712,58.348,37.664l-27.181.388-9.6-24.228a26.472,26.472,0,0,1,1.695-2.444,26.982,26.982,0,0,1,44.221,2.332Z" transform="translate(831.355 640.039)"/></g><path class="c" d="M10.75,13.5,9,15.25l5.625,5.625,12.5-12.5-1.75-1.75L14.625,17.312Zm15.125,2.375a9.957,9.957,0,1,1-7.25-9.625l1.937-1.938a11.627,11.627,0,0,0-4.687-.938,12.5,12.5,0,1,0,12.5,12.5Z" transform="translate(26.375 24.375)"/></g></svg>