<svg xmlns="http://www.w3.org/2000/svg" xmlns:xlink="http://www.w3.org/1999/xlink" width="86.5" height="86.542" viewBox="0 0 86.5 86.542"><defs><style>.a{fill-rule:evenodd;fill:url(#a);}.b{fill:url(#b);}.c{fill:#fff;}</style><linearGradient id="a" x1="0.5" y1="-0.011" x2="0.5" y2="0.84" gradientUnits="objectBoundingBox"><stop offset="0" stop-color="#2575db"/><stop offset="1" stop-color="#582994"/></linearGradient><linearGradient id="b" x1="0.345" y1="0.109" x2="0.837" y2="1.177" gradientUnits="objectBoundingBox"><stop offset="0" stop-color="#2575db"/><stop offset="0.77" stop-color="#582994"/></linearGradient></defs><g transform="translate(-1082 -763)"><g transform="translate(1082 763)"><path class="a" d="M87.5,44.215A43.25,43.25,0,0,1,5.844,64.128c-.121-.236-.24-.473-.358-.709A43.3,43.3,0,0,1,7.4,21.567a42.424,42.424,0,0,1,2.716-3.917A43.246,43.246,0,0,1,87.434,41.829Q87.5,43.024,87.5,44.215Z" transform="translate(-0.999 -0.951)"/><path class="b" d="M95.157,21.394,80.511,59.78,36.95,60.4,21.57,21.575a42.426,42.426,0,0,1,2.716-3.917,43.243,43.243,0,0,1,70.871,3.737Z" transform="translate(-15.17 -0.959)"/></g><g transform="translate(1104 775.5)"><path class="c" d="M46.8,50.747V32.012A1.83,1.83,0,0,0,45.026,30.1H18.377A1.83,1.83,0,0,0,16.6,32.012V50.747a1.83,1.83,0,0,0,1.777,1.912h26.65A1.83,1.83,0,0,0,46.8,50.747Zm-4.975-4.4a.915.915,0,0,1-.888.956H22.463a.915.915,0,0,1-.888-.956V36.409a.915.915,0,0,1,.888-.956H40.94a.915.915,0,0,1,.888.956Z" transform="translate(-10.702 -10.702)"/><path class="c" d="M97.442,15.277A1.759,1.759,0,0,0,95.665,13.5H87.777a1.777,1.777,0,0,0,0,3.553h5.188a.88.88,0,0,1,.888.888v5.188a1.777,1.777,0,0,0,3.553,0V15.277Z" transform="translate(-55.442)"/><path class="c" d="M87.777,83.942h7.853a1.759,1.759,0,0,0,1.777-1.777V74.277a1.777,1.777,0,0,0-3.553,0v5.188a.88.88,0,0,1-.888.888H87.777A1.76,1.76,0,0,0,86,82.129,1.813,1.813,0,0,0,87.777,83.942Z" transform="translate(-55.442 -36.442)"/><path class="c" d="M0,23.165a1.759,1.759,0,0,0,1.777,1.777,1.759,1.759,0,0,0,1.777-1.777V17.942a.88.88,0,0,1,.888-.888H9.629a1.777,1.777,0,0,0,0-3.553H1.777A1.759,1.759,0,0,0,0,15.277Z" transform="translate(0)"/><path class="c" d="M0,82.165a1.759,1.759,0,0,0,1.777,1.777H9.629a1.777,1.777,0,0,0,0-3.553H4.442a.88.88,0,0,1-.888-.888V74.277A1.759,1.759,0,0,0,1.777,72.5,1.759,1.759,0,0,0,0,74.277Z" transform="translate(0 -36.442)"/></g></g></svg>