<svg width="47" height="47" viewBox="0 0 47 47" fill="none" xmlns="http://www.w3.org/2000/svg">
<g opacity="0.16" filter="url(#filter0_d_76_8044)">
<path d="M23.5 0C30.9558 0 37 6.04416 37 13.5C37 20.9558 30.9558 27 23.5 27C16.0442 27 10 20.9558 10 13.5C10 6.04416 16.0442 0 23.5 0Z" fill="#136ACD"/>
<path d="M23.5 0.5C30.6797 0.5 36.5 6.3203 36.5 13.5C36.5 20.6797 30.6797 26.5 23.5 26.5C16.3203 26.5 10.5 20.6797 10.5 13.5C10.5 6.3203 16.3203 0.5 23.5 0.5Z" stroke="#F5F5F5"/>
</g>
<path d="M31.8225 8.68955C31.8225 9.76073 30.9541 10.6291 29.8829 10.6291C28.8117 10.6291 27.9434 9.76073 27.9434 8.68955C27.9434 7.61837 28.8117 6.75 29.8829 6.75C30.9541 6.75 31.8225 7.61837 31.8225 8.68955Z" fill="#136ACD"/>
<path d="M29.7837 11.6076C29.5543 11.6076 29.3335 11.5768 29.1211 11.524L27.1079 13.6505C27.0739 13.6857 27.0739 13.7385 27.1079 13.7738L30.3061 17.3047C30.5227 17.5293 30.5227 17.8903 30.3061 18.1148C30.1999 18.2249 30.0555 18.2821 29.9153 18.2821C29.7752 18.2821 29.6308 18.2249 29.5246 18.1148L26.3392 14.5971C26.3052 14.5618 26.25 14.5618 26.216 14.5971L25.4387 15.416C24.7889 16.0984 23.9267 16.477 23.0008 16.4814C22.0622 16.4858 21.1703 16.0764 20.5119 15.3851L19.7644 14.5971C19.7304 14.5618 19.6752 14.5618 19.6413 14.5971L16.4558 18.1148C16.3496 18.2249 16.2052 18.2821 16.0651 18.2821C15.9249 18.2821 15.7805 18.2249 15.6743 18.1148C15.4577 17.8903 15.4577 17.5292 15.6743 17.3047L18.8725 13.7737C18.9022 13.7385 18.9022 13.6857 18.8725 13.6505L14.2982 8.82512C14.243 8.76789 14.1538 8.80751 14.1538 8.88676V18.5419C14.1538 19.3167 14.7654 19.9507 15.5129 19.9507H30.4632C31.2108 19.9507 31.8224 19.3167 31.8224 18.5419V10.7051C31.3084 11.2598 30.5864 11.6076 29.7837 11.6076Z" fill="#136ACD"/>
<path d="M26.6939 9.29303C26.6939 8.82431 26.8151 8.38387 27.0252 8H15.8001C15.497 8 15.2182 8.10506 15 8.28285L21.3399 14.7359C21.7601 15.1642 22.3218 15.3986 22.9198 15.3986C23.5179 15.3986 24.0795 15.1642 24.4998 14.7359L27.7525 11.4265C27.106 10.9336 26.6939 10.1618 26.6939 9.29303Z" fill="#136ACD"/>
<defs>
<filter id="filter0_d_76_8044" x="0" y="0" width="47" height="47" filterUnits="userSpaceOnUse" color-interpolation-filters="sRGB">
<feFlood flood-opacity="0" result="BackgroundImageFix"/>
<feColorMatrix in="SourceAlpha" type="matrix" values="0 0 0 0 0 0 0 0 0 0 0 0 0 0 0 0 0 0 127 0" result="hardAlpha"/>
<feOffset dy="10"/>
<feGaussianBlur stdDeviation="5"/>
<feComposite in2="hardAlpha" operator="out"/>
<feColorMatrix type="matrix" values="0 0 0 0 0 0 0 0 0 0 0 0 0 0 0 0 0 0 0.631373 0"/>
<feBlend mode="normal" in2="BackgroundImageFix" result="effect1_dropShadow_76_8044"/>
<feBlend mode="normal" in="SourceGraphic" in2="effect1_dropShadow_76_8044" result="shape"/>
</filter>
</defs>
</svg>
