<svg xmlns="http://www.w3.org/2000/svg" xmlns:xlink="http://www.w3.org/1999/xlink" width="117" height="117" viewBox="0 0 117 117"><defs><style>.a{fill-rule:evenodd;fill:url(#a);}.b{fill:url(#b);}.c{fill:#fff;}.d{filter:url(#c);}</style><linearGradient id="a" x1="0.5" y1="-0.011" x2="0.5" y2="0.84" gradientUnits="objectBoundingBox"><stop offset="0" stop-color="#2575db"/><stop offset="1" stop-color="#582994"/></linearGradient><linearGradient id="b" x1="0.345" y1="0.109" x2="0.837" y2="1.177" gradientUnits="objectBoundingBox"><stop offset="0" stop-color="#2575db"/><stop offset="0.77" stop-color="#582994"/></linearGradient><filter id="c" x="0" y="0" width="117" height="117" filterUnits="userSpaceOnUse"><feOffset dy="3" input="SourceAlpha"/><feGaussianBlur stdDeviation="12.5" result="d"/><feFlood flood-opacity="0.161"/><feComposite operator="in" in2="d"/><feComposite in="SourceGraphic"/></filter></defs><g transform="translate(-1005.5 -628.5)"><g transform="translate(1016 636)"><path class="a" d="M96.953,48.944a47.977,47.977,0,0,1-90.58,22.09c-.135-.262-.266-.525-.4-.787A48.034,48.034,0,0,1,8.1,23.82a47.06,47.06,0,0,1,3.013-4.345A47.972,47.972,0,0,1,96.881,46.3Q96.953,47.622,96.953,48.944Z" transform="translate(-0.999 -0.951)"/><path class="b" d="M103.2,23.627,86.953,66.209l-48.322.69L21.57,23.828a47.061,47.061,0,0,1,3.013-4.345A47.969,47.969,0,0,1,103.2,23.627Z" transform="translate(-14.471 -0.959)"/></g><g class="d" transform="matrix(1, 0, 0, 1, 1005.5, 628.5)"><path class="c" d="M2.883,39.117a9.843,9.843,0,0,1,0-13.921l8.865-8.866c.023-.023.052-.038.075-.062a14.177,14.177,0,0,0,.615,6.331L6.363,28.676a4.922,4.922,0,0,0,6.961,6.96c.168-.168,8.577-8.576,8.865-8.865a4.871,4.871,0,0,0-.62-7.474c-.018-.83-.365-1.983.62-2.967l1.5-1.5a9.4,9.4,0,0,1,1.98,1.5,9.936,9.936,0,0,1,0,13.922L16.8,39.117a9.844,9.844,0,0,1-13.92,0ZM16.968,25.033a9.938,9.938,0,0,1,0-13.923l8.226-8.226A9.844,9.844,0,1,1,39.117,16.8l-8.228,8.229c-.023.023-.052.038-.075.062a14.183,14.183,0,0,0-.615-6.331l5.438-5.439a4.922,4.922,0,1,0-6.961-6.961c-.173.174-7.939,7.941-8.226,8.226a4.978,4.978,0,0,0,0,6.962,4.572,4.572,0,0,0,.622.512c.017.832.365,1.984-.622,2.97l-1.5,1.5A9.358,9.358,0,0,1,16.968,25.033Z" transform="translate(37.5 34.5)"/></g></g></svg>