<svg xmlns="http://www.w3.org/2000/svg" width="237.723" height="135.328" viewBox="0 0 237.723 135.328"><defs><style>.a,.ac,.ad,.af,.ag,.ai,.al,.am,.aq,.f,.k,.l,.v,.x{fill:none;}.a,.am,.an{stroke:#dee3fc;}.a,.ac,.ad,.ae,.af,.ag,.ai,.al,.am,.an,.aq,.k,.v,.x{stroke-miterlimit:10;}.a{stroke-width:0.79px;}.b{fill:#dee3fc;}.c{fill:#a4afff;}.ae,.d{fill:#fff;}.e{fill:#3945ba;}.f{stroke:#698bd1;stroke-dasharray:2.837;}.ag,.ai,.al,.am,.aq,.f,.l{stroke-linecap:round;}.f,.l{stroke-linejoin:round;}.g{fill:#4b5a9b;}.h{fill:#7f95f4;}.i{fill:#b2c1f9;}.j{fill:#3052ce;}.ae,.af,.ag,.k,.l{stroke:#495ad6;}.ad,.ae,.ai,.k{stroke-width:0.896px;}.af,.ag,.l{stroke-width:1.672px;}.m{fill:#f0f4ff;}.n{fill:#3b47bc;}.o{fill:#495ad6;}.p{fill:#281616;}.q{fill:#002c54;}.r{fill:#052635;}.s{fill:#e5918f;}.t{fill:#c7e5f2;}.u{fill:#cc6362;}.ad,.ai,.al,.aq,.v{stroke:#fff;}.v{stroke-width:0.501px;}.w{opacity:0.5;}.x{stroke:#cc6362;stroke-width:0.724px;}.y{fill:#375f84;}.z{fill:#467cdb;}.aa{fill:#e49191;}.ab{fill:#5996ef;}.ac{stroke:#000;stroke-width:1.065px;}.ah{fill:#193091;}.aj{fill:#6589d1;}.ak{fill:#3b5fb7;}.al{stroke-width:2px;}.an,.ao{fill:#7e89fd;}.ap{fill:#b4c1ef;}.aq{stroke-width:1.114px;}</style></defs><g transform="translate(0.557 0.476)"><g transform="translate(31.871 4.906)"><g transform="translate(17.878 11.796)"><path class="a" d="M216.908,134.224v-3.73a.66.66,0,0,0-.66-.66h-.96a.606.606,0,0,1-.593-.465,13.2,13.2,0,0,0-1.662-4.032.616.616,0,0,1,.08-.763l.675-.675a.661.661,0,0,0,0-.934l-2.637-2.637a.66.66,0,0,0-.934,0l-.674.674a.615.615,0,0,1-.763.08,13.206,13.206,0,0,0-4.033-1.663.605.605,0,0,1-.465-.592v-.957a.661.661,0,0,0-.661-.661h-3.73a.661.661,0,0,0-.661.661v.957a.606.606,0,0,1-.465.593,13.2,13.2,0,0,0-4.034,1.663.615.615,0,0,1-.763-.08l-.674-.674a.66.66,0,0,0-.934,0l-2.637,2.637a.661.661,0,0,0,0,.934l.674.674a.615.615,0,0,1,.08.763,13.219,13.219,0,0,0-1.662,4.033.605.605,0,0,1-.592.465h-.959a.66.66,0,0,0-.661.66v3.73a.661.661,0,0,0,.661.66h.959a.606.606,0,0,1,.592.465,13.212,13.212,0,0,0,1.662,4.032.615.615,0,0,1-.08.763l-.675.675a.66.66,0,0,0,0,.934l2.637,2.637a.66.66,0,0,0,.934,0l.676-.676a.615.615,0,0,1,.763-.08,13.208,13.208,0,0,0,4.032,1.66.606.606,0,0,1,.465.593v.962a.661.661,0,0,0,.661.661h3.73a.661.661,0,0,0,.661-.661v-.962a.606.606,0,0,1,.465-.593,13.2,13.2,0,0,0,4.031-1.66.615.615,0,0,1,.763.08l.676.676a.66.66,0,0,0,.934,0l2.637-2.637a.66.66,0,0,0,0-.934l-.676-.676a.615.615,0,0,1-.08-.763,13.193,13.193,0,0,0,1.662-4.032.606.606,0,0,1,.592-.465h.961A.66.66,0,0,0,216.908,134.224Zm-15.153,8.651a10.515,10.515,0,1,1,10.51-10.519A10.513,10.513,0,0,1,201.755,142.875Z" transform="translate(-186.604 -117.207)"/><path class="b" d="M280.923,178.4v-2.542a.45.45,0,0,0-.45-.45h-.654a.413.413,0,0,1-.4-.317,9,9,0,0,0-1.132-2.748.419.419,0,0,1,.055-.52l.46-.46a.45.45,0,0,0,0-.637l-1.8-1.8a.45.45,0,0,0-.636,0l-.46.46a.42.42,0,0,1-.52.055,8.991,8.991,0,0,0-2.748-1.133.413.413,0,0,1-.317-.4v-.652a.45.45,0,0,0-.45-.45h-2.542a.45.45,0,0,0-.45.45v.652a.413.413,0,0,1-.317.4,9,9,0,0,0-2.749,1.133.42.42,0,0,1-.52-.055l-.459-.459a.45.45,0,0,0-.637,0l-1.8,1.8a.45.45,0,0,0,0,.637l.46.46a.419.419,0,0,1,.055.52,8.995,8.995,0,0,0-1.132,2.749.413.413,0,0,1-.4.317h-.654a.45.45,0,0,0-.45.45V178.4a.45.45,0,0,0,.45.45h.654a.412.412,0,0,1,.4.317,9.011,9.011,0,0,0,1.133,2.748.419.419,0,0,1-.055.52l-.46.46a.45.45,0,0,0,0,.637l1.8,1.8a.451.451,0,0,0,.637,0l.461-.461a.419.419,0,0,1,.52-.055,9.005,9.005,0,0,0,2.748,1.131.413.413,0,0,1,.317.4V187a.45.45,0,0,0,.45.45h2.542a.45.45,0,0,0,.45-.45v-.656a.412.412,0,0,1,.317-.4,9.008,9.008,0,0,0,2.747-1.132.419.419,0,0,1,.52.055l.461.461a.45.45,0,0,0,.636,0l1.8-1.8a.45.45,0,0,0,0-.637l-.461-.46a.42.42,0,0,1-.055-.52,9,9,0,0,0,1.132-2.748.413.413,0,0,1,.4-.317h.655A.45.45,0,0,0,280.923,178.4ZM270.6,183.887a6.762,6.762,0,1,1,6.759-6.764A6.76,6.76,0,0,1,270.6,183.887Z" transform="translate(-233.464 -148.753)"/></g><g transform="translate(3.656 0)"><circle class="c" cx="1.232" cy="1.232" r="1.232" transform="translate(12.584 106.275)"/><circle class="c" cx="1.232" cy="1.232" r="1.232" transform="translate(177.656 72.607)"/><circle class="c" cx="1.232" cy="1.232" r="1.232" transform="translate(175.192 28.609)"/><ellipse class="c" cx="0.773" cy="0.773" rx="0.773" ry="0.773" transform="translate(131.35 14.115)"/><path class="c" d="M196.044,96.059a.773.773,0,1,1-.773-.773A.773.773,0,0,1,196.044,96.059Z" transform="translate(-177.404 -91.467)"/><path class="c" d="M243.054,226.855a.773.773,0,1,1-.773-.773A.773.773,0,0,1,243.054,226.855Z" transform="translate(-207.307 -174.668)"/><path class="c" d="M165.133,382.265a.773.773,0,1,1-.773-.773A.773.773,0,0,1,165.133,382.265Z" transform="translate(-157.741 -273.526)"/><circle class="c" cx="1.232" cy="1.232" r="1.232" transform="translate(159.581 107.003)"/><circle class="c" cx="1.232" cy="1.232" r="1.232" transform="translate(185.781 107.003)"/><circle class="c" cx="1.232" cy="1.232" r="1.232" transform="translate(38.651)"/><path class="c" d="M484.986,239.354a1.649,1.649,0,1,1-1.649-1.649A1.649,1.649,0,0,1,484.986,239.354Z" transform="translate(-360.089 -182.061)"/><path class="c" d="M150.819,183.328a1.649,1.649,0,1,1-1.648-1.648A1.649,1.649,0,0,1,150.819,183.328Z" transform="translate(-147.522 -146.423)"/></g><g transform="translate(0 9.739)"><rect class="d" width="2.557" height="2.557" rx="0.664"/><rect class="d" width="2.557" height="2.557" rx="0.664" transform="translate(3.42)"/><rect class="d" width="2.557" height="2.557" rx="0.664" transform="translate(6.84)"/></g><g transform="translate(174.15 99.522)"><rect class="b" width="2.557" height="2.557" rx="0.664"/><rect class="b" width="2.557" height="2.557" rx="0.664" transform="translate(3.42)"/><rect class="b" width="2.557" height="2.557" rx="0.664" transform="translate(6.84)"/></g><g transform="translate(16.052 98.121)"><rect class="b" width="2.557" height="2.557" rx="0.664"/><rect class="b" width="2.557" height="2.557" rx="0.664" transform="translate(3.42)"/><rect class="b" width="2.557" height="2.557" rx="0.664" transform="translate(6.84)"/></g></g><g transform="translate(85.918 2.43)"><g transform="translate(0)"><rect class="e" width="64.772" height="125.127" rx="8"/><rect class="d" width="62.347" height="122.253" rx="8" transform="translate(1.213 1.096)"/><path class="b" d="M353.721,91.058V199.575a4.608,4.608,0,0,1-4.608,4.608H301.441a4.608,4.608,0,0,1-4.608-4.608V91.058a4.608,4.608,0,0,1,4.608-4.609h7.95a1.166,1.166,0,0,1,1.042.644l.844,1.685a2.277,2.277,0,0,0,2.042,1.265h23.916a2.277,2.277,0,0,0,2.042-1.265l.844-1.685a1.166,1.166,0,0,1,1.042-.644h7.95A4.608,4.608,0,0,1,353.721,91.058Z" transform="translate(-292.891 -83.371)"/><path class="b" d="M367.492,88.071H348.23a.811.811,0,0,1-.811-.811h0a.811.811,0,0,1,.811-.811h19.262a.811.811,0,0,1,.811.811h0A.811.811,0,0,1,367.492,88.071Z" transform="translate(-325.069 -83.371)"/></g><rect class="f" width="48.961" height="21.233" rx="8.379" transform="translate(7.351 95.813)"/><rect class="f" width="25.662" height="14.908" rx="6.044" transform="translate(27.628 50.035)"/><g transform="translate(7.351 66.596)"><rect class="g" width="49.156" height="23.763" rx="7.201" transform="translate(1.782 1.923)"/><path class="h" d="M355.161,263.616v18.533a2.614,2.614,0,0,1-2.616,2.613H308.816a2.614,2.614,0,0,1-2.616-2.613V263.616A2.617,2.617,0,0,1,308.816,261h43.729A2.617,2.617,0,0,1,355.161,263.616Z" transform="translate(-306.2 -261)"/><rect class="d" width="16.42" height="16.42" rx="4.861" transform="translate(2.262 5.411)"/><g transform="translate(20.277 6.371)"><path class="i" d="M373.828,279.625H362.483a.558.558,0,0,1-.559-.559h0a.558.558,0,0,1,.559-.559h11.346a.559.559,0,0,1,.559.559h0A.559.559,0,0,1,373.828,279.625Z" transform="translate(-361.924 -278.508)"/><path class="i" d="M368.658,285.755h-6.176a.559.559,0,0,1-.559-.559h0a.559.559,0,0,1,.559-.559h6.176a.559.559,0,0,1,.559.559h0A.559.559,0,0,1,368.658,285.755Z" transform="translate(-361.924 -282.407)"/><path class="i" d="M402.41,285.755H385.7a.559.559,0,0,1-.559-.559h0a.559.559,0,0,1,.559-.559H402.41a.559.559,0,0,1,.559.559h0A.559.559,0,0,1,402.41,285.755Z" transform="translate(-376.693 -282.407)"/><path class="i" d="M372.038,291.884h-9.555a.559.559,0,0,1-.559-.559h0a.558.558,0,0,1,.559-.559h9.555a.559.559,0,0,1,.559.559h0A.559.559,0,0,1,372.038,291.884Z" transform="translate(-361.924 -286.306)"/><path class="i" d="M400.528,291.884h-6.007a.559.559,0,0,1-.559-.559h0a.558.558,0,0,1,.559-.559h6.007a.559.559,0,0,1,.559.559h0A.559.559,0,0,1,400.528,291.884Z" transform="translate(-382.304 -286.306)"/><path class="i" d="M421.951,291.884H416.42a.559.559,0,0,1-.559-.559h0a.559.559,0,0,1,.559-.559h5.532a.559.559,0,0,1,.559.559h0A.559.559,0,0,1,421.951,291.884Z" transform="translate(-396.234 -286.306)"/><path class="i" d="M387.642,298.013H362.483a.558.558,0,0,1-.559-.559h0a.558.558,0,0,1,.559-.559h25.159a.559.559,0,0,1,.559.559h0A.559.559,0,0,1,387.642,298.013Z" transform="translate(-361.924 -290.205)"/><path class="i" d="M376.329,304.142H362.483a.558.558,0,0,1-.559-.559h0a.558.558,0,0,1,.559-.559h13.847a.559.559,0,0,1,.559.559h0A.559.559,0,0,1,376.329,304.142Z" transform="translate(-361.924 -294.104)"/><path class="i" d="M415.749,304.142h-9.08a.559.559,0,0,1-.559-.559h0a.559.559,0,0,1,.559-.559h9.08a.559.559,0,0,1,.559.559h0A.559.559,0,0,1,415.749,304.142Z" transform="translate(-390.031 -294.104)"/><path class="i" d="M370.618,310.271h-8.135a.558.558,0,0,1-.559-.559h0a.559.559,0,0,1,.559-.559h8.135a.559.559,0,0,1,.559.559h0A.558.558,0,0,1,370.618,310.271Z" transform="translate(-361.924 -298.002)"/><path class="i" d="M399.026,310.271h-8.135a.558.558,0,0,1-.559-.559h0a.559.559,0,0,1,.559-.559h8.135a.559.559,0,0,1,.559.559h0A.558.558,0,0,1,399.026,310.271Z" transform="translate(-379.995 -298.002)"/><path class="i" d="M423.369,310.271h-4.721a.558.558,0,0,1-.559-.559h0a.559.559,0,0,1,.559-.559h4.721a.559.559,0,0,1,.559.559h0A.559.559,0,0,1,423.369,310.271Z" transform="translate(-397.652 -298.002)"/><path class="i" d="M373.828,316.4H362.483a.559.559,0,0,1-.559-.559h0a.559.559,0,0,1,.559-.559h11.346a.559.559,0,0,1,.559.559h0A.559.559,0,0,1,373.828,316.4Z" transform="translate(-361.924 -301.901)"/><path class="i" d="M411.788,279.625H400.442a.558.558,0,0,1-.559-.559h0a.558.558,0,0,1,.559-.559h11.346a.559.559,0,0,1,.559.559h0A.559.559,0,0,1,411.788,279.625Z" transform="translate(-386.07 -278.508)"/></g><g transform="translate(0 0)"><path class="j" d="M355.161,263.616v.779H306.2v-.779A2.617,2.617,0,0,1,308.816,261h43.729A2.617,2.617,0,0,1,355.161,263.616Z" transform="translate(-306.2 -261)"/><g transform="translate(38.52 1.152)"><path class="b" d="M413.268,264.773a.607.607,0,1,1-.607-.606A.607.607,0,0,1,413.268,264.773Z" transform="translate(-412.055 -264.167)"/><path class="b" d="M421.8,264.773a.607.607,0,1,1-.607-.606A.607.607,0,0,1,421.8,264.773Z" transform="translate(-417.48 -264.167)"/><path class="b" d="M430.324,264.773a.607.607,0,1,1-.607-.606A.607.607,0,0,1,430.324,264.773Z" transform="translate(-422.905 -264.167)"/></g></g></g><g transform="translate(10.217 50.048)"><rect class="k" width="14.894" height="14.894" rx="7.151"/><g transform="translate(2.978 5.293)"><path class="l" d="M324.406,230.071l-2.146,2.146,2.163,2.163" transform="translate(-322.26 -230.071)"/><path class="l" d="M340.9,230.071l2.146,2.146-2.163,2.163" transform="translate(-334.104 -230.071)"/><line class="l" x1="2.01" y2="4.309" transform="translate(3.464)"/></g></g><g transform="translate(7.351 10.717)"><rect class="i" width="48.961" height="36.254" rx="8.18"/><ellipse class="m" cx="7.096" cy="7.096" rx="7.096" ry="7.096" transform="translate(31.95 2.478)"/><path class="d" d="M334.98,158h-25.8a2.978,2.978,0,0,1-2.977-2.977v-4.771l11.292-19.559a1.534,1.534,0,0,1,2.656,0l8.526,14.767,6.332,10.968A1.5,1.5,0,0,1,334.98,158Z" transform="translate(-306.2 -121.741)"/><path class="m" d="M372.735,172.13H348.06l7.241-12.54,3.9-6.757a1.38,1.38,0,0,1,2.391,0Z" transform="translate(-332.828 -135.876)"/></g></g><g transform="translate(142.506 51.104)"><g transform="translate(20.59 54.602)"><rect class="n" width="19.023" height="28.588"/><rect class="o" width="7.284" height="28.588" transform="translate(26.307 28.588) rotate(180)"/><g transform="translate(20.066 1.098)"><rect class="i" width="5.348" height="0.912"/><rect class="i" width="5.348" height="0.912" transform="translate(0 1.96)"/><rect class="i" width="5.348" height="0.912" transform="translate(0 3.92)"/><rect class="i" width="5.348" height="0.912" transform="translate(0 5.88)"/><rect class="i" width="5.348" height="0.912" transform="translate(0 7.84)"/><rect class="i" width="5.348" height="0.912" transform="translate(0 9.8)"/><rect class="i" width="5.348" height="0.912" transform="translate(0 11.76)"/><rect class="i" width="5.348" height="0.912" transform="translate(0 13.72)"/><rect class="i" width="5.348" height="0.912" transform="translate(0 15.68)"/><rect class="i" width="5.348" height="0.912" transform="translate(0 17.64)"/><rect class="i" width="5.348" height="0.912" transform="translate(0 19.6)"/><rect class="i" width="5.348" height="0.912" transform="translate(0 21.56)"/><rect class="i" width="5.348" height="0.912" transform="translate(0 23.52)"/><rect class="i" width="5.348" height="0.912" transform="translate(0 25.48)"/></g></g><path class="p" d="M489.578,433.625h9.668a5.274,5.274,0,0,0-.631-3.854s-.778.624-3.109.2a10.367,10.367,0,0,1-1.644,1.149C493.186,431.449,489.317,432.208,489.578,433.625Z" transform="translate(-472.078 -350.435)"/><path class="q" d="M491.068,362.024c.624,3.726,3.506,16.331,4.744,23.778a11.364,11.364,0,0,0,3.927-.2c-.113-2.6-.336-8.808-.31-11.532.043-4.6.259-10.674-1.767-14.006l-6.814.536c.041.36.079.652.112.862S491.031,361.848,491.068,362.024Z" transform="translate(-472.894 -306.093)"/><path class="p" d="M441.522,433.625h9.668a5.274,5.274,0,0,0-.631-3.854s-.778.624-3.109.2a10.375,10.375,0,0,1-1.645,1.149C445.13,431.449,441.261,432.208,441.522,433.625Z" transform="translate(-441.509 -350.435)"/><path class="r" d="M457.066,381.667a11.092,11.092,0,0,0,3.819.342c.514-2.993,1.326-9.579,2.057-12.666,1.134-4.8,2.244-11.4,1.473-13.752l-6.7-1.683C457.689,354.119,457.144,374.316,457.066,381.667Z" transform="translate(-451.405 -302.177)"/><path class="r" d="M484.842,331.018h0c-.135-1.325-.29-2.292-.29-2.292l-7.489,1.833-6.362,1.449c-2.358.525-5.207,1.158-7.719,1.726-2.818.64-4.689,2.781-4.072,5.6l.706,3.423c3.942-.054,22.476-1.83,24.061-2.631C485.469,339.225,486.008,336.027,484.842,331.018Z" transform="translate(-452.503 -286.159)"/><path class="q" d="M515.563,330.225h0a10.347,10.347,0,0,0-.781-2.746l-7,2.287-6.362,1.449c-2.358.525-5.208,1.158-7.719,1.726-2.818.64-4.689,2.781-4.072,5.6l.707,3.423c3.942-.054,20.418-.628,24.061-2.631C516.158,338.37,516.73,335.234,515.563,330.225Z" transform="translate(-472.046 -285.366)"/><g transform="translate(11.548 33.46)"><path class="s" d="M484.252,304.365s3.326-1.5,4.242,0a2.354,2.354,0,0,1-.98,3,77.6,77.6,0,0,1-13.6,4.867,14.691,14.691,0,0,0-.675-1.726,31.856,31.856,0,0,0,5.413-3.021,34.5,34.5,0,0,1,5.6-3.124Z" transform="translate(-473.243 -303.698)"/></g><path class="s" d="M500.8,276.985l-2.851,11.386s.294,2.878,3.2,1.466,4.834-10.484,4.834-10.484Z" transform="translate(-477.411 -253.246)"/><path class="d" d="M508.311,271.894c-.353-.085-.689-.179-1.014-.276s-.649-.2-.949-.3a15.994,15.994,0,0,1-4.173-2.044,29.9,29.9,0,0,1,2.79-7.827,1.15,1.15,0,0,0,.069-.122l.073-.122a7.12,7.12,0,0,1,1.983-2.064l.239-.166.337,5.945.057.612Z" transform="translate(-480.099 -241.787)"/><path class="t" d="M515.6,282.073c-.353-.085-.689-.179-1.014-.276s-.649-.2-.949-.3c.569-4,1.083-6.521,1.083-6.521l.292.734Z" transform="translate(-487.394 -251.966)"/><path class="d" d="M532.538,257.7c-.069,1.76-.377,4.587-.645,7.425-.085.9-.166,1.8-.235,2.676-.048.543-.867,3.443-.9,3.962-.146,2.482-1.362,4.339-.211,8.118a5.948,5.948,0,0,1,.345,1.744c0,.259-.337.531-.47.6a7.944,7.944,0,0,1-2.583.616h0a67.007,67.007,0,0,1-7.17.328c-2.478,0-6.2-.393-6.667-1.018-.43-.572-.032-1.4.17-2.551.913-5.179.588-7.879.531-11.618,0-.093,0-.187,0-.284-.093-5.767-.475-10.7-.207-12.482l.239-.166c.393-.268.779-.507,1.152-.718.032-.016.073-.04.113-.065.114-.065.231-.126.341-.187a1.3,1.3,0,0,1,.13-.065,28.273,28.273,0,0,1,2.766-1.091c.089-.028.17-.057.239-.077.661-.04,1.378-.048,2.153-.028.673.02,1.7.109,2.822.255h0a29.162,29.162,0,0,1,3.747.7l.02.008a7.714,7.714,0,0,1,2.948,2.064A9.986,9.986,0,0,1,532.538,257.7Z" transform="translate(-487.498 -237.869)"/><path class="t" d="M554.141,295.059a5.949,5.949,0,0,1,.345,1.744c0,.259-.337.531-.47.6a7.945,7.945,0,0,1-2.583.616,1.831,1.831,0,0,0,1.294-1.488,36.4,36.4,0,0,1-.446-5.759c.17-2.068.507-5.361-.134-8s-1.249-6.1-1.249-6.1l3.613,2.182s.466.653.977,1.444c-.085.9-.166,1.8-.235,2.676C555.2,283.522,552.989,291.28,554.141,295.059Z" transform="translate(-511.092 -253.05)"/><g transform="translate(25.456)"><path class="q" d="M516.13,224.354s.313,3.779,1.565,4.033.945-1.352.945-1.352l-.175-1.794Z" transform="translate(-514.432 -219.767)"/><path class="s" d="M529.125,245.437c-2.453-.292-1.537-2.676-1.2-3.224.089-.028.511-.158.543-.178a.014.014,0,0,1,.008,0,.672.672,0,0,0,.19-.284,5.814,5.814,0,0,0,.122-1.963v-.231c.04-.15.081-.292.114-.426l1.29-1.014,2.729-2.145a16.548,16.548,0,0,0-.142,5.852.853.853,0,0,0,.361.544s0,0,0,0a.661.661,0,0,0,.272.1C534.084,242.777,533.152,245.916,529.125,245.437Z" transform="translate(-521.65 -227.155)"/><path class="u" d="M533.366,242.236a4.07,4.07,0,0,1-2.623,3.5,5.75,5.75,0,0,0,.123-1.959l1.089-.855Z" transform="translate(-523.728 -231.142)"/><path class="s" d="M517.776,219.276s.567,7.841,2.684,8.507a5.506,5.506,0,0,0,4.634-2.351c.558-.751,1.263-.919,1.493-1.826.374-1.472.9-4.188.229-5.824C525.858,215.452,517.867,213.6,517.776,219.276Z" transform="translate(-515.48 -214.151)"/><path class="q" d="M522.834,214.086a2.306,2.306,0,0,0-1.476-1.956c-1.435-.672-4.418-.382-7.493.3-.721.161-1.625-.282-2.129.068-.608.422,0,2.351,0,2.351,1.186,3.592,5.551,2.424,6.862,1.981.312.925.272,2.211,1.049,2.874a2.544,2.544,0,0,0,2,.258c.1.183.458.345.532.6a12.688,12.688,0,0,1,.2,3.166l.37-.181C522.8,223.271,526.624,214.2,522.834,214.086Z" transform="translate(-511.465 -211.748)"/><g transform="translate(2.611 6.254)"><path class="v" d="M520.5,231.283a.96.96,0,1,1-1.118-1.023A1.088,1.088,0,0,1,520.5,231.283Z" transform="translate(-518.64 -229.771)"/><path class="v" d="M527.528,229.969a.96.96,0,1,1-1.118-1.023A1.088,1.088,0,0,1,527.528,229.969Z" transform="translate(-523.112 -228.935)"/><path class="v" d="M523.744,232.844s.112-.182.7-.131" transform="translate(-521.887 -231.333)"/><line class="v" y1="0.349" x2="2.187" transform="translate(4.437 0.84)"/></g><g transform="translate(8.771 6.568)"><path class="s" d="M536.193,233.1c1.506.577,1.976-3.13.546-3.294-1.084-.124-1.129,1.389-1.129,1.389S535.333,232.771,536.193,233.1Z" transform="translate(-535.568 -229.799)"/></g><g class="w" transform="translate(9.383 7.135)"><path class="x" d="M537.76,231.355s-.89.471-.319,1.916" transform="translate(-537.25 -231.355)"/><path class="x" d="M538.018,233.289a.787.787,0,0,0-.731.543" transform="translate(-537.273 -232.585)"/></g></g><path class="s" d="M563.62,288.678v0c-.662.768-3.173,1.328-4.382.265a7.015,7.015,0,0,1-1.23-2.336,72.345,72.345,0,0,1-2.086-7.06l5.621-2.872s.723,3.242,1.346,6.323c0,0,.005.031.017.086.2.987.392,1.958.54,2.791a.384.384,0,0,1,.011.066A11.8,11.8,0,0,1,563.62,288.678Z" transform="translate(-514.288 -253.051)"/><path class="d" d="M550.089,263.232a67.525,67.525,0,0,0,2.249,6.534,8.9,8.9,0,0,0,4.125-.5,7.6,7.6,0,0,0,2.628-1.707s-1.132-3.18-2.147-5.465a11.061,11.061,0,0,0-1.853-3.223,8.933,8.933,0,0,0-2.232-1.66Z" transform="translate(-510.578 -240.669)"/><path class="d" d="M559.312,263.61l-3.3-1.423-2.6-6.7s.476.145,1.1.4h0c.012.006.039.015.084.033a.346.346,0,0,1,.048.021c.561.262,2.735,1.544,4.239,6.2l.036.117c.16.537.277.968.341,1.191.006.021.012.042.018.066S559.3,263.58,559.312,263.61Z" transform="translate(-512.694 -239.574)"/><g transform="translate(28.238 29.867)"><path class="s" d="M546.858,299.586v0c-.048.411-.162.707-.365.812-.032.021-.494.3-.526.316a28.057,28.057,0,0,1-3.484,1.8,126.211,126.211,0,0,1-12.166,4.371,14.342,14.342,0,0,0-.744-1.7,31.88,31.88,0,0,0,5.282-3.242c2.622-2,6.393-4.432,6.393-4.432l.952-1.12s3.385-3.116,3.929-2.489c0,0,.005.031.017.086.081.325.349,1.52.54,2.791a.378.378,0,0,1,.011.066A11.8,11.8,0,0,1,546.858,299.586Z" transform="translate(-525.765 -293.826)"/><path class="s" d="M523.306,323.727a2.094,2.094,0,0,1-1.336.257c-.373-.078-.524-.231-.8-.279a6.211,6.211,0,0,1-1.374-.318c-.364-.178-.505-.2-.493.167s.73.681.925.782a1.841,1.841,0,0,1,.465.466c.027.041-1.2.68-1.525.551a.952.952,0,0,0-.042.459c.056.164.307.222.327.3s-.058.251,0,.382.279.131.369.344-.009.217.057.439.35.262.4.377.025.249.144.328a5.542,5.542,0,0,0,1.62-.446c.4-.172,1.474-1.716,2.66-2.242Z" transform="translate(-519.109 -312.551)"/></g><path class="y" d="M531.135,342.015h-8.55v-.837h8.55a.418.418,0,0,1,.419.418h0A.419.419,0,0,1,531.135,342.015Z" transform="translate(-493.082 -294.08)"/><path class="y" d="M487.288,313.958H465.879a.57.57,0,0,1-.55-.418l-4.382-15.774a.548.548,0,0,1,.528-.695h20.7a1.074,1.074,0,0,1,1.035.787l4.366,15.717A.3.3,0,0,1,487.288,313.958Z" transform="translate(-453.861 -266.024)"/><path class="z" d="M485.159,313.958H463.75a.571.571,0,0,1-.55-.418l-4.382-15.774a.548.548,0,0,1,.528-.695h20.7a1.074,1.074,0,0,1,1.035.787l4.366,15.717A.3.3,0,0,1,485.159,313.958Z" transform="translate(-452.507 -266.024)"/></g><g transform="translate(48.908 71.551)"><path class="aa" d="M298.064,303.81l2.48-2.542a6.65,6.65,0,0,1,.221-1.373,6.308,6.308,0,0,1,.658-1.221.9.9,0,0,1,.521,0,2.387,2.387,0,0,1,.5-.116,1.463,1.463,0,0,1,.444.141s.371-.025.525-.025a.33.33,0,0,1,.2.043,10.959,10.959,0,0,1,.888-.92c.29-.231.733-.658.864-.656s.178.219.088.451a2.568,2.568,0,0,1-.482.606l-1.13,1.712a2.427,2.427,0,0,0,.3-.142c.1-.064.792-.708.834-.734s.35-.231.531-.025-1.183,1.839-1.4,2.058a11.937,11.937,0,0,1-1.472.853s-1.323,2.38-1.452,2.535A19.006,19.006,0,0,1,298.064,303.81Z" transform="translate(-256.664 -286.514)"/><path class="aa" d="M288.374,275.881s-1.385,8.024-2.689,8.211c0,0-5.205.21-6.365-6.105-1.006-5.476,3.028-6.644,4.914-6.225S288.779,272.453,288.374,275.881Z" transform="translate(-244.64 -270.321)"/><path class="aa" d="M282.83,294.632a7.339,7.339,0,0,0-.985,3.364,7.728,7.728,0,0,1-4.167-.719,29.491,29.491,0,0,0,1.209-7" transform="translate(-243.697 -282.145)"/><path class="q" d="M280.416,268.035c-2.845.628-2.617,2.4-2.617,2.4-1.331.33-1.618.879-1.607,3.338s.9,5.41,1.391,5.65a13.162,13.162,0,0,0,3.5.167c.232-.084,1.205-2.339.978-2.736s.011-1.957.659-2.016.521.945.521.945l.532-.117.411-1.008c3.759.224,4.73-4.06,4.73-4.06C288.016,270.01,283.261,267.407,280.416,268.035Z" transform="translate(-242.751 -267.938)"/><path class="s" d="M198.225,417.425l2.876.416-.953,3.359-3.115-.786a2.025,2.025,0,0,1,.646-2.989A1.048,1.048,0,0,1,198.225,417.425Z" transform="translate(-192.136 -363.005)"/><path d="M224.422,370.989l-4.239-12.836s-1.285-.458-1.943,0c0,0-4.416,2.375-3.945,9.146a110.634,110.634,0,0,0,1.87,12.861l-11.31-.419a3.854,3.854,0,0,0-.493,3.818s14.212,3.822,16.214,4.175c1.627.287,3.408.509,4.268-.228C226.358,386.209,224.422,370.989,224.422,370.989Z" transform="translate(-196.866 -325.195)"/><path class="s" d="M235.026,417.425l2.876.416-.953,3.359-3.115-.786a2.025,2.025,0,0,1,.646-2.989A1.048,1.048,0,0,1,235.026,417.425Z" transform="translate(-215.545 -363.005)"/><path class="z" d="M226.14,417.679c-.064.661.514,1.257.408,1.421s-2.039,3.409-2.039,3.409,1.46.636,1.224,1.554h-3.7a3.069,3.069,0,0,1-.942-2.119,10.723,10.723,0,0,1,.91-2.707c.659-1.271,2.158-4.142,2.158-4.142a2.093,2.093,0,0,1,1.232.024,7.474,7.474,0,0,1,1.788.8S226.3,416.045,226.14,417.679Z" transform="translate(-207.703 -361.498)"/><path class="q" d="M267.745,385.166c-.913-3.405-9.5-17.943-12.4-21.868-5.966-2.591-12.326-4.789-12.326-4.789-2.63.628-3.925,5.927-2.434,9.46,1.023,2.424,7.515,8.524,11.491,12.115l-11.032-.013a3.671,3.671,0,0,0-.122,3.787s18.348,4.172,19.957,4.407a36.578,36.578,0,0,0,5.221,0S268.514,388.033,267.745,385.166Z" transform="translate(-219.699 -325.551)"/><path class="z" d="M189.339,417.679c-.064.661.514,1.257.408,1.421s-2.04,3.409-2.04,3.409,1.46.636,1.225,1.554h-3.7a3.067,3.067,0,0,1-.942-2.119,10.721,10.721,0,0,1,.91-2.707c.659-1.271,2.158-4.142,2.158-4.142a2.093,2.093,0,0,1,1.232.024,7.482,7.482,0,0,1,1.788.8S189.5,416.045,189.339,417.679Z" transform="translate(-184.294 -361.498)"/><path class="aa" d="M330.408,308.679l-5.917,10.408-4.238-4.224-3.508,5.221,1.019.489-.366.3s8.178,3.983,9.158,3.1,5.546-14.12,5.546-14.12Z" transform="translate(-268.547 -293.854)"/><path class="z" d="M272.051,312.2s-1.117,4.712-3.351,6.947l-5.717-2.176s-2.653,4.461-5.247,7.882c-1,1.321-1.328,3.18-2.5,3.424-.073-.025-.142-.047-.215-.065-3.177-.953-7.864.058-11.732-1.379-4.272-1.59-3.442-2.485-3.442-2.485a55.186,55.186,0,0,0,4.061-9.614,58.942,58.942,0,0,0,1.412-5.8,6.674,6.674,0,0,1,5.618-5.375c.033,0,.062-.011.095-.015,3.239-.411,11.717.589,13.366,1.3S272.051,312.2,272.051,312.2Z" transform="translate(-219.59 -290.525)"/><path class="ab" d="M290,339.278s-2.653,4.461-5.247,7.882c-1,1.321-1.328,3.18-2.5,3.424.513-.182,1.365-2.882,1.667-3.49s.79-1.212,1.838-3.333,2.462-5.24,2.462-5.24Z" transform="translate(-246.605 -312.837)"/><path class="ac" d="M273.26,417.793a18.514,18.514,0,0,1,5.7.819" transform="translate(-240.886 -363.26)"/><path class="aa" d="M358.113,294.894a5.536,5.536,0,0,0-.995.718l.337-.646a6.354,6.354,0,0,0,.607-.667c.161-.237.076-.473-.051-.486a4.957,4.957,0,0,0-.932.666l.068-.13a6.355,6.355,0,0,0,.607-.667c.161-.237.076-.473-.051-.486a7.987,7.987,0,0,0-1.153.849l-.5.669.377-.732a3.156,3.156,0,0,0,.331-.507c.132-.265.037-.346-.037-.434s-.765.426-.941.632a10.67,10.67,0,0,0-.779,1.158l-.577,1.195c-.037-.346-.095-.938-.136-1.316-.059-.544-.551-.673-.568-.408a13.85,13.85,0,0,0-.229,2.271c.062.706.18,1.169.224,1.566a3.117,3.117,0,0,1-.368,1.19s1.647,1.023,1.919.716A12.861,12.861,0,0,0,356.4,298.6a7.689,7.689,0,0,0,.644-1.456l.515-1.1a6.354,6.354,0,0,0,.607-.667C358.324,295.143,358.239,294.907,358.113,294.894Z" transform="translate(-291.83 -283.9)"/></g><g transform="translate(188.16 49.403)"><path class="ad" d="M588.52,207.074h-19.31a2.241,2.241,0,0,0-2.241,2.241v4.561a2.242,2.242,0,0,0,1.958,2.223.322.322,0,0,1,.283.321v2.5a.149.149,0,0,0,.269.086l1.967-2.75a.326.326,0,0,1,.265-.136H588.52a2.241,2.241,0,0,0,2.241-2.241v-4.561A2.241,2.241,0,0,0,588.52,207.074Z" transform="translate(-566.97 -207.074)"/><g transform="translate(3.728 3.777)"><path class="ad" d="M578.69,218.191a.738.738,0,1,1-.738-.738A.738.738,0,0,1,578.69,218.191Z" transform="translate(-577.214 -217.453)"/><path class="ad" d="M588.9,218.191a.738.738,0,1,1-.738-.738A.738.738,0,0,1,588.9,218.191Z" transform="translate(-583.708 -217.453)"/><path class="ad" d="M599.108,218.191a.738.738,0,1,1-.738-.738A.737.737,0,0,1,599.108,218.191Z" transform="translate(-590.203 -217.453)"/><path class="ad" d="M609.318,218.191a.738.738,0,1,1-.738-.738A.738.738,0,0,1,609.318,218.191Z" transform="translate(-596.697 -217.453)"/><path class="ad" d="M619.527,218.191a.738.738,0,1,1-.738-.738A.737.737,0,0,1,619.527,218.191Z" transform="translate(-603.191 -217.453)"/></g></g><g transform="translate(54.89 69.401)"><path class="ad" d="M202.974,262.031h19.309a2.24,2.24,0,0,1,2.24,2.24v4.562a2.241,2.241,0,0,1-1.958,2.223.323.323,0,0,0-.283.321v2.5a.148.148,0,0,1-.269.086l-1.967-2.75a.325.325,0,0,0-.265-.136H202.974a2.241,2.241,0,0,1-2.241-2.241v-4.562A2.241,2.241,0,0,1,202.974,262.031Z" transform="translate(-200.733 -262.031)"/><g transform="translate(3.728 3.777)"><path class="ad" d="M251.814,273.148a.738.738,0,1,0,.738-.738A.738.738,0,0,0,251.814,273.148Z" transform="translate(-236.954 -272.41)"/><path class="ad" d="M241.6,273.148a.738.738,0,1,0,.738-.738A.738.738,0,0,0,241.6,273.148Z" transform="translate(-230.46 -272.41)"/><path class="ad" d="M231.4,273.148a.738.738,0,1,0,.738-.738A.738.738,0,0,0,231.4,273.148Z" transform="translate(-223.965 -272.41)"/><path class="ad" d="M221.186,273.148a.738.738,0,1,0,.738-.738A.738.738,0,0,0,221.186,273.148Z" transform="translate(-217.471 -272.41)"/><path class="ad" d="M210.977,273.148a.738.738,0,1,0,.738-.738A.738.738,0,0,0,210.977,273.148Z" transform="translate(-210.977 -272.41)"/></g></g><g transform="translate(135.037 31.85)"><path class="ae" d="M459.693,165.867H424.5a3.514,3.514,0,0,1-3.514-3.514h0a3.514,3.514,0,0,1,3.514-3.514h35.194a3.514,3.514,0,0,1,3.514,3.514h0A3.514,3.514,0,0,1,459.693,165.867Z" transform="translate(-420.984 -158.838)"/><g transform="translate(34.455 1.403)"><path class="af" d="M519.407,164.563a1.869,1.869,0,1,1-1.869-1.869A1.869,1.869,0,0,1,519.407,164.563Z" transform="translate(-515.669 -162.694)"/><line class="ag" x2="1.032" y2="1.032" transform="translate(3.19 3.191)"/></g></g><g transform="translate(31.023 0)"><g transform="translate(75.116 120)"><rect class="ah" width="14.464" height="14.464" rx="7.232" transform="translate(2.636)"/><rect class="o" width="14.463" height="14.464" rx="7.232"/><path class="d" d="M355.739,413.362l4.152,2.4a.385.385,0,0,1,0,.666l-4.152,2.4a.384.384,0,0,1-.576-.333V413.7A.384.384,0,0,1,355.739,413.362Z" transform="translate(-350.216 -408.86)"/></g><g transform="translate(162.309 115.557)"><rect class="ah" width="18.907" height="18.907" rx="9.454" transform="translate(3.446)"/><rect class="o" width="18.907" height="18.907" rx="9.454"/><path class="d" d="M605.463,397.647a2.272,2.272,0,1,1-2.272-2.272A2.272,2.272,0,0,1,605.463,397.647Z" transform="translate(-593.738 -393.008)"/><path class="d" d="M603.619,414.476v3.354a.549.549,0,0,1-.548.549H594.7a.549.549,0,0,1-.549-.549v-3.354a4.736,4.736,0,0,1,4.736-4.735h0A4.735,4.735,0,0,1,603.619,414.476Z" transform="translate(-589.43 -402.146)"/></g><g transform="translate(121.487 41.811)"><path class="m" d="M476.994,187.327H469.56a.559.559,0,0,1-.559-.559h0a.559.559,0,0,1,.559-.559h7.434a.559.559,0,0,1,.559.559h0A.558.558,0,0,1,476.994,187.327Z" transform="translate(-469.001 -186.21)"/><path class="m" d="M501.021,187.327h-5.38a.559.559,0,0,1-.559-.559h0a.559.559,0,0,1,.559-.559h5.38a.559.559,0,0,1,.559.559h0A.559.559,0,0,1,501.021,187.327Z" transform="translate(-485.592 -186.21)"/><path class="m" d="M472.718,194.077H469.56a.559.559,0,0,1-.559-.559h0a.559.559,0,0,1,.559-.559h3.159a.559.559,0,0,1,.559.559h0A.559.559,0,0,1,472.718,194.077Z" transform="translate(-469.001 -190.504)"/><path class="m" d="M493.229,194.077h-9.837a.559.559,0,0,1-.559-.559h0a.559.559,0,0,1,.559-.559h9.837a.559.559,0,0,1,.559.559h0A.558.558,0,0,1,493.229,194.077Z" transform="translate(-477.8 -190.504)"/><path class="m" d="M479.359,200.827h-9.8a.559.559,0,0,1-.559-.559h0a.559.559,0,0,1,.559-.559h9.8a.559.559,0,0,1,.559.559h0A.558.558,0,0,1,479.359,200.827Z" transform="translate(-469.001 -194.798)"/><path class="m" d="M504.9,200.827h-3.158a.559.559,0,0,1-.559-.559h0a.559.559,0,0,1,.559-.559H504.9a.559.559,0,0,1,.559.559h0A.558.558,0,0,1,504.9,200.827Z" transform="translate(-489.475 -194.798)"/></g><g transform="translate(8.005 84.101)"><rect class="ah" width="28.733" height="15.882" rx="3.823" transform="translate(0 0)"/><line class="ai" x2="26.291" transform="translate(1.221 2.146)"/><ellipse class="d" cx="0.318" cy="0.318" rx="0.318" ry="0.318" transform="translate(26.5 0.736)"/><ellipse class="d" cx="0.318" cy="0.318" rx="0.318" ry="0.318" transform="translate(24.84 0.736)"/><ellipse class="d" cx="0.318" cy="0.318" rx="0.318" ry="0.318" transform="translate(23.179 0.736)"/><g transform="translate(1.221 3.404)"><path class="aj" d="M165.4,312.661h-4.461a.44.44,0,0,1-.44-.44h0a.44.44,0,0,1,.44-.44H165.4a.44.44,0,0,1,.44.44h0A.44.44,0,0,1,165.4,312.661Z" transform="translate(-160.497 -311.781)"/><path class="aj" d="M165.4,318.244h-4.461a.44.44,0,0,1-.44-.44h0a.44.44,0,0,1,.44-.44H165.4a.44.44,0,0,1,.44.44h0A.44.44,0,0,1,165.4,318.244Z" transform="translate(-160.497 -315.333)"/><path class="aj" d="M165.4,323.828h-4.461a.44.44,0,0,1-.44-.44h0a.44.44,0,0,1,.44-.44H165.4a.44.44,0,0,1,.44.44h0A.44.44,0,0,1,165.4,323.828Z" transform="translate(-160.497 -318.884)"/><path class="aj" d="M165.4,329.411h-4.461a.44.44,0,0,1-.44-.44h0a.44.44,0,0,1,.44-.44H165.4a.44.44,0,0,1,.44.44h0A.44.44,0,0,1,165.4,329.411Z" transform="translate(-160.497 -322.436)"/><path class="aj" d="M165.4,334.994h-4.461a.44.44,0,0,1-.44-.44h0a.44.44,0,0,1,.44-.44H165.4a.44.44,0,0,1,.44.44h0A.44.44,0,0,1,165.4,334.994Z" transform="translate(-160.497 -325.988)"/><path class="aj" d="M165.4,340.578h-4.461a.44.44,0,0,1-.44-.44h0a.44.44,0,0,1,.44-.44H165.4a.44.44,0,0,1,.44.44h0A.44.44,0,0,1,165.4,340.578Z" transform="translate(-160.497 -329.539)"/><g transform="translate(6.186)"><path class="ak" d="M197.162,312.661H177.937a.44.44,0,0,1-.44-.44h0a.44.44,0,0,1,.44-.44h19.225a.44.44,0,0,1,.44.44h0A.44.44,0,0,1,197.162,312.661Z" transform="translate(-177.497 -311.781)"/><path class="ak" d="M197.162,318.244H177.937a.44.44,0,0,1-.44-.44h0a.44.44,0,0,1,.44-.44h19.225a.44.44,0,0,1,.44.44h0A.44.44,0,0,1,197.162,318.244Z" transform="translate(-177.497 -315.333)"/><path class="ak" d="M197.162,323.828H177.937a.44.44,0,0,1-.44-.44h0a.44.44,0,0,1,.44-.44h19.225a.44.44,0,0,1,.44.44h0A.44.44,0,0,1,197.162,323.828Z" transform="translate(-177.497 -318.884)"/><path class="ak" d="M197.162,329.411H177.937a.44.44,0,0,1-.44-.44h0a.44.44,0,0,1,.44-.44h19.225a.44.44,0,0,1,.44.44h0A.44.44,0,0,1,197.162,329.411Z" transform="translate(-177.497 -322.436)"/><path class="ak" d="M197.162,334.994H177.937a.44.44,0,0,1-.44-.44h0a.44.44,0,0,1,.44-.44h19.225a.44.44,0,0,1,.44.44h0A.44.44,0,0,1,197.162,334.994Z" transform="translate(-177.497 -325.988)"/><path class="ak" d="M197.162,340.578H177.937a.44.44,0,0,1-.44-.44h0a.44.44,0,0,1,.44-.44h19.225a.44.44,0,0,1,.44.44h0A.44.44,0,0,1,197.162,340.578Z" transform="translate(-177.497 -329.539)"/></g></g></g><g transform="translate(144.296 0)"><ellipse class="a" cx="11.828" cy="11.828" rx="11.828" ry="11.828" transform="matrix(0.233, -0.972, 0.972, 0.233, 0, 23.006)"/><circle class="e" cx="10.283" cy="10.283" r="10.283" transform="translate(0.694 9.016) rotate(-23.868)"/><path class="d" d="M570.165,108.858a.936.936,0,1,1-.936-.936A.936.936,0,0,1,570.165,108.858Z" transform="translate(-554.97 -94.599)"/><path class="d" d="M564.538,99.494h0a.293.293,0,0,1-.4-.114l-3.024-5.455a.293.293,0,0,1,.114-.4h0a.293.293,0,0,1,.4.114l3.024,5.455A.293.293,0,0,1,564.538,99.494Z" transform="translate(-550.381 -85.419)"/><path class="d" d="M571.124,110.753h0a.293.293,0,0,1,.414,0l2.616,2.617a.293.293,0,0,1,0,.414h0a.292.292,0,0,1-.414,0l-2.616-2.616A.293.293,0,0,1,571.124,110.753Z" transform="translate(-556.717 -96.346)"/><g transform="translate(4.845 4.845)"><line class="al" y1="1.183" transform="translate(9.477)"/><line class="al" x2="1.183" transform="translate(17.645 9.477)"/><line class="al" y2="1.183" transform="translate(9.351 17.645)"/><line class="al" x1="1.183" transform="translate(0 9.351)"/></g><g class="w" transform="translate(6.075 6.075)"><line class="am" x1="0.591" y1="1.024" transform="translate(3.532)"/><line class="am" y1="0.591" x2="1.024" transform="translate(15.344 3.532)"/><line class="am" x2="0.591" y2="1.024" transform="translate(12.245 15.344)"/><line class="am" x1="1.024" y2="0.591" transform="translate(0 12.245)"/></g><g class="w" transform="translate(6.138 6.138)"><line class="am" x1="1.024" y1="0.591" transform="translate(0 3.36)"/><line class="am" y1="1.024" x2="0.591" transform="translate(12.291)"/><line class="am" x2="1.024" y2="0.591" transform="translate(15.218 12.291)"/><line class="am" x1="0.591" y2="1.024" transform="translate(3.36 15.218)"/></g></g><g transform="translate(0 52.103)"><rect class="ah" width="19.953" height="19.953" rx="9.569" transform="translate(1.547 1.728)"/><rect class="an" width="19.953" height="19.953" rx="7.667"/><g transform="translate(5.546 3.146)"><path class="b" d="M158.27,227.687h-.1v-1.143a3.4,3.4,0,1,0-6.8,0v1.143h-.023a.954.954,0,0,0-.954.954v4.307a.955.955,0,0,0,.954.955h6.931a.955.955,0,0,0,.955-.955v-4.307A.955.955,0,0,0,158.27,227.687Zm-6.046-1.143a2.54,2.54,0,1,1,5.081,0v1.143h-5.081Z" transform="translate(-150.385 -223.141)"/><path class="ao" d="M161.73,239.777a1.11,1.11,0,1,0-1.67.957.2.2,0,0,1,.1.223l-.193.713a.667.667,0,1,0,1.287,0l-.191-.706a.2.2,0,0,1,.1-.225A1.105,1.105,0,0,0,161.73,239.777Z" transform="translate(-156.19 -233.017)"/><path class="b" d="M158.816,255.437h-8.022a.409.409,0,0,1-.409-.409h0a.409.409,0,0,1,.409-.409h8.022a.41.41,0,0,1,.409.409h0A.409.409,0,0,1,158.816,255.437Z" transform="translate(-150.385 -243.164)"/><path class="b" d="M158.816,259.25h-8.022a.409.409,0,0,1-.409-.409h0a.409.409,0,0,1,.409-.409h8.022a.409.409,0,0,1,.409.409h0A.41.41,0,0,1,158.816,259.25Z" transform="translate(-150.385 -245.589)"/></g></g><g transform="translate(164.58 84.475)"><path class="ah" d="M5.634,0h.48a5.634,5.634,0,0,1,5.634,5.634v.48a5.633,5.633,0,0,1-5.633,5.633h-.48A5.634,5.634,0,0,1,0,6.113v-.48A5.634,5.634,0,0,1,5.634,0Z" transform="translate(0.91 1.018)"/><rect class="an" width="11.747" height="11.747" rx="4.513"/><g transform="translate(2.365 2.365)"><g transform="translate(0.771)"><path class="d" d="M596.405,316.969a.346.346,0,0,1-.1-.014.363.363,0,0,1-.251-.449l1.777-6.288a.364.364,0,1,1,.7.2l-1.777,6.288A.363.363,0,0,1,596.405,316.969Z" transform="translate(-596.041 -309.953)"/></g><g transform="translate(3.741)"><path class="d" d="M604.568,316.969a.343.343,0,0,1-.1-.014.363.363,0,0,1-.252-.449l1.777-6.288a.364.364,0,1,1,.7.2l-1.777,6.288A.363.363,0,0,1,604.568,316.969Z" transform="translate(-604.204 -309.953)"/></g><g transform="translate(0 1.72)"><path class="d" d="M600.575,315.407h-6.288a.364.364,0,0,1,0-.728h6.288a.364.364,0,0,1,0,.728Z" transform="translate(-593.923 -314.679)"/></g><g transform="translate(0 4.592)"><path class="d" d="M600.575,323.3h-6.288a.364.364,0,0,1,0-.728h6.288a.364.364,0,1,1,0,.728Z" transform="translate(-593.923 -322.573)"/></g></g></g><g transform="translate(28.333 58.928)"><path class="m" d="M218.051,234.247H213.5a.5.5,0,0,1-.5-.5h0a.5.5,0,0,1,.5-.5h4.548a.5.5,0,0,1,.5.5h0A.5.5,0,0,1,218.051,234.247Z" transform="translate(-213.004 -233.25)"/><path class="m" d="M222.632,240.33H213.5a.5.5,0,0,1-.5-.5h0a.5.5,0,0,1,.5-.5h9.129a.5.5,0,0,1,.5.5h0A.5.5,0,0,1,222.632,240.33Z" transform="translate(-213.004 -237.119)"/><path class="m" d="M214.581,246.414H213.5a.5.5,0,0,1-.5-.5h0a.5.5,0,0,1,.5-.5h1.078a.5.5,0,0,1,.5.5h0A.5.5,0,0,1,214.581,246.414Z" transform="translate(-213.004 -240.99)"/><path class="m" d="M227.479,246.414h-6.357a.5.5,0,0,1-.5-.5h0a.5.5,0,0,1,.5-.5h6.357a.5.5,0,0,1,.5.5h0A.5.5,0,0,1,227.479,246.414Z" transform="translate(-217.851 -240.99)"/><path class="m" d="M233.772,234.247h-2.757a.5.5,0,0,1-.5-.5h0a.5.5,0,0,1,.5-.5h2.757a.5.5,0,0,1,.5.5h0A.5.5,0,0,1,233.772,234.247Z" transform="translate(-224.144 -233.25)"/></g><path class="d" d="M148.951,418.419a3.158,3.158,0,0,0-1.622.445,3.4,3.4,0,0,0-6.76.755,2.6,2.6,0,1,0-.481,5.149h8.863a3.175,3.175,0,1,0,0-6.35Z" transform="translate(-136.637 -290.473)"/></g><g transform="translate(9.774 95.18)"><path class="b" d="M91.829,352a3.347,3.347,0,0,1,.045-1.428,14.146,14.146,0,0,0-.16-7.692c-1.7-5.307-8.589-10.008-8.589-10.008s1.87,7.832,3.407,11.167a42,42,0,0,0,4.187,6.683,3.266,3.266,0,0,1,.6,1.372,57.134,57.134,0,0,1,.95,11.008l.517.02A57.675,57.675,0,0,0,91.829,352Z" transform="translate(-80.805 -332.874)"/><path class="ap" d="M113.761,355.254a62.011,62.011,0,0,0,2-9.423s-6.177,5.1-6.683,9.04a13.235,13.235,0,0,0,.421,5.493,3.758,3.758,0,0,1,.146,1.493,52.284,52.284,0,0,0-.127,10.319l.465-.054a51.5,51.5,0,0,1,.074-9.688,3.855,3.855,0,0,1,.851-2.047A16.177,16.177,0,0,0,113.761,355.254Z" transform="translate(-97.244 -341.116)"/><path class="b" d="M121.693,345.278s-6.656,2.47-8.4,7.9a14.5,14.5,0,0,0-.145,7.948,2.731,2.731,0,0,1,0,1.354,60.985,60.985,0,0,0-1.583,12.814h.53a60.569,60.569,0,0,1,1.53-12.538,4.7,4.7,0,0,1,.789-1.686,42.492,42.492,0,0,0,4.186-6.707A71.941,71.941,0,0,0,121.693,345.278Z" transform="translate(-98.897 -340.764)"/><path class="ap" d="M87.8,374.823a18.461,18.461,0,0,0-1.537-6.041,2.062,2.062,0,0,1-.155-1.093,9.988,9.988,0,0,0-.155-3.248c-.54-2.667-4.08-8.427-9.2-8.765a37.284,37.284,0,0,1,2.678,5.221c1.151,3.009,2.794,6.156,5.519,7.364A2.048,2.048,0,0,1,86,369.354a17.859,17.859,0,0,1,1.334,5.5Z" transform="translate(-76.749 -347.378)"/><g transform="translate(5.38 24.574)"><path class="b" d="M93.74,414.946H102.2l2.194-13.408a.975.975,0,0,0-.962-1.132H92.508a.975.975,0,0,0-.962,1.132Z" transform="translate(-91.533 -400.406)"/></g></g><line class="aq" x2="236.608" transform="translate(0 134.295)"/></g></svg>