<svg xmlns="http://www.w3.org/2000/svg" width="32" height="32" viewBox="0 0 32 32"><defs><style>.a{fill:#e87109;}</style></defs><g transform="translate(-3 -3)"><path class="a" d="M14.034,46.172V43.414a.552.552,0,0,1,.305-.494l1.22-.61-1.22-.61a.552.552,0,0,1-.305-.494V39.552A.553.553,0,0,0,13.483,39H3.552A.553.553,0,0,0,3,39.552v6.621a.553.553,0,0,0,.552.552h9.931A.553.553,0,0,0,14.034,46.172Zm-1.1-.552H4.1v-1.1h8.828ZM5.207,43.414v-1.1h6.621v1.1Zm7.724-2.207H4.1V40.1h8.828Z" transform="translate(0 -16.138)"/><path class="a" d="M12.931,14.08l-4.621,3.7a.551.551,0,0,1-.69,0L3,14.08V20.1h9.931Z" transform="translate(0 -4.967)"/><path class="a" d="M12.74,13H4.851L8.8,16.155Z" transform="translate(-0.83 -4.483)"/><path class="a" d="M30.838,3H19.8a2.764,2.764,0,0,0-2.7,2.207h16.44A2.764,2.764,0,0,0,30.838,3Z" transform="translate(-6.321)"/><path class="a" d="M21.414,51.552a1.657,1.657,0,0,1-1.655,1.655H17v.552a2.762,2.762,0,0,0,2.759,2.759H30.793a2.762,2.762,0,0,0,2.759-2.759V51H21.414Zm3.862.552a1.655,1.655,0,1,1-1.655,1.655A1.657,1.657,0,0,1,25.276,52.1Z" transform="translate(-6.276 -21.517)"/><ellipse class="a" cx="1" cy="0.5" rx="1" ry="0.5" transform="translate(18 32)"/><circle class="a" cx="1.5" cy="1.5" r="1.5" transform="translate(29 16)"/><path class="a" d="M52.172,20H46.655A1.657,1.657,0,0,0,45,21.655v5.517a1.657,1.657,0,0,0,1.655,1.655h5.517a1.657,1.657,0,0,0,1.655-1.655V21.655A1.657,1.657,0,0,0,52.172,20Zm-2.759,7.724a2.759,2.759,0,1,1,2.759-2.759A2.762,2.762,0,0,1,49.414,27.724Zm3.31-5.517h-1.1V21.1h1.1Z" transform="translate(-18.828 -7.621)"/><path class="a" d="M31.345,22.241V16.724a2.764,2.764,0,0,1,2.207-2.7V9H17v1.1h2.759a.552.552,0,0,1,.552.552v7.724a.552.552,0,0,1-.552.552H17v5.517h2.759A1.657,1.657,0,0,1,21.414,26.1v1.314l1.9.951a.552.552,0,0,1,0,.987l-1.9.951v.762H33.552V24.944A2.764,2.764,0,0,1,31.345,22.241Z" transform="translate(-6.276 -2.69)"/></g></svg>