<svg xmlns="http://www.w3.org/2000/svg" xmlns:xlink="http://www.w3.org/1999/xlink" width="57" height="57" viewBox="0 0 57 57"><defs><style>.a{stroke:#707070;fill:url(#a);}.b{fill:#fff;}.c{stroke:none;}.d{fill:none;}</style><linearGradient id="a" x1="0.513" y1="-0.143" x2="0.5" y2="1.077" gradientUnits="objectBoundingBox"><stop offset="0" stop-color="#2e67ce"/><stop offset="1" stop-color="#690c7f"/></linearGradient></defs><g transform="translate(-1346 -648)"><g class="a" transform="translate(1346 648)"><circle class="c" cx="28.5" cy="28.5" r="28.5"/><circle class="d" cx="28.5" cy="28.5" r="28"/></g><path class="b" d="M34.563,17.563a17,17,0,1,1-17-17A17,17,0,0,1,34.563,17.563ZM18.019,6.183a8.879,8.879,0,0,0-7.989,4.371.824.824,0,0,0,.186,1.114l2.379,1.8a.822.822,0,0,0,1.142-.145c1.225-1.553,2.064-2.454,3.928-2.454,1.4,0,3.133.9,3.133,2.259,0,1.027-.847,1.554-2.23,2.329-1.613.9-3.746,2.029-3.746,4.844v.274a.823.823,0,0,0,.823.823h3.839a.823.823,0,0,0,.823-.823v-.091c0-1.951,5.7-2.032,5.7-7.312C26.007,9.2,21.882,6.183,18.019,6.183Zm-.456,17a3.153,3.153,0,1,0,3.153,3.153A3.157,3.157,0,0,0,17.563,23.183Z" transform="translate(1357.438 659.438)"/></g></svg>