<svg width="14" height="14" viewBox="0 0 14 14" fill="none" xmlns="http://www.w3.org/2000/svg">
<path d="M13.5588 1.59805C13.5588 1.59805 13.5588 1.60391 13.5588 1.60684L10.1486 12.8533C10.097 13.036 9.99076 13.1985 9.84414 13.3191C9.69751 13.4396 9.51752 13.5124 9.32832 13.5277C9.30137 13.5301 9.27441 13.5313 9.24746 13.5313C9.07015 13.5318 8.89639 13.4816 8.74668 13.3866C8.59696 13.2916 8.47755 13.1558 8.40254 12.9951L6.31016 8.57774C6.2895 8.53404 6.28286 8.48502 6.29114 8.4374C6.29943 8.38978 6.32224 8.34588 6.35644 8.31173L9.71152 4.95606C9.79572 4.86744 9.84197 4.74943 9.8404 4.6272C9.83884 4.50497 9.78958 4.38818 9.70315 4.30174C9.61671 4.21531 9.49992 4.16605 9.37769 4.16449C9.25546 4.16292 9.13745 4.20917 9.04883 4.29337L5.68848 7.64845C5.65432 7.68265 5.61043 7.70546 5.5628 7.71375C5.51518 7.72203 5.46616 7.71539 5.42246 7.69473L1.02793 5.6129C0.855338 5.53383 0.710092 5.40532 0.610584 5.24364C0.511077 5.08197 0.461783 4.8944 0.468945 4.70469C0.478488 4.50972 0.549077 4.32267 0.670731 4.17C0.792384 4.01732 0.958948 3.90675 1.14687 3.85391L12.3934 0.443757H12.4021C12.5623 0.39877 12.7315 0.397193 12.8924 0.439188C13.0534 0.481183 13.2002 0.565238 13.318 0.682729C13.4357 0.80022 13.52 0.946917 13.5624 1.10777C13.6047 1.26862 13.6035 1.43784 13.5588 1.59805Z" fill="white"/>
</svg>
