<svg xmlns="http://www.w3.org/2000/svg" xmlns:xlink="http://www.w3.org/1999/xlink" width="148" height="148" viewBox="0 0 148 148"><defs><style>.a{stroke:#707070;fill:url(#a);}.b{fill:#fff;}.c{stroke:none;}.d{fill:none;}.e{filter:url(#b);}</style><linearGradient id="a" x1="0.513" y1="-0.143" x2="0.5" y2="1.077" gradientUnits="objectBoundingBox"><stop offset="0" stop-color="#2e67ce"/><stop offset="1" stop-color="#690c7f"/></linearGradient><filter id="b" x="48.495" y="33" width="89.719" height="80.754" filterUnits="userSpaceOnUse"><feOffset dy="3" input="SourceAlpha"/><feGaussianBlur stdDeviation="3" result="c"/><feFlood flood-opacity="0.161"/><feComposite operator="in" in2="c"/><feComposite in="SourceGraphic"/></filter></defs><g transform="translate(-1493 -301)"><g class="a" transform="translate(1493 301)"><circle class="c" cx="74" cy="74" r="74"/><circle class="d" cx="74" cy="74" r="73.5"/></g><g transform="translate(0 8)"><path class="b" d="M47.336,6H7.926a4.92,4.92,0,0,0-4.9,4.926L3,40.483A4.941,4.941,0,0,0,7.926,45.41h39.41a4.941,4.941,0,0,0,4.926-4.926V10.926A4.941,4.941,0,0,0,47.336,6Zm0,9.852-19.7,12.316L7.926,15.852V10.926l19.7,12.316,19.7-12.316Z" transform="translate(1517 356.968)"/><g class="e" transform="matrix(1, 0, 0, 1, 1493, 293)"><path class="b" d="M35.86,2.25C16.053,2.25,0,15.291,0,31.386A25.86,25.86,0,0,0,7.984,49.694C6.233,56.754.378,63.043.308,63.113A1.114,1.114,0,0,0,.1,64.332,1.1,1.1,0,0,0,1.121,65a32.034,32.034,0,0,0,19.695-7.2A42.72,42.72,0,0,0,35.86,60.522c19.807,0,35.86-13.041,35.86-29.136S55.666,2.25,35.86,2.25Zm-17.9,38.1H16.249a1.124,1.124,0,0,1-1.121-1.121V36.989a1.124,1.124,0,0,1,1.121-1.121h1.723c.84,0,1.457-.49,1.457-.924a.741.741,0,0,0-.294-.532l-3.068-2.633A5.178,5.178,0,0,1,14.2,27.842a5.7,5.7,0,0,1,5.939-5.407h1.709a1.124,1.124,0,0,1,1.121,1.121V25.8a1.124,1.124,0,0,1-1.121,1.121H20.129c-.84,0-1.457.49-1.457.925a.741.741,0,0,0,.294.532l3.068,2.633A5.178,5.178,0,0,1,23.9,34.944,5.686,5.686,0,0,1,17.958,40.351ZM44.824,39.23A1.124,1.124,0,0,1,43.7,40.351H41.463a1.124,1.124,0,0,1-1.121-1.121V29.677l-3.474,7.816a1.119,1.119,0,0,1-2,0l-3.488-7.816V39.23a1.124,1.124,0,0,1-1.121,1.121H28.015a1.124,1.124,0,0,1-1.121-1.121V24.662a2.248,2.248,0,0,1,2.241-2.241h2.241a2.231,2.231,0,0,1,2,1.233l2.479,4.959,2.479-4.959a2.246,2.246,0,0,1,2-1.233h2.241a2.248,2.248,0,0,1,2.241,2.241Zm6.766,1.121H49.867a1.124,1.124,0,0,1-1.121-1.121V36.989a1.124,1.124,0,0,1,1.121-1.121H51.59c.84,0,1.457-.49,1.457-.924a.741.741,0,0,0-.294-.532l-3.068-2.633a5.178,5.178,0,0,1-1.863-3.936,5.7,5.7,0,0,1,5.939-5.407H55.47a1.124,1.124,0,0,1,1.121,1.121V25.8a1.124,1.124,0,0,1-1.121,1.121H53.747c-.84,0-1.457.49-1.457.925a.741.741,0,0,0,.294.532l3.068,2.633a5.178,5.178,0,0,1,1.863,3.936A5.673,5.673,0,0,1,51.59,40.351Z" transform="translate(57.5 36.75)"/></g></g></g></svg>