<svg xmlns="http://www.w3.org/2000/svg" xmlns:xlink="http://www.w3.org/1999/xlink" width="59.573" height="57" viewBox="0 0 59.573 57"><defs><style>.a{stroke:#707070;fill:url(#a);}.b{fill:#fff;}.c{stroke:none;}.d{fill:none;}.e{filter:url(#b);}</style><linearGradient id="a" x1="0.513" y1="-0.143" x2="0.5" y2="1.077" gradientUnits="objectBoundingBox"><stop offset="0" stop-color="#2e67ce"/><stop offset="1" stop-color="#690c7f"/></linearGradient><filter id="b" x="11" y="7" width="48.573" height="44.752" filterUnits="userSpaceOnUse"><feOffset dy="3" input="SourceAlpha"/><feGaussianBlur stdDeviation="3" result="c"/><feFlood flood-opacity="0.161"/><feComposite operator="in" in2="c"/><feComposite in="SourceGraphic"/></filter></defs><g transform="translate(-1350 -353)"><g class="a" transform="translate(1350 353)"><circle class="c" cx="28.5" cy="28.5" r="28.5"/><circle class="d" cx="28.5" cy="28.5" r="28"/></g><g transform="translate(-1 3.002)"><path class="b" d="M21.9,6H5.1A2.1,2.1,0,0,0,3.01,8.1L3,20.7a2.106,2.106,0,0,0,2.1,2.1H21.9A2.106,2.106,0,0,0,24,20.7V8.1A2.106,2.106,0,0,0,21.9,6Zm0,4.2-8.4,5.25L5.1,10.2V8.1l8.4,5.25L21.9,8.1Z" transform="translate(1355 370.2)"/><g class="e" transform="matrix(1, 0, 0, 1, 1351, 350)"><path class="b" d="M15.287,2.25C6.843,2.25,0,7.809,0,14.67a11.024,11.024,0,0,0,3.4,7.8A15.191,15.191,0,0,1,.131,28.2a.475.475,0,0,0-.09.52A.468.468,0,0,0,.478,29a13.656,13.656,0,0,0,8.4-3.069,18.211,18.211,0,0,0,6.413,1.158c8.443,0,15.287-5.559,15.287-12.42S23.73,2.25,15.287,2.25ZM7.655,18.492H6.927a.479.479,0,0,1-.478-.478v-.955a.479.479,0,0,1,.478-.478h.734c.358,0,.621-.209.621-.394a.316.316,0,0,0-.125-.227L6.849,14.838a2.207,2.207,0,0,1-.794-1.678,2.428,2.428,0,0,1,2.532-2.3h.729a.479.479,0,0,1,.478.478v.955a.479.479,0,0,1-.478.478H8.581c-.358,0-.621.209-.621.394a.316.316,0,0,0,.125.227l1.308,1.123a2.207,2.207,0,0,1,.794,1.678A2.424,2.424,0,0,1,7.655,18.492Zm11.453-.478a.479.479,0,0,1-.478.478h-.955a.479.479,0,0,1-.478-.478V13.942l-1.481,3.332a.477.477,0,0,1-.854,0l-1.487-3.332v4.072a.479.479,0,0,1-.478.478h-.955a.479.479,0,0,1-.478-.478V11.8a.958.958,0,0,1,.955-.955h.955a.951.951,0,0,1,.854.525l1.057,2.114,1.057-2.114a.958.958,0,0,1,.854-.525h.955a.958.958,0,0,1,.955.955Zm2.884.478h-.734a.479.479,0,0,1-.478-.478v-.955a.479.479,0,0,1,.478-.478h.734c.358,0,.621-.209.621-.394a.316.316,0,0,0-.125-.227L21.18,14.838a2.207,2.207,0,0,1-.794-1.678,2.428,2.428,0,0,1,2.532-2.3h.729a.479.479,0,0,1,.478.478v.955a.479.479,0,0,1-.478.478h-.734c-.358,0-.621.209-.621.394a.316.316,0,0,0,.125.227l1.308,1.123a2.207,2.207,0,0,1,.794,1.678A2.418,2.418,0,0,1,21.992,18.492Z" transform="translate(20 10.75)"/></g></g></g></svg>