<svg width="55" height="55" viewBox="0 0 55 55" fill="none" xmlns="http://www.w3.org/2000/svg">
<g opacity="0.16" filter="url(#filter0_d_214_8128)">
<path d="M27.5 0C37.165 0 45 7.83502 45 17.5C45 27.165 37.165 35 27.5 35C17.835 35 10 27.165 10 17.5C10 7.83502 17.835 0 27.5 0Z" fill="#136ACD"/>
<path d="M27.5 0.5C36.8888 0.5 44.5 8.11116 44.5 17.5C44.5 26.8888 36.8888 34.5 27.5 34.5C18.1112 34.5 10.5 26.8888 10.5 17.5C10.5 8.11116 18.1112 0.5 27.5 0.5Z" stroke="#F5F5F5"/>
</g>
<path d="M34.8868 7.40385H19.5123C19.0918 7.40385 18.75 7.74565 18.75 8.16616V26.4428C18.75 26.8654 19.0918 27.2051 19.5123 27.2051H34.8858C35.3063 27.2051 35.6481 26.8654 35.6481 26.4428V8.16616C35.6491 7.74461 35.3063 7.40385 34.8868 7.40385ZM34.1245 25.6805H20.2746V8.9295H34.1235V25.6805H34.1245Z" fill="#136ACD"/>
<path d="M25.2122 12.2387H22.4219V15.0279H25.2111V12.2387H25.2122ZM24.8724 13.1646L23.6337 14.4034C23.6016 14.4365 23.5467 14.4365 23.5146 14.4034L22.7595 13.6452C22.7274 13.6121 22.7274 13.5582 22.7595 13.524L22.9408 13.3459C22.9729 13.3117 23.0267 13.3117 23.0609 13.3459L23.5757 13.8627L24.5731 12.8653C24.6073 12.8322 24.6601 12.8322 24.6943 12.8653L24.8735 13.0455C24.9066 13.0776 24.9066 13.1315 24.8724 13.1646Z" fill="#136ACD"/>
<rect x="25.7939" y="12.8663" width="6.38119" height="1.53393" fill="#136ACD"/>
<path d="M25.2122 15.8762H22.4219V18.6644H25.2111V15.8762H25.2122ZM24.8724 16.8011L23.6337 18.0399C23.6016 18.073 23.5467 18.073 23.5146 18.0399L22.7595 17.2817C22.7274 17.2485 22.7274 17.1947 22.7595 17.1615L22.9408 16.9824C22.9729 16.9492 23.0267 16.9492 23.0609 16.9824L23.5757 17.4992L24.5731 16.5018C24.6073 16.4686 24.6601 16.4686 24.6943 16.5018L24.8735 16.681C24.9066 16.7141 24.9066 16.768 24.8724 16.8011Z" fill="#136ACD"/>
<rect x="25.7939" y="16.5028" width="6.38119" height="1.53393" fill="#136ACD"/>
<rect x="22.4226" y="19.5935" width="2.78925" height="2.78925" fill="#136ACD"/>
<rect x="25.7939" y="20.2221" width="6.38119" height="1.53289" fill="#136ACD"/>
<defs>
<filter id="filter0_d_214_8128" x="0" y="0" width="55" height="55" filterUnits="userSpaceOnUse" color-interpolation-filters="sRGB">
<feFlood flood-opacity="0" result="BackgroundImageFix"/>
<feColorMatrix in="SourceAlpha" type="matrix" values="0 0 0 0 0 0 0 0 0 0 0 0 0 0 0 0 0 0 127 0" result="hardAlpha"/>
<feOffset dy="10"/>
<feGaussianBlur stdDeviation="5"/>
<feComposite in2="hardAlpha" operator="out"/>
<feColorMatrix type="matrix" values="0 0 0 0 0 0 0 0 0 0 0 0 0 0 0 0 0 0 0.631373 0"/>
<feBlend mode="normal" in2="BackgroundImageFix" result="effect1_dropShadow_214_8128"/>
<feBlend mode="normal" in="SourceGraphic" in2="effect1_dropShadow_214_8128" result="shape"/>
</filter>
</defs>
</svg>
