<svg width="45" height="45" viewBox="0 0 45 45" fill="none" xmlns="http://www.w3.org/2000/svg">
<g opacity="0.16" filter="url(#filter0_d_56_8522)">
<path d="M22.2163 7.60819C29.3153 7.60819 35.0702 13.363 35.0702 20.462C35.0702 27.5609 29.3153 33.3158 22.2163 33.3158C15.1174 33.3158 9.36255 27.5609 9.36255 20.462C9.36255 13.363 15.1174 7.60819 22.2163 7.60819Z" fill="#136ACD"/>
<path d="M22.2163 8.10819C29.0392 8.10819 34.5702 13.6392 34.5702 20.462C34.5702 27.2848 29.0392 32.8158 22.2163 32.8158C15.3935 32.8158 9.86255 27.2848 9.86255 20.462C9.86255 13.6392 15.3935 8.10819 22.2163 8.10819Z" stroke="#F5F5F5"/>
</g>
<path d="M24.0332 15.4587C24.8318 15.9594 25.3918 16.8067 25.4937 17.7903C25.8194 17.9425 26.1809 18.03 26.5641 18.03C27.9633 18.03 29.0973 16.896 29.0973 15.4971C29.0973 14.0979 27.9633 12.9639 26.5641 12.9639C25.1784 12.9644 24.0543 14.0781 24.0332 15.4587ZM22.3737 20.6452C23.7728 20.6452 24.9068 19.511 24.9068 18.1121C24.9068 16.7132 23.7726 15.5792 22.3737 15.5792C20.9748 15.5792 19.8401 16.7134 19.8401 18.1123C19.8401 19.5112 20.9748 20.6452 22.3737 20.6452ZM23.4482 20.8179H21.2987C19.5103 20.8179 18.0554 22.273 18.0554 24.0614V26.69L18.0621 26.7312L18.2431 26.7879C19.9498 27.3212 21.4326 27.499 22.653 27.499C25.0368 27.499 26.4184 26.8194 26.5036 26.7761L26.6728 26.6905H26.6909V24.0614C26.6915 22.273 25.2366 20.8179 23.4482 20.8179ZM27.6391 18.2028H25.5062C25.4832 19.0562 25.1189 19.8246 24.5427 20.3773C26.1324 20.85 27.2955 22.3241 27.2955 24.0653V24.8753C29.4014 24.7982 30.6149 24.2013 30.6949 24.1612L30.8641 24.0754H30.8822V21.446C30.8822 19.6578 29.4273 18.2028 27.6391 18.2028ZM17.9289 18.0304C18.4244 18.0304 18.8855 17.8858 19.276 17.6394C19.4002 16.8296 19.8343 16.1219 20.4544 15.64C20.457 15.5926 20.4615 15.5456 20.4615 15.4977C20.4615 14.0986 19.3273 12.9646 17.9289 12.9646C16.5295 12.9646 15.3957 14.0986 15.3957 15.4977C15.3957 16.8962 16.5295 18.0304 17.9289 18.0304ZM20.2038 20.3773C19.6304 19.8274 19.2674 19.0631 19.2409 18.2149C19.1618 18.2091 19.0835 18.2028 19.0029 18.2028H16.8537C15.0653 18.2028 13.6104 19.6578 13.6104 21.446V24.075L13.617 24.1155L13.7981 24.1727C15.1673 24.6001 16.3892 24.7971 17.4506 24.8592V24.0653C17.451 22.3241 18.6137 20.8504 20.2038 20.3773Z" fill="#136ACD" stroke="white" stroke-width="0.5" stroke-linecap="round" stroke-linejoin="round"/>
<defs>
<filter id="filter0_d_56_8522" x="0.362549" y="0.608187" width="43.7075" height="43.7076" filterUnits="userSpaceOnUse" color-interpolation-filters="sRGB">
<feFlood flood-opacity="0" result="BackgroundImageFix"/>
<feColorMatrix in="SourceAlpha" type="matrix" values="0 0 0 0 0 0 0 0 0 0 0 0 0 0 0 0 0 0 127 0" result="hardAlpha"/>
<feOffset dy="2"/>
<feGaussianBlur stdDeviation="4.5"/>
<feComposite in2="hardAlpha" operator="out"/>
<feColorMatrix type="matrix" values="0 0 0 0 0 0 0 0 0 0 0 0 0 0 0 0 0 0 0.631373 0"/>
<feBlend mode="normal" in2="BackgroundImageFix" result="effect1_dropShadow_56_8522"/>
<feBlend mode="normal" in="SourceGraphic" in2="effect1_dropShadow_56_8522" result="shape"/>
</filter>
</defs>
</svg>
