<svg xmlns="http://www.w3.org/2000/svg" xmlns:xlink="http://www.w3.org/1999/xlink" width="112.567" height="112.624" viewBox="0 0 112.567 112.624"><defs><style>.a{fill-rule:evenodd;fill:url(#a);}.b{fill:url(#b);}.c,.d{fill:#fff;}.c{font-size:37px;font-family:NunitoSans-Bold, Nunito Sans;font-weight:700;}</style><linearGradient id="a" x1="0.5" y1="-0.011" x2="0.5" y2="0.84" gradientUnits="objectBoundingBox"><stop offset="0" stop-color="#2575db"/><stop offset="1" stop-color="#582994"/></linearGradient><linearGradient id="b" x1="0.345" y1="0.109" x2="0.837" y2="1.177" gradientUnits="objectBoundingBox"><stop offset="0" stop-color="#2575db"/><stop offset="0.77" stop-color="#582994"/></linearGradient></defs><g transform="translate(-16.433 -14.5)"><g transform="translate(16.433 14.5)"><path class="a" d="M113.566,57.254A56.283,56.283,0,0,1,7.3,83.169c-.158-.308-.312-.615-.466-.923A56.353,56.353,0,0,1,9.329,27.78a55.21,55.21,0,0,1,3.535-5.1A56.278,56.278,0,0,1,113.481,54.148Q113.566,55.7,113.566,57.254Z" transform="translate(-1 -0.951)"/><path class="b" d="M117.333,27.552,98.273,77.507l-56.688.81L21.57,27.787a55.209,55.209,0,0,1,3.535-5.1,56.274,56.274,0,0,1,92.228,4.863Z" transform="translate(-13.241 -0.958)"/></g><text class="c" transform="translate(61 86)"><tspan x="0" y="0">#</tspan></text><path class="d" d="M38.236,2.25H14.979a4.825,4.825,0,0,0-4.854,4.825V62.946a4.968,4.968,0,0,0,4.854,5H38.222a4.87,4.87,0,0,0,4.737-5V7.075A4.705,4.705,0,0,0,38.236,2.25ZM24.349,5.623h4.4a.587.587,0,0,1,0,1.173h-4.4a.587.587,0,0,1,0-1.173Zm2.273,60.124a2.552,2.552,0,1,1,2.552-2.552A2.553,2.553,0,0,1,26.622,65.746Zm13.711-7.186H12.765a.294.294,0,0,1-.293-.293V10.022a.294.294,0,0,1,.293-.293H40.333a.294.294,0,0,1,.293.293V58.268A.294.294,0,0,1,40.333,58.561Z" transform="translate(47.117 36.235)"/></g></svg>