<svg xmlns="http://www.w3.org/2000/svg" xmlns:xlink="http://www.w3.org/1999/xlink" width="177.88" height="134.464" viewBox="0 0 177.88 134.464"><defs><style>.a{fill:url(#a);}.b{fill:url(#b);}.c{fill:#6aafe8;}.d{fill:url(#c);}.e{fill:#fff;}.f{fill:url(#h);}.g{fill:url(#j);}.h{fill:url(#k);}.i{fill:#1487e3;}.j{fill:#78c2ff;}.k{fill:#ff7e55;}.l{fill:#424773;}.m{fill:#292c47;}.n{fill:#eea886;}.o{fill:#754836;}.p{fill:#e2d2ca;}.q{fill:#ffcb55;}.r{fill:#a1d4ff;}.s{fill:url(#l);}.t{fill:url(#m);}.u{fill:#4d78eb;}.v{fill:#e0e0e0;}.w{fill:#ff8761;}.x{opacity:0.76;}.y{fill:#4aafff;}.z{fill:#1a598c;}.aa{fill:#2273b5;}.ab{fill:#3788cc;}.ac{fill:#414773;}.ad{fill:#2d314f;}.ae{fill:#2b3b57;}.af{fill:#ffc655;}.ag{fill:#353a3d;}.ah{fill:#d4d8e8;}.ai{fill:#e55353;}.aj{fill:#6069a8;}.ak{fill:#202338;}.al{fill:#464240;}.am{fill:#eb4747;}.an{fill:#325bb3;}.ao{fill:#a77860;}.ap{fill:#5e5853;}.aq{fill:#91887f;}.ar{fill:#eddad3;}.as{fill:#6e6760;}.at{fill:#807066;}</style><linearGradient id="a" x1="-0.03" y1="0.5" x2="1.081" y2="0.5" gradientUnits="objectBoundingBox"><stop offset="0" stop-color="#40d5e6"/><stop offset="1" stop-color="#57f"/></linearGradient><linearGradient id="b" y1="0.5" x2="1" y2="0.5" gradientUnits="objectBoundingBox"><stop offset="0" stop-color="#404b61"/><stop offset="0.486" stop-color="#3b475f"/><stop offset="1" stop-color="#2f3e5c"/></linearGradient><linearGradient id="c" y1="0.5" x2="1" y2="0.5" gradientUnits="objectBoundingBox"><stop offset="0" stop-color="#3076a1"/><stop offset="1" stop-color="#639c38"/></linearGradient><linearGradient id="h" x1="0.028" y1="1.449" x2="0.657" y2="0.244" xlink:href="#c"/><linearGradient id="j" y1="0.5" x2="1" y2="0.5" gradientUnits="objectBoundingBox"><stop offset="0" stop-color="#ff9340"/><stop offset="1" stop-color="#ffce45"/></linearGradient><linearGradient id="k" y1="0.5" x2="1" y2="0.5" gradientUnits="objectBoundingBox"><stop offset="0" stop-color="#c97332"/><stop offset="1" stop-color="#ffce45"/></linearGradient><linearGradient id="l" x1="0.5" y1="-0.097" x2="0.5" y2="1.41" xlink:href="#a"/><linearGradient id="m" x1="-0.463" y1="0.5" x2="0.537" y2="0.5" xlink:href="#a"/></defs><g transform="translate(40.384 39.164)"><path class="a" d="M0,0H88.7a0,0,0,0,1,0,0V56.224A9.474,9.474,0,0,1,79.221,65.7H9.473A9.473,9.473,0,0,1,0,56.225V0A0,0,0,0,1,0,0Z" transform="translate(88.695 65.698) rotate(180)"/></g><g transform="translate(43.52 42.382)"><rect class="b" width="82.267" height="50.538" transform="translate(82.267 50.538) rotate(180)"/></g><g transform="translate(13.952 36.179)"><path class="c" d="M-45.171,199.194H-66.1l.036-.186a3.69,3.69,0,0,1,3.617-2.975,3.658,3.658,0,0,1,.754.079,6.248,6.248,0,0,1,5.557-3.354,6.3,6.3,0,0,1,5.071,2.576,4.572,4.572,0,0,1,1.334-.2,4.556,4.556,0,0,1,4.529,3.878Zm-20.54-.313H-45.54a4.3,4.3,0,0,0-4.188-3.433,4.26,4.26,0,0,0-1.345.217l-.111.036-.067-.095a5.982,5.982,0,0,0-4.883-2.536,5.939,5.939,0,0,0-5.334,3.291l-.056.112-.121-.03a3.345,3.345,0,0,0-.8-.1A3.376,3.376,0,0,0-65.711,198.882Z" transform="translate(66.097 -192.758)"/></g><g transform="translate(105.19 3.821)"><path class="c" d="M218.624,107.136l-.071-.036a11.288,11.288,0,0,1-6.418-11.208l.02-.133h.135c4.721,0,6.205-1.521,6.22-1.537l.115-.122.115.123c.014.015,1.5,1.536,6.219,1.536h.135l.02.133A11.285,11.285,0,0,1,218.7,107.1ZM212.431,96.07a10.974,10.974,0,0,0,6.194,10.714,10.975,10.975,0,0,0,6.195-10.714c-4.1-.026-5.768-1.168-6.195-1.53C218.2,94.9,216.53,96.045,212.431,96.07Z" transform="translate(-212.085 -94.099)"/></g><g transform="translate(136.616 66.589)"><g transform="translate(15.466 15.022)"><path class="d" d="M355.338,364.108c-1.118-5.108,1.3-6.383,3.633-7.615,1.909-1.008,3.711-1.959,3.615-4.969-.127-3.991,2.592-5.443,4.99-6.724,1.785-.953,3.47-1.853,3.721-3.669.605-4.369,4.635-9.8,4.676-9.854l.251.188c-.041.053-4.023,5.421-4.617,9.71-.273,1.973-2.027,2.91-3.883,3.9-2.432,1.3-4.946,2.641-4.825,6.438.1,3.205-1.872,4.248-3.782,5.256-2.335,1.232-4.54,2.4-3.473,7.272Z" transform="translate(-355.056 -331.276)"/></g><g transform="translate(13.628 10.153)"><path class="d" d="M352.8,352.828c-.053,0-.107,0-.161-.006-1.01-.075-2-.843-3.116-2.415l-.07-.1.078-.093c.018-.022,1.806-2.2,1.15-6.294a19.164,19.164,0,0,0-.523-2.273c-.24-.856-.4-1.422-.133-1.874.337-.573,1.249-.873,3.817-1.485,2.735-.651,3.649-3.732,4.456-6.451.76-2.561,1.48-4.975,3.607-4.9,1.955.074,4.925-2.99,7.545-5.69,2.431-2.506,4.726-4.868,6.193-4.821a1.17,1.17,0,0,1,.883.439c1.308,1.558.088,3.921-1.092,6.205-1.007,1.95-1.958,3.79-1.346,5.005a4.328,4.328,0,0,1,.312,3.993c-.669,1.285-2.229,2.114-4.636,2.463-2.2.319-2.439,2.72-2.691,5.261-.294,2.966-.627,6.327-4.32,6.647-2.743.237-4.591,2.162-6.223,3.861C355.229,351.654,354.1,352.828,352.8,352.828Zm-2.955-2.507c1.016,1.408,1.938,2.124,2.817,2.189,1.228.091,2.346-1.074,3.642-2.424,1.669-1.739,3.561-3.709,6.421-3.956,3.435-.3,3.74-3.382,4.036-6.366.264-2.667.514-5.185,2.957-5.54,2.3-.334,3.784-1.107,4.4-2.3a4.036,4.036,0,0,0-.313-3.707c-.684-1.357.3-3.267,1.347-5.289,1.133-2.194,2.3-4.463,1.131-5.861a.857.857,0,0,0-.655-.327c-1.326-.044-3.576,2.271-5.957,4.726-2.76,2.846-5.613,5.786-7.7,5.787h-.08c-1.887-.07-2.54,2.13-3.3,4.676-.83,2.8-1.772,5.973-4.683,6.666-2.323.553-3.339.862-3.62,1.339-.2.337-.062.824.165,1.631a19.486,19.486,0,0,1,.53,2.307C351.6,347.676,350.2,349.846,349.842,350.321Z" transform="translate(-349.45 -316.429)"/></g><g transform="translate(7.278 2.86)"><path class="d" d="M339.9,336.817c-.037,0-.073,0-.11,0-1.657-.151-2.931-3.78-4.163-7.29a34.9,34.9,0,0,0-1.674-4.247c-.417-.783-.947-1.6-1.459-2.389-1.365-2.1-2.776-4.277-2.317-6.185a4.154,4.154,0,0,1,2.2-2.554c2.715-1.564,2.3-2.448,1.382-4.384a14.2,14.2,0,0,1-1.627-6.428c-.015-1.316-.046-2.454-.073-3.458-.086-3.227-.13-4.847.559-5.433a1.429,1.429,0,0,1,1.256-.2c.978.186,1.4.975,1.848,1.81a4.338,4.338,0,0,0,3.17,2.683c1.832.383,3.6.906,4.081,2.124.342.856.018,1.982-.99,3.443a1.117,1.117,0,0,0-.256.92c.159.588,1.072,1.014,2.13,1.507,1.5.7,3.377,1.576,3.907,3.384.427,1.459-.067,3.277-1.512,5.56a18.6,18.6,0,0,0-3.159,12.3c.09,2.395.175,4.657-1.269,7.184C341.191,336.272,340.56,336.817,339.9,336.817Zm-6.511-42.309a.837.837,0,0,0-.564.173c-.575.489-.53,2.158-.449,5.187.027,1.005.057,2.144.073,3.462a13.931,13.931,0,0,0,1.6,6.3c.908,1.921,1.456,3.08-1.509,4.788a3.866,3.866,0,0,0-2.055,2.356c-.428,1.777.947,3.894,2.275,5.942.516.8,1.05,1.617,1.473,2.412a35.062,35.062,0,0,1,1.693,4.29c1.143,3.257,2.439,6.95,3.9,7.082.556.049,1.14-.454,1.738-1.5,1.4-2.449,1.32-4.566,1.228-7.017a18.872,18.872,0,0,1,3.207-12.474c1.393-2.2,1.876-3.938,1.476-5.305-.49-1.673-2.216-2.479-3.739-3.189-1.128-.526-2.1-.98-2.3-1.708a1.4,1.4,0,0,1,.3-1.18c.944-1.367,1.257-2.4.957-3.149-.433-1.084-2.192-1.586-3.855-1.934a4.655,4.655,0,0,1-3.382-2.841c-.429-.8-.8-1.493-1.63-1.651A2.317,2.317,0,0,0,333.39,294.507Z" transform="translate(-330.09 -294.195)"/></g><g transform="translate(12.233 8.633)"><path class="d" d="M350.086,350.582l-.3-.094c1.67-5.279-1.351-17.123-2.251-20-.443-1.418-.034-3.551.362-5.615.511-2.665,1.04-5.421-.308-6.453-2.53-1.94-2.4-6.428-2.39-6.619l.312.011c0,.045-.133,4.517,2.268,6.359,1.5,1.15.954,4,.425,6.76-.388,2.026-.79,4.12-.371,5.462C348.949,333.954,351.752,345.315,350.086,350.582Z" transform="translate(-345.197 -311.796)"/></g><path class="d" d="M312.389,323.187c-.7-1.765-3.411-1.5-3.161,1s2,5.158-.665,9.4,3.41,5.075,5.573,7.736,2.912,6.322,4.742,8.652,3.078,7.9,4.575,5.823.089-4.784.254-8.528,3.5-6.114.166-8.526-6.683-3.152-5.583-8.593C318.776,327.749,314.552,328.677,312.389,323.187Z" transform="translate(-307.9 -310.056)"/><g transform="translate(5.501 19.503)"><path class="e" d="M337.15,371.657c-.018-.111-1.869-11.076-6.011-14.081-4.223-3.064-4.991-5.9-6.466-12.571l.305-.067c1.458,6.593,2.213,9.388,6.345,12.385,4.246,3.08,6.06,13.827,6.135,14.283Z" transform="translate(-324.673 -344.938)"/></g><path class="f" d="M344.756,331.3s1.231-3.043-1.009-7.37-4.053-3.661,1.346-6.989.034-13.812,4.63-15.142,8.59-18.3,12.084-16.139-1.165,10.481,1.331,12.977,2.829,5.672-2.33,8.244,3.661,12.39-3.328,15.385S352.5,337.01,344.756,331.3Z" transform="translate(-330.515 -285.474)"/><g transform="translate(16.257 9.898)"><path class="e" d="M357.585,354.813a15.713,15.713,0,0,1,1.615-8.972c2.419-5.13,3.577-10.738,3.1-15-.26-2.309,1.219-3.212,2.65-4.085,1.408-.86,2.865-1.749,2.784-4.024a50.2,50.2,0,0,1,.834-7.077l.308.056a50.988,50.988,0,0,0-.829,7.01c.086,2.458-1.449,3.4-2.934,4.3-1.409.861-2.739,1.673-2.5,3.784.486,4.319-.683,9.99-3.125,15.169a15.4,15.4,0,0,0-1.591,8.776Z" transform="translate(-357.466 -315.653)"/></g><path class="e" d="M360.834,367.2c1.569-1.458,3.645-1.668,3.213.495s-1.915,2.781-1.174,4.139,1.977,2.718-.123,4.387-3.275,1.853-3.893,5-.494,5.3-3.213,5.437-1.668-3.831-.8-5.623a5.944,5.944,0,0,0,.433-4.729c-.865-2.685-2.533-4.135.988-5.047S359.776,368.187,360.834,367.2Z" transform="translate(-338.811 -339.651)"/><g transform="translate(17.02 29.044)"><path class="d" d="M359.8,394.014c-.009-.386-.2-9.463,1.5-10.99,1.734-1.561,2.067-4.318,2.111-5.823.058-1.961,2.591-3.125,2.7-3.173l.129.285c-.025.011-2.463,1.133-2.515,2.9-.056,1.9-.485,4.49-2.215,6.046-1.592,1.433-1.4,10.658-1.4,10.751Z" transform="translate(-359.792 -374.028)"/></g><path class="g" d="M354.829,423.67l-2.816,10.684h-6.293L342.9,423.67Z" transform="translate(-331.423 -378.344)"/><path class="h" d="M354.829,423.67s-6.2,1.164-6.2,10.684h-2.91L342.9,423.67Z" transform="translate(-331.423 -378.345)"/></g><g transform="translate(40.785 83.994)"><rect class="i" width="8.289" height="0.938" transform="translate(0)"/></g><g transform="translate(25.826 41.181)"><path class="j" d="M-16.665,224.927H-29.894V208.009h.313v16.605h12.916Z" transform="translate(29.894 -208.009)"/></g><g transform="translate(94.738 14.836)"><path class="j" d="M180.528,159.8h-.313V142.352h16.835V127.681h.313v14.984H180.528Z" transform="translate(-180.216 -127.681)"/></g><g transform="translate(131.921 55.901)"><path class="j" d="M311.1,263.371H293.585v-.313h17.2V252.888h.313Z" transform="translate(-293.585 -252.888)"/></g><g transform="translate(15.692 78.223)"><path class="k" d="M-58,323.243s-.375,5.263.653,5.893c.644.395,3.213,1.726,3.136,1.975s-1.45,2.22-1.45,2.22-4.933-3.249-5.093-4.272c-.155-1,.243-7.706.921-8.015.508-.232.776-.04,1.416.435A1.5,1.5,0,0,1-58,323.243Z" transform="translate(60.791 -320.946)"/></g><g transform="translate(15.89 118.682)"><g transform="translate(0 0)"><path class="l" d="M-58.173,444.444s-.153,1.065-.173,1.225-1.707-.094-1.707-.094l-.137-1.268A10,10,0,0,1-58.173,444.444Z" transform="translate(60.189 -444.306)"/></g></g><g transform="translate(15.626 119.837)"><path class="m" d="M-58.867,447.9a4.543,4.543,0,0,0,1.052.921c.517.28,1.33.391,1.636.681.22.209.8,1.108-1.344,1.09s-3.183.127-3.413-.218.333-2.546.333-2.546A4.548,4.548,0,0,0-58.867,447.9Z" transform="translate(60.992 -447.826)"/></g><g transform="translate(24.335 118.682)"><g transform="translate(0 0)"><path class="l" d="M-32.423,444.444s-.154,1.065-.173,1.225-1.706-.094-1.706-.094l-.136-1.268A10,10,0,0,1-32.423,444.444Z" transform="translate(34.439 -444.306)"/></g></g><g transform="translate(24.071 119.837)"><g transform="translate(0)"><path class="m" d="M-33.118,447.9a4.551,4.551,0,0,0,1.052.921c.517.28,2.42.509,2.726.8.221.209.588,1.05-2.434.971-2.147-.056-3.183.127-3.414-.218s.333-2.546.333-2.546A4.128,4.128,0,0,0-33.118,447.9Z" transform="translate(35.244 -447.826)"/></g></g><g transform="translate(15.626 91.457)"><g transform="translate(0 0)"><path class="m" d="M-58.107,361.3a9.839,9.839,0,0,0-1.467,4.8,48.011,48.011,0,0,1-.379,7.088c-.265,2.652-.989,8.171-1.028,9.59s.051,6.756.051,6.756l2.75-.02s.976-10.783,1.45-11.9,2.415-9.221,2.494-10.117S-58.107,361.3-58.107,361.3Z" transform="translate(60.993 -361.297)"/></g></g><g transform="translate(17.713 91.023)"><g transform="translate(0)"><path class="m" d="M-45.484,360.75s.626,6.191.784,7.585.05,7.433.129,8.3-.527,10.084-.676,11.839l-3.023-.019s-.209-7.453-.209-11.074a28.343,28.343,0,0,0-1.994-10.226c-1.065-2.389-3.5-2.446-4.156-6.879C-54.629,360.279-46.37,359.344-45.484,360.75Z" transform="translate(54.629 -359.974)"/></g></g><g transform="translate(19.265 69.682)"><g transform="translate(0 0)"><path class="n" d="M-48.977,295.441s1.889-1.262,3.216.09,1.979,4.53,1.026,5.165-2.569.8-3.336-.06a8.115,8.115,0,0,1-1.787-3.132A2.134,2.134,0,0,1-48.977,295.441Z" transform="translate(49.899 -294.905)"/></g></g><g transform="translate(20.43 74.34)"><g transform="translate(0 0)"><path class="n" d="M-42.989,310.455a6.859,6.859,0,0,0,.122,1.611c.147.283-2.757.291-2.757.291a19.065,19.065,0,0,0-.683-2.84C-46.754,308.215-42.989,310.455-42.989,310.455Z" transform="translate(46.344 -309.109)"/></g></g><g transform="translate(19.01 69.393)"><g transform="translate(0 0)"><path class="o" d="M-49.144,299.356s.271.276,1.037-.036,1.488-1.6,1.793-1.8.262-.391.262-.391l.28.255.358-.061s-.545-.872-.151-1.373-1.227-2.949-3.571-1.454c0,0-1.834,1-1.5,2.1A6.371,6.371,0,0,0-49.144,299.356Z" transform="translate(50.674 -294.024)"/></g></g><g transform="translate(20.819 76.467)"><g transform="translate(0 0)"><path class="p" d="M-41.9,316.389s-.009-.541-.254-.593a17.5,17.5,0,0,0-3.007-.17v.63S-44.581,316.612-41.9,316.389Z" transform="translate(45.161 -315.593)"/></g></g><g transform="translate(22.745 71.803)"><g transform="translate(0)"><path class="n" d="M-38.547,301.679c-.089-.177-.691-.6-.738.016s.592,1.278.831,1.152S-38.322,302.126-38.547,301.679Z" transform="translate(39.288 -301.372)"/></g></g><g transform="translate(18.643 70.542)"><g transform="translate(0 0)"><path class="o" d="M-50.8,297.528s-2.7.724.791,4.079Z" transform="translate(51.793 -297.528)"/></g></g><g transform="translate(38.328 84.34)"><g transform="translate(0)"><path class="n" d="M13.677,340.164l-2.753-.025c.238-.138.622-.387.537-.5-.121-.162-.9.193-1.218.225a4.648,4.648,0,0,0-1.147.127l-.87.371.8.738s1.44.207,1.862.236a7.97,7.97,0,0,0,2.817-.892C13.765,340.22,13.677,340.164,13.677,340.164Z" transform="translate(-8.226 -339.597)"/></g></g><g transform="translate(16.228 77.129)"><g transform="translate(0)"><path class="k" d="M-47.712,318.495c-1.751-.308-3.594-.749-3.594-.749l-3.261-.133a31.711,31.711,0,0,0-4.172,1.192,32.629,32.629,0,0,1-.419,3.357l.977,2.062s.565,4.084.682,5.9c.054.834-1.164,7.819-1.164,7.819a22.525,22.525,0,0,0,3.531.629c2.225.245,7.787-.089,7.822-.352s-1.077-9.788-1.126-10.282c-.075-.757.218-4.256.218-4.256a22.454,22.454,0,0,0,4.028,3.347c.842.478,2.908.186,3.516.124,1.317-.135,4.954-.395,5.025-.524a3.616,3.616,0,0,0-.361-1.454c-.133-.045-4.829-.276-6.007-.215-.478.025-2.037-1.716-2.037-1.716S-46.746,318.929-47.712,318.495Z" transform="translate(59.158 -317.612)"/></g></g><g transform="translate(7.619 64.83)"><path class="q" d="M-85.407,280.111h8.62v7.563l-1.316-1.316h-7.3Z" transform="translate(85.407 -280.111)"/></g><g transform="translate(134.729 32.119)"><g transform="translate(3.327 4.452)"><path class="c" d="M320.665,202.327H312.29v-8.375h8.375Zm-8.1-.279h7.816v-7.817h-7.816Z" transform="translate(-312.29 -193.952)"/><g transform="translate(10.05 1.024)"><path class="c" d="M362.1,199.12H342.932v-2.047H362.1Zm-18.89-.279h18.611v-1.489H343.211Z" transform="translate(-342.932 -197.073)"/></g><g transform="translate(0 10.544)"><path class="c" d="M341.509,228.148H312.29V226.1h29.219Zm-28.94-.279H341.23V226.38H312.569Z" transform="translate(-312.29 -226.101)"/></g><g transform="translate(0 14.476)"><path class="c" d="M330.9,240.135H312.29v-2.047H330.9Zm-18.332-.279h18.052v-1.489H312.569Z" transform="translate(-312.29 -238.088)"/></g><g transform="translate(10.05 4.929)"><path class="c" d="M355.913,211.027H342.932V208.98h12.981Zm-12.7-.279h12.423v-1.489H343.211Z" transform="translate(-342.932 -208.98)"/></g></g><path class="c" d="M338.02,205.8H302.147V180.377H338.02Zm-35.593-.279H337.74V180.656H302.426Z" transform="translate(-302.147 -180.377)"/></g><g transform="translate(119.396 18.049)"><path class="c" d="M258.083,140.162H255.4v-.313h2.371V137.48h.313Z" transform="translate(-255.399 -137.48)"/></g><g transform="translate(101.348 18.049)"><path class="c" d="M203.054,140.162H200.37V137.48h.313v2.369h2.371Z" transform="translate(-200.37 -137.48)"/></g><g transform="translate(101.349 0)"><path class="c" d="M200.687,85.132h-.313V82.448h2.682v.313h-2.369Z" transform="translate(-200.374 -82.448)"/></g><g transform="translate(119.396 0.001)"><path class="c" d="M258.083,85.133h-.313V82.764H255.4v-.313h2.684Z" transform="translate(-255.399 -82.452)"/></g><g transform="translate(121.768 6.691)"><rect class="c" width="0.313" height="7.351" transform="translate(0 0)"/></g><g transform="translate(101.348 6.691)"><rect class="c" width="0.313" height="7.351" transform="translate(0 0)"/></g><g transform="translate(24.834 39.04)"><path class="j" d="M-31.77,203.778a1.15,1.15,0,0,1-1.149-1.149,1.15,1.15,0,0,1,1.149-1.149,1.15,1.15,0,0,1,1.149,1.149A1.15,1.15,0,0,1-31.77,203.778Zm0-1.985a.837.837,0,0,0-.836.836.837.837,0,0,0,.836.836.837.837,0,0,0,.836-.836A.837.837,0,0,0-31.77,201.793Z" transform="translate(32.919 -201.48)"/></g><g transform="translate(110.581 12.694)"><path class="j" d="M229.669,123.451a1.149,1.149,0,1,1,1.149-1.149A1.15,1.15,0,0,1,229.669,123.451Zm0-1.985a.836.836,0,1,0,.836.836A.837.837,0,0,0,229.669,121.466Z" transform="translate(-228.52 -121.153)"/></g><g transform="translate(148.132 53.814)"><path class="j" d="M344.162,248.822a1.149,1.149,0,1,1,1.149-1.149A1.15,1.15,0,0,1,344.162,248.822Zm0-1.985a.836.836,0,1,0,.836.836A.837.837,0,0,0,344.162,246.837Z" transform="translate(-343.013 -246.524)"/></g><g transform="translate(25.716 1.553)"><path class="r" d="M-22.343,95.068h-7.885V87.182h7.885Zm-7.573-.313h7.26v-7.26h-7.26Z" transform="translate(30.228 -87.182)"/></g><g transform="translate(29.503 3.702)"><rect class="r" width="0.313" height="3.676" transform="translate(0 0)"/></g><g transform="translate(27.821 5.383)"><rect class="r" width="3.675" height="0.313"/></g><g transform="translate(142.497 10.904)"><path class="r" d="M337.1,123.741H325.831v-8.047H337.1Zm-10.958-.313H336.79v-7.421H326.144Z" transform="translate(-325.831 -115.694)"/></g><g transform="translate(142.554 10.94)"><path class="r" d="M331.584,120.641l-5.579-4.6.2-.241,5.38,4.433,5.38-4.433.2.241Z" transform="translate(-326.006 -115.803)"/></g><g transform="translate(149.453 14.421)"><rect class="r" width="0.313" height="5.879" transform="translate(0 0.215) rotate(-43.487)"/></g><g transform="translate(142.541 14.42)"><rect class="r" width="5.879" height="0.313" transform="translate(0 4.268) rotate(-46.555)"/></g><g transform="translate(51.415 23.105)"><path class="r" d="M49.99,156.822l-.117-.307a1.648,1.648,0,0,1-.308-.071l-.239.225-.694-.494.134-.3a1.646,1.646,0,0,1-.168-.268l-.328-.01-.141-.841.306-.117a1.652,1.652,0,0,1,.071-.309l-.224-.239.494-.695.3.134a1.666,1.666,0,0,1,.268-.168l.01-.328.841-.141.117.306a1.672,1.672,0,0,1,.308.071l.24-.224.694.494-.134.3a1.684,1.684,0,0,1,.168.269l.328.01.141.841-.306.117a1.713,1.713,0,0,1-.071.309l.225.239-.494.694-.3-.134a1.622,1.622,0,0,1-.268.168l-.01.328Zm-.48-.648.069.026a1.425,1.425,0,0,0,.389.089l.073.006.1.263.462-.078.009-.281.067-.03a1.433,1.433,0,0,0,.337-.212l.056-.047.257.114.272-.381-.193-.205.026-.069a1.426,1.426,0,0,0,.089-.389l.007-.073.262-.1-.078-.462-.281-.009-.03-.067a1.426,1.426,0,0,0-.212-.338l-.047-.056.115-.257-.381-.272-.205.193-.069-.026a1.42,1.42,0,0,0-.388-.089l-.073-.006-.1-.263-.462.078-.009.281-.067.03a1.421,1.421,0,0,0-.338.212l-.056.047-.257-.114-.272.381.193.205-.027.069a1.438,1.438,0,0,0-.089.389l-.007.073-.262.1.078.462.281.009.03.067a1.429,1.429,0,0,0,.212.338l.047.056-.114.257.381.271Zm.58-.39a.926.926,0,1,1,.156-.013A.964.964,0,0,1,50.089,155.784Zm0-1.619a.692.692,0,0,0-.4,1.256h0a.692.692,0,1,0,.4-1.256Z" transform="translate(-48.127 -152.893)"/></g><g transform="translate(42.523 19.206)"><path class="r" d="M25.258,149.815,25,149.131a3.723,3.723,0,0,1-.822-.188l-.534.5-1.45-1.032.3-.668a3.705,3.705,0,0,1-.447-.715l-.732-.023-.3-1.755.684-.262a3.705,3.705,0,0,1,.189-.822l-.5-.534,1.032-1.45.669.3a3.7,3.7,0,0,1,.715-.447l.023-.732,1.754-.3.262.684a3.727,3.727,0,0,1,.822.188l.534-.5,1.45,1.031-.3.668a3.721,3.721,0,0,1,.447.715l.732.023.3,1.755-.684.262a3.726,3.726,0,0,1-.189.822l.5.533-1.032,1.45-.668-.3a3.731,3.731,0,0,1-.715.447l-.023.732ZM24.1,148.581l.092.035a3.4,3.4,0,0,0,.928.213l.1.009.24.627,1.25-.211.021-.671.09-.04a3.4,3.4,0,0,0,.807-.5l.075-.063.612.273.735-1.032-.459-.489.035-.092a3.409,3.409,0,0,0,.213-.928l.008-.1.627-.24-.211-1.25-.671-.021-.04-.09a3.41,3.41,0,0,0-.5-.807l-.063-.075.273-.612-1.032-.735-.489.459-.091-.035a3.432,3.432,0,0,0-.928-.213l-.1-.008-.24-.627-1.249.211-.022.671-.089.04a3.4,3.4,0,0,0-.807.5l-.075.063-.612-.273-.734,1.032.459.489-.035.092a3.407,3.407,0,0,0-.213.927l-.008.1-.626.24.21,1.249.671.021.04.09a3.415,3.415,0,0,0,.505.807l.063.075-.273.612,1.032.735Zm1.313-1.147a2.023,2.023,0,1,1,1.652-.85A2.015,2.015,0,0,1,25.415,147.434Zm.005-3.733a1.709,1.709,0,1,0,.99.316A1.71,1.71,0,0,0,25.42,143.7Z" transform="translate(-21.014 -141.007)"/></g><g transform="translate(0 17.988)"><g transform="translate(0)"><path class="j" d="M-102.8,148.965a5.843,5.843,0,0,1-5.836-5.836h.313a5.53,5.53,0,0,0,5.523,5.523,5.53,5.53,0,0,0,5.523-5.523,5.529,5.529,0,0,0-5.523-5.523v-.313a5.842,5.842,0,0,1,5.836,5.835A5.843,5.843,0,0,1-102.8,148.965Zm0-.811a5.03,5.03,0,0,1-5.024-5.025A5.03,5.03,0,0,1-102.8,138.1a5.03,5.03,0,0,1,5.024,5.024h-.313a4.717,4.717,0,0,0-4.711-4.711,4.717,4.717,0,0,0-4.711,4.711,4.717,4.717,0,0,0,4.711,4.712Z" transform="translate(108.636 -137.293)"/></g></g><g transform="translate(3.016 22.001)"><path class="j" d="M-97.336,153.285l-2.1-2.1.221-.221,1.884,1.884,3.314-3.314.221.221Z" transform="translate(99.441 -149.529)"/></g><path class="s" d="M83.369,373.247H-5.291l-9.7,36.264H93.071Z" transform="translate(45.706 -277.871)"/><path class="e" d="M22.8,392.646h5.447a.328.328,0,0,1,.357.368l-.528,2.369a.353.353,0,0,1-.357.252h-5.54a.326.326,0,0,1-.355-.378l.621-2.369A.355.355,0,0,1,22.8,392.646Z" transform="translate(20.971 -290.907)"/><path class="e" d="M47.756,392.646h4.118l-.548,2.989h-4.2Z" transform="translate(3.958 -290.907)"/><path class="e" d="M66.829,392.646h4.118l-.43,2.989-4.2,0Z" transform="translate(-8.937 -290.907)"/><path class="e" d="M85.9,392.646h4.118l-.313,2.989h-4.2Z" transform="translate(-21.836 -290.907)"/><path class="e" d="M104.979,392.646H109.1l-.2,2.989h-4.2Z" transform="translate(-34.733 -290.907)"/><path class="e" d="M124.053,392.646h4.118l-.078,2.989-4.2,0Z" transform="translate(-47.63 -290.907)"/><path class="e" d="M262.43,392.646h-6.177l.666,2.989h6.294Z" transform="translate(-136.576 -290.907)"/><path class="e" d="M241.537,392.646h-4.118l.548,2.989h4.2Z" transform="translate(-123.92 -290.907)"/><path class="e" d="M222.7,392.646h-4.118l.43,2.989,4.2,0Z" transform="translate(-111.263 -290.907)"/><path class="e" d="M203.869,392.646h-4.118l.313,2.989h4.2Z" transform="translate(-98.606 -290.907)"/><path class="e" d="M185.035,392.646h-4.118l.2,2.989h4.2Z" transform="translate(-85.949 -290.907)"/><path class="e" d="M166.2,392.646h-4.118l.079,2.989,4.2,0Z" transform="translate(-73.292 -290.907)"/><path class="e" d="M143.208,392.646h4.118l.068,2.989h-4.186Z" transform="translate(-60.608 -290.907)"/><path class="e" d="M17.952,408.551h8.605l-.49,3.084H17.3Z" transform="translate(24.005 -301.595)"/><path class="e" d="M257.388,408.551H246.751l.606,3.084H258.2Z" transform="translate(-130.191 -301.595)"/><path class="e" d="M231.547,408.551h-4.254l.485,3.084h4.335Z" transform="translate(-117.115 -301.595)"/><path class="e" d="M212.089,408.551h-4.255l.364,3.084h4.336Z" transform="translate(-104.038 -301.595)"/><path class="e" d="M192.631,408.551h-4.255l.242,3.084h4.336Z" transform="translate(-90.962 -301.595)"/><path class="e" d="M173.172,408.551h-4.255l.121,3.084h4.335Z" transform="translate(-77.885 -301.595)"/><path class="e" d="M13.727,425.311h8.8l-.642,3.063H12.925Z" transform="translate(26.945 -312.858)"/><path class="e" d="M47.667,425.311h4.4l-.521,3.063H47.065Z" transform="translate(4.002 -312.858)"/><path class="e" d="M68.031,425.311h32.988l.123,3.063H67.55Z" transform="translate(-9.764 -312.858)"/><path class="e" d="M176.309,425.311h4.4l.241,3.063h-4.479Z" transform="translate(-82.853 -312.858)"/><path class="e" d="M196.427,425.311h4.4l.361,3.063h-4.479Z" transform="translate(-96.372 -312.858)"/><path class="e" d="M216.544,425.311h4.4l.482,3.063h-4.479Z" transform="translate(-109.891 -312.858)"/><path class="e" d="M236.661,425.311h4.4l.6,3.063h-4.479Z" transform="translate(-123.41 -312.858)"/><path class="e" d="M256.778,425.311h8.8l.8,3.063H257.42Z" transform="translate(-136.929 -312.858)"/><path class="e" d="M153.811,408.551h-4.22v3.084h4.3Z" transform="translate(-64.897 -301.595)"/><path class="e" d="M134.033,408.551h-4.255l-.121,3.084h4.335Z" transform="translate(-51.502 -301.595)"/><path class="e" d="M114.327,408.551h-4.254l-.242,3.084h4.336Z" transform="translate(-38.177 -301.595)"/><path class="e" d="M94.619,408.551H90.365L90,411.635h4.336Z" transform="translate(-24.852 -301.595)"/><path class="e" d="M74.912,408.551H70.658l-.485,3.084h4.336Z" transform="translate(-11.527 -301.595)"/><path class="e" d="M55.206,408.551H50.951l-.606,3.084h4.335Z" transform="translate(1.797 -301.595)"/><path class="e" d="M25.429,381.449l.7-2.669h2l-.652,2.669Z" transform="translate(18.542 -281.589)"/><path class="e" d="M38.463,378.78h4l-.559,2.669H37.834Z" transform="translate(10.205 -281.589)"/><path class="e" d="M56.967,378.78h4l-.454,2.669H56.442Z" transform="translate(-2.3 -281.589)"/><path class="e" d="M75.471,378.78h4l-.349,2.669H75.052Z" transform="translate(-14.806 -281.589)"/><path class="e" d="M93.974,378.78h4l-.245,2.669H93.66Z" transform="translate(-27.311 -281.589)"/><path class="e" d="M112.478,378.78h4l-.14,2.669h-4.069Z" transform="translate(-39.816 -281.589)"/><path class="e" d="M130.982,378.78h4l-.035,2.669h-4.069Z" transform="translate(-52.322 -281.589)"/><path class="e" d="M149.485,378.78h4l.07,2.669h-4.069Z" transform="translate(-64.826 -281.589)"/><path class="e" d="M167.774,378.78h4l.175,2.669h-4.069Z" transform="translate(-77.117 -281.589)"/><path class="e" d="M186.063,378.78h4l.28,2.669h-4.069Z" transform="translate(-89.408 -281.589)"/><path class="e" d="M204.352,378.78h4l.384,2.669h-4.069Z" transform="translate(-101.698 -281.589)"/><path class="e" d="M222.641,378.78h4l.489,2.669h-4.069Z" transform="translate(-113.989 -281.589)"/><path class="e" d="M240.93,378.78h4l.594,2.669h-4.069Z" transform="translate(-126.279 -281.589)"/><path class="e" d="M259.22,378.78h4l.7,2.669h-4.069Z" transform="translate(-138.57 -281.589)"/><path class="t" d="M90.248,486.638H-12.17a2.823,2.823,0,0,1-2.823-2.824H93.072A2.824,2.824,0,0,1,90.248,486.638Z" transform="translate(45.706 -352.174)"/><path class="u" d="M133.653,445.819a1.323,1.323,0,0,0-1.305-1.107H109.833a1.322,1.322,0,0,0-1.3,1.107l-1.407,8.512a1.322,1.322,0,0,0,1.3,1.538h25.329a1.323,1.323,0,0,0,1.305-1.538Z" transform="translate(-36.345 -325.897)"/><g transform="translate(49.074 46.67)"><rect class="v" width="9.165" height="0.938"/><g transform="translate(11.73 7.066)"><rect class="v" width="6.617" height="0.938"/></g><g transform="translate(19.377 7.066)"><rect class="i" width="4.391" height="0.938"/></g><g transform="translate(0.104 24.835)"><rect class="i" width="4.391" height="0.938"/></g><g transform="translate(24.636 7.066)"><rect class="v" width="10.602" height="0.938"/></g><g transform="translate(0.104 21.276)"><rect class="v" width="6.812" height="0.938"/></g><g transform="translate(9.6 28.368)"><rect class="v" width="4.159" height="0.938"/></g><g transform="translate(0.104 28.368)"><rect class="i" width="8.24" height="0.938"/></g><g transform="translate(0.104 31.901)"><rect class="v" width="4.545" height="0.938"/></g><g transform="translate(10.948)"><rect class="j" width="6.506" height="0.938"/></g><g transform="translate(10.948 10.599)"><rect class="i" width="6.506" height="0.938"/></g><g transform="translate(7.695 14.132)"><rect class="v" width="2.78" height="0.938"/></g><g transform="translate(4.915 17.717)"><rect class="j" width="6.244" height="0.938"/></g><g transform="translate(12.103 17.717)"><rect class="i" width="8.62" height="0.938"/></g><g transform="translate(0.104 14.158)"><rect class="i" width="6.506" height="0.938"/></g><g transform="translate(0.104 17.717)"><rect class="i" width="3.86" height="0.938"/></g><g transform="translate(11.785 14.158)"><rect class="w" width="3.642" height="0.938"/></g><g transform="translate(0.213 35.434)"><rect class="w" width="3.642" height="0.938"/></g><g transform="translate(0.078 7.066)"><rect class="j" width="6.506" height="0.938"/></g><g transform="translate(5.832 24.835)"><rect class="j" width="6.506" height="0.938"/></g><g transform="translate(5.912 31.901)"><rect class="j" width="6.506" height="0.938"/></g><g transform="translate(17.469 31.901)"><rect class="j" width="6.506" height="0.938"/></g><g transform="translate(0.078 10.599)"><rect class="j" width="9.274" height="0.938"/></g><g transform="translate(43.538)"><rect class="j" width="6.506" height="0.938"/></g><g transform="translate(20.361 35.434)"><rect class="j" width="6.506" height="0.938"/></g><g transform="translate(52.068)"><rect class="j" width="4.355" height="0.938"/></g><g transform="translate(66.803 3.533)"><rect class="j" width="4.355" height="0.938" transform="translate(0)"/></g><g transform="translate(19.205)"><rect class="i" width="8.289" height="0.938"/></g><g transform="translate(51.502 3.533)"><rect class="i" width="8.289" height="0.938"/></g><g transform="translate(41.336 7.066)"><rect class="i" width="8.289" height="0.938"/></g><g transform="translate(30.544 10.599)"><rect class="i" width="8.289" height="0.938"/></g><g transform="translate(50.668 7.066)"><rect class="j" width="5.892" height="0.938"/></g><g transform="translate(33.625)"><rect class="w" width="8.289" height="0.938"/></g><g transform="translate(24.167 10.599)"><rect class="w" width="4.86" height="0.938"/></g><g transform="translate(20.361 24.887)"><rect class="w" width="4.86" height="0.938"/></g><g transform="translate(29.027)"><rect class="v" width="3.034" height="0.938"/></g><g transform="translate(19.205 10.599)"><rect class="v" width="3.034" height="0.938"/></g><g transform="translate(61.79 3.533)"><rect class="v" width="3.034" height="0.938"/></g><g transform="translate(0 3.533)"><rect class="i" width="4.747" height="0.938"/></g><g transform="translate(12.665 21.302)"><rect class="i" width="3.747" height="0.938"/></g><g transform="translate(5.912 3.533)"><rect class="i" width="1.532" height="0.938"/></g><g transform="translate(37.376 3.533)"><rect class="v" width="12.668" height="0.938"/></g><g transform="translate(25.221 31.901)"><rect class="v" width="12.668" height="0.938"/></g><g transform="translate(8.571 3.533)"><rect class="w" width="1.564" height="0.938"/></g><g transform="translate(32.061 3.533)"><rect class="i" width="4.144" height="0.938"/></g><g transform="translate(36.206 7.066)"><rect class="w" width="4.145" height="0.938"/></g><g transform="translate(14.894 35.434)"><rect class="w" width="4.145" height="0.938"/></g><g transform="translate(22.146 3.533)"><rect class="i" width="8.818" height="0.938"/></g><g transform="translate(13.938 24.887)"><rect class="i" width="5.152" height="0.938"/></g><g transform="translate(13.606 31.901)"><rect class="i" width="2.576" height="0.938"/></g><g transform="translate(17.86 3.533)"><rect class="j" width="3.034" height="0.938"/></g><g transform="translate(7.648 7.066)"><rect class="w" width="3.034" height="0.938"/></g><g transform="translate(8.253 21.302)"><rect class="w" width="3.034" height="0.938"/></g><g transform="translate(11.417 3.533)"><rect class="i" width="5.286" height="0.938"/></g></g><g class="x" transform="translate(98.243 58.443)"><path class="e" d="M4.015,0H36.954a4.015,4.015,0,0,1,4.015,4.015v21.18a4.014,4.014,0,0,1-4.014,4.014H4.015A4.015,4.015,0,0,1,0,25.194V4.015A4.015,4.015,0,0,1,4.015,0Z"/></g><g transform="translate(127.681 73.476)"><g transform="translate(0 0)"><path class="y" d="M1.014,0H6.6A1.014,1.014,0,0,1,7.611,1.014v0A1.015,1.015,0,0,1,6.6,2.029H1.015A1.015,1.015,0,0,1,0,1.014v0A1.014,1.014,0,0,1,1.014,0Z"/></g></g><g transform="translate(127.681 77.276)"><path class="y" d="M1.014,0H6.6A1.015,1.015,0,0,1,7.611,1.015v0A1.014,1.014,0,0,1,6.6,2.029H1.015A1.015,1.015,0,0,1,0,1.014v0A1.014,1.014,0,0,1,1.014,0Z"/></g><g transform="translate(127.681 81.076)"><g transform="translate(0 0)"><path class="y" d="M1.014,0H6.6A1.015,1.015,0,0,1,7.611,1.015v0A1.015,1.015,0,0,1,6.6,2.03H1.015A1.015,1.015,0,0,1,0,1.015v0A1.014,1.014,0,0,1,1.014,0Z"/></g></g><g transform="translate(102.043 61.446)"><path class="y" d="M224.447,277.3a11.308,11.308,0,1,0-21.295,7.616q.128.359.278.7a11.308,11.308,0,0,0,21.017-8.321Zm-7.792,11.791a8.469,8.469,0,0,1-10.629-4.6c-.075-.173-.145-.349-.209-.529a8.478,8.478,0,1,1,10.838,5.128Z" transform="translate(-202.488 -269.793)"/><g transform="translate(0.516 0.005)"><path class="z" d="M206.764,278.588l-2.7-.844a11.323,11.323,0,0,1,10.457-7.936l.085,2.829a8.489,8.489,0,0,0-7.839,5.95Z" transform="translate(-204.062 -269.809)"/></g><g transform="translate(0 7.941)"><path class="aa" d="M206.025,300.758l-2.6,1.13q-.15-.345-.278-.7A11.258,11.258,0,0,1,203,294l2.7.844a8.439,8.439,0,0,0,.11,5.382C205.881,300.408,205.951,300.585,206.025,300.758Z" transform="translate(-202.488 -294.004)"/></g><g transform="translate(0.942 14.694)"><path class="ab" d="M207.113,318.54a11.255,11.255,0,0,1-1.753-2.815l2.6-1.13a8.425,8.425,0,0,0,1.314,2.111Z" transform="translate(-205.36 -314.596)"/></g></g><g transform="translate(106.028 68.622)"><g transform="translate(10.93 5.447)"><path class="n" d="M248.136,313.676s-.548-.958.321-3.527a2.589,2.589,0,0,1,4.672-.668c.924,1.592.612,2.581-.748,4.378S248.7,314.5,248.136,313.676Z" transform="translate(-247.966 -308.281)"/></g><g transform="translate(17.855 54.905)"><path class="n" d="M269.081,459.213s.144,1.055.162,1.214,1.6-.094,1.6-.094l.128-1.256A8.906,8.906,0,0,0,269.081,459.213Z" transform="translate(-269.081 -459.077)"/></g><g transform="translate(15.254 56.05)"><path class="ac" d="M263.894,462.638a4.354,4.354,0,0,1-.987.912c-.485.277-1.247.387-1.534.674-.207.207-.754,1.1,1.26,1.08s2.986.126,3.2-.215a8.386,8.386,0,0,0-.312-2.523A5.55,5.55,0,0,1,263.894,462.638Z" transform="translate(-261.148 -462.566)"/></g><g transform="translate(6.895 54.905)"><path class="n" d="M235.663,459.213s.144,1.055.162,1.214,1.6-.094,1.6-.094l.128-1.256A8.908,8.908,0,0,0,235.663,459.213Z" transform="translate(-235.663 -459.077)"/></g><g transform="translate(3.363 56.05)"><path class="ac" d="M228.571,462.638a4.349,4.349,0,0,1-.987.912c-.485.277-2.27.5-2.557.792-.207.207-.552,1.041,2.283.963,2.014-.055,2.986.126,3.2-.215a8.385,8.385,0,0,0-.312-2.523A8.378,8.378,0,0,1,228.571,462.638Z" transform="translate(-224.893 -462.566)"/></g><g transform="translate(13.103 28.771)"><path class="ad" d="M258.81,379.395a15.655,15.655,0,0,1,.7,4.7,50.263,50.263,0,0,0,.635,6.823c.24,2.531,1.222,8.523,1.257,9.877s-.152,5.677-.152,5.677l-1.966.047s-1.651-10.476-2.078-11.545-2.548-8.69-2.619-9.545S258.81,379.395,258.81,379.395Z" transform="translate(-254.59 -379.395)"/></g><g transform="translate(6.672 27.973)"><path class="ad" d="M237.483,377.5s-1.193,6.668-1.336,8-.238,6.438-.309,7.269-.475,10.879-.855,12.115h2.192s2.25-7.3,2.25-10.761,1.49-7.514,2.452-9.794,3.164-2.334,3.756-6.565C245.633,377.76,238.284,376.156,237.483,377.5Z" transform="translate(-234.983 -376.962)"/></g><g transform="translate(11.883 10.733)"><path class="n" d="M250.883,325.185a1.907,1.907,0,0,1,0,1.234c-.247.513,3.159.205,3.159.205a3.663,3.663,0,0,1,.291-1.935C254.777,323.816,250.883,325.185,250.883,325.185Z" transform="translate(-250.87 -324.398)"/></g><g transform="translate(9.062 28.508)"><path class="ae" d="M250.689,379.406s-1.225,1.258-8.418-.2l.11-.616,8.177.308Z" transform="translate(-242.271 -378.594)"/></g><g transform="translate(1.352 4.16)"><path class="n" d="M228.79,313.117s-1.258.128-1.618.2-2.779-.433-3.275-.484a10.151,10.151,0,0,1-2.682-1.672,35.327,35.327,0,0,1-1.356-3.926c-.069-.668-1.188-.323-1.092.137.179.861.41,2.949.537,3.555a9.455,9.455,0,0,0,.707,2.316,14.759,14.759,0,0,0,3.977,2.248,15.856,15.856,0,0,1,3.27,1.523h9.195s3.576-5.112,3.653-5.882-2.5-5.89-3.012-6.532-1.256.21-1.256.21,1.539,4.515,1.744,5.156-1.789,3.462-2.338,3.471-1.954-.171-2.579-.2a4.383,4.383,0,0,1-1.284-.3Z" transform="translate(-218.762 -304.358)"/></g><g transform="translate(5.466 11.306)"><path class="af" d="M233.257,331.174a2.971,2.971,0,0,1,1.229,2.032,26.577,26.577,0,0,0,.719,4.005,45.821,45.821,0,0,1-.231,6.085c-.051.359,7.115,1.214,8.216.359,0,0,.308-4.7.437-6.034a35.1,35.1,0,0,1,.95-5.007c.205-.437,2.7-3.93,2.8-4.39,0,0-1.289-2.054-2.213-2.079,0,0-1.468,1.72-1.947,1.8a27,27,0,0,1-3.413-.465s-.32.436-2.022-.077c0,0-2.028.229-2.357.271-.4.051-3.175-.348-3.175-.348s-1.114,1.881-.919,2.83Z" transform="translate(-231.306 -326.146)"/></g><g transform="translate(0 2.341)"><path class="n" d="M217.154,303.905s-.251-1.19.052-1.532c.172-.195.586-.709.624-.785s.482-.331.482-.454-.435-.274-.813.076-.615.426-.766.388a4.692,4.692,0,0,1-.388-1.608c-.019-.312-.139-1.135-.335-1.078s-.185.416-.185.416-.227-.625-.378-.5-.133.426-.133.426-.284-.35-.359-.095a.885.885,0,0,0,0,.482s-.293-.161-.312.236a6.046,6.046,0,0,0,.293,1.977,15.545,15.545,0,0,1,1.08,1.93C216.108,304.208,217.154,303.905,217.154,303.905Z" transform="translate(-214.64 -298.811)"/></g><g transform="translate(15.662)"><path class="n" d="M265.412,297.019a7.841,7.841,0,0,0-1.147-1.567,4.9,4.9,0,0,1-1.061-.458c-.359-.256-.834-.471-.809-.556s.449-.052.9.146.652.1.7,0a2.644,2.644,0,0,0-.378-1c-.137-.171-1.113-1.153-.95-1.3s.8.394.9.5c0,0-.505-1.061-.308-1.112s.565.325.565.325-.043-.907.933.565c0,0-.206-.488.094-.325s.591,1.078.685,1.541a6.961,6.961,0,0,0,.885,2.289C266.781,296.428,265.412,297.019,265.412,297.019Z" transform="translate(-262.394 -291.673)"/></g><g transform="translate(11.398 5.229)"><path class="ag" d="M253.339,313.411a3.885,3.885,0,0,1-1.409-.291c-.959-.331-1.03-2.007-1.237-1.809a.606.606,0,0,1-.982-.114s.468-.616.251-.913a2.3,2.3,0,0,0-.57-.513s.674-3.25,3.743-1.769C256.728,309.737,253.339,313.411,253.339,313.411Z" transform="translate(-249.391 -307.615)"/></g><g transform="translate(11.895 12.279)"><path class="ah" d="M250.909,329.586l.108-.47a24.933,24.933,0,0,1,3.027.115l.112.561A4.207,4.207,0,0,1,250.909,329.586Z" transform="translate(-250.909 -329.111)"/></g><g transform="translate(12.104 8.258)"><path class="n" d="M251.819,317.108c.178-.3.835-.495.913.342.06.649-1.175,1.358-1.187.753A1.825,1.825,0,0,1,251.819,317.108Z" transform="translate(-251.544 -316.853)"/></g><g transform="translate(1.415 7.166)"><path class="ai" d="M220.007,313.521a1.947,1.947,0,0,0-1.049.327.7.7,0,0,0,.057.351,4.36,4.36,0,0,1,1.082-.339S220.089,313.6,220.007,313.521Z" transform="translate(-218.955 -313.521)"/></g><g transform="translate(1.61 7.155)"><path class="ag" d="M219.574,313.676a.3.3,0,1,0,.4-.162A.3.3,0,0,0,219.574,313.676Z" transform="translate(-219.55 -313.49)"/></g></g><g transform="translate(88.635 50.011)"><g transform="translate(0 0)"><path class="aj" d="M163.282,235.773a10.822,10.822,0,0,0,1.436,1.992c.579.38.216.764-.059.764s-1.679.1-1.988-.25-.462-1.4-.75-1.678-.584-1.369.14-1.635C162.7,234.73,163.282,235.773,163.282,235.773Z" transform="translate(-161.609 -234.931)"/></g></g><g transform="translate(89.038 50.046)"><g transform="translate(0 0)"><path class="ak" d="M163.671,235.091s1.156,2,1.356,2.3-.376.3-.732.155a6.975,6.975,0,0,1-1.38-1.841.966.966,0,0,1-.028-.67Z" transform="translate(-162.839 -235.036)"/></g></g><g transform="translate(88.699 51.179)"><g transform="translate(0 0)"><path class="aj" d="M161.8,238.492l.267,2.055.142.006-.044-1.479Z" transform="translate(-161.804 -238.492)"/></g></g><g transform="translate(78.617 50.018)"><g transform="translate(0 0)"><path class="aj" d="M132.74,235.786a10.838,10.838,0,0,0,1.436,1.992c.579.38.216.764-.058.764s-1.679.1-1.988-.25-.463-1.4-.75-1.678-.594-1.4.14-1.635C132.164,234.77,132.74,235.786,132.74,235.786Z" transform="translate(-131.063 -234.95)"/></g></g><g transform="translate(79.024 50.046)"><g transform="translate(0 0)"><path class="ak" d="M133.2,235.1s1.1,2,1.3,2.3-.376.3-.731.155a6.969,6.969,0,0,1-1.38-1.841.966.966,0,0,1-.028-.67Z" transform="translate(-132.305 -235.036)"/></g></g><g transform="translate(78.684 51.179)"><g transform="translate(0 0)"><path class="aj" d="M131.268,238.492l.267,2.055.142.006-.044-1.479Z" transform="translate(-131.268 -238.492)"/></g></g><g transform="translate(75.812 33.847)"><path class="ak" d="M122.513,187.074l9.139,4.164a1.758,1.758,0,0,1,1.134,1.464c.357,3.535,3,9.144,3,9.144.849.415.784.055.784.055-.535-1.717-1.186-8.791-1.418-11.635-.05-.6-.08-1.015-.087-1.147,0-.09-.1-.207-.272-.344-1.254-1.017-6.414-3.122-6.414-3.122A9.743,9.743,0,0,0,122.513,187.074Z" transform="translate(-122.513 -185.648)"/></g><g transform="translate(74.053 33.219)"><path class="ak" d="M117.187,187.574c.283,2.47,3.809,2.188,3.809,2.188h4.274a26.673,26.673,0,0,0-1.556,4.6c-.46,2.236-1.544,6.192-1.544,6.192s.071.134.844.059c0,0,3.355-6.686,4.639-8.367a11.346,11.346,0,0,0,1.2-3.5c.046-.394.017-.7-.13-.822a10.712,10.712,0,0,0-.944-.645,21.379,21.379,0,0,0-4.959-2.435c-1.735-.39-4.478-1.121-4.478-1.121A4.723,4.723,0,0,0,117.187,187.574Z" transform="translate(-117.15 -183.732)"/></g><g transform="translate(76.585 13.388)"><path class="al" d="M125.282,127.915a3.981,3.981,0,0,1-.328-2.508,2.507,2.507,0,0,1,3.269-1.99c1.757.592,3.177,1.957,2.124,3.535s.953,2.291.442,3.042a1.457,1.457,0,0,0-.1,1.71,1.994,1.994,0,0,1,.838,1.535c-.077.737-3.409-2.149-3.409-2.149S126.3,127.443,125.282,127.915Z" transform="translate(-124.869 -123.269)"/></g><g transform="translate(75.264 32.962)"><path class="am" d="M127.931,183.541s-.265,1.286-7.09-.337C120.841,183.2,123.129,182.444,127.931,183.541Z" transform="translate(-120.841 -182.948)"/></g><g transform="translate(73.799 21.281)"><path class="an" d="M117.761,159.63l-.317.606,7.485.218a14.449,14.449,0,0,1-.2-4.47c.085-1.659,1-2.813.9-4.491.494.08.579.1,1.073.171-.756-2.154-1.015-3.221-3.363-4.051a4.393,4.393,0,0,0-2.095-.255c-2.72.224-3.541.256-4.876,2.721,2.091.333,1.747,1.084,2.381,3.164a7.453,7.453,0,0,1,.466,3.217C119.058,157.514,117.761,158.669,117.761,159.63Z" transform="translate(-116.374 -147.332)"/></g><g transform="translate(78.63 19.13)"><g transform="translate(0 0)"><path class="n" d="M132,143.73c-1.113-.211-.876-.829-.876-.829s.051-.35.072-.791c0-.113.008-.233.007-.353a4.7,4.7,0,0,0-.031-.547c-.091-.747,2.02-.3,2.02-.3a5.036,5.036,0,0,0,.17,1.965C133.653,143.326,133.113,143.941,132,143.73Z" transform="translate(-131.103 -140.776)"/></g></g><g transform="translate(77.403 21.049)"><g transform="translate(0 0)"><path class="n" d="M127.364,146.827a35.2,35.2,0,0,0,3.075,3.194s.953-.862.366-3.137A5.712,5.712,0,0,0,127.364,146.827Z" transform="translate(-127.364 -146.625)"/></g></g><g transform="translate(76.943 14.593)"><path class="n" d="M126.483,127.36a5.046,5.046,0,0,0-.01,4.375c1.157,2.128,3.429-.927,3.576-1.285s.926-2.386-.623-3S126.813,126.75,126.483,127.36Z" transform="translate(-125.961 -126.942)"/></g><g transform="translate(76.899 14.128)"><path class="al" d="M126.78,127.2a5.058,5.058,0,0,0-.9,1.833,4.176,4.176,0,0,1,.584-2.888c.9-1.415,3.2-.067,3.509.5s1.21,1.063-.305,3.493C129.67,130.141,126.945,128.248,126.78,127.2Z" transform="translate(-125.828 -125.524)"/></g><g transform="translate(78.723 19.611)"><path class="ao" d="M132.379,142.24a2.179,2.179,0,0,1-.993.854c0-.113.008-.233.007-.353A1.892,1.892,0,0,0,132.379,142.24Z" transform="translate(-131.386 -142.24)"/></g><g transform="translate(65.617 31.478)"><path class="n" d="M93.74,178.5s-.554.247-.817.135a2.453,2.453,0,0,0-.8-.134c-.171,0-.708-.192-.7.018s.871.356,1.048.421-.528.453-.593.625.73,1.3,1.178.98.691-.965.783-1.006a3.252,3.252,0,0,0,.337-.221Z" transform="translate(-91.427 -178.423)"/></g><g transform="translate(64.833 32.522)"><path class="n" d="M90.36,181.608a11.606,11.606,0,0,0-1.32,1.223c-.021.146.048.214.174.118s1.289-1,1.289-1-1.3,1.539-1.347,1.653c-.026.067.1.206.172.161s1.458-1.493,1.458-1.493-1.214,1.439-1.22,1.546a.141.141,0,0,0,.238.1c.1-.1,1.305-1.37,1.305-1.37a7.17,7.17,0,0,0-.762,1.2c.031.059.133.184.333-.108s.749-.928.749-.928Z" transform="translate(-89.036 -181.608)"/></g><g transform="translate(74.054 33.219)"><path class="k" d="M124.824,189.762H121s-3.526.283-3.809-2.187a4.721,4.721,0,0,1,1.159-3.842s1.863.5,3.489.889a12.615,12.615,0,0,1,2.942-.256s6.894,2.278,6.687,3.478C131.464,187.843,128.58,186.3,124.824,189.762Z" transform="translate(-117.151 -183.733)"/></g><g transform="translate(79.236 34.864)"><path class="ap" d="M132.95,188.854l7.3-.107-3.685,1.871Z" transform="translate(-132.95 -188.747)"/></g><g transform="translate(77.754 33.348)"><path class="an" d="M132.181,184.816a6.241,6.241,0,0,1-3.654.061l-.094-.751,4.144.23Z" transform="translate(-128.433 -184.126)"/></g><g transform="translate(79.236 34.971)"><path class="aq" d="M136.563,190.838l-3.613-1.4v-.364l3.9,1.406Z" transform="translate(-132.95 -189.074)"/></g><g transform="translate(67.293 21.09)"><g transform="translate(13.551 0.218)"><path class="ar" d="M138.488,160.493a.361.361,0,0,0,.5.358l.423-.181a.3.3,0,0,0,.179-.326c-.176-1.1-.555-5.4,0-6.138a2.678,2.678,0,0,0,.4-.72c.365.942.82,2.154,1,2.807l3.448,4.587,1.156.293a39.143,39.143,0,0,0-2.6-5.318c-.226-.606-.873-2.441-1.446-4.074-.362-1.031-.694-1.982-.872-2.494a1.17,1.17,0,0,0-.5-.618c-.534-.319-1.424-.822-2.231-1.214l-.01,0-.077-.037h0c1.534,2.321.936,8.877.633,13.07Z" transform="translate(-137.856 -147.414)"/></g><g transform="translate(0 0)"><path class="ar" d="M105.027,147.166a5.718,5.718,0,0,0-2.358,2.453,18.081,18.081,0,0,1-2.054,3.425c-1.036.939-3.937,4.257-4.074,4.177a8.954,8.954,0,0,0,.9,1.038c.054.024,4.767-4.06,5.22-4.683.429-.59,1.577-3.066,1.92-3.011v0h0a18.452,18.452,0,0,1,.839,2.285l.019.066a7.344,7.344,0,0,1,.1,3.051,10.388,10.388,0,0,1-1.129,2.916.46.46,0,0,0,.015.354h0a.253.253,0,0,0,.126.146l1.384.513.325.12a.709.709,0,0,0,.949-.573,42.04,42.04,0,0,1,1.007-5.7,8.629,8.629,0,0,0-.532-7A25.675,25.675,0,0,0,105.027,147.166Z" transform="translate(-96.539 -146.75)"/></g></g><g transform="translate(82.848 30.808)"><path class="as" d="M143.966,182.308l2.171-5.927,7,.114-2.069,5.462Z" transform="translate(-143.966 -176.381)"/></g><g transform="translate(87.132 32.878)"><path class="at" d="M157.153,183.243c-.213.427-.149.892.144,1.038s.7-.081.917-.507.149-.892-.144-1.039S157.367,182.816,157.153,183.243Z" transform="translate(-157.028 -182.691)"/></g><g transform="translate(79.445 17.201)"><path class="al" d="M134.025,134.941a1.258,1.258,0,0,1,.034,1.3c-.414.6.1,1.193.194,1.829s-1.728,2.33.294,3.181,2.666-.556,2.15-1.331a4.377,4.377,0,0,1-.926-2.509C135.728,136.307,135.364,134.585,134.025,134.941Z" transform="translate(-133.588 -134.894)"/></g><g transform="translate(65.232 8.88)"><path class="j" d="M90.254,109.522h8.62v7.564l-1.316-1.316h-7.3Z" transform="translate(-90.254 -109.522)"/></g></svg>