<svg xmlns="http://www.w3.org/2000/svg" width="350.953" height="310.315" viewBox="0 0 373.953 347.315"><defs><style>.a{opacity:0.41;}.b,.d{fill:#e1e2fe;}.c{opacity:0.31;}.d,.e{opacity:0.47;}.e,.f{fill:rgba(19,106,205,0.43);}.f{opacity:0.81;}.g,.p{fill:#3e479b;}.g,.h{opacity:0.58;}.h{fill:#ef929c;}.i,.w{opacity:0.61;}.j,.k,.m,.n,.o{fill:#fff;}.k{opacity:0.66;}.l{opacity:0.5;}.m{opacity:0.43;}.n{opacity:0.27;}.o{opacity:0.67;}.q{fill:#ef92c7;}.aa,.q{opacity:0.32;}.r{fill:#f9d9eb;}.aa,.s{fill:#f7a9b4;}.t{fill:#6363ce;}.u{fill:#1769c5;}.v{fill:#599af2;}.w{fill:#ecf1f7;}.x{fill:#c5d9ff;}.y{fill:#f28393;}.z{fill:#ff5d00;opacity:0.49;}.ab{fill:#f48b7b;}.ac{fill:#85bfff;}.ad{fill:#f9e4cf;}</style></defs><g transform="translate(0 0)"><g transform="translate(0 0)"><g transform="translate(0 7.151)"><g class="a" transform="translate(6.404 8.152)"><path class="b" d="M45,257.214a105.7,105.7,0,0,1,.485-18.021c3.182-28.083,17.589-54.565,38.794-73.249,7.566-6.666,16.173-12.638,21.1-21.437,8.291-14.818,7.663-31.848,17.954-46.48a87.041,87.041,0,0,1,42.246-31.938C216.057,48.6,286.732,77.079,280.369,137.9c-.023.218-.048.536-.075.937a22.14,22.14,0,0,0,21.69,23.555c46.575,1.1,86.667,37.015,95.246,82.5,5.516,29.253-3.517,61.317-24.916,82.011-15.973,15.447-37.4,23.934-58.846,29.765-42.992,11.692-88.233,14.143-132.56,9.672-41.494-4.185-85.263-16.114-112.1-48.038C54.493,301.274,46.292,279.436,45,257.214Z" transform="translate(-44.821 -61)"/></g><g class="c" transform="translate(0 21.055)"><circle class="b" cx="16.081" cy="16.081" r="16.081" transform="matrix(-0.75, -0.661, 0.661, -0.75, 24.125, 45.395)"/></g><g class="c" transform="translate(31.51 3.635)"><ellipse class="b" cx="5.591" cy="5.591" rx="5.591" ry="5.591" transform="translate(0)"/></g><g class="c" transform="translate(260.283 11.733)"><ellipse class="b" cx="7.492" cy="7.492" rx="7.492" ry="7.492" transform="translate(9.948 21.153) rotate(-131.596)"/></g><g class="c" transform="translate(293.697)"><ellipse class="b" cx="2.374" cy="2.374" rx="2.374" ry="2.374" transform="translate(0)"/></g><g class="c" transform="translate(19.594 318.974)"><circle class="b" cx="7.492" cy="7.492" r="7.492" transform="translate(10.595 21.191) rotate(-135)"/></g><g class="c" transform="translate(315.396 283.626)"><ellipse class="b" cx="20.409" cy="20.409" rx="20.409" ry="20.409" transform="translate(9.48 49.182) rotate(-103.429)"/></g></g><g transform="translate(6.036 19.384)"><g transform="translate(293.729)"><path class="d" d="M83.686,68.818a16.659,16.659,0,0,1,23.106,4.592c5.112,7.648,6.609,23.308-1.039,28.42s-16.07-6.595-24.242-10.821C70.114,85.112,76.037,73.931,83.686,68.818Z" transform="translate(-75.15 -66.007)"/></g><g transform="translate(0 22.819)"><path class="e" d="M34.83,315.854c-5.1-8.114-6.381-18.182-5.319-27.707a91.4,91.4,0,0,1,8.007-28.007c3.84-8.159,9.4-15.438,10.981-24.526,2.093-12.008-3.389-23.55-4.66-35.329-2.533-23.448,13.314-44.109,32.972-55.266,15.967-9.062,34.686-12.461,53.043-12.22,16.522.218,33.015,3.149,49.025,7.09,15.429,3.8,30.514,8.8,46.686,7.224,13.45-1.313,25.564-6.9,38.09-11.065,29.9-9.945,66.131-11.348,93.477,3.791A75.431,75.431,0,0,1,392.413,182.3c3.991,12.427,5.175,26.715,2.25,39.292-3.286,14.131-9.357,26.578-7.754,41.464,1.316,12.215,4.272,24.168,5.406,36.514,1.1,11.96-5,31.5-29.2,29.912-.684-.045-6.482,1.1-6.962,1.592H54.713C47.842,327.372,38.984,322.459,34.83,315.854Z" transform="translate(-29.165 -100.379)"/><g transform="translate(22.541)"><path class="f" d="M73.4,301.344c-1.162-9.049,1.559-17.456,1.2-26.252-.686-16.914-16.225-28.592-21.64-43.8-6.857-19.253-6.527-40.827,1.8-59.589,4.013-9.042,9.875-17.446,17.881-23.256,12.34-8.959,28.511-10.923,43.718-9.787,22.632,1.691,46.514,11.1,69.269,8.537,12.558-1.417,16.392-14.474,22.877-23.088a74.565,74.565,0,0,1,28.367-22.487c20.34-9.381,44.752-10.269,65.54-1.762,22.195,9.081,41.54,31.259,40.268,56.34-.589,11.6-5.423,23.127-3.185,34.529,2.809,14.308,14.03,27.346,22.161,39a87.628,87.628,0,0,1,15.483,43.892c1.209,17.76-7.291,35.857-16.533,51.069H81.2A63.162,63.162,0,0,1,73.4,301.344Z" transform="translate(-48.137 -94)"/></g></g></g><ellipse class="g" cx="3.668" cy="3.668" rx="3.668" ry="3.668" transform="translate(16.797 300.996)"/><ellipse class="g" cx="3.668" cy="3.668" rx="3.668" ry="3.668" transform="translate(366.616 277.827)"/><ellipse class="h" cx="2.853" cy="2.853" rx="2.853" ry="2.853" transform="translate(63.706 322.737)"/><ellipse class="h" cx="3.668" cy="3.668" rx="3.668" ry="3.668" transform="translate(350.438 8.23)"/><ellipse class="g" cx="2.853" cy="2.853" rx="2.853" ry="2.853" transform="translate(230.285 4.298)"/><ellipse class="g" cx="1.223" cy="1.223" rx="1.223" ry="1.223" transform="translate(349.62 57.762)"/><path class="h" d="M318.73,47.554a4.405,4.405,0,1,0,3.388-5.228A4.4,4.4,0,0,0,318.73,47.554Z" transform="translate(-190.252 -42.228)"/><path class="h" d="M461.016,152.579a4.4,4.4,0,1,0,3.388-5.228A4.405,4.405,0,0,0,461.016,152.579Z" transform="translate(-448.528 -61.639)"/><path class="h" d="M106.448,455.211a4.4,4.4,0,1,0,3.388-5.228A4.405,4.405,0,0,0,106.448,455.211Z" transform="translate(195.078 -117.571)"/><path class="g" d="M297.074,77.823a1.468,1.468,0,1,0,1.129-1.743A1.469,1.469,0,0,0,297.074,77.823Z" transform="translate(-145.187 -48.478)"/></g><g transform="translate(29.375 4.406)"><g transform="translate(0 61.636)"><g class="i" transform="translate(0 117.823)"><path class="j" d="M304.663,332.877H421.248a2.214,2.214,0,0,0,2.211-2.211V269.989a2.213,2.213,0,0,0-2.211-2.21H304.663a2.212,2.212,0,0,0-2.21,2.21v60.677A2.213,2.213,0,0,0,304.663,332.877Zm116.585-63.467a.581.581,0,0,1,.58.58v60.677a.581.581,0,0,1-.58.58H304.663a.581.581,0,0,1-.58-.58V269.989a.581.581,0,0,1,.58-.58Z" transform="translate(-302.453 -267.779)"/><path class="k" d="M304.663,332.877H421.248a2.214,2.214,0,0,0,2.211-2.211V269.989a2.213,2.213,0,0,0-2.211-2.21H304.663a2.212,2.212,0,0,0-2.21,2.21v60.677A2.213,2.213,0,0,0,304.663,332.877Zm116.585-63.467a.581.581,0,0,1,.58.58v60.677a.581.581,0,0,1-.58.58H304.663a.581.581,0,0,1-.58-.58V269.989a.581.581,0,0,1,.58-.58Z" transform="translate(-302.453 -267.779)"/><g transform="translate(13.318 14.58)"><path class="j" d="M1.234,0H30.3a1.234,1.234,0,0,1,1.234,1.234v8.98A1.234,1.234,0,0,1,30.3,11.449H1.235A1.235,1.235,0,0,1,0,10.214V1.234A1.234,1.234,0,0,1,1.234,0Z" transform="translate(0)"/></g><g transform="translate(13.318 35.256)"><path class="j" d="M1.234,0H30.3a1.234,1.234,0,0,1,1.234,1.234v8.98A1.234,1.234,0,0,1,30.3,11.449H1.235A1.235,1.235,0,0,1,0,10.214V1.234A1.234,1.234,0,0,1,1.234,0Z" transform="translate(0)"/></g><path class="j" d="M322.621,329.293h51.764a.815.815,0,0,0,0-1.63H322.621a.815.815,0,0,0,0,1.63Z" transform="translate(-269.97 -278.847)"/><path class="j" d="M322.621,306h51.764a.815.815,0,0,0,0-1.63H322.621a.815.815,0,0,0,0,1.63Z" transform="translate(-269.97 -274.541)"/><path class="j" d="M351.885,317.646h27.908a.815.815,0,1,0,0-1.63H351.885a.815.815,0,0,0,0,1.63Z" transform="translate(-299.234 -276.694)"/><path class="j" d="M351.885,293.646h27.908a.815.815,0,0,0,0-1.63H351.885a.815.815,0,0,0,0,1.63Z" transform="translate(-299.234 -272.258)"/><path class="j" d="M363.033,282.528h18.821a.815.815,0,1,0,0-1.63H363.033a.815.815,0,1,0,0,1.63Z" transform="translate(-310.382 -270.204)"/></g><g class="i" transform="translate(197.794 51.739)"><path class="j" d="M62.025,251.809H178.61a2.212,2.212,0,0,0,2.21-2.21V188.922a2.212,2.212,0,0,0-2.21-2.21H62.025a2.212,2.212,0,0,0-2.211,2.21V249.6A2.212,2.212,0,0,0,62.025,251.809ZM178.61,188.342a.58.58,0,0,1,.58.58V249.6a.58.58,0,0,1-.58.58H62.025a.581.581,0,0,1-.58-.58V188.922a.581.581,0,0,1,.58-.58Z" transform="translate(-59.814 -186.712)"/><path class="k" d="M62.025,251.809H178.61a2.212,2.212,0,0,0,2.21-2.21V188.922a2.212,2.212,0,0,0-2.21-2.21H62.025a2.212,2.212,0,0,0-2.211,2.21V249.6A2.212,2.212,0,0,0,62.025,251.809ZM178.61,188.342a.58.58,0,0,1,.58.58V249.6a.58.58,0,0,1-.58.58H62.025a.581.581,0,0,1-.58-.58V188.922a.581.581,0,0,1,.58-.58Z" transform="translate(-59.814 -186.712)"/><g transform="translate(76.157 39.069)"><rect class="j" width="31.531" height="11.448" rx="1.234" transform="translate(0)"/></g><g transform="translate(76.157 18.393)"><path class="j" d="M1.234,0H30.3a1.234,1.234,0,0,1,1.234,1.234v8.979A1.235,1.235,0,0,1,30.3,11.449H1.235A1.235,1.235,0,0,1,0,10.214V1.234A1.234,1.234,0,0,1,1.234,0Z" transform="translate(0)"/></g><path class="j" d="M124.217,206.315h51.764a.815.815,0,0,0,0-1.63H124.217a.815.815,0,1,0,0,1.63Z" transform="translate(-107.626 -190.034)"/><path class="j" d="M124.217,229.609h51.764a.815.815,0,1,0,0-1.63H124.217a.815.815,0,1,0,0,1.63Z" transform="translate(-107.626 -194.339)"/><path class="j" d="M124.217,217.962h27.908a.815.815,0,1,0,0-1.63H124.217a.815.815,0,0,0,0,1.63Z" transform="translate(-83.77 -192.186)"/><path class="j" d="M124.217,241.962h27.908a.815.815,0,1,0,0-1.63H124.217a.815.815,0,1,0,0,1.63Z" transform="translate(-83.77 -196.622)"/><path class="j" d="M124.217,253.079h18.822a.815.815,0,0,0,0-1.63H124.217a.815.815,0,0,0,0,1.63Z" transform="translate(-74.684 -198.677)"/></g><g class="l" transform="translate(17.157 75.721)"><path class="j" d="M410.814,239.573a.577.577,0,0,0,.228-.048.571.571,0,0,0,.341-.522v-4.687h9.878a2.337,2.337,0,0,0,2.334-2.335V218.467a2.337,2.337,0,0,0-2.334-2.335H398.353a2.338,2.338,0,0,0-2.335,2.335v13.515a2.338,2.338,0,0,0,2.335,2.335h6.492l5.585,5.108A.569.569,0,0,0,410.814,239.573Zm.165-.752h0Zm10.281-21.875a1.52,1.52,0,0,1,1.519,1.52v13.515a1.521,1.521,0,0,1-1.519,1.52H411.138a.57.57,0,0,0-.57.569v4.375l-5.244-4.795a.565.565,0,0,0-.384-.149h-6.587a1.522,1.522,0,0,1-1.519-1.52V218.467a1.521,1.521,0,0,1,1.519-1.52Zm-16.489,17.3,0,0Z" transform="translate(-396.018 -216.132)"/><g transform="translate(5.982 7.712)"><path class="j" d="M404.834,229.515a1.962,1.962,0,1,0-1.962-1.962A1.964,1.964,0,0,0,404.834,229.515Zm0-3.108a1.147,1.147,0,1,1-1.147,1.146A1.148,1.148,0,0,1,404.834,226.407Z" transform="translate(-390.788 -225.592)"/><path class="j" d="M412.248,229.515a1.962,1.962,0,1,0-1.963-1.962A1.964,1.964,0,0,0,412.248,229.515Zm0-3.108a1.147,1.147,0,1,1-1.148,1.146A1.148,1.148,0,0,1,412.248,226.407Z" transform="translate(-404.245 -225.592)"/><path class="j" d="M419.657,229.515a1.962,1.962,0,1,0-1.962-1.962A1.964,1.964,0,0,0,419.657,229.515Zm0-3.108a1.147,1.147,0,1,1-1.147,1.146A1.148,1.148,0,0,1,419.657,226.407Z" transform="translate(-417.695 -225.592)"/></g></g><g class="l" transform="translate(276.052 161.473)"><path class="j" d="M90.878,345.13a.576.576,0,0,0,.388-.151l5.675-5.19h6.6a2.368,2.368,0,0,0,2.365-2.366V323.691a2.368,2.368,0,0,0-2.365-2.366H80.264a2.368,2.368,0,0,0-2.366,2.366v13.732a2.369,2.369,0,0,0,2.366,2.366H90.307v4.769a.572.572,0,0,0,.342.524A.564.564,0,0,0,90.878,345.13Zm-.162-.753h0ZM103.54,322.14a1.552,1.552,0,0,1,1.55,1.55v13.732a1.553,1.553,0,0,1-1.55,1.551H96.847a.569.569,0,0,0-.387.15l-5.338,4.881v-4.46a.572.572,0,0,0-.572-.571H80.264a1.553,1.553,0,0,1-1.55-1.551V323.691a1.552,1.552,0,0,1,1.55-1.55Zm-6.53,17.585h0Z" transform="translate(-77.898 -321.325)"/><g transform="translate(5.678 7.835)"><path class="j" d="M102.4,334.91a1.987,1.987,0,1,0-1.987-1.987A1.989,1.989,0,0,0,102.4,334.91Zm0-3.159a1.172,1.172,0,1,1-1.172,1.172A1.173,1.173,0,0,1,102.4,331.751Z" transform="translate(-100.415 -330.936)"/><path class="j" d="M94.87,334.91a1.987,1.987,0,1,0-1.987-1.987A1.989,1.989,0,0,0,94.87,334.91Zm0-3.159a1.172,1.172,0,1,1-1.172,1.172A1.173,1.173,0,0,1,94.87,331.751Z" transform="translate(-86.743 -330.936)"/><path class="j" d="M87.341,334.91a1.987,1.987,0,1,0-1.987-1.987A1.989,1.989,0,0,0,87.341,334.91Zm0-3.159a1.172,1.172,0,1,1-1.171,1.172A1.173,1.173,0,0,1,87.341,331.751Z" transform="translate(-73.076 -330.936)"/></g></g><path class="m" d="M393.754,248.539a2.313,2.313,0,1,0-2.314-2.313A2.316,2.316,0,0,0,393.754,248.539Zm0-3.812a1.5,1.5,0,1,1-1.5,1.5A1.5,1.5,0,0,1,393.754,244.727Z" transform="translate(-347.603 -145.545)"/><path class="m" d="M413.172,187.446a7.376,7.376,0,1,0-7.377-7.377A7.385,7.385,0,0,0,413.172,187.446Zm0-13.937a6.561,6.561,0,1,1-6.561,6.561A6.568,6.568,0,0,1,413.172,173.509Z" transform="translate(-383.784 -132.383)"/><path class="m" d="M92.858,288.706a2.314,2.314,0,1,0-2.313-2.314A2.317,2.317,0,0,0,92.858,288.706Zm0-3.813a1.5,1.5,0,1,1-1.5,1.5A1.5,1.5,0,0,1,92.858,284.893Z" transform="translate(198.577 -152.969)"/><path class="m" d="M142.078,369.963a2.313,2.313,0,1,0-2.313-2.313A2.317,2.317,0,0,0,142.078,369.963Zm0-3.812a1.5,1.5,0,1,1-1.5,1.5A1.5,1.5,0,0,1,142.078,366.151Z" transform="translate(109.234 -167.987)"/><g transform="translate(242.062 0)"><ellipse class="n" cx="13.482" cy="13.482" rx="13.482" ry="13.482" transform="translate(6.239 32.471) rotate(-103.379)"/><path class="o" d="M130.2,140.068a3.621,3.621,0,1,1,4.623,0,6.71,6.71,0,0,1,4.4,6.3c0,3.708-13.428,3.708-13.428,0A6.71,6.71,0,0,1,130.2,140.068Z" transform="translate(-116.277 -125.168)"/></g><g transform="translate(92.107 48.011)"><ellipse class="n" cx="12.308" cy="12.308" rx="12.308" ry="12.308" transform="translate(0)"/><path class="o" d="M319.306,194.416a3.305,3.305,0,1,1,4.22,0,6.127,6.127,0,0,1,4.02,5.749c0,3.385-12.26,3.385-12.26,0A6.127,6.127,0,0,1,319.306,194.416Z" transform="translate(-309.108 -183.327)"/></g></g><g transform="translate(52.39 10.888)"><path class="p" d="M136.089,155.415a29.5,29.5,0,0,1,13.667-23.457,3.255,3.255,0,0,0,1.046-4.41,25.773,25.773,0,0,1-3.413-14.685,25.068,25.068,0,0,1,14.487-21.316c-2.56-.752-4.174-1.327-4.174-1.327s5.89-31.39,37.012-29.113c22.452,1.643,32.082,12.638,36,23.771a2.691,2.691,0,0,0,1.3,1.528,15.763,15.763,0,0,1,8.616,13.521,3.279,3.279,0,0,0,2.155,2.967,30.822,30.822,0,0,1,18.96,37.006l0,.018a2.789,2.789,0,0,0,.891,2.886,48.019,48.019,0,1,1-73.478,58.642,27.338,27.338,0,0,0-24-14.99c-.144,0-.289-.006-.434-.011A29.113,29.113,0,0,1,136.089,155.415Z" transform="translate(-75.773 -60.989)"/><g transform="translate(0 78.734)"><path class="q" d="M320.681,328.939h0l.007-.007Z" transform="translate(-266.923 -189.245)"/><path class="r" d="M291.758,165.925l.3-.066a2.786,2.786,0,0,1,3.315,2.108l-.5-2.252a3.3,3.3,0,0,1,6.44-1.433l-.6-2.692a3.3,3.3,0,0,1,6.44-1.433l.352,1.58a3.3,3.3,0,0,1,6.44-1.434l5.095,22.886a4.182,4.182,0,0,0,1.346-2.556c.311-2.4,1.134-5.483,3.3-5.793,4.435-.633,7.271,6.754,6.448,19.516-.832,12.908-3.566,13.345-3.566,13.345l10.574,35.123.174.578,9.206-19.77,22.171,14.527-20.729,50.8a19.58,19.58,0,0,1-1.845,4.52l-.028.068-.011,0a19.483,19.483,0,0,1-2.733,3.72l-.007.007a19.54,19.54,0,0,1-1.961,1.829c-8.029,6.487-17.958,2.681-24.429-4.031-7.888-8.181-8.892-18.026-10.021-28.844-.928-8.894-3.967-38.017-4.559-43.685l-1-8.722s-8.524-7.968-7.215-24.361l-4.5-20.213A2.786,2.786,0,0,1,291.758,165.925Z" transform="translate(-289.584 -157.574)"/><path class="q" d="M314.87,261.6l2.591-5.565,8.173,41.4-.007.024c-.048-.2-.086-.4-.141-.592Z" transform="translate(-267.14 -175.771)"/><path class="s" d="M363.913,176.289a.481.481,0,0,0,.089-.009.408.408,0,0,0,.309-.487l-3-13.471a.408.408,0,1,0-.8.177l3,13.472A.408.408,0,0,0,363.913,176.289Z" transform="translate(-343.029 -158.393)"/><path class="s" d="M371.6,179.025a.408.408,0,0,0,.4-.5l-3-13.472a.408.408,0,1,0-.8.177l3,13.472A.409.409,0,0,0,371.6,179.025Z" transform="translate(-356.974 -158.898)"/><path class="s" d="M378.928,183.335a.468.468,0,0,0,.088-.009.41.41,0,0,0,.31-.487l-3-13.471a.408.408,0,1,0-.8.177l3,13.472A.408.408,0,0,0,378.928,183.335Z" transform="translate(-370.283 -159.695)"/><path class="s" d="M350.514,201.991a.408.408,0,0,0,.387-.534c-2.864-8.776,4.382-12.317,4.691-12.463a.408.408,0,0,0-.347-.738,10.756,10.756,0,0,0-5.119,13.455A.409.409,0,0,0,350.514,201.991Z" transform="translate(-325.501 -163.238)"/><g transform="translate(56.936 30.694)"><path class="r" d="M279.549,217.472c.068-.291.134-.576.2-.864C279.683,216.9,279.617,217.181,279.549,217.472Z" transform="translate(-249.399 -199.179)"/><path class="r" d="M279.082,215.487c.07-.3.138-.6.206-.9C279.22,214.888,279.152,215.183,279.082,215.487Z" transform="translate(-248.556 -198.807)"/><path class="r" d="M278.638,213.552c.07-.307.138-.607.206-.909C278.776,212.945,278.708,213.245,278.638,213.552Z" transform="translate(-247.75 -198.447)"/><path class="r" d="M278.238,211.691c.064-.284.125-.559.186-.837C278.363,211.132,278.3,211.408,278.238,211.691Z" transform="translate(-247.004 -198.116)"/><path class="r" d="M280.03,219.522l.2-.862Z" transform="translate(-250.274 -199.559)"/><path class="r" d="M277.847,209.874c.06-.271.116-.533.174-.8C277.963,209.341,277.906,209.6,277.847,209.874Z" transform="translate(-246.282 -197.787)"/><path class="r" d="M282.065,228.092c.083-.337.165-.669.247-1C282.23,227.422,282.148,227.755,282.065,228.092Z" transform="translate(-254.011 -201.117)"/><path class="r" d="M282.615,230.323l.25-1.008Z" transform="translate(-255.013 -201.528)"/><path class="r" d="M281.555,225.9c.074-.3.146-.6.219-.9C281.7,225.306,281.629,225.6,281.555,225.9Z" transform="translate(-253.058 -200.732)"/><path class="r" d="M281.023,223.71c.073-.3.145-.6.217-.9C281.168,223.112,281.1,223.409,281.023,223.71Z" transform="translate(-252.09 -200.326)"/><path class="r" d="M280.5,221.6l.232-.972Z" transform="translate(-251.15 -199.922)"/><path class="r" d="M276.83,204.863c.045-.221.086-.432.13-.647C276.916,204.431,276.875,204.642,276.83,204.863Z" transform="translate(-244.392 -196.889)"/><path class="r" d="M275.5,196.991c.024-.177.044-.339.065-.506C275.544,196.652,275.524,196.814,275.5,196.991Z" transform="translate(-241.913 -195.46)"/><path class="r" d="M275.651,198.087c.027-.172.049-.331.073-.495C275.7,197.756,275.678,197.915,275.651,198.087Z" transform="translate(-242.194 -195.665)"/><path class="r" d="M275.36,195.952c.03-.255.055-.5.076-.724C275.415,195.455,275.39,195.7,275.36,195.952Z" transform="translate(-241.669 -195.228)"/><path class="r" d="M275.822,199.26c.032-.189.06-.366.089-.548C275.882,198.894,275.854,199.071,275.822,199.26Z" transform="translate(-242.521 -195.872)"/><path class="r" d="M276.267,201.9c.04-.21.076-.408.112-.611C276.343,201.487,276.307,201.685,276.267,201.9Z" transform="translate(-243.352 -196.347)"/><path class="r" d="M283.174,232.583c.086-.343.171-.683.256-1.024C283.345,231.9,283.26,232.24,283.174,232.583Z" transform="translate(-256.033 -201.943)"/><path class="r" d="M277.145,206.465c.051-.238.1-.466.145-.7C277.242,206,277.2,206.227,277.145,206.465Z" transform="translate(-244.979 -197.176)"/><path class="r" d="M277.477,208.131c.056-.264.11-.52.165-.778C277.587,207.611,277.533,207.867,277.477,208.131Z" transform="translate(-245.602 -197.469)"/><path class="r" d="M276.036,200.538c.033-.187.063-.363.095-.544C276.1,200.175,276.069,200.35,276.036,200.538Z" transform="translate(-242.915 -196.109)"/><path class="r" d="M276.524,203.328c.045-.23.086-.449.13-.672C276.61,202.879,276.569,203.1,276.524,203.328Z" transform="translate(-243.836 -196.601)"/><path class="r" d="M285.509,241.82c.09-.348.179-.695.267-1.042C285.688,241.125,285.6,241.472,285.509,241.82Z" transform="translate(-260.283 -203.647)"/><path class="r" d="M284.9,239.51q.143-.563.286-1.122Q285.041,238.948,284.9,239.51Z" transform="translate(-259.193 -203.205)"/><path class="r" d="M287.935,251.256q.144-.554.289-1.109Q288.08,250.7,287.935,251.256Z" transform="translate(-264.709 -205.378)"/><path class="r" d="M284.338,237.194l.256-1.01Z" transform="translate(-258.146 -202.797)"/><path class="r" d="M287.319,248.887q.143-.55.287-1.1Q287.463,248.337,287.319,248.887Z" transform="translate(-263.588 -204.942)"/><path class="r" d="M286.737,246.57q.133-.514.266-1.025Q286.869,246.056,286.737,246.57Z" transform="translate(-262.511 -204.527)"/><path class="r" d="M286.151,244.178l.232-.9Z" transform="translate(-261.413 -204.108)"/><path class="r" d="M289.2,255.89q.12-.452.24-.908Q289.323,255.437,289.2,255.89Z" transform="translate(-266.961 -206.272)"/><path class="r" d="M288.541,253.6q.149-.566.3-1.133Q288.691,253.029,288.541,253.6Z" transform="translate(-265.817 -205.806)"/><path class="r" d="M283.766,234.868c.08-.319.16-.634.239-.951C283.926,234.234,283.846,234.55,283.766,234.868Z" transform="translate(-257.091 -202.379)"/><path class="t" d="M275.36,230.59c19.342-33.439,33.766-35.362,33.766-35.362-.02.227-.046.469-.076.724-.011.1-.026.2-.038.3-.021.167-.041.329-.065.506-.017.126-.038.265-.058.4-.024.164-.046.323-.073.495-.02.134-.045.28-.067.418-.029.182-.057.359-.089.548-.027.161-.057.332-.086.5-.032.181-.061.356-.095.544-.029.164-.063.338-.094.508-.037.2-.072.4-.112.611-.031.164-.064.338-.1.507-.043.223-.085.442-.13.672-.038.195-.08.4-.12.6s-.085.426-.13.647c-.041.2-.085.411-.127.616-.048.232-.095.461-.145.7-.041.195-.084.4-.126.6-.055.258-.109.514-.165.778-.045.205-.091.417-.136.626-.058.265-.114.527-.174.8-.047.214-.1.434-.145.651-.061.278-.122.554-.186.837-.046.2-.094.414-.14.621-.068.3-.136.6-.206.909-.051.223-.1.452-.156.678-.068.3-.136.593-.206.9-.057.246-.116.5-.174.748-.067.288-.133.573-.2.864-.063.267-.127.539-.191.809l-.2.862-.177.739-.232.973c-.064.268-.131.54-.2.812-.072.3-.143.6-.217.9s-.144.594-.217.893-.145.6-.219.9c-.065.265-.131.533-.2.8l-.247,1c-.067.269-.134.541-.2.812l-.25,1.008c-.068.272-.137.547-.205.821-.085.341-.17.681-.256,1.024q-.113.448-.227.9c-.079.317-.159.633-.239.951-.076.3-.152.6-.227.9-.086.337-.17.673-.256,1.01l-.2.787q-.143.56-.286,1.122c-.07.275-.141.551-.212.827-.089.347-.178.694-.267,1.042q-.127.5-.256.995l-.232.9q-.122.473-.245.947-.133.512-.266,1.026c-.069.267-.139.535-.209.8q-.143.551-.287,1.1l-.215.823q-.144.555-.289,1.109c-.068.259-.136.518-.2.778q-.148.567-.3,1.133l-.242.921q-.12.455-.24.908l-.071.268v0C295.743,251.872,275.36,230.59,275.36,230.59Z" transform="translate(-275.36 -195.228)"/></g><g transform="translate(63.513 26.669)"><path class="u" d="M128.4,256.067l12.652-34.6c.193-23.96,11.665-31.351,33.416-31.176l47.361.382a24.107,24.107,0,0,1,19.555,10.748l0,0,.024.039a27.786,27.786,0,0,1,1.95,3.28l31.727,53.351-.862.3L246.083,268.3l-.606,74.188H140.156l-3.491-53.729-5.869-9.287A26.914,26.914,0,0,1,128.4,256.067Z" transform="translate(-126.769 -190.29)"/><path class="j" d="M182.241,286.787a.411.411,0,0,0,.083-.008l9.247-1.912a.407.407,0,0,0,.316-.482.4.4,0,0,0-.482-.316l-8.861,1.832-7.493-31.1a.412.412,0,0,0-.492-.3.408.408,0,0,0-.3.492l7.586,31.484A.409.409,0,0,0,182.241,286.787Z" transform="translate(-82.282 -202.156)"/></g><g transform="translate(38.245 94.003)"><g transform="translate(0)"><path class="v" d="M317.308,292.99l-9.8,50.913a4.9,4.9,0,0,1-5.725,3.885l-78.817-15a4.9,4.9,0,0,1-3.9-5.681l9.055-50.186a4.9,4.9,0,0,1,5.685-3.95l79.561,14.275A4.9,4.9,0,0,1,317.308,292.99Z" transform="translate(-218.984 -272.89)"/><path class="w" d="M300.352,344.9a4.788,4.788,0,0,0,4.691-3.875l8.743-45.427a4.777,4.777,0,0,0-3.848-5.605L238.95,277.254a4.787,4.787,0,0,0-5.546,3.853l-8.08,44.778a4.8,4.8,0,0,0,3.809,5.542l70.325,13.385A4.717,4.717,0,0,0,300.352,344.9Zm-62.246-66.9a3.957,3.957,0,0,1,.7.063l70.988,12.737a3.962,3.962,0,0,1,3.191,4.649l-8.743,45.427a3.965,3.965,0,0,1-4.632,3.143l-70.325-13.386a3.976,3.976,0,0,1-3.159-4.6l8.08-44.777A3.97,3.97,0,0,1,238.105,277.993Z" transform="translate(-220.566 -273.683)"/><path class="w" d="M279.226,325.3a7.114,7.114,0,1,0-6.445-10.1h0a7.111,7.111,0,0,0,6.445,10.1Zm.014-13.415a6.317,6.317,0,1,1-2.175.39A6.267,6.267,0,0,1,279.24,311.885Z" transform="translate(-231.261 -279.947)"/></g><g transform="translate(54.947 0.772)"><path class="r" d="M104.566,323.928a2.775,2.775,0,0,1,2.309-1.445c-.02-.115-.032-.187-.032-.187-.05-.067-.091-.13-.138-.195l-1.162-.546a3.285,3.285,0,0,1-1.875-3.631,3.133,3.133,0,0,1,1.826-2.2l-.007,0a3.028,3.028,0,0,1-.92-4.912l.062-.063a3.391,3.391,0,0,1,3.76-.707c.127,0,.253,0,.375,0a3.178,3.178,0,0,1-.627-4.157,3.282,3.282,0,0,1,4.078-1.125L118,307.294l25.05,6.27,1.255-6.517,1,.6a33.059,33.059,0,0,1,9.778,8.968l2.174,3s24.22-7.527,39.736-12.312l-10.027-21.355,34.406-12.114,17.093,36.071a24.289,24.289,0,0,1,2.16,7.348c1.364,6.235-.143,11.152-3.557,15.048a17.754,17.754,0,0,1-6.874,5.789h0a15.227,15.227,0,0,1-2.64.959c-16.622,7.875-44.035,8.639-56.049,10.538-5.692.9-10.53,1.422-14.522,1.711a47.873,47.873,0,0,1-29.5-7.581c-7.821-5.07-15.448-11.079-17.048-12.927-.207-.24-.4-.495-.587-.755l-4.194-2.258a2.785,2.785,0,0,1-1.129-3.763Z" transform="translate(-103.595 -273.837)"/><path class="q" d="M153.748,303.635l-37.294,1.418,3.644,7.762Z" transform="translate(-26.702 -279.344)"/><g transform="translate(2.814 35.579)"><path class="s" d="M263.173,323.842a.408.408,0,0,0,.164-.781L250.7,317.516a.408.408,0,0,0-.328.747l12.639,5.545A.4.4,0,0,0,263.173,323.842Z" transform="translate(-248.315 -317.483)"/><path class="s" d="M265.394,331.4a.408.408,0,0,0,.165-.781l-12.639-5.544a.408.408,0,0,0-.329.747l12.639,5.544A.42.42,0,0,0,265.394,331.4Z" transform="translate(-252.348 -318.88)"/><path class="s" d="M265.112,339.645a.407.407,0,0,0,.175-.775l-12.466-5.923a.407.407,0,0,0-.351.735l12.466,5.923A.407.407,0,0,0,265.112,339.645Z" transform="translate(-251.976 -320.334)"/></g></g></g></g><g transform="translate(81.95 29.801)"><g transform="translate(3.644)"><g transform="translate(0)"><path class="r" d="M194.349,102.794a29.3,29.3,0,0,1,.607-3.706c9.12,2.422,24.5,5.25,29.289-1.542,3.919,2.594,6.107,8.346,7.324,14.116a15.549,15.549,0,0,0,.778,2.57c3.314,8.3,13.478,11.432,21.175,6.9l.011-.007.56-4.985.633.061a11.394,11.394,0,0,1,10.218,12.4h0a11.394,11.394,0,0,1-12.4,10.218l-.742-.072a29.312,29.312,0,0,1-2,7.392,16.041,16.041,0,0,1,.179,2.269v27.75a16.21,16.21,0,0,1-32.421,0V163.7a29.338,29.338,0,0,1-20.354-14.333,28.984,28.984,0,0,1-5.429-19.894Z" transform="translate(-191.643 -97.547)"/></g><path class="q" d="M228.564,170.334h0a29.105,29.105,0,0,0,31.38-23.513,8.785,8.785,0,0,1,2.475,1.03,29.223,29.223,0,0,1-4.664,12.334,16.089,16.089,0,0,1,.174,2.642h0a16.257,16.257,0,0,1-16.578,15.832h0A16.162,16.162,0,0,1,229.463,173a29.342,29.342,0,0,1-21.646-14.533A29.023,29.023,0,0,0,228.564,170.334Z" transform="translate(-202.251 -106.651)"/></g><g transform="translate(0 6.494)"><path class="s" d="M205.115,136.374a.407.407,0,0,0,.221-.75l-3.875-2.49,4.2-4.737a.407.407,0,0,0-.61-.54l-4.514,5.093a.407.407,0,0,0,.085.613l4.275,2.746A.406.406,0,0,0,205.115,136.374Z" transform="translate(-135.931 -109.618)"/><g transform="translate(22.337 30.636)"><g transform="translate(0)"><path class="s" d="M256.98,161.363a.407.407,0,0,0,.255-.726,4.867,4.867,0,0,0-5.425-.333.408.408,0,0,0,.439.687,3.972,3.972,0,0,1,4.477.284A.408.408,0,0,0,256.98,161.363Z" transform="translate(-251.623 -146.145)"/><path class="j" d="M241.565,152.521l4.861.112a8.152,8.152,0,0,0,8.337-7.962l.029-1.23-15.036-.346-.169,7.354A2.025,2.025,0,0,0,241.565,152.521Z" transform="translate(-239.214 -143.095)"/></g></g><g transform="translate(0 6.579)"><rect class="p" width="2.643" height="3.965" rx="1.322" transform="translate(35.279 11.715) rotate(-174.494)"/><path class="p" d="M1.322,0h0A1.322,1.322,0,0,1,2.643,1.322V2.644A1.321,1.321,0,0,1,1.322,3.965h0A1.322,1.322,0,0,1,0,2.643V1.322A1.322,1.322,0,0,1,1.322,0Z" transform="matrix(-0.994, -0.108, 0.108, -0.994, 16.311, 11.858)"/><path class="s" d="M261.6,137.281a.815.815,0,0,0,.191-1.608l-3.292-.8a.482.482,0,0,1-.353-.58l3.364-13.982a.816.816,0,0,0-1.586-.382l-3.364,13.983a2.115,2.115,0,0,0,1.556,2.545l3.293.8A.82.82,0,0,0,261.6,137.281Z" transform="translate(-238.291 -114.641)"/><path class="j" d="M242.463,133.842a10.131,10.131,0,0,0,9.945-8.343h0a10.126,10.126,0,1,0-11.753,8.181A10.221,10.221,0,0,0,242.463,133.842Zm-.04-18.627a8.548,8.548,0,0,1,1.517.136,8.5,8.5,0,0,1,6.864,9.861h0a8.494,8.494,0,1,1-8.381-10Z" transform="translate(-208.727 -113.584)"/><path class="j" d="M271.4,134.3a10.155,10.155,0,1,0-1.808-.161A10.218,10.218,0,0,0,271.4,134.3Zm-.025-18.625a8.576,8.576,0,0,1,1.5.134,8.5,8.5,0,0,1,6.864,9.862h0a8.5,8.5,0,1,1-8.366-10Z" transform="translate(-261.246 -113.669)"/><path class="j" d="M260.666,127.029a.815.815,0,0,0,.064-1.628l-3.632-.289a.815.815,0,0,0-.129,1.625l3.632.289Z" transform="translate(-237.124 -115.714)"/></g><g transform="translate(7.45)"><g transform="translate(0)"><g transform="translate(22.437 1.518)"><path class="p" d="M246.654,111.736a4.867,4.867,0,0,1-2-.318c-.69-.205-1.39-.4-2-.539s-1.325-.285-2.036-.408a4.84,4.84,0,0,1-1.93-.6c-.475-.346-.54-1.035.268-1.674a5.588,5.588,0,0,1,4.528-.628,5.42,5.42,0,0,1,3.727,2.562C247.623,111.055,247.24,111.638,246.654,111.736Z" transform="translate(-238.334 -107.375)"/></g><g transform="translate(0)"><path class="p" d="M266.631,109.947a4.9,4.9,0,0,0,2-.347c.688-.217,1.384-.417,1.995-.569s1.321-.3,2.03-.438a4.843,4.843,0,0,0,1.921-.633c.47-.353.524-1.043-.293-1.669a5.585,5.585,0,0,0-4.536-.561,5.42,5.42,0,0,0-3.689,2.618C265.652,109.279,266.044,109.857,266.631,109.947Z" transform="translate(-265.89 -105.514)"/></g></g></g><path class="s" d="M245.874,128.657a.407.407,0,0,0,.233-.742c-.112-.077-2.771-1.89-4.938-.373a.408.408,0,1,0,.468.668c1.7-1.189,3.982.359,4.006.375A.406.406,0,0,0,245.874,128.657Z" transform="translate(-209.516 -109.473)"/><path class="s" d="M269.721,129.106a.408.408,0,0,0,.232-.743c-.112-.077-2.771-1.891-4.938-.373a.408.408,0,0,0,.468.668c1.7-1.2,3.982.359,4,.375A.409.409,0,0,0,269.721,129.106Z" transform="translate(-252.803 -109.556)"/></g></g></g><g transform="translate(21.235)"><path class="x" d="M366.065,47.633a39.105,39.105,0,0,1,32.443,60.931c.016.117.258,1.311.414,2.114.73,3.014,2.615,8.537,7.133,12.49,3.5,2.948-6.906,5.285-14.4.337a14.578,14.578,0,0,1-4.107-4.034c-.011-.015-.02-.03-.029-.046a39.1,39.1,0,1,1-21.456-71.792Z" transform="translate(-326.964 -47.633)"/><g transform="translate(16.205 22.666)"><g transform="translate(0 0)"><path class="j" d="M352.954,75.438h4.162a1.535,1.535,0,0,1,1.534,1.534v4.941a1.521,1.521,0,0,0,2.4,1.23l.029-.02a6.335,6.335,0,0,1,3.628-.985,6.659,6.659,0,0,1,5.157,2.006,7.853,7.853,0,0,1,1.846,5.527v11.867a1.534,1.534,0,0,1-1.535,1.534h-4.161a1.534,1.534,0,0,1-1.535-1.534V91.981a3.737,3.737,0,0,0-.784-2.574,2.639,2.639,0,0,0-2.056-.871,2.86,2.86,0,0,0-2.15.871,3.568,3.568,0,0,0-.84,2.574v9.558a1.534,1.534,0,0,1-1.534,1.534h-4.162a1.534,1.534,0,0,1-1.534-1.534V76.972A1.535,1.535,0,0,1,352.954,75.438Z" transform="translate(-351.42 -75.438)"/><path class="j" d="M383.512,75.438h2.234a2.651,2.651,0,0,1,2.65,2.65h0a2.651,2.651,0,0,1-2.65,2.65h-2.234a2.651,2.651,0,0,1-2.65-2.65h0A2.651,2.651,0,0,1,383.512,75.438Zm.152,7.155h1.93a2.651,2.651,0,0,1,2.65,2.65v15.18a2.65,2.65,0,0,1-2.65,2.65h-1.93a2.65,2.65,0,0,1-2.65-2.65V85.243A2.65,2.65,0,0,1,383.664,82.593Z" transform="translate(-356.861 -75.438)"/><path class="j" d="M394.934,79.886V79.03a2.2,2.2,0,0,1,2.2-2.2h3.782a2.2,2.2,0,0,1,2.2,2.2v.856a2.177,2.177,0,0,1-.024.325L401.2,92.827a2.2,2.2,0,0,1-2.174,1.872h0a2.2,2.2,0,0,1-2.173-1.872l-1.891-12.617A2.283,2.283,0,0,1,394.934,79.886Zm2.538,17.01h3.1a2.2,2.2,0,0,1,2.2,2.2v2.04a2.2,2.2,0,0,1-2.2,2.2h-3.1a2.2,2.2,0,0,1-2.2-2.2v-2.04A2.2,2.2,0,0,1,397.472,96.9Z" transform="translate(-359.462 -75.696)"/></g></g></g><g transform="translate(52.322 248.949)"><g transform="translate(0)"><path class="y" d="M360.612,401.441H332.335a4.6,4.6,0,0,1-4.6-4.6V353.959a.935.935,0,0,1,.935-.935h35.758a.791.791,0,0,1,.791.792v43.022A4.6,4.6,0,0,1,360.612,401.441Z" transform="translate(-317.138 -353.024)"/><path class="y" d="M378.594,393.579h3.444v-2.446h-3.444a6.272,6.272,0,0,1-6.265-6.265V371.73a6.271,6.271,0,0,1,6.265-6.265H383.6V363.02h-5.006a8.721,8.721,0,0,0-8.711,8.71v13.137A8.721,8.721,0,0,0,378.594,393.579Z" transform="translate(-369.883 -354.871)"/><path class="z" d="M355.424,401.441H335.4a4.6,4.6,0,0,1-4.6-4.6V353.959a.936.936,0,0,1,.935-.935h27.507a.791.791,0,0,1,.791.792v43.022A4.6,4.6,0,0,1,355.424,401.441Z" transform="translate(-314.447 -353.024)"/><path class="aa" d="M342.437,401.441H330.8V353.024h15.454a.791.791,0,0,1,.791.792v43.022A4.6,4.6,0,0,1,342.437,401.441Z" transform="translate(-301.459 -353.024)"/></g><g transform="translate(51.089 25.518)"><path class="p" d="M319.478,386.053l-.4,1.258-1.005,3.181-.4,1.258-.016.05-3.12-1,1.812-5.738-.157-.049,0-.014,2.752.881.525.168Z" transform="translate(-311.739 -384.452)"/><path class="aa" d="M321.141,390.764l0,.006-1.6-.5a1.664,1.664,0,0,1-1.1-2.08l.855-2.706a1.664,1.664,0,0,1,2.095-1.071l1.44.455.157.05Z" transform="translate(-318.365 -384.328)"/><path class="v" d="M282.7,387.545l27.935,8.851-.033.1-1.009.382a1.077,1.077,0,0,0-.47,1.672l.589.761-.1.324L281.694,390.8Z" transform="translate(-276.115 -384.922)"/><path class="ab" d="M283.279,404.012h0Z" transform="translate(-250.05 -387.966)"/><path class="ac" d="M283.349,391.532l27.914,8.845-.406,1.283-27.906-8.842Z" transform="translate(-277.77 -385.659)"/><path class="ac" d="M281.594,385.968l27.942,8.854-.405,1.283L281.2,387.254Z" transform="translate(-274.614 -384.631)"/><path class="ad" d="M277.78,402.676l0,0-.139-.043v0l.406-1.283.1-.324-.589-.761a1.077,1.077,0,0,1,.47-1.672l1.009-.382.033-.1.405-1.283,0,0,.011-.036.282.089,2.859,2.675-.831,2.631-3.893.54Z" transform="translate(-244.552 -386.629)"/><path class="v" d="M277.653,401.076a.883.883,0,0,1-.47,1.485l-1.235.241.831-2.631Z" transform="translate(-238.703 -387.256)"/></g><path class="aa" d="M307,411.986a1.822,1.822,0,0,0,.064.983l.19.543a1.715,1.715,0,0,0,2.153,1.056l7.217-2.41a1.5,1.5,0,0,0,.9-2.022l-.157-.357a1.489,1.489,0,0,0-1.842-.8l-6.124,2.128a1.242,1.242,0,0,0-.755,1.615l.06.157a1.135,1.135,0,0,0,1.431.676l4.38-1.484a.159.159,0,0,0-.1-.3l-4.38,1.484a.82.82,0,0,1-1.033-.487l-.06-.157a.926.926,0,0,1,.562-1.2l6.124-2.128a1.171,1.171,0,0,1,1.448.631l.157.357a1.178,1.178,0,0,1-.705,1.593l-7.217,2.411a1.4,1.4,0,0,1-1.753-.859l-.191-.544a1.531,1.531,0,0,1,.911-1.934l4.761-1.753a.159.159,0,0,0-.109-.3l-4.761,1.753A1.847,1.847,0,0,0,307,411.986Z" transform="translate(-252.629 -363.345)"/><path class="aa" d="M288,421.345a1.815,1.815,0,0,0,.631.756l.475.326a1.715,1.715,0,0,0,2.36-.42l4.4-6.208a1.5,1.5,0,0,0-.472-2.16l-.338-.195a1.49,1.49,0,0,0-1.961.44l-3.684,5.335a1.243,1.243,0,0,0,.345,1.749l.141.091a1.136,1.136,0,0,0,1.555-.3l2.657-3.785a.159.159,0,0,0-.26-.183l-2.657,3.785a.819.819,0,0,1-1.122.217l-.141-.091a.927.927,0,0,1-.257-1.3l3.685-5.335a1.169,1.169,0,0,1,1.541-.346l.337.195a1.179,1.179,0,0,1,.372,1.7l-4.4,6.208a1.4,1.4,0,0,1-1.922.342l-.475-.326a1.531,1.531,0,0,1-.407-2.1l2.806-4.227a.159.159,0,1,0-.265-.175l-2.805,4.227A1.846,1.846,0,0,0,288,421.345Z" transform="translate(-215.532 -364.154)"/></g></g></g></svg>