<svg xmlns="http://www.w3.org/2000/svg" xmlns:xlink="http://www.w3.org/1999/xlink" width="99" height="99.048" viewBox="0 0 99 99.048"><defs><style>.a{fill-rule:evenodd;fill:url(#a);}.b{fill:url(#b);}.c{fill:#fff;}</style><linearGradient id="a" x1="0.5" y1="-0.011" x2="0.5" y2="0.84" gradientUnits="objectBoundingBox"><stop offset="0" stop-color="#2575db"/><stop offset="1" stop-color="#582994"/></linearGradient><linearGradient id="b" x1="0.345" y1="0.109" x2="0.837" y2="1.177" gradientUnits="objectBoundingBox"><stop offset="0" stop-color="#2575db"/><stop offset="0.77" stop-color="#582994"/></linearGradient></defs><g transform="translate(-1125 -641)"><g transform="translate(1125 641)"><path class="a" d="M100,50.467A49.5,49.5,0,0,1,6.544,73.258c-.139-.271-.274-.541-.41-.812a49.559,49.559,0,0,1,2.19-47.9,48.555,48.555,0,0,1,3.109-4.483A49.5,49.5,0,0,1,99.925,47.736Q100,49.1,100,50.467Z" transform="translate(-0.999 -0.951)"/><path class="b" d="M105.791,24.347,89.029,68.28l-49.856.712L21.57,24.554a48.556,48.556,0,0,1,3.109-4.483,49.492,49.492,0,0,1,81.112,4.277Z" transform="translate(-14.245 -0.959)"/></g><g transform="translate(1150.179 666.179)"><g transform="translate(0)"><path class="c" d="M43.622,51.833,37.694,69.059a19.758,19.758,0,0,0,12.143-.315,1.754,1.754,0,0,1-.14-.272Z" transform="translate(-19.267 -27.104)"/><path class="c" d="M10.272,40.976A19.761,19.761,0,0,0,21.409,58.758L11.984,32.935A19.688,19.688,0,0,0,10.272,40.976Z" transform="translate(-4.962 -17.977)"/><path class="c" d="M46.406,29.033a10.414,10.414,0,0,0-1.628-5.45c-1-1.628-1.941-3.005-1.941-4.633a3.421,3.421,0,0,1,3.318-3.507c.088,0,.171.011.256.015a19.754,19.754,0,0,0-29.851,3.72c.463.014.9.024,1.271.024,2.067,0,5.267-.251,5.267-.251a.816.816,0,0,1,.127,1.626s-1.071.126-2.261.189l7.194,21.4L32.482,29.2,29.4,20.766c-1.064-.063-2.072-.189-2.072-.189a.816.816,0,0,1,.125-1.626s3.264.251,5.2.251c2.066,0,5.267-.251,5.267-.251a.816.816,0,0,1,.126,1.626s-1.072.126-2.261.189l7.141,21.24L44.9,35.42C45.757,32.687,46.406,30.724,46.406,29.033Z" transform="translate(-8.872 -4.961)"/><path class="c" d="M75.107,30.153a15.186,15.186,0,0,1,.133,2.032,18.633,18.633,0,0,1-1.5,7.077L67.7,56.711a19.758,19.758,0,0,0,7.4-26.558Z" transform="translate(-34.769 -15.932)"/><path class="c" d="M24.036,0A24.035,24.035,0,1,0,48.07,24.035,24.035,24.035,0,0,0,24.036,0Zm0,45.1A21.069,21.069,0,1,1,45.1,24.034,21.092,21.092,0,0,1,24.037,45.1Z" transform="translate(-0.001)"/></g></g></g></svg>